<?xml version="1.0" standalone="no"?>
<!DOCTYPE svg PUBLIC "-//W3C//DTD SVG 1.1//EN" "http://www.w3.org/Graphics/SVG/1.1/DTD/svg11.dtd" >
<svg xmlns="http://www.w3.org/2000/svg" xmlns:xlink="http://www.w3.org/1999/xlink" version="1.1">
<metadata>
Created by FontForge 20161003 at Tue Nov 13 07:14:09 2018
 By www-data
Copyright 2011 The Comfortaa Project Authors (aajohan@gmail.com), with Reserved Font Name "Comfortaa".
</metadata>
<defs>
<font id="ComfortaaLight" horiz-adv-x="679" >
  <font-face 
    font-family="ComfortaaLight"
    font-weight="300"
    font-stretch="normal"
    units-per-em="1000"
    panose-1="0 0 4 0 0 0 0 0 0 0"
    ascent="800"
    descent="-200"
    x-height="547"
    cap-height="781"
    bbox="-832 -251 1263 1270"
    underline-thickness="50"
    underline-position="-150"
    unicode-range="U+000D-FB02"
  />
<missing-glyph horiz-adv-x="625" 
d="M575 775q6 -6 6 -14v-741q0 -8 -6 -14t-14 -6h-501q-9 0 -14.5 6t-5.5 14v741q0 8 5.5 14t14.5 6h501q8 0 14 -6zM80 741v-701h461v701h-461zM385 581q-29 26 -75 26q-45 0 -74 -28.5t-29 -74.5q0 -10 -7 -17t-18 -7t-18 7t-7 17q0 67 43 110t110 43t110.5 -41.5
t43.5 -104.5q0 -42 -17.5 -69.5t-55.5 -62.5l-22 -22q-33 -32 -33 -82q0 -11 -7.5 -18.5t-18.5 -7.5t-18 7.5t-7 18.5q0 27 12.5 57.5t32.5 50.5l22 21q32 30 47 52.5t15 57.5q0 41 -29 67zM338 195q11 -11 11 -27t-11.5 -27t-27.5 -11t-26.5 11t-10.5 27t10.5 27t26.5 11
q17 0 28 -11z" />
    <glyph glyph-name="fi" unicode="fi" horiz-adv-x="589" 
d="M347.5 519.5q7.5 -7.5 7.5 -19.5t-7.5 -19.5t-19.5 -7.5h-132v-443q0 -13 -9 -21.5t-22 -8.5t-21.5 8.5t-8.5 21.5v443h-78q-12 0 -19.5 7.5t-7.5 19.5t7.5 19.5t19.5 7.5h78v31q0 100 48.5 161.5t155.5 61.5q60 0 108 -17.5t48 -50.5q0 -21 -12 -31.5t-33 -10.5
q-11 0 -21 5.5t-26 17.5q-19 16 -35.5 24.5t-39.5 8.5q-66 0 -99 -40t-33 -129v-31h132q12 0 19.5 -7.5zM480 539q8 -8 8 -22v-487q0 -13 -8 -21.5t-22 -8.5q-13 0 -21.5 8.5t-8.5 21.5v487q0 14 8.5 22t21.5 8q14 0 22 -8z" />
    <glyph glyph-name="fl" unicode="fl" horiz-adv-x="638" 
d="M611 52q7 -8 7 -22q0 -13 -8 -21.5t-22 -8.5h-20q-57 0 -93.5 46t-36.5 119v542q-59 18 -89 18q-78 0 -115.5 -37t-37.5 -121v-40h132q12 0 19.5 -7.5t7.5 -19.5t-7.5 -19.5t-19.5 -7.5h-132v-443q0 -13 -9 -21.5t-22 -8.5t-21.5 8.5t-8.5 21.5v443h-78q-12 0 -19.5 7.5
t-7.5 19.5t7.5 19.5t19.5 7.5h78v50q0 90 54 147t155 57q49 0 98 -15q6 15 26 15q14 0 22 -8t8 -22v-586q0 -46 19.5 -75.5t50.5 -29.5h25q11 0 18 -8z" />
    <glyph glyph-name="f_f" unicode="ff" horiz-adv-x="730" 
d="M229 678.5q-33 -48.5 -33 -130.5v-21h132q12 0 19.5 -7.5t7.5 -19.5t-7.5 -19.5t-19.5 -7.5h-132v-443q0 -13 -8.5 -21.5t-22.5 -8.5q-13 0 -21.5 8.5t-8.5 21.5v443h-78q-12 0 -19.5 7.5t-7.5 19.5t7.5 19.5t19.5 7.5h78v21q0 107 50 170t150 63q13 0 21.5 -7.5
t8.5 -19.5t-8.5 -19.5t-21.5 -7.5q-73 0 -106 -48.5zM594 678.5q-33 -48.5 -33 -130.5v-21h132q12 0 19.5 -7.5t7.5 -19.5t-7.5 -19.5t-19.5 -7.5h-132v-443q0 -13 -8.5 -21.5t-22.5 -8.5q-13 0 -21.5 8.5t-8.5 21.5v443h-78q-12 0 -19.5 7.5t-7.5 19.5t7.5 19.5t19.5 7.5
h78v21q0 107 50 170t150 63q13 0 21.5 -7.5t8.5 -19.5t-8.5 -19.5t-21.5 -7.5q-73 0 -106 -48.5z" />
    <glyph glyph-name="f_f_i" unicode="ffi" horiz-adv-x="1010" 
d="M229 678.5q-33 -48.5 -33 -130.5v-21h132q12 0 19.5 -7.5t7.5 -19.5t-7.5 -19.5t-19.5 -7.5h-132v-443q0 -13 -8.5 -21.5t-22.5 -8.5q-13 0 -21.5 8.5t-8.5 21.5v443h-78q-12 0 -19.5 7.5t-7.5 19.5t7.5 19.5t19.5 7.5h78v21q0 107 50 170t150 63q13 0 21.5 -7.5
t8.5 -19.5t-8.5 -19.5t-21.5 -7.5q-73 0 -106 -48.5zM594 678.5q-33 -48.5 -33 -130.5v-21h132q12 0 19.5 -7.5t7.5 -19.5t-7.5 -19.5t-19.5 -7.5h-132v-443q0 -13 -8.5 -21.5t-22.5 -8.5q-13 0 -21.5 8.5t-8.5 21.5v443h-78q-12 0 -19.5 7.5t-7.5 19.5t7.5 19.5t19.5 7.5
h78v21q0 107 50 170t150 63q13 0 21.5 -7.5t8.5 -19.5t-8.5 -19.5t-21.5 -7.5q-73 0 -106 -48.5zM848.5 8.5q-8.5 8.5 -8.5 21.5v487q0 14 8.5 22t21.5 8q14 0 22 -8t8 -22v-487q0 -13 -8 -21.5t-22 -8.5q-13 0 -21.5 8.5zM836 675.5q-13 13.5 -13 33.5q0 22 14 34t33 12
t32.5 -12t13.5 -34q0 -20 -13.5 -33.5t-33.5 -13.5t-33 13.5z" />
    <glyph glyph-name="f_f_l" unicode="ffl" horiz-adv-x="1000" 
d="M229 678.5q-33 -48.5 -33 -130.5v-21h132q12 0 19.5 -7.5t7.5 -19.5t-7.5 -19.5t-19.5 -7.5h-132v-443q0 -13 -8.5 -21.5t-22.5 -8.5q-13 0 -21.5 8.5t-8.5 21.5v443h-78q-12 0 -19.5 7.5t-7.5 19.5t7.5 19.5t19.5 7.5h78v21q0 107 50 170t150 63q13 0 21.5 -7.5
t8.5 -19.5t-8.5 -19.5t-21.5 -7.5q-73 0 -106 -48.5zM594 678.5q-33 -48.5 -33 -130.5v-21h132q12 0 19.5 -7.5t7.5 -19.5t-7.5 -19.5t-19.5 -7.5h-132v-443q0 -13 -8.5 -21.5t-22.5 -8.5q-13 0 -21.5 8.5t-8.5 21.5v443h-78q-12 0 -19.5 7.5t-7.5 19.5t7.5 19.5t19.5 7.5
h78v21q0 107 50 170t150 63q13 0 21.5 -7.5t8.5 -19.5t-8.5 -19.5t-21.5 -7.5q-73 0 -106 -48.5zM836.5 46q-36.5 46 -36.5 119v586q0 14 8.5 22t21.5 8q14 0 22 -8t8 -22v-586q0 -46 19.5 -75.5t50.5 -29.5h25q11 0 18 -8t7 -22q0 -13 -8 -21.5t-22 -8.5h-20
q-57 0 -93.5 46z" />
    <glyph glyph-name=".notdef" horiz-adv-x="625" 
d="M575 775q6 -6 6 -14v-741q0 -8 -6 -14t-14 -6h-501q-9 0 -14.5 6t-5.5 14v741q0 8 5.5 14t14.5 6h501q8 0 14 -6zM80 741v-701h461v701h-461zM385 581q-29 26 -75 26q-45 0 -74 -28.5t-29 -74.5q0 -10 -7 -17t-18 -7t-18 7t-7 17q0 67 43 110t110 43t110.5 -41.5
t43.5 -104.5q0 -42 -17.5 -69.5t-55.5 -62.5l-22 -22q-33 -32 -33 -82q0 -11 -7.5 -18.5t-18.5 -7.5t-18 7.5t-7 18.5q0 27 12.5 57.5t32.5 50.5l22 21q32 30 47 52.5t15 57.5q0 41 -29 67zM338 195q11 -11 11 -27t-11.5 -27t-27.5 -11t-26.5 11t-10.5 27t10.5 27t26.5 11
q17 0 28 -11z" />
    <glyph glyph-name=".null" horiz-adv-x="0" 
 />
    <glyph glyph-name="nonmarkingreturn" unicode="&#xd;" horiz-adv-x="293" 
 />
    <glyph glyph-name="NULL" horiz-adv-x="0" 
 />
    <glyph glyph-name="NULL" horiz-adv-x="0" 
 />
    <glyph glyph-name="space" unicode=" " horiz-adv-x="293" 
 />
    <glyph glyph-name="exclam" unicode="!" horiz-adv-x="251" 
d="M79.5 181q-9.5 9 -9.5 21v549q0 13 9 22t22 9t21.5 -9t8.5 -22v-549q0 -12 -9 -21t-21 -9t-21.5 9zM64.5 14.5q-14.5 14.5 -14.5 36.5q0 21 15 35.5t36 14.5t35.5 -14.5t14.5 -35.5t-14.5 -36t-35.5 -15q-22 0 -36.5 14.5z" />
    <glyph glyph-name="quotedbl" unicode="&#x22;" horiz-adv-x="273" 
d="M64 585q-6 6 -6 14l-10 152q0 13 9 22t22 9t21.5 -9t8.5 -22l-10 -152q0 -8 -6 -14t-14 -6q-9 0 -15 6zM186 585q-6 6 -6 14l-11 152q0 13 9 22t22 9t21.5 -9t8.5 -22l-10 -152q0 -8 -6 -14t-14 -6t-14 6z" />
    <glyph glyph-name="numbersign" unicode="#" horiz-adv-x="729" 
d="M677 535.5q7 -6.5 7 -15.5q0 -14 -9 -21t-29 -7h-88l-34 -193h94q12 0 18 -6.5t6 -16.5q0 -12 -9.5 -19.5t-28.5 -7.5h-89l-38 -217q-3 -15 -13.5 -23.5t-24.5 -8.5q-24 0 -24 20q0 5 1 8l39 221h-222l-39 -217q-2 -14 -13 -23t-24 -9q-12 0 -19 8t-5 20l39 221h-94
q-11 0 -17 6.5t-6 16.5q0 13 9 20t23 7h94l34 193h-90q-28 0 -28 25q0 11 9.5 18t25.5 7h92l38 216q2 13 13.5 22.5t24.5 9.5q12 0 18.5 -8t4.5 -21l-39 -219h223l38 216q2 13 13 22.5t24 9.5q14 0 19.5 -8.5t3.5 -20.5l-38 -219h90q13 0 20 -6.5zM464 299l33 193h-222
l-34 -193h223z" />
    <glyph glyph-name="dollar" unicode="$" horiz-adv-x="572" 
d="M472.5 54.5q-58.5 -55.5 -157.5 -63.5v-62q0 -13 -6 -19.5t-15 -6.5t-15 6.5t-6 19.5v61q-79 4 -137.5 41.5t-85.5 99.5q-3 6 -3 12q0 12 8 20t20 8q8 0 15 -5t11 -14q20 -46 65 -73.5t107 -30.5v332q-93 19 -146.5 73.5t-53.5 136.5q0 79 55 128t145 56v48q0 13 6 19.5
t15 6.5t15 -6.5t6 -19.5v-48q64 -4 116.5 -37t75.5 -78q4 -7 4 -16q0 -8 -4 -14.5t-11 -9.5q-3 -2 -11 -2q-16 0 -25 14q-20 34 -56 58t-89 27v-291q216 -44 216 -224q0 -91 -58.5 -146.5zM165 493.5q33 -40.5 108 -59.5v282q-67 -5 -104 -37t-37 -92q0 -53 33 -93.5z
M430 95q41 39 41 106q0 65 -39.5 109.5t-116.5 61.5v-323q74 7 115 46z" />
    <glyph glyph-name="percent" unicode="%" horiz-adv-x="859" 
d="M138.5 423q-44.5 26 -70.5 70.5t-26 96.5t26 96t70.5 70t96.5 26t96 -26t70.5 -70t26.5 -96q0 -53 -26 -97t-70.5 -70t-96.5 -26t-96.5 26zM132.5 8.5q-8.5 8.5 -8.5 21.5q0 11 7 21l565 718q13 13 25 13q13 0 21.5 -9t8.5 -22q0 -12 -5 -18l-568 -722q-13 -11 -24 -11
q-13 0 -21.5 8.5zM302 473.5q31 18.5 49.5 49.5t18.5 67t-19 66.5t-50 49t-66 18.5t-66 -18.5t-49.5 -49t-18.5 -66.5t18 -67t49 -49.5t67 -18.5t67 18.5zM544 26q-44 26 -70 70t-26 96t26 96.5t70 70.5t96 26t96.5 -26t70.5 -70.5t26 -96.5t-26 -96t-70.5 -70t-96.5 -26
t-96 26zM707 76.5q31 18.5 49.5 49.5t18.5 66t-18.5 66.5t-50 50t-66.5 18.5q-36 0 -67 -18.5t-49.5 -49.5t-18.5 -67t18.5 -67t49.5 -49t67 -18t67 18.5z" />
    <glyph glyph-name="ampersand" unicode="&#x26;" horiz-adv-x="712" 
d="M663 49q0 -8 -9 -17q-10 -10 -21 -10t-21 10l-111 111l-30 -31q-55 -58 -106.5 -86t-108.5 -28q-64 0 -112 23t-73.5 64t-25.5 92q0 62 36 116t120 120l17 13l-55 55q-32 31 -50.5 70t-18.5 79q0 43 22 78.5t60 55.5t85 20q48 0 87 -20.5t61.5 -57t22.5 -81.5
q0 -54 -30.5 -100t-86.5 -88l-18 -13l202 -202l87 93q12 12 21 12t19 -9q11 -9 11 -20q0 -10 -10 -20l-89 -95l112 -112q13 -13 13 -22zM262 459l24 19q40 31 64 69t24 76q0 45 -30.5 76t-82.5 31q-45 0 -76 -29.5t-31 -70.5q0 -34 13 -61.5t39 -53.5zM461 183l-207 207
l-24 -18q-71 -56 -98 -102.5t-27 -95.5q0 -53 41 -87.5t112 -34.5q44 0 84.5 24t87.5 74z" />
    <glyph glyph-name="quotesingle" unicode="'" horiz-adv-x="156" 
d="M65 585.5q-6 5.5 -6 14.5l-10 152q0 13 9 21.5t22 8.5t21.5 -8.5t8.5 -21.5l-10 -152q0 -9 -6 -14.5t-14 -5.5q-9 0 -15 5.5z" />
    <glyph glyph-name="parenleft" unicode="(" horiz-adv-x="245" 
d="M198 -229q-7 5 -13 16q-120 243 -120 489q0 245 120 488q9 20 30 20q12 0 20.5 -8t8.5 -20q0 -9 -5 -19q-115 -230 -115 -462q0 -231 116 -463q5 -12 5 -18q0 -12 -9 -20t-21 -8q-10 0 -17 5z" />
    <glyph glyph-name="parenright" unicode=")" horiz-adv-x="245" 
d="M9 -226q-9 8 -9 20q0 6 5 18q116 232 116 463q0 232 -115 462q-5 10 -5 19q0 12 8.5 20t20.5 8q21 0 30 -20q120 -243 120 -488q0 -246 -120 -489q-6 -11 -13 -16t-17 -5q-12 0 -21 8z" />
    <glyph glyph-name="asterisk" unicode="*" horiz-adv-x="381" 
d="M97.5 513q-8.5 9 -8.5 22q0 12 7 18l87 76l-102 11q-15 1 -23 10t-8 21q2 14 9.5 22t20.5 8q8 0 20 -7l86 -50l-20 97q-2 8 -2 11q0 13 8.5 21.5t21.5 8.5t22 -8.5t9 -21.5q0 -3 -2 -11l-21 -98l97 56q6 2 10 2q12 0 21.5 -9t9.5 -22q0 -28 -31 -30l-102 -11l79 -68
q14 -12 14 -26q0 -13 -9 -22t-23 -9q-17 0 -28 20l-45 96l-47 -95q-7 -21 -29 -21q-13 0 -21.5 9z" />
    <glyph glyph-name="plus" unicode="+" horiz-adv-x="547" 
d="M249.5 170.5q-8.5 8.5 -8.5 21.5v173h-172q-13 0 -21.5 8.5t-8.5 21.5t8.5 21.5t21.5 8.5h172v173q0 13 8.5 21.5t21.5 8.5t22 -8.5t9 -21.5v-173h172q13 0 21.5 -8.5t8.5 -21.5t-8.5 -21.5t-21.5 -8.5h-172v-173q0 -13 -9 -21.5t-22 -8.5t-21.5 8.5z" />
    <glyph glyph-name="comma" unicode="," horiz-adv-x="213" 
d="M145.5 64.5q17.5 -22.5 17.5 -60.5q0 -36 -11.5 -73t-30 -61.5t-40.5 -24.5q-19 0 -19 17q0 10 14 30q9 14 13.5 23t4.5 21q0 18 -5.5 28.5t-17.5 27.5q-11 13 -16 22.5t-5 23.5q0 23 15 36t36 13q27 0 44.5 -22.5z" />
    <glyph glyph-name="hyphen" unicode="-" horiz-adv-x="391" 
d="M47.5 251.5q-8.5 8.5 -8.5 21.5t8.5 22t21.5 9h243q13 0 22 -9t9 -22t-9 -21.5t-22 -8.5h-243q-13 0 -21.5 8.5z" />
    <glyph glyph-name="period" unicode="." horiz-adv-x="201" 
d="M64.5 -1.5q-14.5 14.5 -14.5 36.5q0 21 15 35.5t36 14.5t35.5 -14.5t14.5 -35.5t-14.5 -36t-35.5 -15q-22 0 -36.5 14.5z" />
    <glyph glyph-name="slash" unicode="/" horiz-adv-x="469" 
d="M375.5 779.5q7.5 5.5 17.5 5.5q14 0 21.5 -9t7.5 -22q0 -9 -2 -13l-322 -805q-7 -17 -28 -17q-13 0 -22 8.5t-9 21.5q0 5 3 13l323 804q3 8 10.5 13.5z" />
    <glyph glyph-name="zero" unicode="0" horiz-adv-x="566" 
d="M157.5 47q-52.5 47 -80 135t-27.5 210q0 121 27.5 209t80 135.5t125.5 47.5q74 0 126 -47.5t79.5 -136t27.5 -208.5q0 -184 -61 -288t-172 -104q-73 0 -125.5 47zM411.5 150.5q43.5 90.5 43.5 241.5q0 150 -44 240.5t-128 90.5t-128 -90.5t-44 -240.5q0 -151 43.5 -241.5
t128.5 -90.5t128.5 90.5z" />
    <glyph glyph-name="one" unicode="1" horiz-adv-x="368" 
d="M216 8.5q-9 8.5 -9 21.5v679l-119 -39q-7 -3 -13 -3q-13 0 -21.5 8.5t-8.5 21.5q0 22 19 29l153 51q18 5 21 5q13 0 21.5 -8.5t8.5 -21.5v-722q0 -13 -8.5 -21.5t-21.5 -8.5t-22 8.5z" />
    <glyph glyph-name="two" unicode="2" horiz-adv-x="576" 
d="M84 8.5q-9 8.5 -9 21.5q0 12 9 22l316 376q21 22 35.5 56.5t14.5 64.5q0 48 -21.5 87.5t-58.5 62t-82 22.5t-82 -22.5t-58.5 -62t-21.5 -87.5q0 -13 -8.5 -21.5t-21.5 -8.5t-22 8.5t-9 21.5q0 66 29 119t80 83.5t114 30.5t114 -30.5t80 -83.5t29 -119q0 -46 -18.5 -85.5
t-52.5 -79.5l-275 -323h336q13 0 21.5 -9t8.5 -22t-8.5 -21.5t-21.5 -8.5h-395q-13 0 -22 8.5z" />
    <glyph glyph-name="three" unicode="3" horiz-adv-x="576" 
d="M171 21q-54 30 -85 83t-31 117q0 14 8.5 23.5t22.5 9.5t22 -9.5t8 -23.5q0 -48 23 -86.5t63.5 -61t88.5 -22.5q83 0 131 47.5t48 121.5q0 52 -23 91t-62.5 60t-88.5 21q-13 0 -21.5 8.5t-8.5 21.5t8.5 21.5t21.5 8.5q39 0 71 19t50.5 51.5t18.5 69.5q0 61 -38.5 99.5
t-104.5 38.5q-67 0 -109 -37t-42 -94q0 -13 -9 -21.5t-22 -8.5q-14 0 -22 8.5t-8 21.5q0 54 27 97t75.5 68t109.5 25q57 0 103.5 -26t73.5 -71t27 -100q0 -47 -34.5 -96.5t-84.5 -70.5q73 -19 113 -76.5t40 -128.5q0 -65 -31 -117t-86 -82t-123 -30q-66 0 -120 30z" />
    <glyph glyph-name="four" unicode="4" horiz-adv-x="643" 
d="M598 220q0 -9 -9 -17.5t-21 -8.5h-92v-164q0 -13 -8.5 -21.5t-21.5 -8.5t-21.5 8.5t-8.5 21.5v164h-375q-13 0 -22 9.5t-9 21.5q0 10 6 17l405 528q5 6 10.5 9t14.5 3q13 0 21.5 -9t8.5 -22v-503h92q30 0 30 -28zM93 248h323v418z" />
    <glyph glyph-name="five" unicode="5" horiz-adv-x="626" 
d="M189 33q-58 33 -91 91t-33 129q0 13 8.5 22t21.5 9t22 -9t9 -22q0 -54 25 -98t69 -69t98 -25t98 25t69 69t25 98t-25 98t-69 69.5t-98 25.5h-182q-13 0 -21.5 8.5t-8.5 21.5v276q0 13 8.5 21.5t21.5 8.5h364q13 0 22 -8.5t9 -21.5t-9 -22t-22 -9h-334v-215h152
q71 0 129 -33t91 -91t33 -129t-33 -129t-91 -91t-129 -33t-129 33z" />
    <glyph glyph-name="six" unicode="6" horiz-adv-x="577" 
d="M418 436.5q53 -30.5 83.5 -84t30.5 -119.5t-30.5 -119t-83.5 -83.5t-119 -30.5t-119.5 30.5t-84 83.5t-30.5 119q0 62 28 113h-1l4 6l7 12l245 401q11 17 28 17q13 0 22 -9t9 -21q0 -7 -5 -17l-172 -278q31 10 69 10q66 0 119 -30.5zM387.5 82q39.5 23 62.5 62.5t23 88.5
t-23 89t-62.5 63t-88.5 23t-89 -23t-63 -63t-23 -89t23 -88.5t63 -62.5t89 -23t88.5 23z" />
    <glyph glyph-name="seven" unicode="7" horiz-adv-x="583" 
d="M154 8.5q-9 8.5 -9 21.5q0 5 7 21l307 670h-373q-13 0 -22 9t-9 22t9 21.5t22 8.5h425q13 0 21.5 -8.5t8.5 -21.5q0 -4 -5 -17l-332 -717q-4 -8 -11.5 -13t-16.5 -5q-13 0 -22 8.5z" />
    <glyph glyph-name="eight" unicode="8" horiz-adv-x="601" 
d="M501 355.5q35 -54.5 35 -121.5q0 -68 -31 -123t-84.5 -86.5t-119.5 -31.5q-67 0 -120.5 31t-84.5 85.5t-31 121.5q0 69 35 124t94 82q-39 26 -61 68t-22 93t25 93t69 66t98 24q53 0 95.5 -23.5t67 -65t24.5 -92.5t-22.5 -94t-60.5 -69q59 -27 94 -81.5zM206 500
q38 -38 95 -38q56 0 94 39.5t38 98.5q0 53 -38 89t-94 36q-57 0 -95 -37t-38 -92q0 -58 38 -96zM450.5 321.5q-22.5 39.5 -62 62t-87.5 22.5q-49 0 -88.5 -23t-62 -63.5t-22.5 -90.5q0 -51 22.5 -92.5t62 -65.5t88.5 -24t88 24.5t61.5 67t22.5 94.5q0 49 -22.5 88.5z" />
    <glyph glyph-name="nine" unicode="9" horiz-adv-x="577" 
d="M481 430l-7 -12l-245 -401q-11 -17 -28 -17q-13 0 -22 9t-9 21q0 7 5 17l172 278q-31 -10 -69 -10q-66 0 -119 30.5t-83.5 84t-30.5 119.5t30.5 119t83.5 83.5t119 30.5t119.5 -30.5t84 -83.5t30.5 -119q0 -62 -28 -113h1zM127 460q23 -40 62.5 -63t88.5 -23t89 23t63 63
t23 89t-23 88.5t-63 62.5t-89 23t-88.5 -23t-62.5 -62.5t-23 -88.5t23 -89z" />
    <glyph glyph-name="colon" unicode=":" horiz-adv-x="195" 
d="M52 449.5q-15 14.5 -15 36.5q0 21 14.5 35.5t36.5 14.5q21 0 35.5 -14.5t14.5 -35.5q0 -22 -14.5 -36.5t-35.5 -14.5t-36 14.5zM48.5 -1.5q-14.5 14.5 -14.5 36.5q0 21 15 35.5t36 14.5t35.5 -14.5t14.5 -35.5t-14.5 -36t-35.5 -15q-22 0 -36.5 14.5z" />
    <glyph glyph-name="semicolon" unicode=";" horiz-adv-x="204" 
d="M145.5 64.5q17.5 -22.5 17.5 -60.5q0 -36 -11.5 -73t-30 -61.5t-40.5 -24.5q-19 0 -19 17q0 10 14 30q9 14 13.5 23t4.5 21q0 18 -5.5 28.5t-17.5 27.5q-11 13 -16 22.5t-5 23.5q0 23 15 36t36 13q27 0 44.5 -22.5zM52 449.5q-15 14.5 -15 36.5q0 21 14.5 35.5t36.5 14.5
q21 0 35.5 -14.5t14.5 -35.5q0 -22 -14.5 -36.5t-35.5 -14.5t-36 14.5z" />
    <glyph glyph-name="less" unicode="&#x3c;" horiz-adv-x="547" 
d="M505 111q0 -13 -10 -22t-22 -9q-8 0 -13 4l-403 243q-18 9 -18 27q0 16 18 28l403 243q10 4 16 4q12 0 20.5 -7.5t8.5 -20.5q0 -17 -16 -27l-364 -218l364 -218q16 -10 16 -27z" />
    <glyph glyph-name="equal" unicode="=" horiz-adv-x="508" 
d="M48.5 454.5q-8.5 8.5 -8.5 21.5t8.5 21.5t21.5 8.5h365q13 0 21.5 -8.5t8.5 -21.5t-8.5 -21.5t-21.5 -8.5h-365q-13 0 -21.5 8.5zM48.5 211.5q-8.5 8.5 -8.5 21.5t8.5 21.5t21.5 8.5h365q13 0 21.5 -8.5t8.5 -21.5t-8.5 -21.5t-21.5 -8.5l-365 -1q-13 1 -21.5 9.5z" />
    <glyph glyph-name="greater" unicode="&#x3e;" horiz-adv-x="547" 
d="M505 354q0 -18 -18 -27l-403 -243q-5 -4 -13 -4q-12 0 -22 9t-10 22q0 17 16 27l364 218l-364 218q-16 10 -16 27q0 13 8.5 20.5t20.5 7.5q6 0 16 -4l403 -243q18 -12 18 -28z" />
    <glyph glyph-name="question" unicode="?" horiz-adv-x="547" 
d="M423 660.5q-22 35.5 -61.5 56t-89.5 20.5q-76 0 -124 -48t-48 -124q0 -13 -8.5 -21t-21.5 -8q-14 0 -22.5 8t-8.5 21q0 67 30 120t83 82.5t120 29.5t120 -29t83 -80t30 -113q0 -44 -14 -78t-35.5 -59t-61.5 -63l-37 -35q-54 -54 -54 -137q0 -13 -8.5 -22t-22.5 -9
q-13 0 -21.5 8.5t-8.5 22.5q0 41 19 87t49 77l35 34q34 32 54 54.5t33 53.5t13 72q0 44 -22 79.5zM308 86.5q15 -14.5 15 -35.5q0 -22 -15 -36.5t-36 -14.5t-35.5 15t-14.5 36t14 35.5t36 14.5q21 0 36 -14.5z" />
    <glyph glyph-name="at" unicode="@" horiz-adv-x="1094" 
d="M285.5 -168.5q-115.5 64.5 -180 180t-64.5 262.5t64.5 262.5t180 180.5t262.5 65t262.5 -65t180.5 -180.5t65 -262.5q0 -89 -24 -159.5t-67 -110t-98 -39.5q-48 0 -79 31t-31 79v32q-29 -44 -88 -73t-121 -29q-78 0 -139 34.5t-95.5 95.5t-34.5 139t34.5 139.5t95.5 96
t139 34.5t139 -34.5t95.5 -96t34.5 -139.5v-179q0 -70 50 -70q38 0 67 31.5t45.5 88.5t16.5 129q0 129 -57.5 231t-159.5 159.5t-231 57.5t-231 -57.5t-159 -159.5t-57 -231t57 -231t159 -159t231 -57q47 0 98.5 10.5t85.5 27.5q14 6 23 6q11 0 17 -7t6 -20
q0 -16 -30.5 -34.5t-83 -30.5t-116.5 -12q-147 0 -262.5 64.5zM655.5 92q47.5 27 74.5 74.5t27 107.5q0 61 -27 108.5t-74.5 74.5t-107.5 27t-107.5 -27t-74.5 -74.5t-27 -108.5q0 -60 27 -107.5t74.5 -74.5t107.5 -27t107.5 27z" />
    <glyph glyph-name="A" unicode="A" horiz-adv-x="703" 
d="M690 30q0 -12 -9 -21t-21 -9q-20 0 -28 19l-74 177h-407l-74 -177q-7 -19 -28 -19q-14 0 -22 9t-8 21q0 7 3 13l303 717q8 21 29 21q20 0 29 -21l304 -717q3 -6 3 -13zM174 250h361l-181 432z" />
    <glyph glyph-name="B" unicode="B" horiz-adv-x="675" 
d="M110.5 7.5q-10.5 7.5 -10.5 22.5v721q0 14 8.5 22t21.5 8h245q55 0 102 -24.5t74.5 -67.5t27.5 -97q0 -56 -30 -100.5t-80 -66.5q70 -19 110.5 -70.5t40.5 -127.5q0 -66 -29.5 -117.5t-82 -80.5t-118.5 -29h-251q-18 0 -28.5 7.5zM375 451q64 0 104 39t40 102
q0 61 -39.5 95t-104.5 34h-215v-270h215zM390 60q49 0 87.5 21.5t60.5 59.5t22 86q0 47 -22 84.5t-60.5 58.5t-87.5 21h-230v-331h230z" />
    <glyph glyph-name="C" unicode="C" horiz-adv-x="767" 
d="M256 44.5q-90 54.5 -143 147t-53 199.5t52.5 199t142 146.5t196.5 54.5q140 0 247 -89q9 -7 9 -20q0 -12 -8 -21.5t-22 -9.5q-11 0 -25 12q-76 68 -201 68q-88 0 -164.5 -47t-121.5 -125.5t-45 -167.5q0 -92 44.5 -170.5t121 -124.5t165.5 -46q118 0 207 73q7 5 15 5
q12 0 21.5 -9t9.5 -22t-7 -21q-86 -86 -246 -86q-105 0 -195 54.5z" />
    <glyph glyph-name="D" unicode="D" horiz-adv-x="761" 
d="M108.5 8.5q-8.5 8.5 -8.5 21.5v721q0 14 8.5 22t21.5 8h180q113 0 202 -50t139 -138.5t50 -201.5t-50 -202t-139 -139t-202 -50h-180q-13 0 -21.5 8.5zM310 54q96 0 171 43.5t117.5 120.5t42.5 173t-42.5 172.5t-117.5 120t-171 43.5h-150v-673h150z" />
    <glyph glyph-name="E" unicode="E" horiz-adv-x="686" 
d="M108.5 8.5q-8.5 8.5 -8.5 21.5v721q0 13 8.5 21.5t21.5 8.5h481q12 0 21 -8.5t9 -21.5q0 -12 -9 -21t-21 -9h-451v-300h331q13 0 21.5 -8.5t8.5 -21.5t-8.5 -22t-21.5 -9h-331v-300h451q12 0 21 -9t9 -21q0 -13 -9 -21.5t-21 -8.5h-481q-13 0 -21.5 8.5z" />
    <glyph glyph-name="F" unicode="F" horiz-adv-x="625" 
d="M47.5 8.5q-8.5 8.5 -8.5 21.5v721q0 13 8.5 21.5t21.5 8.5h481q12 0 21 -8.5t9 -21.5q0 -12 -9 -21t-21 -9h-451v-300h331q13 0 21.5 -8.5t8.5 -21.5t-8.5 -22t-21.5 -9h-331v-330q0 -13 -8.5 -21.5t-21.5 -8.5t-21.5 8.5z" />
    <glyph glyph-name="G" unicode="G" horiz-adv-x="767" 
d="M695.5 372q8.5 -8 8.5 -21v-254q0 -7 -1 -11.5t-6 -9.5q-86 -86 -246 -86q-105 0 -195 54.5t-143 147t-53 199.5t52.5 199t142 146.5t196.5 54.5q140 0 247 -89q9 -7 9 -20q0 -12 -8 -21.5t-22 -9.5q-11 0 -25 12q-76 68 -201 68q-88 0 -164.5 -47t-121.5 -125.5
t-45 -167.5q0 -92 44.5 -170.5t121 -124.5t165.5 -46q109 0 193 62v214h-168q-13 0 -21.5 8t-8.5 20q0 11 8.5 18.5t21.5 7.5h198q13 0 21.5 -8z" />
    <glyph glyph-name="H" unicode="H" horiz-adv-x="825" 
d="M108.5 8.5q-8.5 8.5 -8.5 21.5v721q0 13 8.5 21.5t21.5 8.5t21.5 -8.5t8.5 -21.5v-330h505v330q0 13 8.5 21.5t21.5 8.5q12 0 21 -8.5t9 -21.5v-721q0 -13 -9 -21.5t-21 -8.5q-13 0 -21.5 8.5t-8.5 21.5v337h-505v-337q0 -13 -8.5 -21.5t-21.5 -8.5t-21.5 8.5z" />
    <glyph glyph-name="I" unicode="I" horiz-adv-x="260" 
d="M108.5 8.5q-8.5 8.5 -8.5 21.5v721q0 13 8.5 21.5t21.5 8.5t21.5 -8.5t8.5 -21.5v-721q0 -13 -8.5 -21.5t-21.5 -8.5t-21.5 8.5z" />
    <glyph glyph-name="J" unicode="J" horiz-adv-x="606" 
d="M160 21.5q-53 31.5 -84 84t-31 114.5q0 13 8.5 21.5t21.5 8.5t21.5 -8.5t8.5 -21.5q0 -46 23.5 -85t62.5 -62t85 -23t85 23t62 62.5t23 84.5v531q0 13 9 21.5t21 8.5q13 0 21.5 -8.5t8.5 -21.5v-531q0 -62 -31 -115t-84 -84t-115 -31q-63 0 -116 31.5z" />
    <glyph glyph-name="K" unicode="K" horiz-adv-x="647" 
d="M109 8.5q-9 8.5 -9 21.5v721q0 13 9 21.5t21 8.5q13 0 21.5 -8.5t8.5 -21.5v-367l388 388q11 9 23 9q13 0 21.5 -9t8.5 -21q0 -11 -9 -22l-287 -287l290 -394q6 -9 6 -18q0 -12 -9 -21t-20 -9q-17 0 -26 13l-285 385l-101 -101v-267q0 -13 -8.5 -21.5t-21.5 -8.5
q-12 0 -21 8.5z" />
    <glyph glyph-name="L" unicode="L" horiz-adv-x="626" 
d="M109 8.5q-9 8.5 -9 21.5v721q0 13 9 21.5t21 8.5q13 0 21.5 -8.5t8.5 -21.5v-697h411q13 0 21.5 -7.5t8.5 -19.5t-8.5 -19.5t-21.5 -7.5h-441q-12 0 -21 8.5z" />
    <glyph glyph-name="M" unicode="M" horiz-adv-x="981" 
d="M873 772.5q8 -8.5 8 -21.5v-721q0 -13 -8 -21.5t-21 -8.5t-22 8.5t-9 21.5v613l-304 -619q-7 -14 -26 -14q-18 0 -28 19l-303 605v-604q0 -13 -8.5 -21.5t-21.5 -8.5t-21.5 8.5t-8.5 21.5v721q0 13 8.5 21.5t21.5 8.5q20 0 27 -15l336 -664l332 664q9 15 27 15
q13 0 21 -8.5z" />
    <glyph glyph-name="N" unicode="N" horiz-adv-x="821" 
d="M108.5 8.5q-8.5 8.5 -8.5 21.5v721q0 13 8.5 21.5t21.5 8.5q14 0 23 -10l508 -661v641q0 13 8.5 21.5t21.5 8.5q12 0 21 -8.5t9 -21.5v-721q0 -13 -9 -21.5t-21 -8.5q-14 0 -22 9l-509 662v-641q0 -13 -8.5 -21.5t-21.5 -8.5t-21.5 8.5z" />
    <glyph glyph-name="O" unicode="O" horiz-adv-x="921" 
d="M256.5 42.5q-91.5 52.5 -144 144t-52.5 204.5q0 112 52.5 203.5t144 144t204.5 52.5q112 0 203.5 -52.5t144 -144t52.5 -203.5q0 -113 -52.5 -204.5t-144 -144t-203.5 -52.5q-113 0 -204.5 52.5zM634 94.5q78 44.5 122.5 122.5t44.5 174q0 95 -44.5 173t-122.5 122.5
t-173 44.5q-96 0 -174 -44.5t-122.5 -122.5t-44.5 -173q0 -96 44.5 -174t122.5 -122.5t174 -44.5q95 0 173 44.5z" />
    <glyph glyph-name="P" unicode="P" horiz-adv-x="605" 
d="M108.5 8.5q-8.5 8.5 -8.5 21.5v721q0 14 8.5 22t21.5 8h200q72 0 129 -32t89 -89t32 -129q0 -73 -32 -130t-89 -89t-129 -32h-170v-250q0 -13 -8 -21.5t-22 -8.5q-13 0 -21.5 8.5zM330 340q55 0 98 24.5t67.5 68t24.5 98.5t-24.5 98t-67.5 67.5t-98 24.5h-170v-381h170z
" />
    <glyph glyph-name="Q" unicode="Q" horiz-adv-x="921" 
d="M811 50q9 -9 9 -20q0 -12 -9 -21t-20 -9q-12 0 -21 9l-62 62q-51 -39 -114 -60t-133 -21q-113 0 -204.5 52.5t-144 144t-52.5 204.5q0 112 52.5 203.5t144 144t204.5 52.5q112 0 203.5 -52.5t144 -144t52.5 -203.5q0 -83 -28.5 -155t-81.5 -127zM664 114l-116 115
q-9 9 -9 21q0 11 9 20t21 9q11 0 20 -9l119 -118q44 47 68.5 108t24.5 131q0 95 -44.5 173t-122.5 122.5t-173 44.5q-96 0 -174 -44.5t-122.5 -122.5t-44.5 -173q0 -96 44.5 -174t122.5 -122.5t174 -44.5q116 0 203 64z" />
    <glyph glyph-name="R" unicode="R" horiz-adv-x="608" 
d="M583 23q0 -11 -8.5 -17t-24.5 -6q-10 0 -16 4t-11 12l-184 294h-18h-161v-280q0 -13 -8 -21.5t-22 -8.5q-13 0 -21.5 8.5t-8.5 21.5v721q0 14 8.5 22t21.5 8h191q72 0 129 -30t89 -84t32 -123q0 -82 -45.5 -141.5t-122.5 -81.5l172 -275q8 -14 8 -23zM321 370q55 0 98 22
t67.5 62t24.5 90q0 51 -24.5 91.5t-67.5 63t-98 22.5h-161v-351h161z" />
    <glyph glyph-name="S" unicode="S" horiz-adv-x="644" 
d="M171 28.5q-69 38.5 -103 105.5q-3 6 -3 12q0 12 8.5 20t22.5 8q20 0 29 -19q27 -50 80.5 -77.5t128.5 -27.5q86 0 135.5 43t49.5 122q0 68 -48.5 112.5t-143.5 57.5q-111 16 -174.5 72.5t-63.5 137.5q0 58 29.5 102.5t83 69t123.5 24.5q73 0 134 -35t90 -84q4 -7 4 -16
q0 -8 -4.5 -14.5t-12.5 -10.5q-4 -2 -12 -2q-18 0 -28 15q-59 87 -171 87q-83 0 -129.5 -37.5t-46.5 -104.5q0 -56 46 -94t142 -54q126 -21 184 -77.5t58 -148.5q0 -69 -30.5 -120t-86 -78t-128.5 -27q-94 0 -163 38.5z" />
    <glyph glyph-name="T" unicode="T" horiz-adv-x="650" 
d="M627.5 773.5q7.5 -7.5 7.5 -19.5t-7.5 -19.5t-19.5 -7.5h-253v-697q0 -13 -8.5 -21.5t-21.5 -8.5t-21.5 8.5t-8.5 21.5v697h-253q-12 0 -19.5 7.5t-7.5 19.5t7.5 19.5t19.5 7.5h566q12 0 19.5 -7.5z" />
    <glyph glyph-name="U" unicode="U" horiz-adv-x="801" 
d="M244.5 18.5q-68.5 34.5 -106.5 96t-38 140.5v496q0 14 8.5 22t21.5 8q14 0 22 -8t8 -22v-496q0 -61 30.5 -109t85 -75t124.5 -27t124.5 27t85.5 75t31 109v496q0 14 8.5 22t21.5 8q14 0 22 -8t8 -22v-496q0 -79 -38.5 -140.5t-107 -96t-155.5 -34.5t-155.5 34.5z" />
    <glyph glyph-name="V" unicode="V" horiz-adv-x="702" 
d="M675 773q7 -8 7 -21q0 -11 -4 -20l-299 -713q-9 -19 -27 -19q-10 0 -16.5 4.5t-10.5 14.5l-300 713q-5 13 -5 21q0 13 9 20.5t22 7.5q10 0 17 -5t12 -16l273 -654l270 650q5 13 13 19t20 6t19 -8z" />
    <glyph glyph-name="W" unicode="W" horiz-adv-x="938" 
d="M900 772.5q8 -8.5 8 -22.5q0 -4 -2 -14l-206 -710q-4 -12 -12.5 -19t-18.5 -7q-12 0 -20 7t-11 19l-170 601l-168 -601q-10 -26 -32 -26q-11 0 -19.5 7.5t-11.5 18.5l-207 710q-2 10 -2 13q0 14 8 23t22 9q23 0 29 -23l181 -626l172 600q2 8 10.5 13.5t17.5 5.5
q10 0 18 -5.5t11 -14.5l172 -599l181 629q2 9 10 14.5t19 5.5q13 0 21 -8.5z" />
    <glyph glyph-name="X" unicode="X" horiz-adv-x="701" 
d="M657 29q0 -12 -7.5 -20.5t-20.5 -8.5q-6 0 -13 2.5t-10 7.5l-254 352l-254 -352q-9 -10 -23 -10q-13 0 -21.5 8t-8.5 20q0 11 7 21l257 355l-239 330q-7 8 -7 20q0 11 8 19t20 8q15 0 25 -13l235 -325l234 325q10 13 25 13q13 0 21.5 -10t8.5 -22q0 -8 -5 -15l-241 -332
l256 -353q7 -8 7 -20z" />
    <glyph glyph-name="Y" unicode="Y" horiz-adv-x="633" 
d="M620.5 773q7.5 -8 7.5 -20q0 -11 -5 -19l-276 -442v-262q0 -13 -8.5 -21.5t-21.5 -8.5t-21.5 8.5t-8.5 21.5v262l-276 442q-6 11 -6 19q0 12 8 20t21 8t24 -12l259 -422l255 415q7 11 13.5 15t15.5 4q12 0 19.5 -8z" />
    <glyph glyph-name="Z" unicode="Z" horiz-adv-x="711" 
d="M53.5 9q-8.5 9 -8.5 21q0 11 7 19l535 678h-512q-14 0 -22 6.5t-8 20.5q0 11 8.5 19t21.5 8h561q13 0 21.5 -9.5t8.5 -21.5q0 -9 -5 -16l-539 -680h514q13 0 21.5 -7t8.5 -20q0 -11 -9 -19t-21 -8h-561q-13 0 -21.5 9z" />
    <glyph glyph-name="bracketleft" unicode="[" horiz-adv-x="288" 
d="M73.5 -225.5q-8.5 8.5 -8.5 21.5v956q0 13 8.5 21.5t21.5 8.5h162q13 0 22 -8.5t9 -21.5t-9 -22t-22 -9h-132v-894h132q13 0 22 -9t9 -22t-9 -21.5t-22 -8.5h-162q-13 0 -21.5 8.5z" />
    <glyph glyph-name="backslash" unicode="\" horiz-adv-x="469" 
d="M374 -64l-325 802q-3 6 -3 13q0 13 9 22t22 9q8 0 16 -4.5t11 -12.5l324 -803q3 -6 3 -13q0 -13 -8.5 -21.5t-21.5 -8.5q-20 0 -27 17z" />
    <glyph glyph-name="bracketright" unicode="]" horiz-adv-x="288" 
d="M31 -234q-13 0 -22 8.5t-9 21.5t9 22t22 9h132v894h-132q-13 0 -22 9t-9 22t9 21.5t22 8.5h162q13 0 21.5 -8.5t8.5 -21.5v-956q0 -13 -8.5 -21.5t-21.5 -8.5h-162z" />
    <glyph glyph-name="asciicircum" unicode="^" horiz-adv-x="469" 
d="M55 487.5q-9 8.5 -9 21.5q0 7 4 15l164 246q10 12 25 12q14 0 24 -12l164 -246q4 -5 4 -15q0 -13 -8.5 -21.5t-21.5 -8.5q-17 0 -24 10l-138 208l-138 -208q-10 -10 -24 -10q-13 0 -22 8.5z" />
    <glyph glyph-name="underscore" unicode="_" horiz-adv-x="469" 
d="M-26 -53q-9 9 -9 22t9 22t22 9h486q13 0 21.5 -9t8.5 -22t-8.5 -22t-21.5 -9h-486q-13 0 -22 9z" />
    <glyph glyph-name="grave" unicode="`" horiz-adv-x="273" 
d="M179 607l-123 123q-8 8 -8 21t9 22t22 9q12 0 21 -9l123 -123q7 -7 7 -20t-8.5 -22t-21.5 -9q-10 0 -21 8z" />
    <glyph glyph-name="a" unicode="a" 
d="M482 516.5q64 -36.5 100.5 -100.5t36.5 -143v-243q0 -13 -8 -21.5t-22 -8.5q-13 0 -21.5 8.5t-8.5 21.5v78q-33 -53 -90.5 -83.5t-128.5 -30.5q-79 0 -143 36.5t-100.5 100.5t-36.5 142q0 79 36.5 143t100.5 100.5t143 36.5q78 0 142 -36.5zM452 79q50 29 78.5 80
t28.5 114t-28.5 114t-78.5 80.5t-112 29.5t-112 -29.5t-79 -80.5t-29 -114t29 -114t79 -80t112 -29t112 29z" />
    <glyph glyph-name="b" unicode="b" horiz-adv-x="709" 
d="M512 516.5q64 -36.5 100.5 -100.5t36.5 -142q0 -79 -36.5 -143t-100.5 -100.5t-143 -36.5q-77 0 -140.5 35.5t-100.5 98.5t-38 140v2v481q0 14 8.5 22t21.5 8q14 0 22 -8t8 -22v-312q33 53 90.5 83.5t128.5 30.5q79 0 143 -36.5zM481 79.5q50 29.5 79 80.5t29 114
t-29 114t-79 80t-112 29t-112 -29t-78.5 -80t-28.5 -114t28.5 -114t78.5 -80.5t112 -29.5t112 29.5z" />
    <glyph glyph-name="c" unicode="c" horiz-adv-x="593" 
d="M193 30.5q-62 36.5 -97.5 100.5t-35.5 142q0 79 33 142.5t92 100t132 36.5q64 0 117 -25t92 -74q7 -10 7 -17q0 -14 -14 -22q-7 -6 -16 -6q-14 0 -23 12q-64 76 -163 76q-58 0 -103 -28.5t-69.5 -79.5t-24.5 -115q0 -63 27 -114t75 -80t110 -29q88 0 141 49q9 9 21 9
q11 0 18 -7q10 -9 10 -22q0 -11 -8 -18q-35 -32 -82 -49.5t-100 -17.5q-77 0 -139 36.5z" />
    <glyph glyph-name="d" unicode="d" horiz-adv-x="709" 
d="M611 773q8 -8 8 -22v-481v-2q-1 -77 -38 -140t-100.5 -98.5t-140.5 -35.5q-79 0 -143 36.5t-100.5 100.5t-36.5 143q0 78 36.5 142t100.5 100.5t143 36.5q71 0 128.5 -30.5t90.5 -83.5v312q0 14 8.5 22t21.5 8q14 0 22 -8zM452 79.5q50 29.5 78.5 80.5t28.5 114
t-28.5 114t-78.5 80t-112 29t-112 -29t-79 -80t-29 -114t29 -114t79 -80.5t112 -29.5t112 29.5z" />
    <glyph glyph-name="e" unicode="e" horiz-adv-x="609" 
d="M447.5 517.5q57.5 -34.5 89.5 -95.5t32 -139q0 -13 -8 -20.5t-21 -7.5h-419q3 -59 31 -105.5t75 -72.5t105 -26q39 0 78.5 13.5t62.5 35.5q10 8 21 8t18 -6q11 -9 11 -21q0 -10 -9 -19q-32 -29 -83.5 -48t-98.5 -19q-79 0 -140.5 35.5t-96.5 99t-35 143.5
q0 81 32.5 144.5t91 99t133.5 35.5q73 0 130.5 -34.5zM185.5 444q-53.5 -52 -63.5 -137h389q-7 85 -60 137t-134 52q-78 0 -131.5 -52z" />
    <glyph glyph-name="f" unicode="f" horiz-adv-x="365" 
d="M229 678.5q-33 -48.5 -33 -130.5v-21h132q12 0 19.5 -7.5t7.5 -19.5t-7.5 -19.5t-19.5 -7.5h-132v-443q0 -13 -8.5 -21.5t-22.5 -8.5q-13 0 -21.5 8.5t-8.5 21.5v443h-78q-12 0 -19.5 7.5t-7.5 19.5t7.5 19.5t19.5 7.5h78v21q0 107 50 170t150 63q13 0 21.5 -7.5
t8.5 -19.5t-8.5 -19.5t-21.5 -7.5q-73 0 -106 -48.5z" />
    <glyph glyph-name="g" unicode="g" 
d="M484.5 517q63.5 -36 99 -99.5t35.5 -144.5v-196q0 -80 -36 -145.5t-99 -103t-140 -37.5q-79 0 -138.5 29.5t-99.5 80.5q-8 10 -8 20q0 12 10 19q8 6 18 6q16 0 26 -13q33 -40 81.5 -63t110.5 -23q61 0 110 30t77 82.5t28 117.5v44q-29 -59 -86.5 -93t-132.5 -34
q-81 0 -144.5 35.5t-99.5 99t-36 144.5q0 80 37 144t101 100t142 36q81 0 144.5 -36zM453 78.5q50 28.5 78 79t28 115.5t-28 116t-78 79.5t-113 28.5q-64 0 -114 -28.5t-78 -79.5t-28 -116t28 -115.5t78 -79t114 -28.5q63 0 113 28.5z" />
    <glyph glyph-name="h" unicode="h" horiz-adv-x="673" 
d="M470.5 524q57.5 -30 90 -87.5t32.5 -137.5v-269q0 -13 -8.5 -21.5t-21.5 -8.5t-21.5 8.5t-8.5 21.5v269q0 95 -53.5 145t-139.5 50q-53 0 -96.5 -20.5t-68.5 -57t-25 -80.5v-306q0 -13 -8 -21.5t-22 -8.5q-13 0 -21.5 8.5t-8.5 21.5v721q0 14 8.5 22t21.5 8q14 0 22 -8
t8 -22v-286q34 42 83 65.5t107 23.5q73 0 130.5 -30z" />
    <glyph glyph-name="i" unicode="i" horiz-adv-x="280" 
d="M118.5 8.5q-8.5 8.5 -8.5 21.5v487q0 14 8.5 22t21.5 8q14 0 22 -8t8 -22v-487q0 -13 -8 -21.5t-22 -8.5q-13 0 -21.5 8.5zM106 675.5q-13 13.5 -13 33.5q0 22 14 34t33 12t32.5 -12t13.5 -34q0 -20 -13.5 -33.5t-33.5 -13.5t-33 13.5z" />
    <glyph glyph-name="j" unicode="j" horiz-adv-x="284" 
d="M-81.5 -225.5q-8.5 8.5 -8.5 21.5t8.5 22t22.5 9q76 0 124 48t48 124v518q0 14 8.5 22t21.5 8q14 0 22.5 -8.5t8.5 -21.5v-518q0 -67 -30 -120t-83 -83t-120 -30q-14 0 -22.5 8.5zM109 675.5q-13 13.5 -13 33.5q0 22 14 34t33 12t32.5 -12t13.5 -34q0 -20 -13.5 -33.5
t-33.5 -13.5t-33 13.5z" />
    <glyph glyph-name="k" unicode="k" horiz-adv-x="574" 
d="M510 26q0 -11 -11 -21q-10 -8 -18 -8q-12 0 -21 12l-217 265l-93 -85v-159q0 -13 -8 -21.5t-22 -8.5q-13 0 -21.5 8.5t-8.5 21.5v721q0 14 8.5 22t21.5 8q14 0 22 -8t8 -22v-489l310 282q10 8 19 8q10 0 19 -10q9 -9 9 -19t-10 -19l-212 -193l218 -267q7 -8 7 -18z" />
    <glyph glyph-name="l" unicode="l" horiz-adv-x="270" 
d="M106.5 46q-36.5 46 -36.5 119v586q0 14 8.5 22t21.5 8q14 0 22 -8t8 -22v-586q0 -46 19.5 -75.5t50.5 -29.5h25q11 0 18 -8t7 -22q0 -13 -8 -21.5t-22 -8.5h-20q-57 0 -93.5 46z" />
    <glyph glyph-name="m" unicode="m" horiz-adv-x="953" 
d="M774 524q47 -30 73 -83.5t26 -121.5v-289q0 -13 -8 -21.5t-22 -8.5q-13 0 -21.5 8.5t-8.5 21.5v289q0 77 -41 126t-105 49q-70 0 -113 -46t-41 -122v-7v-289q0 -13 -8 -21.5t-22 -8.5q-13 0 -21.5 8.5t-8.5 21.5v289q0 77 -41 126t-105 49q-69 0 -113 -44t-44 -114v-306
q0 -13 -8 -21.5t-22 -8.5q-13 0 -21.5 8.5t-8.5 21.5v487q0 14 8.5 22t21.5 8q14 0 22 -8t8 -22v-39q28 36 69 56t88 20q58 0 104 -28.5t73 -78.5q27 50 75 78.5t108 28.5t107 -30z" />
    <glyph glyph-name="n" unicode="n" horiz-adv-x="673" 
d="M470.5 524q57.5 -30 90 -87.5t32.5 -137.5v-269q0 -13 -8.5 -21.5t-21.5 -8.5t-21.5 8.5t-8.5 21.5v269q0 95 -53.5 145t-139.5 50q-53 0 -96.5 -20.5t-68.5 -57t-25 -80.5v-306q0 -13 -8 -21.5t-22 -8.5q-13 0 -21.5 8.5t-8.5 21.5v487q0 14 8.5 22t21.5 8q14 0 22 -8
t8 -22v-52q34 42 83 65.5t107 23.5q73 0 130.5 -30z" />
    <glyph glyph-name="o" unicode="o" 
d="M197 30.5q-64 36.5 -100.5 100.5t-36.5 142q0 79 36.5 143t100.5 100.5t143 36.5q78 0 142 -36.5t100.5 -100.5t36.5 -143q0 -78 -36.5 -142t-100.5 -100.5t-142 -36.5q-79 0 -143 36.5zM452 79q50 29 78.5 80t28.5 114t-28.5 114t-78.5 80.5t-112 29.5t-112 -29.5
t-79 -80.5t-29 -114t29 -114t79 -80t112 -29t112 29z" />
    <glyph glyph-name="p" unicode="p" horiz-adv-x="709" 
d="M512 516.5q64 -36.5 100.5 -100.5t36.5 -143q0 -78 -36.5 -142t-100.5 -100.5t-143 -36.5q-71 0 -128.5 30.5t-90.5 83.5v-312q0 -14 -8 -22t-22 -8q-13 0 -21.5 8t-8.5 22v481v2q1 77 38 140t100.5 98.5t140.5 35.5q79 0 143 -36.5zM481 79q50 29 79 80t29 114t-29 114
t-79 80.5t-112 29.5t-112 -29.5t-78.5 -80.5t-28.5 -114t28.5 -114t78.5 -80t112 -29t112 29z" />
    <glyph glyph-name="q" unicode="q" horiz-adv-x="709" 
d="M619 277v-481q0 -14 -8 -22t-22 -8q-13 0 -21.5 8t-8.5 22v312q-33 -53 -90.5 -83.5t-128.5 -30.5q-79 0 -143 36.5t-100.5 100.5t-36.5 142q0 79 36.5 143t100.5 100.5t143 36.5q77 0 140.5 -35.5t100.5 -98.5t38 -140v-2zM452 79q50 29 78.5 80t28.5 114t-28.5 114
t-78.5 80.5t-112 29.5t-112 -29.5t-79 -80.5t-29 -114t29 -114t79 -80t112 -29t112 29z" />
    <glyph glyph-name="r" unicode="r" horiz-adv-x="438" 
d="M398 520q0 -5 -1 -8q-3 -11 -9.5 -15.5t-17.5 -4.5q-9 0 -23.5 2t-24.5 2q-50 0 -89 -21t-61 -58t-22 -83v-304q0 -13 -8 -21.5t-22 -8.5q-13 0 -21.5 8.5t-8.5 21.5v487q0 14 8.5 22t21.5 8q14 0 22 -8t8 -22v-62q29 46 74 72t98 26q76 0 76 -33z" />
    <glyph glyph-name="s" unicode="s" horiz-adv-x="536" 
d="M163 14.5q-55 20.5 -91 62.5q-7 8 -7 18q0 14 13 23q6 5 17 5q14 0 23 -11q50 -61 161 -61q79 0 116.5 28t37.5 72q0 79 -153 101q-97 14 -146.5 53t-49.5 94q0 73 53.5 113.5t139.5 40.5q126 0 191 -90q6 -7 6 -17q0 -14 -16 -23q-10 -4 -15 -4q-15 0 -25 13
q-51 65 -143 65q-61 0 -97 -26.5t-36 -65.5q0 -40 34.5 -64t115.5 -36q106 -15 152.5 -56.5t46.5 -100.5q0 -46 -29.5 -81t-78.5 -54t-107 -19t-113 20.5z" />
    <glyph glyph-name="t" unicode="t" horiz-adv-x="403" 
d="M359.5 52.5q8.5 -8.5 8.5 -22.5q0 -13 -8.5 -21.5t-22.5 -8.5h-23q-55 0 -98 25t-67 68.5t-24 98.5v281h-78q-12 0 -19.5 7.5t-7.5 19.5t7.5 19.5t19.5 7.5h78v163q0 14 8.5 22.5t21.5 8.5q14 0 22.5 -8.5t8.5 -22.5v-163h132q12 0 19.5 -7.5t7.5 -19.5t-7.5 -19.5
t-19.5 -7.5h-132v-281q0 -58 36 -94.5t93 -36.5h22q14 0 22.5 -8.5z" />
    <glyph glyph-name="u" unicode="u" horiz-adv-x="673" 
d="M575 539q8 -8 8 -22v-487q0 -13 -8 -21.5t-22 -8.5q-13 0 -21.5 8.5t-8.5 21.5v52q-34 -42 -83 -65.5t-107 -23.5q-73 0 -130.5 30t-90 87.5t-32.5 137.5v269q0 13 8.5 21.5t21.5 8.5t21.5 -8.5t8.5 -21.5v-269q0 -95 53.5 -145t139.5 -50q53 0 96.5 20.5t68.5 57
t25 80.5v306q0 14 8.5 22t21.5 8q14 0 22 -8z" />
    <glyph glyph-name="v" unicode="v" horiz-adv-x="557" 
d="M537 520q0 -7 -2 -11l-225 -489q-10 -21 -32 -21q-9 0 -16.5 5.5t-11.5 15.5l-228 488q-2 4 -2 11q0 18 17 26q6 3 12 3q17 0 25 -17l205 -444l202 445q8 17 26 17q7 0 13 -3q17 -8 17 -26z" />
    <glyph glyph-name="w" unicode="w" horiz-adv-x="749" 
d="M722 539q7 -8 7 -20q0 -7 -3 -15l-161 -485q-3 -9 -10.5 -14t-18.5 -5q-10 0 -18 5t-10 14l-136 423l-132 -423q-7 -19 -28 -19q-10 0 -17.5 5t-10.5 14l-162 485q-2 12 -2 16q0 27 25 27q9 0 16.5 -4.5t11.5 -13.5l141 -426l130 420q3 11 11 17.5t19 6.5q22 0 30 -24
l131 -412l139 418q8 18 28 18q13 0 20 -8z" />
    <glyph glyph-name="x" unicode="x" horiz-adv-x="542" 
d="M497 26q0 -12 -9 -19t-18 -7q-12 0 -18.5 4t-15.5 15l-168 223l-182 -233q-6 -9 -21 -9q-13 0 -21.5 9t-8.5 21q0 11 7 19l186 231l-164 217q-7 8 -7 20t8.5 21t21.5 9t22 -9l160 -213l167 204q15 18 31 18q13 0 20.5 -8t7.5 -20q0 -11 -8 -22l-177 -211l178 -237
q9 -12 9 -23z" />
    <glyph glyph-name="y" unicode="y" horiz-adv-x="554" 
d="M544 523q0 -4 -4 -14l-336 -728q-9 -18 -23 -18q-6 0 -14 3q-19 8 -19 23q0 4 4 14l100 216q-1 1 -4 7l-219 480q-4 8 -4 16q0 15 17 23q8 4 16 4q15 0 23 -17l203 -444l204 443q9 18 23 18q7 0 14 -3q19 -8 19 -23z" />
    <glyph glyph-name="z" unicode="z" horiz-adv-x="555" 
d="M510 27q0 -27 -27 -27h-391q-27 0 -27 27q0 15 8 21l357 445h-338q-27 0 -27 27t27 27h391q27 0 27 -27q0 -12 -4 -17l-358 -449h335q27 0 27 -27z" />
    <glyph glyph-name="braceleft" unicode="{" horiz-adv-x="369" 
d="M187 -83v235q0 91 -91 91q-13 0 -22 8.5t-9 21.5t9 22t22 9q91 0 91 91v235q0 152 151 152q14 0 22.5 -8.5t8.5 -22.5q0 -13 -9 -21.5t-22 -8.5q-90 0 -90 -91v-235q0 -75 -45 -122q45 -45 45 -121v-235q0 -90 90 -90q13 0 22 -9t9 -22t-9 -21.5t-22 -8.5
q-151 0 -151 151z" />
    <glyph glyph-name="bar" unicode="|" horiz-adv-x="391" 
d="M171.5 -225.5q-8.5 8.5 -8.5 21.5v956q0 13 8.5 21.5t21.5 8.5t22 -8.5t9 -21.5v-956q0 -13 -9 -21.5t-22 -8.5t-21.5 8.5z" />
    <glyph glyph-name="braceright" unicode="}" horiz-adv-x="369" 
d="M9 -225.5q-9 8.5 -9 21.5t9 22t22 9q90 0 90 90v235q0 76 45 121q-45 47 -45 122v235q0 91 -90 91q-13 0 -22 8.5t-9 21.5q0 14 9 22.5t22 8.5q151 0 151 -152v-235q0 -91 91 -91q13 0 22 -9t9 -22t-9 -21.5t-22 -8.5q-91 0 -91 -91v-235q0 -151 -151 -151q-13 0 -22 8.5
z" />
    <glyph glyph-name="asciitilde" unicode="~" horiz-adv-x="469" 
d="M277 319.5q-21 9.5 -45 25.5q-20 14 -32 18.5t-25 4.5q-41 0 -77 -41q-9 -12 -25 -12q-10 0 -15 4q-15 9 -15 23q0 10 6 17q27 32 59.5 49.5t66.5 17.5q26 0 45.5 -8.5t44.5 -24.5q21 -14 32.5 -19.5t28.5 -5.5q34 0 55 22q12 14 28 14q7 0 11 -3q18 -9 18 -24
q0 -8 -6 -16q-39 -51 -106 -51q-28 0 -49 9.5z" />
    <glyph glyph-name="uni00A0" unicode="&#xa0;" horiz-adv-x="293" 
 />
    <glyph glyph-name="exclamdown" unicode="&#xa1;" horiz-adv-x="251" 
d="M186.5 533q14.5 -15 14.5 -36t-14.5 -35.5t-35.5 -14.5t-36 14.5t-15 35.5q0 22 14.5 36.5t36.5 14.5q21 0 35.5 -15zM172 367q9 -9 9 -21v-549q0 -13 -8.5 -22t-21.5 -9t-22 9t-9 22v549q0 12 9.5 21t21.5 9t21 -9z" />
    <glyph glyph-name="cent" unicode="&#xa2;" horiz-adv-x="593" 
d="M413 475l-155 -413q35 -12 74 -12q88 0 141 49q9 9 21 9q11 0 18 -7q10 -9 10 -22q0 -11 -8 -18q-35 -32 -82 -49.5t-100 -17.5q-52 0 -94 16l-31 -84q-8 -24 -30 -24q-11 0 -17.5 6.5t-6.5 17.5q0 10 4 19l33 87q-61 36 -95.5 99.5t-34.5 141.5q0 79 33 142.5t92 100
t132 36.5q37 0 65 -7l32 84q7 21 29 21q11 0 17 -7.5t6 -18.5q0 -9 -2 -13l-31 -83q55 -27 93 -75q7 -10 7 -17q0 -14 -14 -22q-7 -6 -16 -6q-14 0 -23 12q-30 36 -67 55zM362 492q-19 4 -45 4q-58 0 -103 -28.5t-69.5 -79.5t-24.5 -115q0 -59 24 -107.5t66 -78.5z" />
    <glyph glyph-name="sterling" unicode="&#xa3;" horiz-adv-x="508" 
d="M89.5 9q-8.5 9 -8.5 21l2 12q58 134 58 279h-71q-13 0 -21.5 9t-8.5 21q0 13 8.5 21.5t21.5 8.5h66l-7 21q-27 78 -37.5 116.5t-10.5 73.5q0 52 26 95.5t70 69.5t96 26q80 0 136 -56q14 -14 22.5 -26t8.5 -23q0 -13 -8.5 -21.5t-21.5 -8.5q-15 0 -22 10q-46 64 -115 64
q-35 0 -65.5 -17.5t-48.5 -47.5t-18 -65q0 -30 7 -57t24 -78q4 -13 10.5 -31.5t14.5 -44.5h157q13 0 21.5 -8.5t8.5 -21.5q0 -12 -8.5 -21t-21.5 -9h-152q0 -130 -46 -261h259q6 12 14 26l20 40q6 14 26 14q13 0 21.5 -8.5t8.5 -21.5q0 -8 -3 -14l-39 -78q-4 -8 -12 -13
t-16 -5h-324q-13 0 -21.5 9z" />
    <glyph glyph-name="currency" unicode="&#xa4;" horiz-adv-x="480" 
d="M54.5 184q-9.5 10 -9.5 24q0 13 10 23l46 44q-29 46 -29 94t27 93l-44 46q-10 10 -10 24t9.5 23.5t23.5 9.5q13 0 23 -8l44 -48q44 28 94 28t93 -26l46 45q14 9 24 9q14 0 23.5 -9.5t9.5 -23.5q0 -15 -10 -25l-46 -43q29 -47 29 -95q0 -46 -27 -91l44 -46q10 -11 10 -24
q0 -14 -9.5 -24t-23.5 -10t-23 9l-45 47q-43 -28 -93 -28q-48 0 -93 27l-48 -47q-10 -8 -22 -8q-14 0 -23.5 10zM310 298.5q30 30.5 30 71.5t-30 71t-70 30q-41 0 -70.5 -30.5t-29.5 -70.5q0 -41 29.5 -71.5t70.5 -30.5q40 0 70 30.5z" />
    <glyph glyph-name="yen" unicode="&#xa5;" horiz-adv-x="633" 
d="M620.5 773q7.5 -8 7.5 -20q0 -11 -5 -19l-242 -387h95q12 0 19.5 -7.5t7.5 -19.5t-7.5 -19.5t-19.5 -7.5h-128l-1 -1v-65h129q12 0 19.5 -7.5t7.5 -19.5t-7.5 -19.5t-19.5 -7.5h-129v-143q0 -13 -8.5 -21.5t-21.5 -8.5t-21.5 8.5t-8.5 21.5v143h-129q-12 0 -19.5 7.5
t-7.5 19.5t7.5 19.5t19.5 7.5h129v65l-1 1h-128q-12 0 -19.5 7.5t-7.5 19.5t7.5 19.5t19.5 7.5h95l-242 387q-6 11 -6 19q0 12 8 20t21 8t24 -12l259 -422l255 415q7 11 13.5 15t15.5 4q12 0 19.5 -8z" />
    <glyph glyph-name="brokenbar" unicode="&#xa6;" horiz-adv-x="234" 
d="M91.5 454.5q-8.5 8.5 -8.5 21.5v364q0 13 8.5 22t21.5 9t22 -9t9 -22v-364q0 -13 -9 -21.5t-22 -8.5t-21.5 8.5zM91.5 -225.5q-8.5 8.5 -8.5 21.5v356q0 13 8.5 21.5t21.5 8.5t22 -8.5t9 -21.5v-356q0 -13 -9 -21.5t-22 -8.5t-21.5 8.5z" />
    <glyph glyph-name="section" unicode="&#xa7;" horiz-adv-x="469" 
d="M136 -208.5q-44 25.5 -69.5 69t-25.5 94.5q0 13 8.5 21.5t21.5 8.5t21.5 -8.5t8.5 -21.5q0 -35 18.5 -64.5t48.5 -47t65 -17.5q34 0 64.5 17.5t49 47t18.5 64.5q0 34 -18.5 64t-49 47.5t-64.5 17.5q-52 0 -96 25.5t-70 68.5t-26 95q0 49 22 90.5t65 69.5q-43 27 -65 68.5
t-22 90.5q0 51 25.5 94.5t69.5 69t97 25.5q52 0 96 -25.5t70 -69t26 -94.5q0 -13 -8.5 -21.5t-21.5 -8.5t-21.5 8.5t-8.5 21.5q0 35 -18.5 64.5t-49 47t-64.5 17.5q-35 0 -65 -17.5t-48.5 -47t-18.5 -64.5t18 -65t48.5 -47.5t65.5 -17.5q52 0 96 -25.5t70 -68.5t26 -95
q0 -49 -22.5 -91t-64.5 -68q42 -27 64.5 -69t22.5 -90q0 -51 -26 -94.5t-70 -69t-96 -25.5q-53 0 -97 25.5zM298.5 161.5q30.5 17.5 48.5 47.5t18 64q0 35 -18.5 65t-48.5 47.5t-65 17.5t-65.5 -17.5t-48.5 -47.5t-18 -65t18 -65t48 -47t66 -17q35 0 65.5 17.5z" />
    <glyph glyph-name="dieresis" unicode="&#xa8;" horiz-adv-x="469" 
d="M114 642q-15 15 -15 37q0 21 15 36t37 15t36.5 -15t14.5 -36q0 -22 -14.5 -37t-36.5 -15t-37 15zM314 642q-15 15 -15 37q0 21 15 36t37 15t36.5 -15t14.5 -36q0 -22 -14.5 -37t-36.5 -15t-37 15z" />
    <glyph glyph-name="copyright" unicode="&#xa9;" horiz-adv-x="859" 
d="M238.5 52q-89.5 52 -141.5 142t-52 198q0 105 53 195t142.5 143t195.5 53q105 0 195 -53t143 -143t53 -195q0 -108 -52 -198t-141.5 -142t-197.5 -52t-197.5 52zM604 101.5q77 45.5 122.5 123t45.5 167.5q0 91 -45 168t-122.5 122t-168.5 45q-90 0 -167 -45t-122.5 -122
t-45.5 -168t45 -168.5t122 -122.5t168 -45t168 45.5zM314.5 172q-56.5 33 -89 91t-32.5 129q0 72 30.5 130t83.5 91t120 33q59 0 107.5 -23t83.5 -67q7 -8 7 -19q0 -16 -15 -25q-6 -5 -17 -5q-14 0 -25 12q-28 34 -62.5 49.5t-78.5 15.5q-49 0 -87 -24t-59.5 -68t-21.5 -100
q0 -55 23 -98.5t64.5 -68.5t94.5 -25q74 0 121 42q12 10 23 10q10 0 20 -8q11 -11 11 -23t-10 -21q-32 -30 -74.5 -45.5t-90.5 -15.5q-70 0 -126.5 33z" />
    <glyph glyph-name="ordfeminine" unicode="&#xaa;" horiz-adv-x="470" 
d="M333 766.5q44 -25.5 69.5 -69.5t25.5 -99v-163q0 -13 -8 -21.5t-20 -8.5q-15 0 -22.5 8t-7.5 22v33q-25 -30 -60.5 -47t-75.5 -17q-55 0 -99 25.5t-69.5 69.5t-25.5 99t25.5 99t69.5 69.5t99 25.5t99 -25.5zM331.5 501q38.5 39 38.5 97q0 59 -38.5 97.5t-97.5 38.5
q-58 0 -97 -38.5t-39 -97.5q0 -58 39 -97t97 -39q59 0 97.5 39z" />
    <glyph glyph-name="guillemotleft" unicode="&#xab;" horiz-adv-x="469" 
d="M175.5 4.5q-6.5 4.5 -11.5 14.5l-119 237q-4 8 -4 17q0 8 3 15l120 239q10 19 28 19q13 0 22 -8.5t9 -21.5q0 -7 -3 -13l-115 -230l115 -230q3 -4 3 -13q0 -13 -9 -21.5t-22 -8.5q-10 0 -16.5 4.5zM382.5 4.5q-6.5 4.5 -11.5 14.5l-119 237q-4 8 -4 17q0 8 3 15l120 239
q10 19 28 19q13 0 22 -8.5t9 -21.5q0 -7 -3 -13l-115 -230l115 -230q3 -4 3 -13q0 -13 -9 -21.5t-22 -8.5q-10 0 -16.5 4.5z" />
    <glyph glyph-name="logicalnot" unicode="&#xac;" horiz-adv-x="547" 
d="M453.5 332.5q-8.5 8.5 -8.5 21.5v132h-375q-13 0 -21.5 9t-8.5 22t8.5 21.5t21.5 8.5h405q13 0 21.5 -8.5t8.5 -21.5v-163q0 -13 -8.5 -21.5t-21.5 -8.5t-21.5 8.5z" />
    <glyph glyph-name="uni00AD" unicode="&#xad;" horiz-adv-x="391" 
d="M47.5 251.5q-8.5 8.5 -8.5 21.5t8.5 22t21.5 9h243q13 0 22 -9t9 -22t-9 -21.5t-22 -8.5h-243q-13 0 -21.5 8.5z" />
    <glyph glyph-name="registered" unicode="&#xae;" horiz-adv-x="859" 
d="M631 730q90 -53 143 -143t53 -195q0 -108 -52 -198t-141.5 -142t-197.5 -52t-197.5 52t-141.5 142t-52 198q0 105 53 195t142.5 143t195.5 53q105 0 195 -53zM604 101.5q77 45.5 122.5 123t45.5 167.5q0 91 -45 168t-122.5 122t-168.5 45q-90 0 -167 -45t-122.5 -122
t-45.5 -168t45 -168.5t122 -122.5t168 -45t168 45.5zM606 193q8 -13 8 -23q0 -11 -7.5 -17t-21.5 -6q-16 0 -25 15l-114 180h-7h-93v-165q0 -13 -8 -21.5t-21 -8.5t-21 8.5t-8 21.5v445q0 13 8 21.5t21 8.5h122q74 0 120.5 -43.5t46.5 -112.5q0 -49 -28.5 -87t-73.5 -55z
M346 396h93q49 0 79.5 26t30.5 74t-30.5 75t-79.5 27h-93v-202z" />
    <glyph glyph-name="macron" unicode="&#xaf;" horiz-adv-x="547" 
d="M118.5 639.5q-8.5 8.5 -8.5 21.5t8.5 22t21.5 9h265q13 0 21.5 -9t8.5 -22t-8.5 -21.5t-21.5 -8.5h-265q-13 0 -21.5 8.5z" />
    <glyph glyph-name="degree" unicode="&#xb0;" horiz-adv-x="469" 
d="M137 431q-44 26 -70 70t-26 97q0 52 25.5 96t69.5 70t97 26t97 -26t69.5 -70t25.5 -96q0 -53 -26 -97t-70 -70t-96 -26t-96 26zM298.5 484q30.5 18 48.5 48.5t18 65.5t-18.5 65t-49 48t-64.5 18q-35 0 -65.5 -18t-48.5 -48t-18 -65q0 -36 18 -66t48.5 -48t65.5 -18
t65.5 18z" />
    <glyph glyph-name="plusminus" unicode="&#xb1;" horiz-adv-x="547" 
d="M250.5 170.5q-8.5 8.5 -8.5 21.5v173h-172q-13 0 -21.5 8.5t-8.5 21.5t8.5 21.5t21.5 8.5h172v173q0 13 8.5 21.5t21.5 8.5t22 -8.5t9 -21.5v-173h172q13 0 21.5 -8.5t8.5 -21.5t-8.5 -21.5t-21.5 -8.5h-172v-173q0 -13 -9 -21.5t-22 -8.5t-21.5 8.5zM48.5 8.5
q-8.5 8.5 -8.5 21.5t8.5 22t21.5 9h405q13 0 21.5 -9t8.5 -22t-8.5 -21.5t-21.5 -8.5h-405q-13 0 -21.5 8.5z" />
    <glyph glyph-name="uni00B2" unicode="&#xb2;" horiz-adv-x="357" 
d="M302.5 432.5q9.5 -7.5 9.5 -20.5t-9 -19.5t-23 -6.5h-194q-14 0 -23 9t-9 23q0 13 8 23l164 183q18 19 18 46q0 29 -20 48t-48 19q-34 0 -56 -20.5t-22 -50.5q0 -14 -6.5 -23t-20.5 -9q-12 0 -19 9.5t-7 22.5q0 53 38 88.5t95 35.5q52 0 87 -34t35 -85q0 -27 -12.5 -47
t-37.5 -47l-126 -137h156q13 0 22.5 -7.5z" />
    <glyph glyph-name="uni00B3" unicode="&#xb3;" horiz-adv-x="354" 
d="M254.5 758q34.5 -31 34.5 -77q0 -28 -16.5 -53.5t-38.5 -33.5q30 -13 47.5 -37t17.5 -60q0 -50 -35 -83.5t-88 -33.5q-56 0 -93.5 34.5t-37.5 86.5q0 15 7.5 23.5t21.5 8.5q22 0 22 -32q0 -30 23 -50t56 -20q29 0 49 18.5t20 46.5q0 30 -17 50.5t-42 20.5q-35 0 -35 26
q0 28 30 28q54 0 54 59q0 25 -16 40.5t-47 15.5q-33 0 -51 -15t-22 -41q-2 -11 -8.5 -18.5t-14.5 -7.5q-13 0 -21 7.5t-8 20.5q0 46 35 76.5t88 30.5q51 0 85.5 -31z" />
    <glyph glyph-name="acute" unicode="&#xb4;" horiz-adv-x="273" 
d="M51 607q-9 9 -9 22q0 11 7 20l123 123q9 9 22 9t22 -9t9 -22q0 -12 -9 -21l-123 -123q-8 -8 -20 -8q-13 0 -22 9z" />
    <glyph glyph-name="uni00B5" unicode="&#xb5;" horiz-adv-x="673" 
d="M575 539q8 -8 8 -22v-487q0 -13 -8 -21.5t-22 -8.5q-13 0 -21.5 8.5t-8.5 21.5v58q-31 -45 -80.5 -70t-109.5 -25q-66 0 -115.5 27.5t-77.5 76.5v-301q0 -14 -8 -22t-22 -8q-13 0 -21.5 8t-8.5 22v721q0 14 8.5 22t21.5 8q14 0 22 -8t8 -22v-269q0 -56 24.5 -100.5
t68.5 -69.5t100 -25q55 0 98 20t67.5 56t24.5 82v306q0 14 8.5 22t21.5 8q14 0 22 -8z" />
    <glyph glyph-name="paragraph" unicode="&#xb6;" horiz-adv-x="555" 
d="M255.5 8.5q-8.5 8.5 -8.5 21.5v367q-59 0 -105 25.5t-71.5 69.5t-25.5 97q0 52 26 96.5t70 70.5t96 26h243q13 0 21.5 -9t8.5 -22t-11.5 -21.5t-28.5 -8.5v-691q0 -13 -8.5 -21.5t-21.5 -8.5t-22 8.5t-9 21.5v691h-101v-691q0 -13 -9 -21.5t-22 -8.5t-21.5 8.5z" />
    <glyph glyph-name="periodcentered" unicode="&#xb7;" horiz-adv-x="195" 
d="M58 338.5q-15 14.5 -15 36.5q0 21 14.5 35.5t36.5 14.5q21 0 35.5 -14.5t14.5 -35.5q0 -22 -14.5 -36.5t-35.5 -14.5t-36 14.5z" />
    <glyph glyph-name="cedilla" unicode="&#xb8;" horiz-adv-x="313" 
d="M69.5 -212q-31.5 20 -31.5 46q0 13 8.5 22t21.5 9q8 0 14 -3.5t12 -8t9 -7.5q10 -8 19.5 -12.5t26.5 -4.5q26 0 42.5 11t16.5 30t-13 30.5t-44 20.5q-16 4 -24 10t-8 17q0 6 5 19l20 49q8 22 35 22q12 0 19.5 -7.5t7.5 -18.5q0 -6 -3 -12l-15 -36q50 -15 69 -37t19 -55
q0 -44 -38 -74t-89 -30q-48 0 -79.5 20z" />
    <glyph glyph-name="uni00B9" unicode="&#xb9;" horiz-adv-x="254" 
d="M137 416l1 299l-86 -28q-5 -2 -15 -2q-27 0 -27 25q0 17 21 25l107 39q15 6 28 6t20.5 -7.5t7.5 -23.5v-333q-1 -16 -7 -23t-21 -7q-29 0 -29 30z" />
    <glyph glyph-name="ordmasculine" unicode="&#xba;" horiz-adv-x="468" 
d="M135 429.5q-44 25.5 -69.5 69.5t-25.5 99t25.5 99t69.5 69.5t99 25.5t99 -25.5t69.5 -69.5t25.5 -99t-25.5 -99t-69.5 -69.5t-99 -25.5t-99 25.5zM331.5 501q38.5 39 38.5 97q0 59 -38.5 97.5t-97.5 38.5q-58 0 -97 -38.5t-39 -97.5q0 -58 39 -97t97 -39q59 0 97.5 39z
" />
    <glyph glyph-name="guillemotright" unicode="&#xbb;" horiz-adv-x="469" 
d="M49.5 8.5q-8.5 8.5 -8.5 21.5q0 7 2 13l115 230l-115 230q-2 8 -2 13q0 13 8.5 21.5t21.5 8.5q9 0 15.5 -4.5t12.5 -14.5l120 -239q4 -10 4 -15q0 -7 -5 -17l-119 -237q-5 -10 -11.5 -14.5t-16.5 -4.5q-13 0 -21.5 8.5zM256.5 8.5q-8.5 8.5 -8.5 21.5q0 7 2 13l115 230
l-115 230q-2 8 -2 13q0 13 8.5 21.5t21.5 8.5q9 0 15.5 -4.5t12.5 -14.5l120 -239q4 -10 4 -15q0 -7 -5 -17l-119 -237q-5 -10 -11.5 -14.5t-16.5 -4.5q-13 0 -21.5 8.5z" />
    <glyph glyph-name="onequarter" unicode="&#xbc;" horiz-adv-x="743" 
d="M137 416l1 299l-86 -28q-5 -2 -15 -2q-27 0 -27 25q0 17 21 25l107 39q15 6 28 6t20.5 -7.5t7.5 -23.5v-333q-1 -16 -7 -23t-21 -7q-29 0 -29 30zM612 790q13 0 20 -7t7 -18q0 -12 -7 -22l-479 -727q-10 -16 -27 -16q-13 0 -20 7.5t-7 18.5t7 21l482 732q8 11 24 11z
M586 30v57h-157q-16 0 -26.5 9.5t-10.5 23.5q0 17 13 33l174 225q14 17 33 17q13 0 22 -8.5t9 -23.5v-223h37q28 0 28 -27q0 -26 -28 -26h-37v-57q0 -30 -28 -30q-29 0 -29 30zM458 140h131l1 172z" />
    <glyph glyph-name="onehalf" unicode="&#xbd;" horiz-adv-x="761" 
d="M137 416l1 299l-86 -28q-5 -2 -15 -2q-27 0 -27 25q0 17 21 25l107 39q15 6 28 6t20.5 -7.5t7.5 -23.5v-333q-1 -16 -7 -23t-21 -7q-29 0 -29 30zM629 790q13 0 20 -7t7 -18q0 -12 -7 -22l-479 -727q-10 -16 -27 -16q-13 0 -20 7.5t-7 18.5t7 21l482 732q8 11 24 11z
M731.5 46.5q9.5 -7.5 9.5 -20.5t-9 -19.5t-23 -6.5h-194q-14 0 -23 9t-9 23q0 13 8 23l164 183q18 19 18 46q0 29 -20 48t-48 19q-34 0 -56 -20.5t-22 -50.5q0 -14 -6.5 -23t-20.5 -9q-12 0 -19 9.5t-7 22.5q0 53 38 88.5t95 35.5q52 0 87 -34t35 -85q0 -27 -12.5 -47
t-37.5 -47l-126 -137h156q13 0 22.5 -7.5z" />
    <glyph glyph-name="threequarters" unicode="&#xbe;" horiz-adv-x="819" 
d="M254.5 758q34.5 -31 34.5 -77q0 -28 -16.5 -53.5t-38.5 -33.5q30 -13 47.5 -37t17.5 -60q0 -50 -35 -83.5t-88 -33.5q-56 0 -93.5 34.5t-37.5 86.5q0 15 7.5 23.5t21.5 8.5q22 0 22 -32q0 -30 23 -50t56 -20q29 0 49 18.5t20 46.5q0 30 -17 50.5t-42 20.5q-35 0 -35 26
q0 28 30 28q54 0 54 59q0 25 -16 40.5t-47 15.5q-33 0 -51 -15t-22 -41q-2 -11 -8.5 -18.5t-14.5 -7.5q-13 0 -21 7.5t-8 20.5q0 46 35 76.5t88 30.5q51 0 85.5 -31zM657 790q13 0 20 -7t7 -18q0 -12 -7 -22l-479 -727q-10 -16 -27 -16q-13 0 -20 7.5t-7 18.5t7 21l482 732
q8 11 24 11zM657 30v57h-157q-16 0 -26.5 9.5t-10.5 23.5q0 17 13 33l174 225q14 17 33 17q13 0 22 -8.5t9 -23.5v-223h37q28 0 28 -27q0 -26 -28 -26h-37v-57q0 -30 -28 -30q-29 0 -29 30zM529 140h131l1 172z" />
    <glyph glyph-name="questiondown" unicode="&#xbf;" horiz-adv-x="547" 
d="M236 534.5q-15 14.5 -15 35.5q0 22 15 36.5t36 14.5t35.5 -15t14.5 -36t-14 -35.5t-36 -14.5q-21 0 -36 14.5zM121 -39.5q22 -35.5 61.5 -56t89.5 -20.5q76 0 124 48t48 124q0 13 8.5 21t21.5 8q14 0 22.5 -8t8.5 -21q0 -67 -30 -120t-83 -82.5t-120 -29.5t-120 29
t-83 80t-30 113q0 44 14 78t35.5 59t61.5 63l37 35q54 54 54 137q0 14 9 22.5t22 8.5t21.5 -8.5t8.5 -22.5q0 -41 -19 -87t-49 -77l-35 -34q-34 -32 -54 -54.5t-33 -53.5t-13 -72q0 -44 22 -79.5z" />
    <glyph glyph-name="Agrave" unicode="&#xc0;" horiz-adv-x="703" 
d="M690 30q0 -12 -9 -21t-21 -9q-20 0 -28 19l-74 177h-407l-74 -177q-7 -19 -28 -19q-14 0 -22 9t-8 21q0 7 3 13l303 717q8 21 29 21q20 0 29 -21l304 -717q3 -6 3 -13zM174 250h361l-181 432zM332 881l-123 123q-8 8 -8 21t9 22t22 9q12 0 21 -9l123 -123q7 -7 7 -20
t-8.5 -22t-21.5 -9q-10 0 -21 8z" />
    <glyph glyph-name="Aacute" unicode="&#xc1;" horiz-adv-x="703" 
d="M690 30q0 -12 -9 -21t-21 -9q-20 0 -28 19l-74 177h-407l-74 -177q-7 -19 -28 -19q-14 0 -22 9t-8 21q0 7 3 13l303 717q8 21 29 21q20 0 29 -21l304 -717q3 -6 3 -13zM174 250h361l-181 432zM315 871q-9 9 -9 22q0 11 7 20l123 123q9 9 22 9t22 -9t9 -22q0 -12 -9 -21
l-123 -123q-8 -8 -20 -8q-13 0 -22 9z" />
    <glyph glyph-name="Acircumflex" unicode="&#xc2;" horiz-adv-x="703" 
d="M690 30q0 -12 -9 -21t-21 -9q-20 0 -28 19l-74 177h-407l-74 -177q-7 -19 -28 -19q-14 0 -22 9t-8 21q0 7 3 13l303 717q8 21 29 21q20 0 29 -21l304 -717q3 -6 3 -13zM174 250h361l-181 432zM209 890.5q-9 8.5 -9 21.5q0 17 16 27l121 81q8 4 15 4t15 -4l121 -81
q16 -10 16 -27q0 -13 -9 -21.5t-22 -8.5q-10 0 -19 6l-102 68l-102 -68q-9 -6 -18 -6q-14 0 -23 8.5z" />
    <glyph glyph-name="Atilde" unicode="&#xc3;" horiz-adv-x="703" 
d="M690 30q0 -12 -9 -21t-21 -9q-20 0 -28 19l-74 177h-407l-74 -177q-7 -19 -28 -19q-14 0 -22 9t-8 21q0 7 3 13l303 717q8 21 29 21q20 0 29 -21l304 -717q3 -6 3 -13zM174 250h361l-181 432zM372.5 896.5q-19.5 10.5 -32.5 23.5q-16 16 -26.5 22.5t-22.5 6.5t-21 -10.5
t-21 -32.5q-9 -18 -28 -18q-12 0 -18.5 7t-6.5 17q0 7 3 14q17 39 39 56.5t52 17.5q23 0 37 -7.5t35 -25.5q20 -17 29.5 -22.5t17.5 -5.5q15 0 26 30q4 12 14.5 18t21.5 3q22 -6 22 -25q0 -6 -3 -12q-15 -36 -33.5 -51.5t-43.5 -15.5q-21 0 -40.5 10.5z" />
    <glyph glyph-name="Adieresis" unicode="&#xc4;" horiz-adv-x="703" 
d="M690 30q0 -12 -9 -21t-21 -9q-20 0 -28 19l-74 177h-407l-74 -177q-7 -19 -28 -19q-14 0 -22 9t-8 21q0 7 3 13l303 717q8 21 29 21q20 0 29 -21l304 -717q3 -6 3 -13zM174 250h361l-181 432zM215 906q-15 15 -15 37q0 21 15 36t37 15t36.5 -15t14.5 -36q0 -22 -14.5 -37
t-36.5 -15t-37 15zM415 906q-15 15 -15 37q0 21 15 36t37 15t36.5 -15t14.5 -36q0 -22 -14.5 -37t-36.5 -15t-37 15z" />
    <glyph glyph-name="Aring" unicode="&#xc5;" horiz-adv-x="703" 
d="M690 30q0 -12 -9 -21t-21 -9q-20 0 -28 19l-74 177h-407l-74 -177q-7 -19 -28 -19q-14 0 -22 9t-8 21q0 7 3 13l303 717q8 21 29 21q20 0 29 -21l304 -717q3 -6 3 -13zM174 250h361l-181 432zM287 858.5q-27 27.5 -27 64.5q0 38 27.5 65t64.5 27q38 0 65 -27t27 -65
q0 -37 -27 -64.5t-65 -27.5t-65 27.5zM390 885.5q16 15.5 16 37.5q0 23 -16 38.5t-38 15.5t-37.5 -16t-15.5 -38t15.5 -37.5t37.5 -15.5t38 15.5z" />
    <glyph glyph-name="AE" unicode="&#xc6;" horiz-adv-x="931" 
d="M877 51q9 -9 9 -21q0 -13 -9 -21.5t-21 -8.5h-381q-13 0 -21.5 8.5t-8.5 21.5v166h-264l-104 -177q-7 -19 -28 -19q-14 0 -22.5 9t-8.5 21q0 5 4 13l418 710q9 15 21 21.5t32 6.5h363q12 0 21 -8.5t9 -21.5q0 -12 -9 -21t-21 -9h-351v-300h231q13 0 21.5 -8.5t8.5 -21.5
t-8.5 -22t-21.5 -9h-231v-300h351q12 0 21 -9zM213 250h232v394z" />
    <glyph glyph-name="Ccedilla" unicode="&#xc7;" horiz-adv-x="767" 
d="M673 128q12 0 21.5 -9t9.5 -22t-7 -21q-77 -77 -209 -85l-11 -27q50 -15 69 -37t19 -55q0 -44 -38 -74t-89 -30q-48 0 -79.5 20t-31.5 46q0 13 8.5 22t21.5 9q8 0 14 -3.5t12 -8t9 -7.5q10 -8 19.5 -12.5t26.5 -4.5q26 0 42.5 11t16.5 30t-13 30.5t-44 20.5q-16 4 -24 10
t-8 17q0 6 5 19l10 24q-99 7 -182 63t-132 145.5t-49 191.5q0 107 52.5 199t142 146.5t196.5 54.5q140 0 247 -89q9 -7 9 -20q0 -12 -8 -21.5t-22 -9.5q-11 0 -25 12q-76 68 -201 68q-88 0 -164.5 -47t-121.5 -125.5t-45 -167.5q0 -92 44.5 -170.5t121 -124.5t165.5 -46
q118 0 207 73q7 5 15 5z" />
    <glyph glyph-name="Egrave" unicode="&#xc8;" horiz-adv-x="686" 
d="M108.5 8.5q-8.5 8.5 -8.5 21.5v721q0 13 8.5 21.5t21.5 8.5h481q12 0 21 -8.5t9 -21.5q0 -12 -9 -21t-21 -9h-451v-300h331q13 0 21.5 -8.5t8.5 -21.5t-8.5 -22t-21.5 -9h-331v-300h451q12 0 21 -9t9 -21q0 -13 -9 -21.5t-21 -8.5h-481q-13 0 -21.5 8.5zM354 881
l-123 123q-8 8 -8 21t9 22t22 9q12 0 21 -9l123 -123q7 -7 7 -20t-8.5 -22t-21.5 -9q-10 0 -21 8z" />
    <glyph glyph-name="Eacute" unicode="&#xc9;" horiz-adv-x="686" 
d="M108.5 8.5q-8.5 8.5 -8.5 21.5v721q0 13 8.5 21.5t21.5 8.5h481q12 0 21 -8.5t9 -21.5q0 -12 -9 -21t-21 -9h-451v-300h331q13 0 21.5 -8.5t8.5 -21.5t-8.5 -22t-21.5 -9h-331v-300h451q12 0 21 -9t9 -21q0 -13 -9 -21.5t-21 -8.5h-481q-13 0 -21.5 8.5zM337 871
q-9 9 -9 22q0 11 7 20l123 123q9 9 22 9t22 -9t9 -22q0 -12 -9 -21l-123 -123q-8 -8 -20 -8q-13 0 -22 9z" />
    <glyph glyph-name="Ecircumflex" unicode="&#xca;" horiz-adv-x="686" 
d="M108.5 8.5q-8.5 8.5 -8.5 21.5v721q0 13 8.5 21.5t21.5 8.5h481q12 0 21 -8.5t9 -21.5q0 -12 -9 -21t-21 -9h-451v-300h331q13 0 21.5 -8.5t8.5 -21.5t-8.5 -22t-21.5 -9h-331v-300h451q12 0 21 -9t9 -21q0 -13 -9 -21.5t-21 -8.5h-481q-13 0 -21.5 8.5zM231 890.5
q-9 8.5 -9 21.5q0 17 16 27l121 81q8 4 15 4t15 -4l121 -81q16 -10 16 -27q0 -13 -9 -21.5t-22 -8.5q-10 0 -19 6l-102 68l-102 -68q-9 -6 -18 -6q-14 0 -23 8.5z" />
    <glyph glyph-name="Edieresis" unicode="&#xcb;" horiz-adv-x="686" 
d="M108.5 8.5q-8.5 8.5 -8.5 21.5v721q0 13 8.5 21.5t21.5 8.5h481q12 0 21 -8.5t9 -21.5q0 -12 -9 -21t-21 -9h-451v-300h331q13 0 21.5 -8.5t8.5 -21.5t-8.5 -22t-21.5 -9h-331v-300h451q12 0 21 -9t9 -21q0 -13 -9 -21.5t-21 -8.5h-481q-13 0 -21.5 8.5zM237 906
q-15 15 -15 37q0 21 15 36t37 15t36.5 -15t14.5 -36q0 -22 -14.5 -37t-36.5 -15t-37 15zM437 906q-15 15 -15 37q0 21 15 36t37 15t36.5 -15t14.5 -36q0 -22 -14.5 -37t-36.5 -15t-37 15z" />
    <glyph glyph-name="Igrave" unicode="&#xcc;" horiz-adv-x="260" 
d="M108.5 8.5q-8.5 8.5 -8.5 21.5v721q0 13 8.5 21.5t21.5 8.5t21.5 -8.5t8.5 -21.5v-721q0 -13 -8.5 -21.5t-21.5 -8.5t-21.5 8.5zM110 881l-123 123q-8 8 -8 21t9 22t22 9q12 0 21 -9l123 -123q7 -7 7 -20t-8.5 -22t-21.5 -9q-10 0 -21 8z" />
    <glyph glyph-name="Iacute" unicode="&#xcd;" horiz-adv-x="260" 
d="M108.5 8.5q-8.5 8.5 -8.5 21.5v721q0 13 8.5 21.5t21.5 8.5t21.5 -8.5t8.5 -21.5v-721q0 -13 -8.5 -21.5t-21.5 -8.5t-21.5 8.5zM93 871q-9 9 -9 22q0 11 7 20l123 123q9 9 22 9t22 -9t9 -22q0 -12 -9 -21l-123 -123q-8 -8 -20 -8q-13 0 -22 9z" />
    <glyph glyph-name="Icircumflex" unicode="&#xce;" horiz-adv-x="260" 
d="M108.5 8.5q-8.5 8.5 -8.5 21.5v721q0 13 8.5 21.5t21.5 8.5t21.5 -8.5t8.5 -21.5v-721q0 -13 -8.5 -21.5t-21.5 -8.5t-21.5 8.5zM-13 890.5q-9 8.5 -9 21.5q0 17 16 27l121 81q8 4 15 4t15 -4l121 -81q16 -10 16 -27q0 -13 -9 -21.5t-22 -8.5q-10 0 -19 6l-102 68
l-102 -68q-9 -6 -18 -6q-14 0 -23 8.5z" />
    <glyph glyph-name="Idieresis" unicode="&#xcf;" horiz-adv-x="260" 
d="M108.5 8.5q-8.5 8.5 -8.5 21.5v721q0 13 8.5 21.5t21.5 8.5t21.5 -8.5t8.5 -21.5v-721q0 -13 -8.5 -21.5t-21.5 -8.5t-21.5 8.5zM-7 906q-15 15 -15 37q0 21 15 36t37 15t36.5 -15t14.5 -36q0 -22 -14.5 -37t-36.5 -15t-37 15zM193 906q-15 15 -15 37q0 21 15 36t37 15
t36.5 -15t14.5 -36q0 -22 -14.5 -37t-36.5 -15t-37 15z" />
    <glyph glyph-name="Eth" unicode="&#xd0;" horiz-adv-x="761" 
d="M512 731q89 -50 139 -138.5t50 -201.5t-50 -202t-139 -139t-202 -50h-180q-13 0 -21.5 8.5t-8.5 21.5v334h-73q-12 0 -19.5 7.5t-7.5 19.5t7.5 19.5t19.5 7.5h73v333q0 14 8.5 22t21.5 8h180q113 0 202 -50zM481 97.5q75 43.5 117.5 120.5t42.5 173t-42.5 172.5
t-117.5 120t-171 43.5h-150v-309h165q12 0 19.5 -7.5t7.5 -19.5t-7.5 -19.5t-19.5 -7.5h-165v-310h150q96 0 171 43.5z" />
    <glyph glyph-name="Ntilde" unicode="&#xd1;" horiz-adv-x="821" 
d="M108.5 8.5q-8.5 8.5 -8.5 21.5v721q0 13 8.5 21.5t21.5 8.5q14 0 23 -10l508 -661v641q0 13 8.5 21.5t21.5 8.5q12 0 21 -8.5t9 -21.5v-721q0 -13 -9 -21.5t-21 -8.5q-14 0 -22 9l-509 662v-641q0 -13 -8.5 -21.5t-21.5 -8.5t-21.5 8.5zM467 873.5q-21 9.5 -45 25.5
q-20 14 -32 18.5t-25 4.5q-41 0 -77 -41q-9 -12 -25 -12q-10 0 -15 4q-15 9 -15 23q0 10 6 17q27 32 59.5 49.5t66.5 17.5q26 0 45.5 -8.5t44.5 -24.5q21 -14 32.5 -19.5t28.5 -5.5q34 0 55 22q12 14 28 14q7 0 11 -3q18 -9 18 -24q0 -8 -6 -16q-39 -51 -106 -51
q-28 0 -49 9.5z" />
    <glyph glyph-name="Ograve" unicode="&#xd2;" horiz-adv-x="921" 
d="M256.5 42.5q-91.5 52.5 -144 144t-52.5 204.5q0 112 52.5 203.5t144 144t204.5 52.5q112 0 203.5 -52.5t144 -144t52.5 -203.5q0 -113 -52.5 -204.5t-144 -144t-203.5 -52.5q-113 0 -204.5 52.5zM634 94.5q78 44.5 122.5 122.5t44.5 174q0 95 -44.5 173t-122.5 122.5
t-173 44.5q-96 0 -174 -44.5t-122.5 -122.5t-44.5 -173q0 -96 44.5 -174t122.5 -122.5t174 -44.5q95 0 173 44.5zM441 881l-123 123q-8 8 -8 21t9 22t22 9q12 0 21 -9l123 -123q7 -7 7 -20t-8.5 -22t-21.5 -9q-10 0 -21 8z" />
    <glyph glyph-name="Oacute" unicode="&#xd3;" horiz-adv-x="921" 
d="M256.5 42.5q-91.5 52.5 -144 144t-52.5 204.5q0 112 52.5 203.5t144 144t204.5 52.5q112 0 203.5 -52.5t144 -144t52.5 -203.5q0 -113 -52.5 -204.5t-144 -144t-203.5 -52.5q-113 0 -204.5 52.5zM634 94.5q78 44.5 122.5 122.5t44.5 174q0 95 -44.5 173t-122.5 122.5
t-173 44.5q-96 0 -174 -44.5t-122.5 -122.5t-44.5 -173q0 -96 44.5 -174t122.5 -122.5t174 -44.5q95 0 173 44.5zM424 871q-9 9 -9 22q0 11 7 20l123 123q9 9 22 9t22 -9t9 -22q0 -12 -9 -21l-123 -123q-8 -8 -20 -8q-13 0 -22 9z" />
    <glyph glyph-name="Ocircumflex" unicode="&#xd4;" horiz-adv-x="921" 
d="M256.5 42.5q-91.5 52.5 -144 144t-52.5 204.5q0 112 52.5 203.5t144 144t204.5 52.5q112 0 203.5 -52.5t144 -144t52.5 -203.5q0 -113 -52.5 -204.5t-144 -144t-203.5 -52.5q-113 0 -204.5 52.5zM634 94.5q78 44.5 122.5 122.5t44.5 174q0 95 -44.5 173t-122.5 122.5
t-173 44.5q-96 0 -174 -44.5t-122.5 -122.5t-44.5 -173q0 -96 44.5 -174t122.5 -122.5t174 -44.5q95 0 173 44.5zM318 890.5q-9 8.5 -9 21.5q0 17 16 27l121 81q8 4 15 4t15 -4l121 -81q16 -10 16 -27q0 -13 -9 -21.5t-22 -8.5q-10 0 -19 6l-102 68l-102 -68q-9 -6 -18 -6
q-14 0 -23 8.5z" />
    <glyph glyph-name="Otilde" unicode="&#xd5;" horiz-adv-x="921" 
d="M256.5 42.5q-91.5 52.5 -144 144t-52.5 204.5q0 112 52.5 203.5t144 144t204.5 52.5q112 0 203.5 -52.5t144 -144t52.5 -203.5q0 -113 -52.5 -204.5t-144 -144t-203.5 -52.5q-113 0 -204.5 52.5zM634 94.5q78 44.5 122.5 122.5t44.5 174q0 95 -44.5 173t-122.5 122.5
t-173 44.5q-96 0 -174 -44.5t-122.5 -122.5t-44.5 -173q0 -96 44.5 -174t122.5 -122.5t174 -44.5q95 0 173 44.5zM517 873.5q-21 9.5 -45 25.5q-20 14 -32 18.5t-25 4.5q-41 0 -77 -41q-9 -12 -25 -12q-10 0 -15 4q-15 9 -15 23q0 10 6 17q27 32 59.5 49.5t66.5 17.5
q26 0 45.5 -8.5t44.5 -24.5q21 -14 32.5 -19.5t28.5 -5.5q34 0 55 22q12 14 28 14q7 0 11 -3q18 -9 18 -24q0 -8 -6 -16q-39 -51 -106 -51q-28 0 -49 9.5z" />
    <glyph glyph-name="Odieresis" unicode="&#xd6;" horiz-adv-x="921" 
d="M256.5 42.5q-91.5 52.5 -144 144t-52.5 204.5q0 112 52.5 203.5t144 144t204.5 52.5q112 0 203.5 -52.5t144 -144t52.5 -203.5q0 -113 -52.5 -204.5t-144 -144t-203.5 -52.5q-113 0 -204.5 52.5zM634 94.5q78 44.5 122.5 122.5t44.5 174q0 95 -44.5 173t-122.5 122.5
t-173 44.5q-96 0 -174 -44.5t-122.5 -122.5t-44.5 -173q0 -96 44.5 -174t122.5 -122.5t174 -44.5q95 0 173 44.5zM324 906q-15 15 -15 37q0 21 15 36t37 15t36.5 -15t14.5 -36q0 -22 -14.5 -37t-36.5 -15t-37 15zM524 906q-15 15 -15 37q0 21 15 36t37 15t36.5 -15t14.5 -36
q0 -22 -14.5 -37t-36.5 -15t-37 15z" />
    <glyph glyph-name="multiply" unicode="&#xd7;" horiz-adv-x="469" 
d="M49.5 170.5q-8.5 8.5 -8.5 21.5q0 14 7 22l141 140l-141 141q-8 8 -7 19q0 15 8 24t22 9q13 0 22 -9l140 -140l140 140q9 9 22 9t21.5 -8.5t8.5 -21.5q0 -14 -8 -22l-141 -141l141 -140q8 -10 8 -22q0 -13 -8.5 -21.5t-21.5 -8.5q-12 0 -21 7l-141 142l-141 -142
q-8 -7 -21 -7t-21.5 8.5z" />
    <glyph glyph-name="Oslash" unicode="&#xd8;" horiz-adv-x="859" 
d="M837 532.5q24 -66.5 24 -141.5q0 -113 -52.5 -204.5t-144 -144t-203.5 -52.5q-78 0 -147.5 26t-122.5 73l-81 -81q-8 -8 -21 -8q-14 0 -22.5 9t-8.5 22q0 12 8 20l83 83q-43 52 -66 117.5t-23 139.5q0 112 52.5 203.5t144 144t204.5 52.5q76 0 144 -24.5t121 -70.5l78 77
q8 8 21 8t22.5 -9t9.5 -21q0 -11 -9 -20l-79 -79q44 -53 68 -119.5zM287 686.5q-78 -44.5 -122.5 -122.5t-44.5 -173q0 -63 19.5 -118.5t55.5 -100.5l484 484q-45 36 -100.5 55.5t-117.5 19.5q-96 0 -174 -44.5zM634 94.5q78 44.5 122.5 122.5t44.5 174q0 63 -20.5 120
t-57.5 102l-484 -484q45 -38 101.5 -58.5t120.5 -20.5q95 0 173 44.5z" />
    <glyph glyph-name="Ugrave" unicode="&#xd9;" horiz-adv-x="801" 
d="M244.5 18.5q-68.5 34.5 -106.5 96t-38 140.5v496q0 14 8.5 22t21.5 8q14 0 22 -8t8 -22v-496q0 -61 30.5 -109t85 -75t124.5 -27t124.5 27t85.5 75t31 109v496q0 14 8.5 22t21.5 8q14 0 22 -8t8 -22v-496q0 -79 -38.5 -140.5t-107 -96t-155.5 -34.5t-155.5 34.5zM381 881
l-123 123q-8 8 -8 21t9 22t22 9q12 0 21 -9l123 -123q7 -7 7 -20t-8.5 -22t-21.5 -9q-10 0 -21 8z" />
    <glyph glyph-name="Uacute" unicode="&#xda;" horiz-adv-x="801" 
d="M244.5 18.5q-68.5 34.5 -106.5 96t-38 140.5v496q0 14 8.5 22t21.5 8q14 0 22 -8t8 -22v-496q0 -61 30.5 -109t85 -75t124.5 -27t124.5 27t85.5 75t31 109v496q0 14 8.5 22t21.5 8q14 0 22 -8t8 -22v-496q0 -79 -38.5 -140.5t-107 -96t-155.5 -34.5t-155.5 34.5zM364 871
q-9 9 -9 22q0 11 7 20l123 123q9 9 22 9t22 -9t9 -22q0 -12 -9 -21l-123 -123q-8 -8 -20 -8q-13 0 -22 9z" />
    <glyph glyph-name="Ucircumflex" unicode="&#xdb;" horiz-adv-x="801" 
d="M244.5 18.5q-68.5 34.5 -106.5 96t-38 140.5v496q0 14 8.5 22t21.5 8q14 0 22 -8t8 -22v-496q0 -61 30.5 -109t85 -75t124.5 -27t124.5 27t85.5 75t31 109v496q0 14 8.5 22t21.5 8q14 0 22 -8t8 -22v-496q0 -79 -38.5 -140.5t-107 -96t-155.5 -34.5t-155.5 34.5z
M258 890.5q-9 8.5 -9 21.5q0 17 16 27l121 81q8 4 15 4t15 -4l121 -81q16 -10 16 -27q0 -13 -9 -21.5t-22 -8.5q-10 0 -19 6l-102 68l-102 -68q-9 -6 -18 -6q-14 0 -23 8.5z" />
    <glyph glyph-name="Udieresis" unicode="&#xdc;" horiz-adv-x="801" 
d="M244.5 18.5q-68.5 34.5 -106.5 96t-38 140.5v496q0 14 8.5 22t21.5 8q14 0 22 -8t8 -22v-496q0 -61 30.5 -109t85 -75t124.5 -27t124.5 27t85.5 75t31 109v496q0 14 8.5 22t21.5 8q14 0 22 -8t8 -22v-496q0 -79 -38.5 -140.5t-107 -96t-155.5 -34.5t-155.5 34.5zM264 906
q-15 15 -15 37q0 21 15 36t37 15t36.5 -15t14.5 -36q0 -22 -14.5 -37t-36.5 -15t-37 15zM464 906q-15 15 -15 37q0 21 15 36t37 15t36.5 -15t14.5 -36q0 -22 -14.5 -37t-36.5 -15t-37 15z" />
    <glyph glyph-name="Yacute" unicode="&#xdd;" horiz-adv-x="633" 
d="M620.5 773q7.5 -8 7.5 -20q0 -11 -5 -19l-276 -442v-262q0 -13 -8.5 -21.5t-21.5 -8.5t-21.5 8.5t-8.5 21.5v262l-276 442q-6 11 -6 19q0 12 8 20t21 8t24 -12l259 -422l255 415q7 11 13.5 15t15.5 4q12 0 19.5 -8zM280 871q-9 9 -9 22q0 11 7 20l123 123q9 9 22 9t22 -9
t9 -22q0 -12 -9 -21l-123 -123q-8 -8 -20 -8q-13 0 -22 9z" />
    <glyph glyph-name="Thorn" unicode="&#xde;" horiz-adv-x="605" 
d="M459 621.5q57 -29.5 89 -82t32 -118.5q0 -67 -32 -119.5t-89 -82t-129 -29.5h-170v-160q0 -13 -8 -21.5t-22 -8.5q-13 0 -21.5 8.5t-8.5 21.5v721q0 13 8.5 21.5t21.5 8.5t21.5 -8.5t8.5 -21.5v-100h170q72 0 129 -29.5zM428 267.5q43 23.5 67.5 63.5t24.5 90
q0 49 -24.5 89.5t-68 63.5t-97.5 23h-170v-353h170q55 0 98 23.5z" />
    <glyph glyph-name="germandbls" unicode="&#xdf;" horiz-adv-x="547" 
d="M70.5 8.5q-8.5 8.5 -8.5 20.5v549q0 53 25.5 96.5t72 69.5t106.5 26q53 0 95.5 -21t67 -60t24.5 -91q0 -37 -14.5 -63t-41.5 -59q-21 -24 -31 -40.5t-10 -35.5q0 -20 15 -38.5t47 -47.5q46 -42 71 -76.5t25 -81.5q0 -44 -24.5 -81t-68 -59t-96.5 -22q-37 0 -72 12t-57 30
t-22 35q0 12 6.5 20t17.5 8t17 -3.5t14 -11.5q15 -14 34.5 -21.5t61.5 -8.5q61 0 95 25t34 77q0 35 -20.5 62.5t-60.5 63.5q-39 35 -58 60t-19 57q0 25 12 45t35 45q26 30 38 50.5t12 50.5q0 59 -34.5 89.5t-94.5 30.5q-61 0 -101.5 -40t-40.5 -102v-539q0 -12 -9 -20.5
t-22 -8.5q-12 0 -20.5 8.5z" />
    <glyph glyph-name="agrave" unicode="&#xe0;" 
d="M482 516.5q64 -36.5 100.5 -100.5t36.5 -143v-243q0 -13 -8 -21.5t-22 -8.5q-13 0 -21.5 8.5t-8.5 21.5v78q-33 -53 -90.5 -83.5t-128.5 -30.5q-79 0 -143 36.5t-100.5 100.5t-36.5 142q0 79 36.5 143t100.5 100.5t143 36.5q78 0 142 -36.5zM452 79q50 29 78.5 80
t28.5 114t-28.5 114t-78.5 80.5t-112 29.5t-112 -29.5t-79 -80.5t-29 -114t29 -114t79 -80t112 -29t112 29zM320 647l-123 123q-8 8 -8 21t9 22t22 9q12 0 21 -9l123 -123q7 -7 7 -20t-8.5 -22t-21.5 -9q-10 0 -21 8z" />
    <glyph glyph-name="aacute" unicode="&#xe1;" 
d="M482 516.5q64 -36.5 100.5 -100.5t36.5 -143v-243q0 -13 -8 -21.5t-22 -8.5q-13 0 -21.5 8.5t-8.5 21.5v78q-33 -53 -90.5 -83.5t-128.5 -30.5q-79 0 -143 36.5t-100.5 100.5t-36.5 142q0 79 36.5 143t100.5 100.5t143 36.5q78 0 142 -36.5zM452 79q50 29 78.5 80
t28.5 114t-28.5 114t-78.5 80.5t-112 29.5t-112 -29.5t-79 -80.5t-29 -114t29 -114t79 -80t112 -29t112 29zM303 637q-9 9 -9 22q0 11 7 20l123 123q9 9 22 9t22 -9t9 -22q0 -12 -9 -21l-123 -123q-8 -8 -20 -8q-13 0 -22 9z" />
    <glyph glyph-name="acircumflex" unicode="&#xe2;" 
d="M482 516.5q64 -36.5 100.5 -100.5t36.5 -143v-243q0 -13 -8 -21.5t-22 -8.5q-13 0 -21.5 8.5t-8.5 21.5v78q-33 -53 -90.5 -83.5t-128.5 -30.5q-79 0 -143 36.5t-100.5 100.5t-36.5 142q0 79 36.5 143t100.5 100.5t143 36.5q78 0 142 -36.5zM452 79q50 29 78.5 80
t28.5 114t-28.5 114t-78.5 80.5t-112 29.5t-112 -29.5t-79 -80.5t-29 -114t29 -114t79 -80t112 -29t112 29zM197 656.5q-9 8.5 -9 21.5q0 17 16 27l121 81q8 4 15 4t15 -4l121 -81q16 -10 16 -27q0 -13 -9 -21.5t-22 -8.5q-10 0 -19 6l-102 68l-102 -68q-9 -6 -18 -6
q-14 0 -23 8.5z" />
    <glyph glyph-name="atilde" unicode="&#xe3;" 
d="M482 516.5q64 -36.5 100.5 -100.5t36.5 -143v-243q0 -13 -8 -21.5t-22 -8.5q-13 0 -21.5 8.5t-8.5 21.5v78q-33 -53 -90.5 -83.5t-128.5 -30.5q-79 0 -143 36.5t-100.5 100.5t-36.5 142q0 79 36.5 143t100.5 100.5t143 36.5q78 0 142 -36.5zM452 79q50 29 78.5 80
t28.5 114t-28.5 114t-78.5 80.5t-112 29.5t-112 -29.5t-79 -80.5t-29 -114t29 -114t79 -80t112 -29t112 29zM396 639.5q-21 9.5 -45 25.5q-20 14 -32 18.5t-25 4.5q-41 0 -77 -41q-9 -12 -25 -12q-10 0 -15 4q-15 9 -15 23q0 10 6 17q27 32 59.5 49.5t66.5 17.5
q26 0 45.5 -8.5t44.5 -24.5q21 -14 32.5 -19.5t28.5 -5.5q34 0 55 22q12 14 28 14q7 0 11 -3q18 -9 18 -24q0 -8 -6 -16q-39 -51 -106 -51q-28 0 -49 9.5z" />
    <glyph glyph-name="adieresis" unicode="&#xe4;" 
d="M482 516.5q64 -36.5 100.5 -100.5t36.5 -143v-243q0 -13 -8 -21.5t-22 -8.5q-13 0 -21.5 8.5t-8.5 21.5v78q-33 -53 -90.5 -83.5t-128.5 -30.5q-79 0 -143 36.5t-100.5 100.5t-36.5 142q0 79 36.5 143t100.5 100.5t143 36.5q78 0 142 -36.5zM452 79q50 29 78.5 80
t28.5 114t-28.5 114t-78.5 80.5t-112 29.5t-112 -29.5t-79 -80.5t-29 -114t29 -114t79 -80t112 -29t112 29zM203 672q-15 15 -15 37q0 21 15 36t37 15t36.5 -15t14.5 -36q0 -22 -14.5 -37t-36.5 -15t-37 15zM403 672q-15 15 -15 37q0 21 15 36t37 15t36.5 -15t14.5 -36
q0 -22 -14.5 -37t-36.5 -15t-37 15z" />
    <glyph glyph-name="aring" unicode="&#xe5;" 
d="M482 516.5q64 -36.5 100.5 -100.5t36.5 -143v-243q0 -13 -8 -21.5t-22 -8.5q-13 0 -21.5 8.5t-8.5 21.5v78q-33 -53 -90.5 -83.5t-128.5 -30.5q-79 0 -143 36.5t-100.5 100.5t-36.5 142q0 79 36.5 143t100.5 100.5t143 36.5q78 0 142 -36.5zM452 79q50 29 78.5 80
t28.5 114t-28.5 114t-78.5 80.5t-112 29.5t-112 -29.5t-79 -80.5t-29 -114t29 -114t79 -80t112 -29t112 29zM275 624.5q-27 27.5 -27 64.5q0 38 27.5 65t64.5 27q38 0 65 -27t27 -65q0 -37 -27 -64.5t-65 -27.5t-65 27.5zM378 651.5q16 15.5 16 37.5q0 23 -16 38.5t-38 15.5
t-37.5 -16t-15.5 -38t15.5 -37.5t37.5 -15.5t38 15.5z" />
    <glyph glyph-name="ae" unicode="&#xe6;" horiz-adv-x="1108" 
d="M946.5 517.5q57.5 -34.5 89.5 -95.5t32 -139q0 -13 -8 -20.5t-21 -7.5h-419q3 -59 31 -105.5t75 -72.5t105 -26q89 0 141 49q10 8 21 8t18 -6q11 -9 11 -21q0 -10 -9 -19q-32 -29 -83.5 -48t-98.5 -19q-67 0 -122 28t-90 79v-72q0 -13 -8 -21.5t-22 -8.5q-13 0 -21.5 8.5
t-8.5 21.5v78q-33 -53 -90.5 -83.5t-128.5 -30.5q-79 0 -143 36.5t-100.5 100.5t-36.5 142q0 79 36.5 143t100.5 100.5t143 36.5q84 0 151 -42t101 -113q29 71 88 112.5t136 41.5q73 0 130.5 -34.5zM452 79q50 29 78.5 80t28.5 114t-28.5 114t-78.5 80.5t-112 29.5
t-112 -29.5t-79 -80.5t-29 -114t29 -114t79 -80t112 -29t112 29zM684.5 444q-53.5 -52 -63.5 -137h389q-7 85 -60 137t-134 52q-78 0 -131.5 -52z" />
    <glyph glyph-name="ccedilla" unicode="&#xe7;" horiz-adv-x="593" 
d="M214 467.5q-45 -28.5 -69.5 -79.5t-24.5 -115q0 -63 27 -114t75 -80t110 -29q88 0 141 49q9 9 21 9q11 0 18 -7q10 -9 10 -22q0 -11 -8 -18q-31 -29 -72 -46t-88 -20l-13 -31q50 -15 69 -37t19 -55q0 -44 -38 -74t-89 -30q-48 0 -79.5 20t-31.5 46q0 13 8.5 22t21.5 9
q8 0 14 -3.5t12 -8t9 -7.5q10 -8 19.5 -12.5t26.5 -4.5q26 0 42.5 11t16.5 30t-13 30.5t-44 20.5q-16 4 -24 10t-8 17q0 6 5 19l12 30q-66 10 -118.5 48.5t-81.5 97.5t-29 130q0 79 33 142.5t92 100t132 36.5q64 0 117 -25t92 -74q7 -10 7 -17q0 -14 -14 -22q-7 -6 -16 -6
q-14 0 -23 12q-64 76 -163 76q-58 0 -103 -28.5z" />
    <glyph glyph-name="egrave" unicode="&#xe8;" horiz-adv-x="609" 
d="M447.5 517.5q57.5 -34.5 89.5 -95.5t32 -139q0 -13 -8 -20.5t-21 -7.5h-419q3 -59 31 -105.5t75 -72.5t105 -26q39 0 78.5 13.5t62.5 35.5q10 8 21 8t18 -6q11 -9 11 -21q0 -10 -9 -19q-32 -29 -83.5 -48t-98.5 -19q-79 0 -140.5 35.5t-96.5 99t-35 143.5
q0 81 32.5 144.5t91 99t133.5 35.5q73 0 130.5 -34.5zM185.5 444q-53.5 -52 -63.5 -137h389q-7 85 -60 137t-134 52q-78 0 -131.5 -52zM295 647l-123 123q-8 8 -8 21t9 22t22 9q12 0 21 -9l123 -123q7 -7 7 -20t-8.5 -22t-21.5 -9q-10 0 -21 8z" />
    <glyph glyph-name="eacute" unicode="&#xe9;" horiz-adv-x="609" 
d="M447.5 517.5q57.5 -34.5 89.5 -95.5t32 -139q0 -13 -8 -20.5t-21 -7.5h-419q3 -59 31 -105.5t75 -72.5t105 -26q39 0 78.5 13.5t62.5 35.5q10 8 21 8t18 -6q11 -9 11 -21q0 -10 -9 -19q-32 -29 -83.5 -48t-98.5 -19q-79 0 -140.5 35.5t-96.5 99t-35 143.5
q0 81 32.5 144.5t91 99t133.5 35.5q73 0 130.5 -34.5zM185.5 444q-53.5 -52 -63.5 -137h389q-7 85 -60 137t-134 52q-78 0 -131.5 -52zM278 637q-9 9 -9 22q0 11 7 20l123 123q9 9 22 9t22 -9t9 -22q0 -12 -9 -21l-123 -123q-8 -8 -20 -8q-13 0 -22 9z" />
    <glyph glyph-name="ecircumflex" unicode="&#xea;" horiz-adv-x="609" 
d="M447.5 517.5q57.5 -34.5 89.5 -95.5t32 -139q0 -13 -8 -20.5t-21 -7.5h-419q3 -59 31 -105.5t75 -72.5t105 -26q39 0 78.5 13.5t62.5 35.5q10 8 21 8t18 -6q11 -9 11 -21q0 -10 -9 -19q-32 -29 -83.5 -48t-98.5 -19q-79 0 -140.5 35.5t-96.5 99t-35 143.5
q0 81 32.5 144.5t91 99t133.5 35.5q73 0 130.5 -34.5zM185.5 444q-53.5 -52 -63.5 -137h389q-7 85 -60 137t-134 52q-78 0 -131.5 -52zM172 656.5q-9 8.5 -9 21.5q0 17 16 27l121 81q8 4 15 4t15 -4l121 -81q16 -10 16 -27q0 -13 -9 -21.5t-22 -8.5q-10 0 -19 6l-102 68
l-102 -68q-9 -6 -18 -6q-14 0 -23 8.5z" />
    <glyph glyph-name="edieresis" unicode="&#xeb;" horiz-adv-x="609" 
d="M447.5 517.5q57.5 -34.5 89.5 -95.5t32 -139q0 -13 -8 -20.5t-21 -7.5h-419q3 -59 31 -105.5t75 -72.5t105 -26q39 0 78.5 13.5t62.5 35.5q10 8 21 8t18 -6q11 -9 11 -21q0 -10 -9 -19q-32 -29 -83.5 -48t-98.5 -19q-79 0 -140.5 35.5t-96.5 99t-35 143.5
q0 81 32.5 144.5t91 99t133.5 35.5q73 0 130.5 -34.5zM185.5 444q-53.5 -52 -63.5 -137h389q-7 85 -60 137t-134 52q-78 0 -131.5 -52zM178 672q-15 15 -15 37q0 21 15 36t37 15t36.5 -15t14.5 -36q0 -22 -14.5 -37t-36.5 -15t-37 15zM378 672q-15 15 -15 37q0 21 15 36
t37 15t36.5 -15t14.5 -36q0 -22 -14.5 -37t-36.5 -15t-37 15z" />
    <glyph glyph-name="igrave" unicode="&#xec;" horiz-adv-x="280" 
d="M118.5 8.5q-8.5 8.5 -8.5 21.5v487q0 14 8.5 22t21.5 8q14 0 22 -8t8 -22v-487q0 -13 -8 -21.5t-22 -8.5q-13 0 -21.5 8.5zM120 647l-123 123q-8 8 -8 21t9 22t22 9q12 0 21 -9l123 -123q7 -7 7 -20t-8.5 -22t-21.5 -9q-10 0 -21 8z" />
    <glyph glyph-name="iacute" unicode="&#xed;" horiz-adv-x="280" 
d="M118.5 8.5q-8.5 8.5 -8.5 21.5v487q0 14 8.5 22t21.5 8q14 0 22 -8t8 -22v-487q0 -13 -8 -21.5t-22 -8.5q-13 0 -21.5 8.5zM103 637q-9 9 -9 22q0 11 7 20l123 123q9 9 22 9t22 -9t9 -22q0 -12 -9 -21l-123 -123q-8 -8 -20 -8q-13 0 -22 9z" />
    <glyph glyph-name="icircumflex" unicode="&#xee;" horiz-adv-x="280" 
d="M11 656.5q-8 8.5 -8 21.5q0 17 14 27l109 81q8 4 14 4q7 0 13 -4l109 -81q14 -10 14 -27q0 -13 -7.5 -21.5t-19.5 -8.5q-9 0 -18 6l-91 68l-92 -68q-9 -6 -16 -6q-13 0 -21 8.5zM118.5 8.5q-8.5 8.5 -8.5 21.5v487q0 14 8.5 22t21.5 8q14 0 22 -8t8 -22v-487
q0 -13 -8 -21.5t-22 -8.5q-13 0 -21.5 8.5z" />
    <glyph glyph-name="idieresis" unicode="&#xef;" horiz-adv-x="280" 
d="M13 692q-15 15 -15 37q0 21 15 36t37 15t36.5 -15t14.5 -36q0 -22 -14.5 -37t-36.5 -15t-37 15zM193 692q-15 15 -15 37q0 21 15 36t37 15t36.5 -15t14.5 -36q0 -22 -14.5 -37t-36.5 -15t-37 15zM118.5 8.5q-8.5 8.5 -8.5 21.5v487q0 14 8.5 22t21.5 8q14 0 22 -8t8 -22
v-487q0 -13 -8 -21.5t-22 -8.5q-13 0 -21.5 8.5z" />
    <glyph glyph-name="eth" unicode="&#xf0;" horiz-adv-x="663" 
d="M537 593q56 -94 56 -246v-61q-1 -85 -35 -151t-94 -103.5t-137 -37.5t-138 34t-95 95t-34 138q0 76 34 135.5t95 93t138 33.5q81 0 139.5 -42.5t79.5 -114.5q-4 125 -56 202.5t-165 129.5l-34 -70q-7 -16 -23 -16q-7 0 -10 2q-13 7 -13 21q0 7 3 13l33 69q-45 17 -62 22
q-11 4 -19 12.5t-8 18.5q0 5 1 8q6 19 27 19q8 0 15 -3q34 -11 71 -26l28 59q8 17 23 17q5 0 11 -3q13 -7 13 -21q0 -7 -3 -13l-28 -58q131 -62 187 -156zM434 77q47 27 73 75t26 109q0 60 -26 107t-73 73t-107 26t-107 -26t-73.5 -73t-26.5 -107q0 -61 26.5 -109t73.5 -75
t107 -27t107 27z" />
    <glyph glyph-name="ntilde" unicode="&#xf1;" horiz-adv-x="673" 
d="M470.5 524q57.5 -30 90 -87.5t32.5 -137.5v-269q0 -13 -8.5 -21.5t-21.5 -8.5t-21.5 8.5t-8.5 21.5v269q0 95 -53.5 145t-139.5 50q-53 0 -96.5 -20.5t-68.5 -57t-25 -80.5v-306q0 -13 -8 -21.5t-22 -8.5q-13 0 -21.5 8.5t-8.5 21.5v487q0 14 8.5 22t21.5 8q14 0 22 -8
t8 -22v-52q34 42 83 65.5t107 23.5q73 0 130.5 -30zM393 639.5q-21 9.5 -45 25.5q-20 14 -32 18.5t-25 4.5q-41 0 -77 -41q-9 -12 -25 -12q-10 0 -15 4q-15 9 -15 23q0 10 6 17q27 32 59.5 49.5t66.5 17.5q26 0 45.5 -8.5t44.5 -24.5q21 -14 32.5 -19.5t28.5 -5.5
q34 0 55 22q12 14 28 14q7 0 11 -3q18 -9 18 -24q0 -8 -6 -16q-39 -51 -106 -51q-28 0 -49 9.5z" />
    <glyph glyph-name="ograve" unicode="&#xf2;" 
d="M197 30.5q-64 36.5 -100.5 100.5t-36.5 142q0 79 36.5 143t100.5 100.5t143 36.5q78 0 142 -36.5t100.5 -100.5t36.5 -143q0 -78 -36.5 -142t-100.5 -100.5t-142 -36.5q-79 0 -143 36.5zM452 79q50 29 78.5 80t28.5 114t-28.5 114t-78.5 80.5t-112 29.5t-112 -29.5
t-79 -80.5t-29 -114t29 -114t79 -80t112 -29t112 29zM320 647l-123 123q-8 8 -8 21t9 22t22 9q12 0 21 -9l123 -123q7 -7 7 -20t-8.5 -22t-21.5 -9q-10 0 -21 8z" />
    <glyph glyph-name="oacute" unicode="&#xf3;" 
d="M197 30.5q-64 36.5 -100.5 100.5t-36.5 142q0 79 36.5 143t100.5 100.5t143 36.5q78 0 142 -36.5t100.5 -100.5t36.5 -143q0 -78 -36.5 -142t-100.5 -100.5t-142 -36.5q-79 0 -143 36.5zM452 79q50 29 78.5 80t28.5 114t-28.5 114t-78.5 80.5t-112 29.5t-112 -29.5
t-79 -80.5t-29 -114t29 -114t79 -80t112 -29t112 29zM303 637q-9 9 -9 22q0 11 7 20l123 123q9 9 22 9t22 -9t9 -22q0 -12 -9 -21l-123 -123q-8 -8 -20 -8q-13 0 -22 9z" />
    <glyph glyph-name="ocircumflex" unicode="&#xf4;" 
d="M197 30.5q-64 36.5 -100.5 100.5t-36.5 142q0 79 36.5 143t100.5 100.5t143 36.5q78 0 142 -36.5t100.5 -100.5t36.5 -143q0 -78 -36.5 -142t-100.5 -100.5t-142 -36.5q-79 0 -143 36.5zM452 79q50 29 78.5 80t28.5 114t-28.5 114t-78.5 80.5t-112 29.5t-112 -29.5
t-79 -80.5t-29 -114t29 -114t79 -80t112 -29t112 29zM197 656.5q-9 8.5 -9 21.5q0 17 16 27l121 81q8 4 15 4t15 -4l121 -81q16 -10 16 -27q0 -13 -9 -21.5t-22 -8.5q-10 0 -19 6l-102 68l-102 -68q-9 -6 -18 -6q-14 0 -23 8.5z" />
    <glyph glyph-name="otilde" unicode="&#xf5;" 
d="M197 30.5q-64 36.5 -100.5 100.5t-36.5 142q0 79 36.5 143t100.5 100.5t143 36.5q78 0 142 -36.5t100.5 -100.5t36.5 -143q0 -78 -36.5 -142t-100.5 -100.5t-142 -36.5q-79 0 -143 36.5zM452 79q50 29 78.5 80t28.5 114t-28.5 114t-78.5 80.5t-112 29.5t-112 -29.5
t-79 -80.5t-29 -114t29 -114t79 -80t112 -29t112 29zM396 639.5q-21 9.5 -45 25.5q-20 14 -32 18.5t-25 4.5q-41 0 -77 -41q-9 -12 -25 -12q-10 0 -15 4q-15 9 -15 23q0 10 6 17q27 32 59.5 49.5t66.5 17.5q26 0 45.5 -8.5t44.5 -24.5q21 -14 32.5 -19.5t28.5 -5.5
q34 0 55 22q12 14 28 14q7 0 11 -3q18 -9 18 -24q0 -8 -6 -16q-39 -51 -106 -51q-28 0 -49 9.5z" />
    <glyph glyph-name="odieresis" unicode="&#xf6;" 
d="M197 30.5q-64 36.5 -100.5 100.5t-36.5 142q0 79 36.5 143t100.5 100.5t143 36.5q78 0 142 -36.5t100.5 -100.5t36.5 -143q0 -78 -36.5 -142t-100.5 -100.5t-142 -36.5q-79 0 -143 36.5zM452 79q50 29 78.5 80t28.5 114t-28.5 114t-78.5 80.5t-112 29.5t-112 -29.5
t-79 -80.5t-29 -114t29 -114t79 -80t112 -29t112 29zM203 672q-15 15 -15 37q0 21 15 36t37 15t36.5 -15t14.5 -36q0 -22 -14.5 -37t-36.5 -15t-37 15zM403 672q-15 15 -15 37q0 21 15 36t37 15t36.5 -15t14.5 -36q0 -22 -14.5 -37t-36.5 -15t-37 15z" />
    <glyph glyph-name="divide" unicode="&#xf7;" horiz-adv-x="469" 
d="M204 477.5q-12 11.5 -12 28.5t12 29t29 12t28.5 -12t11.5 -29t-11.5 -28.5t-28.5 -11.5t-29 11.5zM49.5 332.5q-8.5 8.5 -8.5 21.5t8.5 22t21.5 9h324q13 0 21.5 -9t8.5 -22t-8.5 -21.5t-21.5 -8.5h-324q-13 0 -21.5 8.5zM204 174q-12 12 -12 29t12 28.5t29 11.5
t28.5 -11.5t11.5 -28.5t-11.5 -29t-28.5 -12t-29 12z" />
    <glyph glyph-name="oslash" unicode="&#xf8;" horiz-adv-x="694" 
d="M634 273q0 -78 -36.5 -142t-100.5 -100.5t-142 -36.5q-51 0 -96.5 16t-82.5 45l-63 -63q-9 -9 -22 -9t-22 9.5t-9 21.5t9 21l64 63q-58 75 -58 175q0 79 36.5 143t100.5 100.5t143 36.5q52 0 97.5 -16t82.5 -46l46 46q8 10 23 10q14 0 21.5 -9.5t7.5 -22.5t-7 -20
l-49 -48q57 -74 57 -174zM243 467.5q-50 -29.5 -79 -80.5t-29 -114q0 -78 45 -139l315 314q-28 24 -64 36.5t-76 12.5q-62 0 -112 -29.5zM467 79q50 29 78.5 80t28.5 114q0 75 -39 131l-312 -311q57 -43 132 -43q62 0 112 29z" />
    <glyph glyph-name="ugrave" unicode="&#xf9;" horiz-adv-x="673" 
d="M575 539q8 -8 8 -22v-487q0 -13 -8 -21.5t-22 -8.5q-13 0 -21.5 8.5t-8.5 21.5v52q-34 -42 -83 -65.5t-107 -23.5q-73 0 -130.5 30t-90 87.5t-32.5 137.5v269q0 13 8.5 21.5t21.5 8.5t21.5 -8.5t8.5 -21.5v-269q0 -95 53.5 -145t139.5 -50q53 0 96.5 20.5t68.5 57
t25 80.5v306q0 14 8.5 22t21.5 8q14 0 22 -8zM317 647l-123 123q-8 8 -8 21t9 22t22 9q12 0 21 -9l123 -123q7 -7 7 -20t-8.5 -22t-21.5 -9q-10 0 -21 8z" />
    <glyph glyph-name="uacute" unicode="&#xfa;" horiz-adv-x="673" 
d="M575 539q8 -8 8 -22v-487q0 -13 -8 -21.5t-22 -8.5q-13 0 -21.5 8.5t-8.5 21.5v52q-34 -42 -83 -65.5t-107 -23.5q-73 0 -130.5 30t-90 87.5t-32.5 137.5v269q0 13 8.5 21.5t21.5 8.5t21.5 -8.5t8.5 -21.5v-269q0 -95 53.5 -145t139.5 -50q53 0 96.5 20.5t68.5 57
t25 80.5v306q0 14 8.5 22t21.5 8q14 0 22 -8zM300 637q-9 9 -9 22q0 11 7 20l123 123q9 9 22 9t22 -9t9 -22q0 -12 -9 -21l-123 -123q-8 -8 -20 -8q-13 0 -22 9z" />
    <glyph glyph-name="ucircumflex" unicode="&#xfb;" horiz-adv-x="673" 
d="M575 539q8 -8 8 -22v-487q0 -13 -8 -21.5t-22 -8.5q-13 0 -21.5 8.5t-8.5 21.5v52q-34 -42 -83 -65.5t-107 -23.5q-73 0 -130.5 30t-90 87.5t-32.5 137.5v269q0 13 8.5 21.5t21.5 8.5t21.5 -8.5t8.5 -21.5v-269q0 -95 53.5 -145t139.5 -50q53 0 96.5 20.5t68.5 57
t25 80.5v306q0 14 8.5 22t21.5 8q14 0 22 -8zM194 656.5q-9 8.5 -9 21.5q0 17 16 27l121 81q8 4 15 4t15 -4l121 -81q16 -10 16 -27q0 -13 -9 -21.5t-22 -8.5q-10 0 -19 6l-102 68l-102 -68q-9 -6 -18 -6q-14 0 -23 8.5z" />
    <glyph glyph-name="udieresis" unicode="&#xfc;" horiz-adv-x="673" 
d="M575 539q8 -8 8 -22v-487q0 -13 -8 -21.5t-22 -8.5q-13 0 -21.5 8.5t-8.5 21.5v52q-34 -42 -83 -65.5t-107 -23.5q-73 0 -130.5 30t-90 87.5t-32.5 137.5v269q0 13 8.5 21.5t21.5 8.5t21.5 -8.5t8.5 -21.5v-269q0 -95 53.5 -145t139.5 -50q53 0 96.5 20.5t68.5 57
t25 80.5v306q0 14 8.5 22t21.5 8q14 0 22 -8zM200 672q-15 15 -15 37q0 21 15 36t37 15t36.5 -15t14.5 -36q0 -22 -14.5 -37t-36.5 -15t-37 15zM400 672q-15 15 -15 37q0 21 15 36t37 15t36.5 -15t14.5 -36q0 -22 -14.5 -37t-36.5 -15t-37 15z" />
    <glyph glyph-name="yacute" unicode="&#xfd;" horiz-adv-x="554" 
d="M544 523q0 -4 -4 -14l-336 -728q-9 -18 -23 -18q-6 0 -14 3q-19 8 -19 23q0 4 4 14l100 216q-1 1 -4 7l-219 480q-4 8 -4 16q0 15 17 23q8 4 16 4q15 0 23 -17l203 -444l204 443q9 18 23 18q7 0 14 -3q19 -8 19 -23zM248 637q-9 9 -9 22q0 11 7 20l123 123q9 9 22 9
t22 -9t9 -22q0 -12 -9 -21l-123 -123q-8 -8 -20 -8q-13 0 -22 9z" />
    <glyph glyph-name="thorn" unicode="&#xfe;" horiz-adv-x="709" 
d="M514 517.5q64 -35.5 99.5 -99.5t35.5 -145t-36 -144.5t-99.5 -99t-144.5 -35.5q-75 0 -132.5 34t-86.5 93v-325q0 -14 -8 -22t-22 -8q-13 0 -21.5 8t-8.5 22v955q0 14 8.5 22t21.5 8q14 0 22 -8t8 -22v-325q30 63 90 95t129 32q81 0 145 -35.5zM483 78.5q50 28.5 78 79
t28 115.5t-28 116t-78 79.5t-114 28.5q-63 0 -113 -28.5t-78 -79.5t-28 -116t28 -115.5t78 -79t113 -28.5q64 0 114 28.5z" />
    <glyph glyph-name="ydieresis" unicode="&#xff;" horiz-adv-x="554" 
d="M544 523q0 -4 -4 -14l-336 -728q-9 -18 -23 -18q-6 0 -14 3q-19 8 -19 23q0 4 4 14l100 216q-1 1 -4 7l-219 480q-4 8 -4 16q0 15 17 23q8 4 16 4q15 0 23 -17l203 -444l204 443q9 18 23 18q7 0 14 -3q19 -8 19 -23zM148 672q-15 15 -15 37q0 21 15 36t37 15t36.5 -15
t14.5 -36q0 -22 -14.5 -37t-36.5 -15t-37 15zM348 672q-15 15 -15 37q0 21 15 36t37 15t36.5 -15t14.5 -36q0 -22 -14.5 -37t-36.5 -15t-37 15z" />
    <glyph glyph-name="Amacron" unicode="&#x100;" horiz-adv-x="703" 
d="M690 30q0 -12 -9 -21t-21 -9q-20 0 -28 19l-74 177h-407l-74 -177q-7 -19 -28 -19q-14 0 -22 9t-8 21q0 7 3 13l303 717q8 21 29 21q20 0 29 -21l304 -717q3 -6 3 -13zM174 250h361l-181 432zM197.5 903.5q-8.5 8.5 -8.5 21.5t8.5 22t21.5 9h265q13 0 21.5 -9t8.5 -22
t-8.5 -21.5t-21.5 -8.5h-265q-13 0 -21.5 8.5z" />
    <glyph glyph-name="amacron" unicode="&#x101;" 
d="M482 516.5q64 -36.5 100.5 -100.5t36.5 -143v-243q0 -13 -8 -21.5t-22 -8.5q-13 0 -21.5 8.5t-8.5 21.5v78q-33 -53 -90.5 -83.5t-128.5 -30.5q-79 0 -143 36.5t-100.5 100.5t-36.5 142q0 79 36.5 143t100.5 100.5t143 36.5q78 0 142 -36.5zM452 79q50 29 78.5 80
t28.5 114t-28.5 114t-78.5 80.5t-112 29.5t-112 -29.5t-79 -80.5t-29 -114t29 -114t79 -80t112 -29t112 29zM185.5 669.5q-8.5 8.5 -8.5 21.5t8.5 22t21.5 9h265q13 0 21.5 -9t8.5 -22t-8.5 -21.5t-21.5 -8.5h-265q-13 0 -21.5 8.5z" />
    <glyph glyph-name="Abreve" unicode="&#x102;" horiz-adv-x="703" 
d="M690 30q0 -12 -9 -21t-21 -9q-20 0 -28 19l-74 177h-407l-74 -177q-7 -19 -28 -19q-14 0 -22 9t-8 21q0 7 3 13l303 717q8 21 29 21q20 0 29 -21l304 -717q3 -6 3 -13zM174 250h361l-181 432zM275 897q-35 15 -55.5 40.5t-20.5 55.5q0 13 9 22t22 9t21.5 -9t8.5 -22
q0 -24 24.5 -40.5t66.5 -16.5t67 16.5t25 40.5q0 13 8.5 22t21.5 9q12 0 21 -9t10 -21q-4 -50 -48 -81t-105 -31q-41 0 -76 15z" />
    <glyph glyph-name="abreve" unicode="&#x103;" 
d="M482 516.5q64 -36.5 100.5 -100.5t36.5 -143v-243q0 -13 -8 -21.5t-22 -8.5q-13 0 -21.5 8.5t-8.5 21.5v78q-33 -53 -90.5 -83.5t-128.5 -30.5q-79 0 -143 36.5t-100.5 100.5t-36.5 142q0 79 36.5 143t100.5 100.5t143 36.5q78 0 142 -36.5zM452 79q50 29 78.5 80
t28.5 114t-28.5 114t-78.5 80.5t-112 29.5t-112 -29.5t-79 -80.5t-29 -114t29 -114t79 -80t112 -29t112 29zM263 663q-35 15 -55.5 40.5t-20.5 55.5q0 13 9 22t22 9t21.5 -9t8.5 -22q0 -24 24.5 -40.5t66.5 -16.5t67 16.5t25 40.5q0 13 8.5 22t21.5 9q12 0 21 -9t10 -21
q-4 -50 -48 -81t-105 -31q-41 0 -76 15z" />
    <glyph glyph-name="Aogonek" unicode="&#x104;" horiz-adv-x="703" 
d="M761 -140q9 -9 9 -22q0 -15 -10 -23l-41 -28q-28 -19 -61 -19q-45 0 -78 32.5t-33 78.5q0 53 47 91q31 25 38 44l1 2l-1 3l-74 177h-407l-74 -177q-7 -19 -28 -19q-14 0 -22 9t-8 21q0 7 3 13l303 717q8 21 29 21q20 0 29 -21l304 -717q3 -6 3 -13q0 -8 -5 -16
q4 -5 4 -14q0 -19 -15 -38.5t-45 -41.5q-21 -17 -21 -41q0 -21 14.5 -35.5t35.5 -14.5q16 0 28 8l35 26q9 6 18 6q13 0 22 -9zM174 250h361l-181 432z" />
    <glyph glyph-name="aogonek" unicode="&#x105;" 
d="M714 -159q9 -9 9 -22q0 -15 -10 -23l-41 -28q-28 -19 -61 -19q-45 0 -78 32.5t-33 78.5q0 53 47 91q31 25 38 44l3 5q-13 0 -21 8.5t-8 21.5v78q-33 -53 -90.5 -83.5t-128.5 -30.5q-79 0 -143 36.5t-100.5 100.5t-36.5 142q0 79 36.5 143t100.5 100.5t143 36.5
q78 0 142 -36.5t100.5 -100.5t36.5 -143v-243q0 -13 -7 -20q14 -1 22 -8.5t8 -20.5q0 -19 -15 -38.5t-45 -41.5q-21 -16 -21 -41q0 -21 14.5 -35.5t35.5 -14.5q16 0 28 8l35 26q9 6 18 6q13 0 22 -9zM452 79q50 29 78.5 80t28.5 114t-28.5 114t-78.5 80.5t-112 29.5
t-112 -29.5t-79 -80.5t-29 -114t29 -114t79 -80t112 -29t112 29z" />
    <glyph glyph-name="Cacute" unicode="&#x106;" horiz-adv-x="767" 
d="M256 44.5q-90 54.5 -143 147t-53 199.5t52.5 199t142 146.5t196.5 54.5q140 0 247 -89q9 -7 9 -20q0 -12 -8 -21.5t-22 -9.5q-11 0 -25 12q-76 68 -201 68q-88 0 -164.5 -47t-121.5 -125.5t-45 -167.5q0 -92 44.5 -170.5t121 -124.5t165.5 -46q118 0 207 73q7 5 15 5
q12 0 21.5 -9t9.5 -22t-7 -21q-86 -86 -246 -86q-105 0 -195 54.5zM407 871q-9 9 -9 22q0 11 7 20l123 123q9 9 22 9t22 -9t9 -22q0 -12 -9 -21l-123 -123q-8 -8 -20 -8q-13 0 -22 9z" />
    <glyph glyph-name="cacute" unicode="&#x107;" horiz-adv-x="593" 
d="M193 30.5q-62 36.5 -97.5 100.5t-35.5 142q0 79 33 142.5t92 100t132 36.5q64 0 117 -25t92 -74q7 -10 7 -17q0 -14 -14 -22q-7 -6 -16 -6q-14 0 -23 12q-64 76 -163 76q-58 0 -103 -28.5t-69.5 -79.5t-24.5 -115q0 -63 27 -114t75 -80t110 -29q88 0 141 49q9 9 21 9
q11 0 18 -7q10 -9 10 -22q0 -11 -8 -18q-35 -32 -82 -49.5t-100 -17.5q-77 0 -139 36.5zM281 637q-9 9 -9 22q0 11 7 20l123 123q9 9 22 9t22 -9t9 -22q0 -12 -9 -21l-123 -123q-8 -8 -20 -8q-13 0 -22 9z" />
    <glyph glyph-name="Ccircumflex" unicode="&#x108;" horiz-adv-x="767" 
d="M256 44.5q-90 54.5 -143 147t-53 199.5t52.5 199t142 146.5t196.5 54.5q140 0 247 -89q9 -7 9 -20q0 -12 -8 -21.5t-22 -9.5q-11 0 -25 12q-76 68 -201 68q-88 0 -164.5 -47t-121.5 -125.5t-45 -167.5q0 -92 44.5 -170.5t121 -124.5t165.5 -46q118 0 207 73q7 5 15 5
q12 0 21.5 -9t9.5 -22t-7 -21q-86 -86 -246 -86q-105 0 -195 54.5zM301 890.5q-9 8.5 -9 21.5q0 17 16 27l121 81q8 4 15 4t15 -4l121 -81q16 -10 16 -27q0 -13 -9 -21.5t-22 -8.5q-10 0 -19 6l-102 68l-102 -68q-9 -6 -18 -6q-14 0 -23 8.5z" />
    <glyph glyph-name="ccircumflex" unicode="&#x109;" horiz-adv-x="593" 
d="M193 30.5q-62 36.5 -97.5 100.5t-35.5 142q0 79 33 142.5t92 100t132 36.5q64 0 117 -25t92 -74q7 -10 7 -17q0 -14 -14 -22q-7 -6 -16 -6q-14 0 -23 12q-64 76 -163 76q-58 0 -103 -28.5t-69.5 -79.5t-24.5 -115q0 -63 27 -114t75 -80t110 -29q88 0 141 49q9 9 21 9
q11 0 18 -7q10 -9 10 -22q0 -11 -8 -18q-35 -32 -82 -49.5t-100 -17.5q-77 0 -139 36.5zM175 656.5q-9 8.5 -9 21.5q0 17 16 27l121 81q8 4 15 4t15 -4l121 -81q16 -10 16 -27q0 -13 -9 -21.5t-22 -8.5q-10 0 -19 6l-102 68l-102 -68q-9 -6 -18 -6q-14 0 -23 8.5z" />
    <glyph glyph-name="Cdotaccent" unicode="&#x10a;" horiz-adv-x="767" 
d="M256 44.5q-90 54.5 -143 147t-53 199.5t52.5 199t142 146.5t196.5 54.5q140 0 247 -89q9 -7 9 -20q0 -12 -8 -21.5t-22 -9.5q-11 0 -25 12q-76 68 -201 68q-88 0 -164.5 -47t-121.5 -125.5t-45 -167.5q0 -92 44.5 -170.5t121 -124.5t165.5 -46q118 0 207 73q7 5 15 5
q12 0 21.5 -9t9.5 -22t-7 -21q-86 -86 -246 -86q-105 0 -195 54.5zM410 909.5q-13 13.5 -13 33.5q0 22 14 34t33 12t32.5 -12t13.5 -34q0 -20 -13.5 -33.5t-33.5 -13.5t-33 13.5z" />
    <glyph glyph-name="cdotaccent" unicode="&#x10b;" horiz-adv-x="593" 
d="M193 30.5q-62 36.5 -97.5 100.5t-35.5 142q0 79 33 142.5t92 100t132 36.5q64 0 117 -25t92 -74q7 -10 7 -17q0 -14 -14 -22q-7 -6 -16 -6q-14 0 -23 12q-64 76 -163 76q-58 0 -103 -28.5t-69.5 -79.5t-24.5 -115q0 -63 27 -114t75 -80t110 -29q88 0 141 49q9 9 21 9
q11 0 18 -7q10 -9 10 -22q0 -11 -8 -18q-35 -32 -82 -49.5t-100 -17.5q-77 0 -139 36.5zM284 675.5q-13 13.5 -13 33.5q0 22 14 34t33 12t32.5 -12t13.5 -34q0 -20 -13.5 -33.5t-33.5 -13.5t-33 13.5z" />
    <glyph glyph-name="Ccaron" unicode="&#x10c;" horiz-adv-x="767" 
d="M256 44.5q-90 54.5 -143 147t-53 199.5t52.5 199t142 146.5t196.5 54.5q140 0 247 -89q9 -7 9 -20q0 -12 -8 -21.5t-22 -9.5q-11 0 -25 12q-76 68 -201 68q-88 0 -164.5 -47t-121.5 -125.5t-45 -167.5q0 -92 44.5 -170.5t121 -124.5t165.5 -46q118 0 207 73q7 5 15 5
q12 0 21.5 -9t9.5 -22t-7 -21q-86 -86 -246 -86q-105 0 -195 54.5zM429 886l-121 80q-16 10 -16 27q0 12 7.5 19.5t18.5 7.5q12 0 24 -8l102 -70l102 68q13 9 25 9q11 0 18 -7.5t7 -18.5q0 -15 -16 -27l-121 -80q-5 -4 -15 -4t-15 4z" />
    <glyph glyph-name="ccaron" unicode="&#x10d;" horiz-adv-x="593" 
d="M193 30.5q-62 36.5 -97.5 100.5t-35.5 142q0 79 33 142.5t92 100t132 36.5q64 0 117 -25t92 -74q7 -10 7 -17q0 -14 -14 -22q-7 -6 -16 -6q-14 0 -23 12q-64 76 -163 76q-58 0 -103 -28.5t-69.5 -79.5t-24.5 -115q0 -63 27 -114t75 -80t110 -29q88 0 141 49q9 9 21 9
q11 0 18 -7q10 -9 10 -22q0 -11 -8 -18q-35 -32 -82 -49.5t-100 -17.5q-77 0 -139 36.5zM303 652l-121 80q-16 10 -16 27q0 12 7.5 19.5t18.5 7.5q12 0 24 -8l102 -70l102 68q13 9 25 9q11 0 18 -7.5t7 -18.5q0 -15 -16 -27l-121 -80q-5 -4 -15 -4t-15 4z" />
    <glyph glyph-name="Dcaron" unicode="&#x10e;" horiz-adv-x="761" 
d="M108.5 8.5q-8.5 8.5 -8.5 21.5v721q0 14 8.5 22t21.5 8h180q113 0 202 -50t139 -138.5t50 -201.5t-50 -202t-139 -139t-202 -50h-180q-13 0 -21.5 8.5zM310 54q96 0 171 43.5t117.5 120.5t42.5 173t-42.5 172.5t-117.5 120t-171 43.5h-150v-673h150zM366 886l-121 80
q-16 10 -16 27q0 12 7.5 19.5t18.5 7.5q12 0 24 -8l102 -70l102 68q13 9 25 9q11 0 18 -7.5t7 -18.5q0 -15 -16 -27l-121 -80q-5 -4 -15 -4t-15 4z" />
    <glyph glyph-name="dcaron" unicode="&#x10f;" horiz-adv-x="780" 
d="M611 773q8 -8 8 -22v-481v-2q-1 -77 -38 -140t-100.5 -98.5t-140.5 -35.5q-79 0 -143 36.5t-100.5 100.5t-36.5 143q0 78 36.5 142t100.5 100.5t143 36.5q71 0 128.5 -30.5t90.5 -83.5v312q0 14 8.5 22t21.5 8q14 0 22 -8zM452 79.5q50 29.5 78.5 80.5t28.5 114
t-28.5 114t-78.5 80t-112 29t-112 -29t-79 -80t-29 -114t29 -114t79 -80.5t112 -29.5t112 29.5zM687 544.5q-5 5.5 -5 13.5q0 7 10 25q11 20 17.5 38t8.5 43q1 12 -1 20.5t-7 19.5q-1 2 -5 13t-4 27q0 37 43 37q22 0 34 -19t12 -50q0 -15 -3 -32q-6 -28 -22 -61.5t-34 -56.5
t-31 -23q-8 0 -13 5.5z" />
    <glyph glyph-name="Dcroat" unicode="&#x110;" horiz-adv-x="761" 
d="M512 731q89 -50 139 -138.5t50 -201.5t-50 -202t-139 -139t-202 -50h-180q-13 0 -21.5 8.5t-8.5 21.5v334h-73q-12 0 -19.5 7.5t-7.5 19.5t7.5 19.5t19.5 7.5h73v333q0 14 8.5 22t21.5 8h180q113 0 202 -50zM481 97.5q75 43.5 117.5 120.5t42.5 173t-42.5 172.5
t-117.5 120t-171 43.5h-150v-309h165q12 0 19.5 -7.5t7.5 -19.5t-7.5 -19.5t-19.5 -7.5h-165v-310h150q96 0 171 43.5z" />
    <glyph glyph-name="dcroat" unicode="&#x111;" horiz-adv-x="709" 
d="M701.5 676.5q7.5 -7.5 7.5 -19.5t-7.5 -19.5t-19.5 -7.5h-63v-360v-2q-1 -77 -38 -140t-100.5 -98.5t-140.5 -35.5q-79 0 -143 36.5t-100.5 100.5t-36.5 143q0 78 36.5 142t100.5 100.5t143 36.5q71 0 128.5 -30.5t90.5 -83.5v191h-175q-12 0 -19.5 7.5t-7.5 19.5
t7.5 19.5t19.5 7.5h175v67q0 14 8.5 22t21.5 8q14 0 22 -8t8 -22v-67h63q12 0 19.5 -7.5zM452 79.5q50 29.5 78.5 80.5t28.5 114t-28.5 114t-78.5 80t-112 29t-112 -29t-79 -80t-29 -114t29 -114t79 -80.5t112 -29.5t112 29.5z" />
    <glyph glyph-name="Emacron" unicode="&#x112;" horiz-adv-x="686" 
d="M108.5 8.5q-8.5 8.5 -8.5 21.5v721q0 13 8.5 21.5t21.5 8.5h481q12 0 21 -8.5t9 -21.5q0 -12 -9 -21t-21 -9h-451v-300h331q13 0 21.5 -8.5t8.5 -21.5t-8.5 -22t-21.5 -9h-331v-300h451q12 0 21 -9t9 -21q0 -13 -9 -21.5t-21 -8.5h-481q-13 0 -21.5 8.5zM219.5 903.5
q-8.5 8.5 -8.5 21.5t8.5 22t21.5 9h265q13 0 21.5 -9t8.5 -22t-8.5 -21.5t-21.5 -8.5h-265q-13 0 -21.5 8.5z" />
    <glyph glyph-name="emacron" unicode="&#x113;" horiz-adv-x="609" 
d="M447.5 517.5q57.5 -34.5 89.5 -95.5t32 -139q0 -13 -8 -20.5t-21 -7.5h-419q3 -59 31 -105.5t75 -72.5t105 -26q39 0 78.5 13.5t62.5 35.5q10 8 21 8t18 -6q11 -9 11 -21q0 -10 -9 -19q-32 -29 -83.5 -48t-98.5 -19q-79 0 -140.5 35.5t-96.5 99t-35 143.5
q0 81 32.5 144.5t91 99t133.5 35.5q73 0 130.5 -34.5zM185.5 444q-53.5 -52 -63.5 -137h389q-7 85 -60 137t-134 52q-78 0 -131.5 -52zM160.5 669.5q-8.5 8.5 -8.5 21.5t8.5 22t21.5 9h265q13 0 21.5 -9t8.5 -22t-8.5 -21.5t-21.5 -8.5h-265q-13 0 -21.5 8.5z" />
    <glyph glyph-name="Ebreve" unicode="&#x114;" horiz-adv-x="686" 
d="M108.5 8.5q-8.5 8.5 -8.5 21.5v721q0 13 8.5 21.5t21.5 8.5h481q12 0 21 -8.5t9 -21.5q0 -12 -9 -21t-21 -9h-451v-300h331q13 0 21.5 -8.5t8.5 -21.5t-8.5 -22t-21.5 -9h-331v-300h451q12 0 21 -9t9 -21q0 -13 -9 -21.5t-21 -8.5h-481q-13 0 -21.5 8.5zM297 897
q-35 15 -55.5 40.5t-20.5 55.5q0 13 9 22t22 9t21.5 -9t8.5 -22q0 -24 24.5 -40.5t66.5 -16.5t67 16.5t25 40.5q0 13 8.5 22t21.5 9q12 0 21 -9t10 -21q-4 -50 -48 -81t-105 -31q-41 0 -76 15z" />
    <glyph glyph-name="ebreve" unicode="&#x115;" horiz-adv-x="609" 
d="M447.5 517.5q57.5 -34.5 89.5 -95.5t32 -139q0 -13 -8 -20.5t-21 -7.5h-419q3 -59 31 -105.5t75 -72.5t105 -26q39 0 78.5 13.5t62.5 35.5q10 8 21 8t18 -6q11 -9 11 -21q0 -10 -9 -19q-32 -29 -83.5 -48t-98.5 -19q-79 0 -140.5 35.5t-96.5 99t-35 143.5
q0 81 32.5 144.5t91 99t133.5 35.5q73 0 130.5 -34.5zM185.5 444q-53.5 -52 -63.5 -137h389q-7 85 -60 137t-134 52q-78 0 -131.5 -52zM238 663q-35 15 -55.5 40.5t-20.5 55.5q0 13 9 22t22 9t21.5 -9t8.5 -22q0 -24 24.5 -40.5t66.5 -16.5t67 16.5t25 40.5q0 13 8.5 22
t21.5 9q12 0 21 -9t10 -21q-4 -50 -48 -81t-105 -31q-41 0 -76 15z" />
    <glyph glyph-name="Edotaccent" unicode="&#x116;" horiz-adv-x="686" 
d="M108.5 8.5q-8.5 8.5 -8.5 21.5v721q0 13 8.5 21.5t21.5 8.5h481q12 0 21 -8.5t9 -21.5q0 -12 -9 -21t-21 -9h-451v-300h331q13 0 21.5 -8.5t8.5 -21.5t-8.5 -22t-21.5 -9h-331v-300h451q12 0 21 -9t9 -21q0 -13 -9 -21.5t-21 -8.5h-481q-13 0 -21.5 8.5zM340 909.5
q-13 13.5 -13 33.5q0 22 14 34t33 12t32.5 -12t13.5 -34q0 -20 -13.5 -33.5t-33.5 -13.5t-33 13.5z" />
    <glyph glyph-name="edotaccent" unicode="&#x117;" horiz-adv-x="609" 
d="M447.5 517.5q57.5 -34.5 89.5 -95.5t32 -139q0 -13 -8 -20.5t-21 -7.5h-419q3 -59 31 -105.5t75 -72.5t105 -26q39 0 78.5 13.5t62.5 35.5q10 8 21 8t18 -6q11 -9 11 -21q0 -10 -9 -19q-32 -29 -83.5 -48t-98.5 -19q-79 0 -140.5 35.5t-96.5 99t-35 143.5
q0 81 32.5 144.5t91 99t133.5 35.5q73 0 130.5 -34.5zM185.5 444q-53.5 -52 -63.5 -137h389q-7 85 -60 137t-134 52q-78 0 -131.5 -52zM281 675.5q-13 13.5 -13 33.5q0 22 14 34t33 12t32.5 -12t13.5 -34q0 -20 -13.5 -33.5t-33.5 -13.5t-33 13.5z" />
    <glyph glyph-name="Eogonek" unicode="&#x118;" horiz-adv-x="686" 
d="M726 -159q9 -9 9 -22q0 -15 -10 -23l-41 -28q-28 -19 -61 -19q-45 0 -78 32.5t-33 78.5q0 53 47 91q31 25 38 44l3 5h-470q-13 0 -21.5 8.5t-8.5 21.5v721q0 13 8.5 21.5t21.5 8.5h481q12 0 21 -8.5t9 -21.5q0 -12 -9 -21t-21 -9h-451v-300h331q13 0 21.5 -8.5t8.5 -21.5
t-8.5 -22t-21.5 -9h-331v-300h451q12 0 21 -9t9 -21q0 -13 -9 -21q10 -3 16 -10.5t6 -17.5q0 -19 -15 -38.5t-45 -41.5q-21 -17 -21 -41q0 -21 14.5 -35.5t35.5 -14.5q16 0 28 8l35 26q9 6 18 6q13 0 22 -9z" />
    <glyph glyph-name="eogonek" unicode="&#x119;" horiz-adv-x="609" 
d="M447.5 517.5q57.5 -34.5 89.5 -95.5t32 -139q0 -13 -8 -20.5t-21 -7.5h-419q3 -59 31 -105.5t75 -72.5t105 -26q39 0 78.5 13.5t62.5 35.5q10 8 21 8t18 -6q11 -9 11 -21q0 -10 -9 -19q-33 -30 -85 -49q-11 -29 -57 -62q-21 -17 -21 -41q0 -21 14.5 -35.5t35.5 -14.5
q16 0 28 8l35 26q9 6 18 6q13 0 22 -9t9 -22q0 -15 -10 -23l-41 -28q-28 -19 -61 -19q-45 0 -78 32.5t-33 78.5q0 48 40 85q-78 0 -139.5 36t-96 99t-34.5 143q0 81 32.5 144.5t91 99t133.5 35.5q73 0 130.5 -34.5zM185.5 444q-53.5 -52 -63.5 -137h389q-7 85 -60 137
t-134 52q-78 0 -131.5 -52z" />
    <glyph glyph-name="Ecaron" unicode="&#x11a;" horiz-adv-x="686" 
d="M108.5 8.5q-8.5 8.5 -8.5 21.5v721q0 13 8.5 21.5t21.5 8.5h481q12 0 21 -8.5t9 -21.5q0 -12 -9 -21t-21 -9h-451v-300h331q13 0 21.5 -8.5t8.5 -21.5t-8.5 -22t-21.5 -9h-331v-300h451q12 0 21 -9t9 -21q0 -13 -9 -21.5t-21 -8.5h-481q-13 0 -21.5 8.5zM359 886l-121 80
q-16 10 -16 27q0 12 7.5 19.5t18.5 7.5q12 0 24 -8l102 -70l102 68q13 9 25 9q11 0 18 -7.5t7 -18.5q0 -15 -16 -27l-121 -80q-5 -4 -15 -4t-15 4z" />
    <glyph glyph-name="ecaron" unicode="&#x11b;" horiz-adv-x="609" 
d="M447.5 517.5q57.5 -34.5 89.5 -95.5t32 -139q0 -13 -8 -20.5t-21 -7.5h-419q3 -59 31 -105.5t75 -72.5t105 -26q39 0 78.5 13.5t62.5 35.5q10 8 21 8t18 -6q11 -9 11 -21q0 -10 -9 -19q-32 -29 -83.5 -48t-98.5 -19q-79 0 -140.5 35.5t-96.5 99t-35 143.5
q0 81 32.5 144.5t91 99t133.5 35.5q73 0 130.5 -34.5zM185.5 444q-53.5 -52 -63.5 -137h389q-7 85 -60 137t-134 52q-78 0 -131.5 -52zM300 652l-121 80q-16 10 -16 27q0 12 7.5 19.5t18.5 7.5q12 0 24 -8l102 -70l102 68q13 9 25 9q11 0 18 -7.5t7 -18.5q0 -15 -16 -27
l-121 -80q-5 -4 -15 -4t-15 4z" />
    <glyph glyph-name="Gcircumflex" unicode="&#x11c;" horiz-adv-x="767" 
d="M695.5 372q8.5 -8 8.5 -21v-254q0 -7 -1 -11.5t-6 -9.5q-86 -86 -246 -86q-105 0 -195 54.5t-143 147t-53 199.5t52.5 199t142 146.5t196.5 54.5q140 0 247 -89q9 -7 9 -20q0 -12 -8 -21.5t-22 -9.5q-11 0 -25 12q-76 68 -201 68q-88 0 -164.5 -47t-121.5 -125.5
t-45 -167.5q0 -92 44.5 -170.5t121 -124.5t165.5 -46q109 0 193 62v214h-168q-13 0 -21.5 8t-8.5 20q0 11 8.5 18.5t21.5 7.5h198q13 0 21.5 -8zM291 890.5q-9 8.5 -9 21.5q0 17 16 27l121 81q8 4 15 4t15 -4l121 -81q16 -10 16 -27q0 -13 -9 -21.5t-22 -8.5q-10 0 -19 6
l-102 68l-102 -68q-9 -6 -18 -6q-14 0 -23 8.5z" />
    <glyph glyph-name="gcircumflex" unicode="&#x11d;" 
d="M484.5 517q63.5 -36 99 -99.5t35.5 -144.5v-196q0 -80 -36 -145.5t-99 -103t-140 -37.5q-79 0 -138.5 29.5t-99.5 80.5q-8 10 -8 20q0 12 10 19q8 6 18 6q16 0 26 -13q33 -40 81.5 -63t110.5 -23q61 0 110 30t77 82.5t28 117.5v44q-29 -59 -86.5 -93t-132.5 -34
q-81 0 -144.5 35.5t-99.5 99t-36 144.5q0 80 37 144t101 100t142 36q81 0 144.5 -36zM453 78.5q50 28.5 78 79t28 115.5t-28 116t-78 79.5t-113 28.5q-64 0 -114 -28.5t-78 -79.5t-28 -116t28 -115.5t78 -79t114 -28.5q63 0 113 28.5zM197 656.5q-9 8.5 -9 21.5q0 17 16 27
l121 81q8 4 15 4t15 -4l121 -81q16 -10 16 -27q0 -13 -9 -21.5t-22 -8.5q-10 0 -19 6l-102 68l-102 -68q-9 -6 -18 -6q-14 0 -23 8.5z" />
    <glyph glyph-name="Gbreve" unicode="&#x11e;" horiz-adv-x="767" 
d="M695.5 372q8.5 -8 8.5 -21v-254q0 -7 -1 -11.5t-6 -9.5q-86 -86 -246 -86q-105 0 -195 54.5t-143 147t-53 199.5t52.5 199t142 146.5t196.5 54.5q140 0 247 -89q9 -7 9 -20q0 -12 -8 -21.5t-22 -9.5q-11 0 -25 12q-76 68 -201 68q-88 0 -164.5 -47t-121.5 -125.5
t-45 -167.5q0 -92 44.5 -170.5t121 -124.5t165.5 -46q109 0 193 62v214h-168q-13 0 -21.5 8t-8.5 20q0 11 8.5 18.5t21.5 7.5h198q13 0 21.5 -8zM357 897q-35 15 -55.5 40.5t-20.5 55.5q0 13 9 22t22 9t21.5 -9t8.5 -22q0 -24 24.5 -40.5t66.5 -16.5t67 16.5t25 40.5
q0 13 8.5 22t21.5 9q12 0 21 -9t10 -21q-4 -50 -48 -81t-105 -31q-41 0 -76 15z" />
    <glyph glyph-name="gbreve" unicode="&#x11f;" 
d="M484.5 517q63.5 -36 99 -99.5t35.5 -144.5v-196q0 -80 -36 -145.5t-99 -103t-140 -37.5q-79 0 -138.5 29.5t-99.5 80.5q-8 10 -8 20q0 12 10 19q8 6 18 6q16 0 26 -13q33 -40 81.5 -63t110.5 -23q61 0 110 30t77 82.5t28 117.5v44q-29 -59 -86.5 -93t-132.5 -34
q-81 0 -144.5 35.5t-99.5 99t-36 144.5q0 80 37 144t101 100t142 36q81 0 144.5 -36zM453 78.5q50 28.5 78 79t28 115.5t-28 116t-78 79.5t-113 28.5q-64 0 -114 -28.5t-78 -79.5t-28 -116t28 -115.5t78 -79t114 -28.5q63 0 113 28.5zM263 663q-35 15 -55.5 40.5t-20.5 55.5
q0 13 9 22t22 9t21.5 -9t8.5 -22q0 -24 24.5 -40.5t66.5 -16.5t67 16.5t25 40.5q0 13 8.5 22t21.5 9q12 0 21 -9t10 -21q-4 -50 -48 -81t-105 -31q-41 0 -76 15z" />
    <glyph glyph-name="Gdotaccent" unicode="&#x120;" horiz-adv-x="767" 
d="M695.5 372q8.5 -8 8.5 -21v-254q0 -7 -1 -11.5t-6 -9.5q-86 -86 -246 -86q-105 0 -195 54.5t-143 147t-53 199.5t52.5 199t142 146.5t196.5 54.5q140 0 247 -89q9 -7 9 -20q0 -12 -8 -21.5t-22 -9.5q-11 0 -25 12q-76 68 -201 68q-88 0 -164.5 -47t-121.5 -125.5
t-45 -167.5q0 -92 44.5 -170.5t121 -124.5t165.5 -46q109 0 193 62v214h-168q-13 0 -21.5 8t-8.5 20q0 11 8.5 18.5t21.5 7.5h198q13 0 21.5 -8zM400 909.5q-13 13.5 -13 33.5q0 22 14 34t33 12t32.5 -12t13.5 -34q0 -20 -13.5 -33.5t-33.5 -13.5t-33 13.5z" />
    <glyph glyph-name="gdotaccent" unicode="&#x121;" 
d="M484.5 517q63.5 -36 99 -99.5t35.5 -144.5v-196q0 -80 -36 -145.5t-99 -103t-140 -37.5q-79 0 -138.5 29.5t-99.5 80.5q-8 10 -8 20q0 12 10 19q8 6 18 6q16 0 26 -13q33 -40 81.5 -63t110.5 -23q61 0 110 30t77 82.5t28 117.5v44q-29 -59 -86.5 -93t-132.5 -34
q-81 0 -144.5 35.5t-99.5 99t-36 144.5q0 80 37 144t101 100t142 36q81 0 144.5 -36zM453 78.5q50 28.5 78 79t28 115.5t-28 116t-78 79.5t-113 28.5q-64 0 -114 -28.5t-78 -79.5t-28 -116t28 -115.5t78 -79t114 -28.5q63 0 113 28.5zM306 675.5q-13 13.5 -13 33.5
q0 22 14 34t33 12t32.5 -12t13.5 -34q0 -20 -13.5 -33.5t-33.5 -13.5t-33 13.5z" />
    <glyph glyph-name="Gcommaaccent" unicode="&#x122;" horiz-adv-x="767" 
d="M695.5 372q8.5 -8 8.5 -21v-254q0 -7 -1 -11.5t-6 -9.5q-86 -86 -246 -86q-105 0 -195 54.5t-143 147t-53 199.5t52.5 199t142 146.5t196.5 54.5q140 0 247 -89q9 -7 9 -20q0 -12 -8 -21.5t-22 -9.5q-11 0 -25 12q-76 68 -201 68q-88 0 -164.5 -47t-121.5 -125.5
t-45 -167.5q0 -92 44.5 -170.5t121 -124.5t165.5 -46q109 0 193 62v214h-168q-13 0 -21.5 8t-8.5 20q0 11 8.5 18.5t21.5 7.5h198q13 0 21.5 -8zM361.5 -212q-38.5 20 -38.5 46q0 11 6.5 17.5t18.5 6.5q11 0 19 -3.5t18 -11.5q13 -10 26 -15.5t33 -5.5q28 0 45 13t17 35
q0 19 -16.5 30.5t-48.5 11.5q-44 0 -44 24q0 25 40 25q53 0 87 -26.5t34 -67.5q0 -43 -34 -71t-83 -28q-41 0 -79.5 20z" />
    <glyph glyph-name="gcommaaccent" unicode="&#x123;" 
d="M484.5 517q63.5 -36 99 -99.5t35.5 -144.5v-196q0 -80 -36 -145.5t-99 -103t-140 -37.5q-79 0 -138.5 29.5t-99.5 80.5q-8 10 -8 20q0 12 10 19q8 6 18 6q16 0 26 -13q33 -40 81.5 -63t110.5 -23q61 0 110 30t77 82.5t28 117.5v44q-29 -59 -86.5 -93t-132.5 -34
q-81 0 -144.5 35.5t-99.5 99t-36 144.5q0 80 37 144t101 100t142 36q81 0 144.5 -36zM453 78.5q50 28.5 78 79t28 115.5t-28 116t-78 79.5t-113 28.5q-64 0 -114 -28.5t-78 -79.5t-28 -116t28 -115.5t78 -79t114 -28.5q63 0 113 28.5zM300.5 685.5q-17.5 22.5 -17.5 60.5
q0 36 11.5 73t30 61.5t40.5 24.5q19 0 19 -17q0 -10 -14 -30q-9 -14 -13.5 -23t-4.5 -21q0 -18 5.5 -28.5t17.5 -27.5q11 -13 16 -22.5t5 -23.5q0 -23 -15 -36t-36 -13q-27 0 -44.5 22.5z" />
    <glyph glyph-name="Hcircumflex" unicode="&#x124;" horiz-adv-x="825" 
d="M108.5 8.5q-8.5 8.5 -8.5 21.5v721q0 13 8.5 21.5t21.5 8.5t21.5 -8.5t8.5 -21.5v-330h505v330q0 13 8.5 21.5t21.5 8.5q12 0 21 -8.5t9 -21.5v-721q0 -13 -9 -21.5t-21 -8.5q-13 0 -21.5 8.5t-8.5 21.5v337h-505v-337q0 -13 -8.5 -21.5t-21.5 -8.5t-21.5 8.5zM270 890.5
q-9 8.5 -9 21.5q0 17 16 27l121 81q8 4 15 4t15 -4l121 -81q16 -10 16 -27q0 -13 -9 -21.5t-22 -8.5q-10 0 -19 6l-102 68l-102 -68q-9 -6 -18 -6q-14 0 -23 8.5z" />
    <glyph glyph-name="hcircumflex" unicode="&#x125;" horiz-adv-x="673" 
d="M470.5 524q57.5 -30 90 -87.5t32.5 -137.5v-269q0 -13 -8.5 -21.5t-21.5 -8.5t-21.5 8.5t-8.5 21.5v269q0 95 -53.5 145t-139.5 50q-53 0 -96.5 -20.5t-68.5 -57t-25 -80.5v-306q0 -13 -8 -21.5t-22 -8.5q-13 0 -21.5 8.5t-8.5 21.5v721q0 14 8.5 22t21.5 8q14 0 22 -8
t8 -22v-286q34 42 83 65.5t107 23.5q73 0 130.5 -30zM-23 890.5q-9 8.5 -9 21.5q0 17 16 27l121 81q8 4 15 4t15 -4l121 -81q16 -10 16 -27q0 -13 -9 -21.5t-22 -8.5q-10 0 -19 6l-102 68l-102 -68q-9 -6 -18 -6q-14 0 -23 8.5z" />
    <glyph glyph-name="Hbar" unicode="&#x126;" horiz-adv-x="825" 
d="M806.5 650.5q7.5 -7.5 7.5 -19.5t-7.5 -19.5t-19.5 -7.5h-62v-574q0 -13 -9 -21.5t-21 -8.5q-13 0 -21.5 8.5t-8.5 21.5v337h-505v-337q0 -13 -8.5 -21.5t-21.5 -8.5t-21.5 8.5t-8.5 21.5v574h-51q-12 0 -19.5 7.5t-7.5 19.5t7.5 19.5t19.5 7.5h51v93q0 13 8.5 21.5
t21.5 8.5t21.5 -8.5t8.5 -21.5v-93h505v93q0 13 8.5 21.5t21.5 8.5q12 0 21 -8.5t9 -21.5v-93h62q12 0 19.5 -7.5zM665 421v183h-505v-183h505z" />
    <glyph glyph-name="hbar" unicode="&#x127;" horiz-adv-x="673" 
d="M470.5 524q57.5 -30 90 -87.5t32.5 -137.5v-269q0 -13 -8.5 -21.5t-21.5 -8.5t-21.5 8.5t-8.5 21.5v269q0 95 -53.5 145t-139.5 50q-53 0 -96.5 -20.5t-68.5 -57t-25 -80.5v-306q0 -13 -8 -21.5t-22 -8.5q-13 0 -21.5 8.5t-8.5 21.5v591h-66q-12 0 -19.5 7.5t-7.5 19.5
t7.5 19.5t19.5 7.5h66v76q0 14 8.5 22t21.5 8q14 0 22 -8t8 -22v-76h192q12 0 19.5 -7.5t7.5 -19.5t-7.5 -19.5t-19.5 -7.5h-192v-156q34 42 83 65.5t107 23.5q73 0 130.5 -30z" />
    <glyph glyph-name="Itilde" unicode="&#x128;" horiz-adv-x="260" 
d="M108.5 8.5q-8.5 8.5 -8.5 21.5v721q0 13 8.5 21.5t21.5 8.5t21.5 -8.5t8.5 -21.5v-721q0 -13 -8.5 -21.5t-21.5 -8.5t-21.5 8.5zM150.5 896.5q-19.5 10.5 -32.5 23.5q-16 16 -26.5 22.5t-22.5 6.5t-21 -10.5t-21 -32.5q-9 -18 -28 -18q-12 0 -18.5 7t-6.5 17q0 7 3 14
q17 39 39 56.5t52 17.5q23 0 37 -7.5t35 -25.5q20 -17 29.5 -22.5t17.5 -5.5q15 0 26 30q4 12 14.5 18t21.5 3q22 -6 22 -25q0 -6 -3 -12q-15 -36 -33.5 -51.5t-43.5 -15.5q-21 0 -40.5 10.5z" />
    <glyph glyph-name="itilde" unicode="&#x129;" horiz-adv-x="280" 
d="M118.5 8.5q-8.5 8.5 -8.5 21.5v487q0 14 8.5 22t21.5 8q14 0 22 -8t8 -22v-487q0 -13 -8 -21.5t-22 -8.5q-13 0 -21.5 8.5zM160.5 662.5q-19.5 10.5 -32.5 23.5q-16 16 -26.5 22.5t-22.5 6.5t-21 -10.5t-21 -32.5q-9 -18 -28 -18q-12 0 -18.5 7t-6.5 17q0 7 3 14
q17 39 39 56.5t52 17.5q23 0 37 -7.5t35 -25.5q20 -17 29.5 -22.5t17.5 -5.5q15 0 26 30q4 12 14.5 18t21.5 3q22 -6 22 -25q0 -6 -3 -12q-15 -36 -33.5 -51.5t-43.5 -15.5q-21 0 -40.5 10.5z" />
    <glyph glyph-name="Imacron" unicode="&#x12a;" horiz-adv-x="260" 
d="M108.5 8.5q-8.5 8.5 -8.5 21.5v721q0 13 8.5 21.5t21.5 8.5t21.5 -8.5t8.5 -21.5v-721q0 -13 -8.5 -21.5t-21.5 -8.5t-21.5 8.5zM-24.5 903.5q-8.5 8.5 -8.5 21.5t8.5 22t21.5 9h265q13 0 21.5 -9t8.5 -22t-8.5 -21.5t-21.5 -8.5h-265q-13 0 -21.5 8.5z" />
    <glyph glyph-name="imacron" unicode="&#x12b;" horiz-adv-x="280" 
d="M17 669.5q-7 8.5 -7 21.5t7 22t17 9h212q10 0 17 -9t7 -22t-7 -21.5t-17 -8.5h-212q-10 0 -17 8.5zM118.5 8.5q-8.5 8.5 -8.5 21.5v487q0 14 8.5 22t21.5 8q14 0 22 -8t8 -22v-487q0 -13 -8 -21.5t-22 -8.5q-13 0 -21.5 8.5z" />
    <glyph glyph-name="Ibreve" unicode="&#x12c;" horiz-adv-x="260" 
d="M108.5 8.5q-8.5 8.5 -8.5 21.5v721q0 13 8.5 21.5t21.5 8.5t21.5 -8.5t8.5 -21.5v-721q0 -13 -8.5 -21.5t-21.5 -8.5t-21.5 8.5zM53 897q-35 15 -55.5 40.5t-20.5 55.5q0 13 9 22t22 9t21.5 -9t8.5 -22q0 -24 24.5 -40.5t66.5 -16.5t67 16.5t25 40.5q0 13 8.5 22t21.5 9
q12 0 21 -9t10 -21q-4 -50 -48 -81t-105 -31q-41 0 -76 15z" />
    <glyph glyph-name="ibreve" unicode="&#x12d;" horiz-adv-x="280" 
d="M70.5 663q-31.5 15 -50 40.5t-18.5 55.5q0 13 8 22t20 9q11 0 19 -9t8 -22q0 -24 22 -40.5t60 -16.5q37 0 59.5 16.5t22.5 40.5q0 13 8 22t19 9q12 0 19.5 -9t8.5 -21q-3 -50 -43 -81t-94 -31q-37 0 -68.5 15zM118.5 8.5q-8.5 8.5 -8.5 21.5v487q0 14 8.5 22t21.5 8
q14 0 22 -8t8 -22v-487q0 -13 -8 -21.5t-22 -8.5q-13 0 -21.5 8.5z" />
    <glyph glyph-name="Iogonek" unicode="&#x12e;" horiz-adv-x="260" 
d="M233 -159q9 -9 9 -22q0 -15 -10 -23l-41 -28q-28 -19 -61 -19q-45 0 -78 32.5t-33 78.5q0 53 47 91q31 25 38 44q3 5 9 10q-13 8 -13 25v721q0 13 8.5 21.5t21.5 8.5t21.5 -8.5t8.5 -21.5v-721q0 -15 -12 -25q13 -8 13 -24q0 -19 -15 -38.5t-45 -41.5q-21 -17 -21 -41
q0 -21 14.5 -35.5t35.5 -14.5q16 0 28 8l35 26q9 6 18 6q13 0 22 -9z" />
    <glyph glyph-name="iogonek" unicode="&#x12f;" horiz-adv-x="280" 
d="M106 675.5q-13 13.5 -13 33.5q0 22 14 34t33 12t32.5 -12t13.5 -34q0 -20 -13.5 -33.5t-33.5 -13.5t-33 13.5zM243 -159q9 -9 9 -22q0 -15 -10 -23l-41 -28q-28 -19 -61 -19q-45 0 -78 32.5t-33 78.5q0 53 47 91q31 25 38 44q3 5 9 10q-13 8 -13 25v487q0 14 8.5 22
t21.5 8q14 0 22 -8t8 -22v-487q0 -17 -12 -25q13 -8 13 -24q0 -19 -15 -38.5t-45 -41.5q-21 -17 -21 -41q0 -21 14.5 -35.5t35.5 -14.5q16 0 28 8l35 26q9 6 18 6q13 0 22 -9z" />
    <glyph glyph-name="Idotaccent" unicode="&#x130;" horiz-adv-x="260" 
d="M108.5 8.5q-8.5 8.5 -8.5 21.5v721q0 13 8.5 21.5t21.5 8.5t21.5 -8.5t8.5 -21.5v-721q0 -13 -8.5 -21.5t-21.5 -8.5t-21.5 8.5zM96 909.5q-13 13.5 -13 33.5q0 22 14 34t33 12t32.5 -12t13.5 -34q0 -20 -13.5 -33.5t-33.5 -13.5t-33 13.5z" />
    <glyph glyph-name="dotlessi" unicode="&#x131;" horiz-adv-x="280" 
d="M118.5 8.5q-8.5 8.5 -8.5 21.5v487q0 14 8.5 22t21.5 8q14 0 22 -8t8 -22v-487q0 -13 -8 -21.5t-22 -8.5q-13 0 -21.5 8.5z" />
    <glyph glyph-name="IJ" unicode="&#x132;" horiz-adv-x="631" 
d="M108.5 298.5q-8.5 8.5 -8.5 21.5v431q0 13 8.5 21.5t21.5 8.5t21.5 -8.5t8.5 -21.5v-431q0 -13 -8.5 -21.5t-21.5 -8.5t-21.5 8.5zM208.5 12q-50.5 22 -79.5 64.5t-29 103.5q0 13 8.5 21.5t21.5 8.5t21.5 -8.5t8.5 -21.5q0 -67 44.5 -98.5t116.5 -31.5q41 0 75.5 23
t54.5 62.5t20 84.5v531q0 13 9 21.5t21 8.5q13 0 21.5 -8.5t8.5 -21.5v-531q0 -62 -28.5 -115t-76.5 -84t-105 -31q-62 0 -112.5 22z" />
    <glyph glyph-name="ij" unicode="&#x133;" horiz-adv-x="564" 
d="M118.5 8.5q-8.5 8.5 -8.5 21.5v487q0 14 8.5 22t21.5 8q14 0 22 -8t8 -22v-487q0 -13 -8 -21.5t-22 -8.5q-13 0 -21.5 8.5zM106 675.5q-13 13.5 -13 33.5q0 22 14 34t33 12t32.5 -12t13.5 -34q0 -20 -13.5 -33.5t-33.5 -13.5t-33 13.5zM198.5 -225.5q-8.5 8.5 -8.5 21.5
t8.5 22t22.5 9q76 0 124 48t48 124v518q0 14 8.5 22t21.5 8q14 0 22.5 -8.5t8.5 -21.5v-518q0 -67 -30 -120t-83 -83t-120 -30q-14 0 -22.5 8.5zM389 675.5q-13 13.5 -13 33.5q0 22 14 34t33 12t32.5 -12t13.5 -34q0 -20 -13.5 -33.5t-33.5 -13.5t-33 13.5z" />
    <glyph glyph-name="Jcircumflex" unicode="&#x134;" horiz-adv-x="606" 
d="M160 21.5q-53 31.5 -84 84t-31 114.5q0 13 8.5 21.5t21.5 8.5t21.5 -8.5t8.5 -21.5q0 -46 23.5 -85t62.5 -62t85 -23t85 23t62 62.5t23 84.5v531q0 13 9 21.5t21 8.5q13 0 21.5 -8.5t8.5 -21.5v-531q0 -62 -31 -115t-84 -84t-115 -31q-63 0 -116 31.5zM333 890.5
q-9 8.5 -9 21.5q0 17 16 27l121 81q8 4 15 4t15 -4l121 -81q16 -10 16 -27q0 -13 -9 -21.5t-22 -8.5q-10 0 -19 6l-102 68l-102 -68q-9 -6 -18 -6q-14 0 -23 8.5z" />
    <glyph glyph-name="jcircumflex" unicode="&#x135;" horiz-adv-x="284" 
d="M14 656.5q-8 8.5 -8 21.5q0 17 14 27l109 81q8 4 14 4q7 0 13 -4l109 -81q14 -10 14 -27q0 -13 -7.5 -21.5t-19.5 -8.5q-9 0 -18 6l-91 68l-92 -68q-9 -6 -16 -6q-13 0 -21 8.5zM-81.5 -225.5q-8.5 8.5 -8.5 21.5t8.5 22t22.5 9q76 0 124 48t48 124v518q0 14 8.5 22
t21.5 8q14 0 22.5 -8.5t8.5 -21.5v-518q0 -67 -30 -120t-83 -83t-120 -30q-14 0 -22.5 8.5z" />
    <glyph glyph-name="Kcommaaccent" unicode="&#x136;" horiz-adv-x="647" 
d="M109 8.5q-9 8.5 -9 21.5v721q0 13 9 21.5t21 8.5q13 0 21.5 -8.5t8.5 -21.5v-367l388 388q11 9 23 9q13 0 21.5 -9t8.5 -21q0 -11 -9 -22l-287 -287l290 -394q6 -9 6 -18q0 -12 -9 -21t-20 -9q-17 0 -26 13l-285 385l-101 -101v-267q0 -13 -8.5 -21.5t-21.5 -8.5
q-12 0 -21 8.5zM251.5 -212q-38.5 20 -38.5 46q0 11 6.5 17.5t18.5 6.5q11 0 19 -3.5t18 -11.5q13 -10 26 -15.5t33 -5.5q28 0 45 13t17 35q0 19 -16.5 30.5t-48.5 11.5q-44 0 -44 24q0 25 40 25q53 0 87 -26.5t34 -67.5q0 -43 -34 -71t-83 -28q-41 0 -79.5 20z" />
    <glyph glyph-name="kcommaaccent" unicode="&#x137;" horiz-adv-x="574" 
d="M510 26q0 -11 -11 -21q-10 -8 -18 -8q-12 0 -21 12l-217 265l-93 -85v-159q0 -13 -8 -21.5t-22 -8.5q-13 0 -21.5 8.5t-8.5 21.5v721q0 14 8.5 22t21.5 8q14 0 22 -8t8 -22v-489l310 282q10 8 19 8q10 0 19 -10q9 -9 9 -19t-10 -19l-212 -193l218 -267q7 -8 7 -18z
M214.5 -212q-38.5 20 -38.5 46q0 11 6.5 17.5t18.5 6.5q11 0 19 -3.5t18 -11.5q13 -10 26 -15.5t33 -5.5q28 0 45 13t17 35q0 19 -16.5 30.5t-48.5 11.5q-44 0 -44 24q0 25 40 25q53 0 87 -26.5t34 -67.5q0 -43 -34 -71t-83 -28q-41 0 -79.5 20z" />
    <glyph glyph-name="kgreenlandic" unicode="&#x138;" horiz-adv-x="574" 
d="M510 26q0 -11 -11 -21q-10 -8 -18 -8q-12 0 -21 12l-217 265l-93 -85v-159q0 -13 -8 -21.5t-22 -8.5q-13 0 -21.5 8.5t-8.5 21.5v487q0 14 8.5 22t21.5 8q14 0 22 -8t8 -22v-255l310 282q10 8 19 8q10 0 19 -10q9 -9 9 -19t-10 -19l-212 -193l218 -267q7 -8 7 -18z" />
    <glyph glyph-name="Lacute" unicode="&#x139;" horiz-adv-x="626" 
d="M109 8.5q-9 8.5 -9 21.5v721q0 13 9 21.5t21 8.5q13 0 21.5 -8.5t8.5 -21.5v-697h411q13 0 21.5 -7.5t8.5 -19.5t-8.5 -19.5t-21.5 -7.5h-441q-12 0 -21 8.5zM93 871q-9 9 -9 22q0 11 7 20l123 123q9 9 22 9t22 -9t9 -22q0 -12 -9 -21l-123 -123q-8 -8 -20 -8
q-13 0 -22 9z" />
    <glyph glyph-name="lacute" unicode="&#x13a;" horiz-adv-x="270" 
d="M63 771q-9 9 -9 22q0 11 7 20l123 123q9 9 22 9t22 -9t9 -22q0 -12 -9 -21l-123 -123q-8 -8 -20 -8q-13 0 -22 9zM106.5 46q-36.5 46 -36.5 119v486q0 14 8.5 22t21.5 8q14 0 22 -8t8 -22v-486q0 -46 19.5 -75.5t50.5 -29.5h25q11 0 18 -8t7 -22q0 -13 -8 -21.5t-22 -8.5
h-20q-57 0 -93.5 46z" />
    <glyph glyph-name="Lcommaaccent" unicode="&#x13b;" horiz-adv-x="626" 
d="M109 8.5q-9 8.5 -9 21.5v721q0 13 9 21.5t21 8.5q13 0 21.5 -8.5t8.5 -21.5v-697h411q13 0 21.5 -7.5t8.5 -19.5t-8.5 -19.5t-21.5 -7.5h-441q-12 0 -21 8.5zM250.5 -212q-38.5 20 -38.5 46q0 11 6.5 17.5t18.5 6.5q11 0 19 -3.5t18 -11.5q13 -10 26 -15.5t33 -5.5
q28 0 45 13t17 35q0 19 -16.5 30.5t-48.5 11.5q-44 0 -44 24q0 25 40 25q53 0 87 -26.5t34 -67.5q0 -43 -34 -71t-83 -28q-41 0 -79.5 20z" />
    <glyph glyph-name="lcommaaccent" unicode="&#x13c;" horiz-adv-x="270" 
d="M106.5 46q-36.5 46 -36.5 119v586q0 14 8.5 22t21.5 8q14 0 22 -8t8 -22v-586q0 -46 19.5 -75.5t50.5 -29.5h25q11 0 18 -8t7 -22q0 -13 -8 -21.5t-22 -8.5h-20q-57 0 -93.5 46zM127.5 -212q-38.5 20 -38.5 46q0 11 6.5 17.5t18.5 6.5q11 0 19 -3.5t18 -11.5
q13 -10 26 -15.5t33 -5.5q28 0 45 13t17 35q0 19 -16.5 30.5t-48.5 11.5q-44 0 -44 24q0 25 40 25q53 0 87 -26.5t34 -67.5q0 -43 -34 -71t-83 -28q-41 0 -79.5 20z" />
    <glyph glyph-name="Lcaron" unicode="&#x13d;" horiz-adv-x="626" 
d="M109 8.5q-9 8.5 -9 21.5v721q0 13 9 21.5t21 8.5q13 0 21.5 -8.5t8.5 -21.5v-697h411q13 0 21.5 -7.5t8.5 -19.5t-8.5 -19.5t-21.5 -7.5h-441q-12 0 -21 8.5zM374 544.5q-5 5.5 -5 13.5q0 7 10 25q11 20 17.5 38t8.5 43q1 12 -1 20.5t-7 19.5q-1 2 -5 13t-4 27
q0 37 43 37q22 0 34 -19t12 -50q0 -15 -3 -32q-6 -28 -22 -61.5t-34 -56.5t-31 -23q-8 0 -13 5.5z" />
    <glyph glyph-name="lcaron" unicode="&#x13e;" horiz-adv-x="331" 
d="M106.5 46q-36.5 46 -36.5 119v586q0 14 8.5 22t21.5 8q14 0 22 -8t8 -22v-586q0 -46 19.5 -75.5t50.5 -29.5h25q11 0 18 -8t7 -22q0 -13 -8 -21.5t-22 -8.5h-20q-57 0 -93.5 46zM224 544.5q-5 5.5 -5 13.5q0 7 10 25q11 20 17.5 38t8.5 43q1 12 -1 20.5t-7 19.5
q-1 2 -5 13t-4 27q0 37 43 37q22 0 34 -19t12 -50q0 -15 -3 -32q-6 -28 -22 -61.5t-34 -56.5t-31 -23q-8 0 -13 5.5z" />
    <glyph glyph-name="Ldot" unicode="&#x13f;" horiz-adv-x="586" 
d="M109 8.5q-9 8.5 -9 21.5v721q0 13 9 21.5t21 8.5q13 0 21.5 -8.5t8.5 -21.5v-697h411q13 0 21.5 -7.5t8.5 -19.5t-8.5 -19.5t-21.5 -7.5h-441q-12 0 -21 8.5zM398 338.5q-15 14.5 -15 36.5q0 21 14.5 35.5t36.5 14.5q21 0 35.5 -14.5t14.5 -35.5q0 -22 -14.5 -36.5
t-35.5 -14.5t-36 14.5z" />
    <glyph glyph-name="ldot" unicode="&#x140;" horiz-adv-x="334" 
d="M106.5 46q-36.5 46 -36.5 119v586q0 14 8.5 22t21.5 8q14 0 22 -8t8 -22v-586q0 -46 19.5 -75.5t50.5 -29.5h25q11 0 18 -8t7 -22q0 -13 -8 -21.5t-22 -8.5h-20q-57 0 -93.5 46zM238 338.5q-15 14.5 -15 36.5q0 21 14.5 35.5t36.5 14.5q21 0 35.5 -14.5t14.5 -35.5
q0 -22 -14.5 -36.5t-35.5 -14.5t-36 14.5z" />
    <glyph glyph-name="Lslash" unicode="&#x141;" horiz-adv-x="664" 
d="M128.5 8.5q-8.5 8.5 -8.5 21.5v290l-57 -56q-7 -9 -21 -9q-12 0 -20.5 9t-8.5 22q0 11 8 21l99 98v346q0 13 8.5 21.5t21.5 8.5t21.5 -8.5t8.5 -21.5v-287l111 110q12 10 21 10q12 0 21 -9.5t9 -21.5t-9 -21l-153 -153v-319h411q13 0 21.5 -9t8.5 -21q0 -13 -8.5 -21.5
t-21.5 -8.5h-441q-13 0 -21.5 8.5z" />
    <glyph glyph-name="lslash" unicode="&#x142;" horiz-adv-x="352" 
d="M131.5 8.5q-8.5 8.5 -8.5 21.5v294l-58 -57q-9 -9 -19 -9q-13 0 -22.5 8.5t-9.5 22.5q0 13 8 21l101 99v351q0 13 8.5 21.5t21.5 8.5t22 -8.5t9 -21.5v-291l69 69q9 9 22 9q12 0 21 -9t9 -21q0 -13 -9 -22l-112 -112v-322h50q13 0 22 -9t9 -22t-9 -21.5t-22 -8.5h-81
q-13 0 -21.5 8.5z" />
    <glyph glyph-name="Nacute" unicode="&#x143;" horiz-adv-x="821" 
d="M108.5 8.5q-8.5 8.5 -8.5 21.5v721q0 13 8.5 21.5t21.5 8.5q14 0 23 -10l508 -661v641q0 13 8.5 21.5t21.5 8.5q12 0 21 -8.5t9 -21.5v-721q0 -13 -9 -21.5t-21 -8.5q-14 0 -22 9l-509 662v-641q0 -13 -8.5 -21.5t-21.5 -8.5t-21.5 8.5zM374 871q-9 9 -9 22q0 11 7 20
l123 123q9 9 22 9t22 -9t9 -22q0 -12 -9 -21l-123 -123q-8 -8 -20 -8q-13 0 -22 9z" />
    <glyph glyph-name="nacute" unicode="&#x144;" horiz-adv-x="673" 
d="M470.5 524q57.5 -30 90 -87.5t32.5 -137.5v-269q0 -13 -8.5 -21.5t-21.5 -8.5t-21.5 8.5t-8.5 21.5v269q0 95 -53.5 145t-139.5 50q-53 0 -96.5 -20.5t-68.5 -57t-25 -80.5v-306q0 -13 -8 -21.5t-22 -8.5q-13 0 -21.5 8.5t-8.5 21.5v487q0 14 8.5 22t21.5 8q14 0 22 -8
t8 -22v-52q34 42 83 65.5t107 23.5q73 0 130.5 -30zM300 637q-9 9 -9 22q0 11 7 20l123 123q9 9 22 9t22 -9t9 -22q0 -12 -9 -21l-123 -123q-8 -8 -20 -8q-13 0 -22 9z" />
    <glyph glyph-name="Ncommaaccent" unicode="&#x145;" horiz-adv-x="821" 
d="M108.5 8.5q-8.5 8.5 -8.5 21.5v721q0 13 8.5 21.5t21.5 8.5q14 0 23 -10l508 -661v641q0 13 8.5 21.5t21.5 8.5q12 0 21 -8.5t9 -21.5v-721q0 -13 -9 -21.5t-21 -8.5q-14 0 -22 9l-509 662v-641q0 -13 -8.5 -21.5t-21.5 -8.5t-21.5 8.5zM338.5 -212q-38.5 20 -38.5 46
q0 11 6.5 17.5t18.5 6.5q11 0 19 -3.5t18 -11.5q13 -10 26 -15.5t33 -5.5q28 0 45 13t17 35q0 19 -16.5 30.5t-48.5 11.5q-44 0 -44 24q0 25 40 25q53 0 87 -26.5t34 -67.5q0 -43 -34 -71t-83 -28q-41 0 -79.5 20z" />
    <glyph glyph-name="ncommaaccent" unicode="&#x146;" horiz-adv-x="673" 
d="M470.5 524q57.5 -30 90 -87.5t32.5 -137.5v-269q0 -13 -8.5 -21.5t-21.5 -8.5t-21.5 8.5t-8.5 21.5v269q0 95 -53.5 145t-139.5 50q-53 0 -96.5 -20.5t-68.5 -57t-25 -80.5v-306q0 -13 -8 -21.5t-22 -8.5q-13 0 -21.5 8.5t-8.5 21.5v487q0 14 8.5 22t21.5 8q14 0 22 -8
t8 -22v-52q34 42 83 65.5t107 23.5q73 0 130.5 -30zM264.5 -212q-38.5 20 -38.5 46q0 11 6.5 17.5t18.5 6.5q11 0 19 -3.5t18 -11.5q13 -10 26 -15.5t33 -5.5q28 0 45 13t17 35q0 19 -16.5 30.5t-48.5 11.5q-44 0 -44 24q0 25 40 25q53 0 87 -26.5t34 -67.5q0 -43 -34 -71
t-83 -28q-41 0 -79.5 20z" />
    <glyph glyph-name="Ncaron" unicode="&#x147;" horiz-adv-x="821" 
d="M108.5 8.5q-8.5 8.5 -8.5 21.5v721q0 13 8.5 21.5t21.5 8.5q14 0 23 -10l508 -661v641q0 13 8.5 21.5t21.5 8.5q12 0 21 -8.5t9 -21.5v-721q0 -13 -9 -21.5t-21 -8.5q-14 0 -22 9l-509 662v-641q0 -13 -8.5 -21.5t-21.5 -8.5t-21.5 8.5zM396 886l-121 80q-16 10 -16 27
q0 12 7.5 19.5t18.5 7.5q12 0 24 -8l102 -70l102 68q13 9 25 9q11 0 18 -7.5t7 -18.5q0 -15 -16 -27l-121 -80q-5 -4 -15 -4t-15 4z" />
    <glyph glyph-name="ncaron" unicode="&#x148;" horiz-adv-x="673" 
d="M470.5 524q57.5 -30 90 -87.5t32.5 -137.5v-269q0 -13 -8.5 -21.5t-21.5 -8.5t-21.5 8.5t-8.5 21.5v269q0 95 -53.5 145t-139.5 50q-53 0 -96.5 -20.5t-68.5 -57t-25 -80.5v-306q0 -13 -8 -21.5t-22 -8.5q-13 0 -21.5 8.5t-8.5 21.5v487q0 14 8.5 22t21.5 8q14 0 22 -8
t8 -22v-52q34 42 83 65.5t107 23.5q73 0 130.5 -30zM322 652l-121 80q-16 10 -16 27q0 12 7.5 19.5t18.5 7.5q12 0 24 -8l102 -70l102 68q13 9 25 9q11 0 18 -7.5t7 -18.5q0 -15 -16 -27l-121 -80q-5 -4 -15 -4t-15 4z" />
    <glyph glyph-name="Eng" unicode="&#x14a;" horiz-adv-x="693" 
d="M492 745.5q60 -35.5 95.5 -100.5t35.5 -149v-178q0 -160 -55 -243.5t-156 -83.5q-64 0 -115 30.5t-62 76.5q-3 13 3.5 21t20.5 8q9 0 17.5 -6.5t13.5 -17.5q12 -24 48 -40t74 -16q151 0 151 271v168q0 105 -54 170t-149 65q-58 0 -103.5 -20t-71 -56t-25.5 -82v-533
q0 -13 -8.5 -21.5t-21.5 -8.5t-21.5 8.5t-8.5 21.5v721q0 13 8.5 21.5t21.5 8.5t21.5 -8.5t8.5 -21.5v-65q33 45 85 70t115 25q72 0 132 -35.5z" />
    <glyph glyph-name="eng" unicode="&#x14b;" horiz-adv-x="673" 
d="M470.5 521.5q57.5 -32.5 90 -90.5t32.5 -132v-172q0 -102 -26.5 -173t-74 -107.5t-110.5 -36.5q-69 0 -117 30t-60 77q-3 13 3.5 21t20.5 8q9 0 18 -7t13 -17q13 -25 45.5 -40.5t76.5 -15.5q69 0 110 66.5t41 194.5v172q0 56 -24.5 100.5t-68.5 69.5t-100 25
q-55 0 -98 -20t-67.5 -56t-24.5 -82v-306q0 -13 -8 -21.5t-22 -8.5q-13 0 -21.5 8.5t-8.5 21.5v487q0 14 8.5 22t21.5 8q14 0 22 -8t8 -22v-58q31 45 80.5 70t109.5 25q73 0 130.5 -32.5z" />
    <glyph glyph-name="Omacron" unicode="&#x14c;" horiz-adv-x="921" 
d="M256.5 42.5q-91.5 52.5 -144 144t-52.5 204.5q0 112 52.5 203.5t144 144t204.5 52.5q112 0 203.5 -52.5t144 -144t52.5 -203.5q0 -113 -52.5 -204.5t-144 -144t-203.5 -52.5q-113 0 -204.5 52.5zM634 94.5q78 44.5 122.5 122.5t44.5 174q0 95 -44.5 173t-122.5 122.5
t-173 44.5q-96 0 -174 -44.5t-122.5 -122.5t-44.5 -173q0 -96 44.5 -174t122.5 -122.5t174 -44.5q95 0 173 44.5zM306.5 903.5q-8.5 8.5 -8.5 21.5t8.5 22t21.5 9h265q13 0 21.5 -9t8.5 -22t-8.5 -21.5t-21.5 -8.5h-265q-13 0 -21.5 8.5z" />
    <glyph glyph-name="omacron" unicode="&#x14d;" 
d="M197 30.5q-64 36.5 -100.5 100.5t-36.5 142q0 79 36.5 143t100.5 100.5t143 36.5q78 0 142 -36.5t100.5 -100.5t36.5 -143q0 -78 -36.5 -142t-100.5 -100.5t-142 -36.5q-79 0 -143 36.5zM452 79q50 29 78.5 80t28.5 114t-28.5 114t-78.5 80.5t-112 29.5t-112 -29.5
t-79 -80.5t-29 -114t29 -114t79 -80t112 -29t112 29zM185.5 669.5q-8.5 8.5 -8.5 21.5t8.5 22t21.5 9h265q13 0 21.5 -9t8.5 -22t-8.5 -21.5t-21.5 -8.5h-265q-13 0 -21.5 8.5z" />
    <glyph glyph-name="Obreve" unicode="&#x14e;" horiz-adv-x="921" 
d="M256.5 42.5q-91.5 52.5 -144 144t-52.5 204.5q0 112 52.5 203.5t144 144t204.5 52.5q112 0 203.5 -52.5t144 -144t52.5 -203.5q0 -113 -52.5 -204.5t-144 -144t-203.5 -52.5q-113 0 -204.5 52.5zM634 94.5q78 44.5 122.5 122.5t44.5 174q0 95 -44.5 173t-122.5 122.5
t-173 44.5q-96 0 -174 -44.5t-122.5 -122.5t-44.5 -173q0 -96 44.5 -174t122.5 -122.5t174 -44.5q95 0 173 44.5zM384 897q-35 15 -55.5 40.5t-20.5 55.5q0 13 9 22t22 9t21.5 -9t8.5 -22q0 -24 24.5 -40.5t66.5 -16.5t67 16.5t25 40.5q0 13 8.5 22t21.5 9q12 0 21 -9
t10 -21q-4 -50 -48 -81t-105 -31q-41 0 -76 15z" />
    <glyph glyph-name="obreve" unicode="&#x14f;" 
d="M197 30.5q-64 36.5 -100.5 100.5t-36.5 142q0 79 36.5 143t100.5 100.5t143 36.5q78 0 142 -36.5t100.5 -100.5t36.5 -143q0 -78 -36.5 -142t-100.5 -100.5t-142 -36.5q-79 0 -143 36.5zM452 79q50 29 78.5 80t28.5 114t-28.5 114t-78.5 80.5t-112 29.5t-112 -29.5
t-79 -80.5t-29 -114t29 -114t79 -80t112 -29t112 29zM263 663q-35 15 -55.5 40.5t-20.5 55.5q0 13 9 22t22 9t21.5 -9t8.5 -22q0 -24 24.5 -40.5t66.5 -16.5t67 16.5t25 40.5q0 13 8.5 22t21.5 9q12 0 21 -9t10 -21q-4 -50 -48 -81t-105 -31q-41 0 -76 15z" />
    <glyph glyph-name="Ohungarumlaut" unicode="&#x150;" horiz-adv-x="921" 
d="M256.5 42.5q-91.5 52.5 -144 144t-52.5 204.5q0 112 52.5 203.5t144 144t204.5 52.5q112 0 203.5 -52.5t144 -144t52.5 -203.5q0 -113 -52.5 -204.5t-144 -144t-203.5 -52.5q-113 0 -204.5 52.5zM634 94.5q78 44.5 122.5 122.5t44.5 174q0 95 -44.5 173t-122.5 122.5
t-173 44.5q-96 0 -174 -44.5t-122.5 -122.5t-44.5 -173q0 -96 44.5 -174t122.5 -122.5t174 -44.5q95 0 173 44.5zM364.5 868.5q-5.5 5.5 -5.5 14.5q0 7 1 9l46 144q4 9 11.5 14t16.5 5q14 0 22.5 -9t8.5 -21q0 -5 -2 -11l-65 -137q-7 -14 -20 -14q-8 0 -13.5 5.5z
M521.5 868.5q-5.5 5.5 -5.5 14.5q0 7 1 9l47 144q3 9 10.5 14t16.5 5q14 0 22.5 -9t8.5 -21q0 -5 -2 -11l-65 -137q-6 -14 -20 -14q-8 0 -13.5 5.5z" />
    <glyph glyph-name="ohungarumlaut" unicode="&#x151;" 
d="M197 30.5q-64 36.5 -100.5 100.5t-36.5 142q0 79 36.5 143t100.5 100.5t143 36.5q78 0 142 -36.5t100.5 -100.5t36.5 -143q0 -78 -36.5 -142t-100.5 -100.5t-142 -36.5q-79 0 -143 36.5zM452 79q50 29 78.5 80t28.5 114t-28.5 114t-78.5 80.5t-112 29.5t-112 -29.5
t-79 -80.5t-29 -114t29 -114t79 -80t112 -29t112 29zM243.5 634.5q-5.5 5.5 -5.5 14.5q0 7 1 9l46 144q4 9 11.5 14t16.5 5q14 0 22.5 -9t8.5 -21q0 -5 -2 -11l-65 -137q-7 -14 -20 -14q-8 0 -13.5 5.5zM400.5 634.5q-5.5 5.5 -5.5 14.5q0 7 1 9l47 144q3 9 10.5 14t16.5 5
q14 0 22.5 -9t8.5 -21q0 -5 -2 -11l-65 -137q-6 -14 -20 -14q-8 0 -13.5 5.5z" />
    <glyph glyph-name="OE" unicode="&#x152;" horiz-adv-x="1147" 
d="M1093 51q9 -9 9 -21q0 -13 -9 -21.5t-21 -8.5h-441q-4 0 -6 1q-19 -1 -64 -5q-64 -6 -100 -6q-113 0 -204.5 52.5t-144 144t-52.5 204.5q0 112 52.5 203.5t144 144t204.5 52.5q21 0 99 -5q48 -5 83 -5h429q12 0 21 -8.5t9 -21.5q0 -12 -9 -21t-21 -9h-411v-300h291
q13 0 21.5 -8.5t8.5 -21.5t-8.5 -22t-21.5 -9h-291v-300h411q12 0 21 -9zM164.5 217q44.5 -78 122.5 -122.5t174 -44.5q74 0 140 11v659q-66 11 -140 11q-96 0 -174 -44.5t-122.5 -122.5t-44.5 -173q0 -96 44.5 -174z" />
    <glyph glyph-name="oe" unicode="&#x153;" horiz-adv-x="1108" 
d="M946.5 517.5q57.5 -34.5 89.5 -95.5t32 -139q0 -13 -8 -20.5t-21 -7.5h-419q3 -59 31 -105.5t75 -72.5t105 -26q39 0 78.5 13.5t62.5 35.5q10 8 21 8t18 -6q11 -9 11 -21q0 -10 -9 -19q-32 -29 -83.5 -48t-98.5 -19q-85 0 -149 41.5t-95 113.5q-31 -72 -95.5 -114
t-151.5 -42q-81 0 -144.5 35.5t-99.5 99t-36 144.5t35.5 145t99.5 99.5t145 35.5q87 0 151.5 -41.5t95.5 -113.5q29 72 89 113t140 41q73 0 130.5 -34.5zM453 78.5q50 28.5 78 79t28 115.5t-28 116t-78 79.5t-113 28.5q-64 0 -114 -28.5t-78 -79.5t-28 -116t28 -115.5
t78 -79t114 -28.5q63 0 113 28.5zM684.5 444q-53.5 -52 -63.5 -137h389q-7 85 -60 137t-134 52q-78 0 -131.5 -52z" />
    <glyph glyph-name="Racute" unicode="&#x154;" horiz-adv-x="608" 
d="M583 23q0 -11 -8.5 -17t-24.5 -6q-10 0 -16 4t-11 12l-184 294h-18h-161v-280q0 -13 -8 -21.5t-22 -8.5q-13 0 -21.5 8.5t-8.5 21.5v721q0 14 8.5 22t21.5 8h191q72 0 129 -30t89 -84t32 -123q0 -82 -45.5 -141.5t-122.5 -81.5l172 -275q8 -14 8 -23zM321 370q55 0 98 22
t67.5 62t24.5 90q0 51 -24.5 91.5t-67.5 63t-98 22.5h-161v-351h161zM267 871q-9 9 -9 22q0 11 7 20l123 123q9 9 22 9t22 -9t9 -22q0 -12 -9 -21l-123 -123q-8 -8 -20 -8q-13 0 -22 9z" />
    <glyph glyph-name="racute" unicode="&#x155;" horiz-adv-x="438" 
d="M398 520q0 -5 -1 -8q-3 -11 -9.5 -15.5t-17.5 -4.5q-9 0 -23.5 2t-24.5 2q-50 0 -89 -21t-61 -58t-22 -83v-304q0 -13 -8 -21.5t-22 -8.5q-13 0 -21.5 8.5t-8.5 21.5v487q0 14 8.5 22t21.5 8q14 0 22 -8t8 -22v-62q29 46 74 72t98 26q76 0 76 -33zM202 637q-9 9 -9 22
q0 11 7 20l123 123q9 9 22 9t22 -9t9 -22q0 -12 -9 -21l-123 -123q-8 -8 -20 -8q-13 0 -22 9z" />
    <glyph glyph-name="Rcommaaccent" unicode="&#x156;" horiz-adv-x="608" 
d="M583 23q0 -11 -8.5 -17t-24.5 -6q-10 0 -16 4t-11 12l-184 294h-18h-161v-280q0 -13 -8 -21.5t-22 -8.5q-13 0 -21.5 8.5t-8.5 21.5v721q0 14 8.5 22t21.5 8h191q72 0 129 -30t89 -84t32 -123q0 -82 -45.5 -141.5t-122.5 -81.5l172 -275q8 -14 8 -23zM321 370q55 0 98 22
t67.5 62t24.5 90q0 51 -24.5 91.5t-67.5 63t-98 22.5h-161v-351h161zM231.5 -212q-38.5 20 -38.5 46q0 11 6.5 17.5t18.5 6.5q11 0 19 -3.5t18 -11.5q13 -10 26 -15.5t33 -5.5q28 0 45 13t17 35q0 19 -16.5 30.5t-48.5 11.5q-44 0 -44 24q0 25 40 25q53 0 87 -26.5t34 -67.5
q0 -43 -34 -71t-83 -28q-41 0 -79.5 20z" />
    <glyph glyph-name="rcommaaccent" unicode="&#x157;" horiz-adv-x="438" 
d="M398 520q0 -5 -1 -8q-3 -11 -9.5 -15.5t-17.5 -4.5q-9 0 -23.5 2t-24.5 2q-50 0 -89 -21t-61 -58t-22 -83v-304q0 -13 -8 -21.5t-22 -8.5q-13 0 -21.5 8.5t-8.5 21.5v487q0 14 8.5 22t21.5 8q14 0 22 -8t8 -22v-62q29 46 74 72t98 26q76 0 76 -33zM47.5 -212
q-38.5 20 -38.5 46q0 11 6.5 17.5t18.5 6.5q11 0 19 -3.5t18 -11.5q13 -10 26 -15.5t33 -5.5q28 0 45 13t17 35q0 19 -16.5 30.5t-48.5 11.5q-44 0 -44 24q0 25 40 25q53 0 87 -26.5t34 -67.5q0 -43 -34 -71t-83 -28q-41 0 -79.5 20z" />
    <glyph glyph-name="Rcaron" unicode="&#x158;" horiz-adv-x="608" 
d="M583 23q0 -11 -8.5 -17t-24.5 -6q-10 0 -16 4t-11 12l-184 294h-18h-161v-280q0 -13 -8 -21.5t-22 -8.5q-13 0 -21.5 8.5t-8.5 21.5v721q0 14 8.5 22t21.5 8h191q72 0 129 -30t89 -84t32 -123q0 -82 -45.5 -141.5t-122.5 -81.5l172 -275q8 -14 8 -23zM321 370q55 0 98 22
t67.5 62t24.5 90q0 51 -24.5 91.5t-67.5 63t-98 22.5h-161v-351h161zM289 886l-121 80q-16 10 -16 27q0 12 7.5 19.5t18.5 7.5q12 0 24 -8l102 -70l102 68q13 9 25 9q11 0 18 -7.5t7 -18.5q0 -15 -16 -27l-121 -80q-5 -4 -15 -4t-15 4z" />
    <glyph glyph-name="rcaron" unicode="&#x159;" horiz-adv-x="438" 
d="M398 520q0 -5 -1 -8q-3 -11 -9.5 -15.5t-17.5 -4.5q-9 0 -23.5 2t-24.5 2q-50 0 -89 -21t-61 -58t-22 -83v-304q0 -13 -8 -21.5t-22 -8.5q-13 0 -21.5 8.5t-8.5 21.5v487q0 14 8.5 22t21.5 8q14 0 22 -8t8 -22v-62q29 46 74 72t98 26q76 0 76 -33zM224 652l-121 80
q-16 10 -16 27q0 12 7.5 19.5t18.5 7.5q12 0 24 -8l102 -70l102 68q13 9 25 9q11 0 18 -7.5t7 -18.5q0 -15 -16 -27l-121 -80q-5 -4 -15 -4t-15 4z" />
    <glyph glyph-name="Sacute" unicode="&#x15a;" horiz-adv-x="644" 
d="M171 28.5q-69 38.5 -103 105.5q-3 6 -3 12q0 12 8.5 20t22.5 8q20 0 29 -19q27 -50 80.5 -77.5t128.5 -27.5q86 0 135.5 43t49.5 122q0 68 -48.5 112.5t-143.5 57.5q-111 16 -174.5 72.5t-63.5 137.5q0 58 29.5 102.5t83 69t123.5 24.5q73 0 134 -35t90 -84q4 -7 4 -16
q0 -8 -4.5 -14.5t-12.5 -10.5q-4 -2 -12 -2q-18 0 -28 15q-59 87 -171 87q-83 0 -129.5 -37.5t-46.5 -104.5q0 -56 46 -94t142 -54q126 -21 184 -77.5t58 -148.5q0 -69 -30.5 -120t-86 -78t-128.5 -27q-94 0 -163 38.5zM285 871q-9 9 -9 22q0 11 7 20l123 123q9 9 22 9
t22 -9t9 -22q0 -12 -9 -21l-123 -123q-8 -8 -20 -8q-13 0 -22 9z" />
    <glyph glyph-name="sacute" unicode="&#x15b;" horiz-adv-x="536" 
d="M163 14.5q-55 20.5 -91 62.5q-7 8 -7 18q0 14 13 23q6 5 17 5q14 0 23 -11q50 -61 161 -61q79 0 116.5 28t37.5 72q0 79 -153 101q-97 14 -146.5 53t-49.5 94q0 73 53.5 113.5t139.5 40.5q126 0 191 -90q6 -7 6 -17q0 -14 -16 -23q-10 -4 -15 -4q-15 0 -25 13
q-51 65 -143 65q-61 0 -97 -26.5t-36 -65.5q0 -40 34.5 -64t115.5 -36q106 -15 152.5 -56.5t46.5 -100.5q0 -46 -29.5 -81t-78.5 -54t-107 -19t-113 20.5zM241 637q-9 9 -9 22q0 11 7 20l123 123q9 9 22 9t22 -9t9 -22q0 -12 -9 -21l-123 -123q-8 -8 -20 -8q-13 0 -22 9z
" />
    <glyph glyph-name="Scircumflex" unicode="&#x15c;" horiz-adv-x="644" 
d="M171 28.5q-69 38.5 -103 105.5q-3 6 -3 12q0 12 8.5 20t22.5 8q20 0 29 -19q27 -50 80.5 -77.5t128.5 -27.5q86 0 135.5 43t49.5 122q0 68 -48.5 112.5t-143.5 57.5q-111 16 -174.5 72.5t-63.5 137.5q0 58 29.5 102.5t83 69t123.5 24.5q73 0 134 -35t90 -84q4 -7 4 -16
q0 -8 -4.5 -14.5t-12.5 -10.5q-4 -2 -12 -2q-18 0 -28 15q-59 87 -171 87q-83 0 -129.5 -37.5t-46.5 -104.5q0 -56 46 -94t142 -54q126 -21 184 -77.5t58 -148.5q0 -69 -30.5 -120t-86 -78t-128.5 -27q-94 0 -163 38.5zM179 890.5q-9 8.5 -9 21.5q0 17 16 27l121 81
q8 4 15 4t15 -4l121 -81q16 -10 16 -27q0 -13 -9 -21.5t-22 -8.5q-10 0 -19 6l-102 68l-102 -68q-9 -6 -18 -6q-14 0 -23 8.5z" />
    <glyph glyph-name="scircumflex" unicode="&#x15d;" horiz-adv-x="536" 
d="M163 14.5q-55 20.5 -91 62.5q-7 8 -7 18q0 14 13 23q6 5 17 5q14 0 23 -11q50 -61 161 -61q79 0 116.5 28t37.5 72q0 79 -153 101q-97 14 -146.5 53t-49.5 94q0 73 53.5 113.5t139.5 40.5q126 0 191 -90q6 -7 6 -17q0 -14 -16 -23q-10 -4 -15 -4q-15 0 -25 13
q-51 65 -143 65q-61 0 -97 -26.5t-36 -65.5q0 -40 34.5 -64t115.5 -36q106 -15 152.5 -56.5t46.5 -100.5q0 -46 -29.5 -81t-78.5 -54t-107 -19t-113 20.5zM135 656.5q-9 8.5 -9 21.5q0 17 16 27l121 81q8 4 15 4t15 -4l121 -81q16 -10 16 -27q0 -13 -9 -21.5t-22 -8.5
q-10 0 -19 6l-102 68l-102 -68q-9 -6 -18 -6q-14 0 -23 8.5z" />
    <glyph glyph-name="Scedilla" unicode="&#x15e;" horiz-adv-x="644" 
d="M521.5 60q-57.5 -59 -154.5 -68l-11 -28q50 -15 69 -37t19 -55q0 -44 -38 -74t-89 -30q-48 0 -79.5 20t-31.5 46q0 13 8.5 22t21.5 9q8 0 14 -3.5t12 -8t9 -7.5q10 -8 19.5 -12.5t26.5 -4.5q26 0 42.5 11t16.5 30t-13 30.5t-44 20.5q-16 4 -24 10t-8 17q0 6 5 19l10 24
q-82 7 -143 44.5t-91 98.5q-3 6 -3 12q0 12 8.5 20t22.5 8q20 0 29 -19q27 -50 80.5 -77.5t128.5 -27.5q86 0 135.5 43t49.5 122q0 68 -48.5 112.5t-143.5 57.5q-111 16 -174.5 72.5t-63.5 137.5q0 58 29.5 102.5t83 69t123.5 24.5q73 0 134 -35t90 -84q4 -7 4 -16
q0 -8 -4.5 -14.5t-12.5 -10.5q-4 -2 -12 -2q-18 0 -28 15q-59 87 -171 87q-83 0 -129.5 -37.5t-46.5 -104.5q0 -56 46 -94t142 -54q126 -21 184 -77.5t58 -148.5q0 -96 -57.5 -155z" />
    <glyph glyph-name="scedilla" unicode="&#x15f;" horiz-adv-x="536" 
d="M444.5 49.5q-46.5 -39.5 -118.5 -51.5l-14 -34q50 -15 69 -37t19 -55q0 -44 -38 -74t-89 -30q-48 0 -79.5 20t-31.5 46q0 13 8.5 22t21.5 9q8 0 14 -3.5t12 -8t9 -7.5q10 -8 19.5 -12.5t26.5 -4.5q26 0 42.5 11t16.5 30t-13 30.5t-44 20.5q-16 4 -24 10t-8 17q0 6 5 19
l11 27q-54 3 -104 23.5t-83 59.5q-7 8 -7 18q0 14 13 23q6 5 17 5q14 0 23 -11q50 -61 161 -61q79 0 116.5 28t37.5 72q0 79 -153 101q-97 14 -146.5 53t-49.5 94q0 73 53.5 113.5t139.5 40.5q126 0 191 -90q6 -7 6 -17q0 -14 -16 -23q-10 -4 -15 -4q-15 0 -25 13
q-51 65 -143 65q-61 0 -97 -26.5t-36 -65.5q0 -40 34.5 -64t115.5 -36q106 -15 152.5 -56.5t46.5 -100.5t-46.5 -98.5z" />
    <glyph glyph-name="Scaron" unicode="&#x160;" horiz-adv-x="644" 
d="M171 28.5q-69 38.5 -103 105.5q-3 6 -3 12q0 12 8.5 20t22.5 8q20 0 29 -19q27 -50 80.5 -77.5t128.5 -27.5q86 0 135.5 43t49.5 122q0 68 -48.5 112.5t-143.5 57.5q-111 16 -174.5 72.5t-63.5 137.5q0 58 29.5 102.5t83 69t123.5 24.5q73 0 134 -35t90 -84q4 -7 4 -16
q0 -8 -4.5 -14.5t-12.5 -10.5q-4 -2 -12 -2q-18 0 -28 15q-59 87 -171 87q-83 0 -129.5 -37.5t-46.5 -104.5q0 -56 46 -94t142 -54q126 -21 184 -77.5t58 -148.5q0 -69 -30.5 -120t-86 -78t-128.5 -27q-94 0 -163 38.5zM307 886l-121 80q-16 10 -16 27q0 12 7.5 19.5
t18.5 7.5q12 0 24 -8l102 -70l102 68q13 9 25 9q11 0 18 -7.5t7 -18.5q0 -15 -16 -27l-121 -80q-5 -4 -15 -4t-15 4z" />
    <glyph glyph-name="scaron" unicode="&#x161;" horiz-adv-x="536" 
d="M163 14.5q-55 20.5 -91 62.5q-7 8 -7 18q0 14 13 23q6 5 17 5q14 0 23 -11q50 -61 161 -61q79 0 116.5 28t37.5 72q0 79 -153 101q-97 14 -146.5 53t-49.5 94q0 73 53.5 113.5t139.5 40.5q126 0 191 -90q6 -7 6 -17q0 -14 -16 -23q-10 -4 -15 -4q-15 0 -25 13
q-51 65 -143 65q-61 0 -97 -26.5t-36 -65.5q0 -40 34.5 -64t115.5 -36q106 -15 152.5 -56.5t46.5 -100.5q0 -46 -29.5 -81t-78.5 -54t-107 -19t-113 20.5zM263 652l-121 80q-16 10 -16 27q0 12 7.5 19.5t18.5 7.5q12 0 24 -8l102 -70l102 68q13 9 25 9q11 0 18 -7.5t7 -18.5
q0 -15 -16 -27l-121 -80q-5 -4 -15 -4t-15 4z" />
    <glyph glyph-name="uni0162" unicode="&#x162;" horiz-adv-x="650" 
d="M627.5 773.5q7.5 -7.5 7.5 -19.5t-7.5 -19.5t-19.5 -7.5h-253v-689q10 -1 15.5 -8.5t5.5 -17.5q0 -8 -2 -12l-15 -36q50 -15 69 -37t19 -55q0 -44 -38 -74t-89 -30q-48 0 -79.5 20t-31.5 46q0 13 8.5 22t21.5 9q8 0 14 -3.5t12 -8t9 -7.5q10 -8 19.5 -12.5t26.5 -4.5
q26 0 42.5 11t16.5 30t-13 30.5t-44 20.5q-16 4 -24 10t-8 17q0 6 5 19l15 37q-7 4 -11 11t-4 15v697h-253q-12 0 -19.5 7.5t-7.5 19.5t7.5 19.5t19.5 7.5h566q12 0 19.5 -7.5z" />
    <glyph glyph-name="uni0163" unicode="&#x163;" horiz-adv-x="403" 
d="M271 0l-15 -36q50 -15 69 -37t19 -55q0 -44 -38 -74t-89 -30q-48 0 -79.5 20t-31.5 46q0 13 8.5 22t21.5 9q8 0 14 -3.5t12 -8t9 -7.5q10 -8 19.5 -12.5t26.5 -4.5q26 0 42.5 11t16.5 30t-13 30.5t-44 20.5q-16 4 -24 10t-8 17q0 6 5 19l20 49q1 3 5 9q-43 24 -67.5 67.5
t-24.5 99.5v281h-78q-12 0 -19.5 7.5t-7.5 19.5t7.5 19.5t19.5 7.5h78v163q0 14 8.5 22.5t21.5 8.5q14 0 22.5 -8.5t8.5 -22.5v-163h132q12 0 19.5 -7.5t7.5 -19.5t-7.5 -19.5t-19.5 -7.5h-132v-281q0 -58 36 -94.5t93 -36.5h22q14 0 22.5 -8.5t8.5 -22.5q0 -13 -8.5 -21.5
t-22.5 -8.5h-23q-14 0 -42 4q0 -3 -1 -4z" />
    <glyph glyph-name="Tcaron" unicode="&#x164;" horiz-adv-x="650" 
d="M627.5 773.5q7.5 -7.5 7.5 -19.5t-7.5 -19.5t-19.5 -7.5h-253v-697q0 -13 -8.5 -21.5t-21.5 -8.5t-21.5 8.5t-8.5 21.5v697h-253q-12 0 -19.5 7.5t-7.5 19.5t7.5 19.5t19.5 7.5h566q12 0 19.5 -7.5zM310 886l-121 80q-16 10 -16 27q0 12 7.5 19.5t18.5 7.5q12 0 24 -8
l102 -70l102 68q13 9 25 9q11 0 18 -7.5t7 -18.5q0 -15 -16 -27l-121 -80q-5 -4 -15 -4t-15 4z" />
    <glyph glyph-name="tcaron" unicode="&#x165;" horiz-adv-x="403" 
d="M359.5 52.5q8.5 -8.5 8.5 -22.5q0 -13 -8.5 -21.5t-22.5 -8.5h-23q-55 0 -98 25t-67 68.5t-24 98.5v281h-78q-12 0 -19.5 7.5t-7.5 19.5t7.5 19.5t19.5 7.5h78v163q0 14 8.5 22.5t21.5 8.5q14 0 22.5 -8.5t8.5 -22.5v-163h132q12 0 19.5 -7.5t7.5 -19.5t-7.5 -19.5
t-19.5 -7.5h-132v-281q0 -58 36 -94.5t93 -36.5h22q14 0 22.5 -8.5zM243 614.5q-5 5.5 -5 13.5q0 7 10 25q11 20 17.5 38t8.5 43q1 12 -1 20.5t-7 19.5q-1 2 -5 13t-4 27q0 37 43 37q22 0 34 -19t12 -50q0 -15 -3 -32q-6 -28 -22 -61.5t-34 -56.5t-31 -23q-8 0 -13 5.5z" />
    <glyph glyph-name="Tbar" unicode="&#x166;" horiz-adv-x="650" 
d="M627.5 773.5q7.5 -7.5 7.5 -19.5t-7.5 -19.5t-19.5 -7.5h-253v-309h134q12 0 19.5 -7.5t7.5 -19.5t-7.5 -19.5t-19.5 -7.5h-134v-334q0 -13 -8.5 -21.5t-21.5 -8.5t-21.5 8.5t-8.5 21.5v334h-124q-12 0 -19.5 7.5t-7.5 19.5t7.5 19.5t19.5 7.5h124v309h-253
q-12 0 -19.5 7.5t-7.5 19.5t7.5 19.5t19.5 7.5h566q12 0 19.5 -7.5z" />
    <glyph glyph-name="tbar" unicode="&#x167;" horiz-adv-x="403" 
d="M359.5 52.5q8.5 -8.5 8.5 -22.5q0 -13 -8.5 -21.5t-22.5 -8.5h-23q-55 0 -98 25t-67 68.5t-24 98.5v101h-78q-12 0 -19.5 7.5t-7.5 19.5t7.5 19.5t19.5 7.5h78v126h-78q-12 0 -19.5 7.5t-7.5 19.5t7.5 19.5t19.5 7.5h78v163q0 14 8.5 22.5t21.5 8.5q14 0 22.5 -8.5
t8.5 -22.5v-163h132q12 0 19.5 -7.5t7.5 -19.5t-7.5 -19.5t-19.5 -7.5h-132v-126h112q12 0 19.5 -7.5t7.5 -19.5t-7.5 -19.5t-19.5 -7.5h-112v-101q0 -58 36 -94.5t93 -36.5h22q14 0 22.5 -8.5z" />
    <glyph glyph-name="Utilde" unicode="&#x168;" horiz-adv-x="801" 
d="M244.5 18.5q-68.5 34.5 -106.5 96t-38 140.5v496q0 14 8.5 22t21.5 8q14 0 22 -8t8 -22v-496q0 -61 30.5 -109t85 -75t124.5 -27t124.5 27t85.5 75t31 109v496q0 14 8.5 22t21.5 8q14 0 22 -8t8 -22v-496q0 -79 -38.5 -140.5t-107 -96t-155.5 -34.5t-155.5 34.5z
M457 873.5q-21 9.5 -45 25.5q-20 14 -32 18.5t-25 4.5q-41 0 -77 -41q-9 -12 -25 -12q-10 0 -15 4q-15 9 -15 23q0 10 6 17q27 32 59.5 49.5t66.5 17.5q26 0 45.5 -8.5t44.5 -24.5q21 -14 32.5 -19.5t28.5 -5.5q34 0 55 22q12 14 28 14q7 0 11 -3q18 -9 18 -24q0 -8 -6 -16
q-39 -51 -106 -51q-28 0 -49 9.5z" />
    <glyph glyph-name="utilde" unicode="&#x169;" horiz-adv-x="673" 
d="M575 539q8 -8 8 -22v-487q0 -13 -8 -21.5t-22 -8.5q-13 0 -21.5 8.5t-8.5 21.5v52q-34 -42 -83 -65.5t-107 -23.5q-73 0 -130.5 30t-90 87.5t-32.5 137.5v269q0 13 8.5 21.5t21.5 8.5t21.5 -8.5t8.5 -21.5v-269q0 -95 53.5 -145t139.5 -50q53 0 96.5 20.5t68.5 57
t25 80.5v306q0 14 8.5 22t21.5 8q14 0 22 -8zM393 639.5q-21 9.5 -45 25.5q-20 14 -32 18.5t-25 4.5q-41 0 -77 -41q-9 -12 -25 -12q-10 0 -15 4q-15 9 -15 23q0 10 6 17q27 32 59.5 49.5t66.5 17.5q26 0 45.5 -8.5t44.5 -24.5q21 -14 32.5 -19.5t28.5 -5.5q34 0 55 22
q12 14 28 14q7 0 11 -3q18 -9 18 -24q0 -8 -6 -16q-39 -51 -106 -51q-28 0 -49 9.5z" />
    <glyph glyph-name="Umacron" unicode="&#x16a;" horiz-adv-x="801" 
d="M244.5 18.5q-68.5 34.5 -106.5 96t-38 140.5v496q0 14 8.5 22t21.5 8q14 0 22 -8t8 -22v-496q0 -61 30.5 -109t85 -75t124.5 -27t124.5 27t85.5 75t31 109v496q0 14 8.5 22t21.5 8q14 0 22 -8t8 -22v-496q0 -79 -38.5 -140.5t-107 -96t-155.5 -34.5t-155.5 34.5z
M246.5 903.5q-8.5 8.5 -8.5 21.5t8.5 22t21.5 9h265q13 0 21.5 -9t8.5 -22t-8.5 -21.5t-21.5 -8.5h-265q-13 0 -21.5 8.5z" />
    <glyph glyph-name="umacron" unicode="&#x16b;" horiz-adv-x="673" 
d="M575 539q8 -8 8 -22v-487q0 -13 -8 -21.5t-22 -8.5q-13 0 -21.5 8.5t-8.5 21.5v52q-34 -42 -83 -65.5t-107 -23.5q-73 0 -130.5 30t-90 87.5t-32.5 137.5v269q0 13 8.5 21.5t21.5 8.5t21.5 -8.5t8.5 -21.5v-269q0 -95 53.5 -145t139.5 -50q53 0 96.5 20.5t68.5 57
t25 80.5v306q0 14 8.5 22t21.5 8q14 0 22 -8zM182.5 669.5q-8.5 8.5 -8.5 21.5t8.5 22t21.5 9h265q13 0 21.5 -9t8.5 -22t-8.5 -21.5t-21.5 -8.5h-265q-13 0 -21.5 8.5z" />
    <glyph glyph-name="Ubreve" unicode="&#x16c;" horiz-adv-x="801" 
d="M244.5 18.5q-68.5 34.5 -106.5 96t-38 140.5v496q0 14 8.5 22t21.5 8q14 0 22 -8t8 -22v-496q0 -61 30.5 -109t85 -75t124.5 -27t124.5 27t85.5 75t31 109v496q0 14 8.5 22t21.5 8q14 0 22 -8t8 -22v-496q0 -79 -38.5 -140.5t-107 -96t-155.5 -34.5t-155.5 34.5zM324 897
q-35 15 -55.5 40.5t-20.5 55.5q0 13 9 22t22 9t21.5 -9t8.5 -22q0 -24 24.5 -40.5t66.5 -16.5t67 16.5t25 40.5q0 13 8.5 22t21.5 9q12 0 21 -9t10 -21q-4 -50 -48 -81t-105 -31q-41 0 -76 15z" />
    <glyph glyph-name="ubreve" unicode="&#x16d;" horiz-adv-x="673" 
d="M575 539q8 -8 8 -22v-487q0 -13 -8 -21.5t-22 -8.5q-13 0 -21.5 8.5t-8.5 21.5v52q-34 -42 -83 -65.5t-107 -23.5q-73 0 -130.5 30t-90 87.5t-32.5 137.5v269q0 13 8.5 21.5t21.5 8.5t21.5 -8.5t8.5 -21.5v-269q0 -95 53.5 -145t139.5 -50q53 0 96.5 20.5t68.5 57
t25 80.5v306q0 14 8.5 22t21.5 8q14 0 22 -8zM260 663q-35 15 -55.5 40.5t-20.5 55.5q0 13 9 22t22 9t21.5 -9t8.5 -22q0 -24 24.5 -40.5t66.5 -16.5t67 16.5t25 40.5q0 13 8.5 22t21.5 9q12 0 21 -9t10 -21q-4 -50 -48 -81t-105 -31q-41 0 -76 15z" />
    <glyph glyph-name="Uring" unicode="&#x16e;" horiz-adv-x="801" 
d="M244.5 18.5q-68.5 34.5 -106.5 96t-38 140.5v496q0 14 8.5 22t21.5 8q14 0 22 -8t8 -22v-496q0 -61 30.5 -109t85 -75t124.5 -27t124.5 27t85.5 75t31 109v496q0 14 8.5 22t21.5 8q14 0 22 -8t8 -22v-496q0 -79 -38.5 -140.5t-107 -96t-155.5 -34.5t-155.5 34.5z
M336 858.5q-27 27.5 -27 64.5q0 38 27.5 65t64.5 27q38 0 65 -27t27 -65q0 -37 -27 -64.5t-65 -27.5t-65 27.5zM439 885.5q16 15.5 16 37.5q0 23 -16 38.5t-38 15.5t-37.5 -16t-15.5 -38t15.5 -37.5t37.5 -15.5t38 15.5z" />
    <glyph glyph-name="uring" unicode="&#x16f;" horiz-adv-x="673" 
d="M575 539q8 -8 8 -22v-487q0 -13 -8 -21.5t-22 -8.5q-13 0 -21.5 8.5t-8.5 21.5v52q-34 -42 -83 -65.5t-107 -23.5q-73 0 -130.5 30t-90 87.5t-32.5 137.5v269q0 13 8.5 21.5t21.5 8.5t21.5 -8.5t8.5 -21.5v-269q0 -95 53.5 -145t139.5 -50q53 0 96.5 20.5t68.5 57
t25 80.5v306q0 14 8.5 22t21.5 8q14 0 22 -8zM272 624.5q-27 27.5 -27 64.5q0 38 27.5 65t64.5 27q38 0 65 -27t27 -65q0 -37 -27 -64.5t-65 -27.5t-65 27.5zM375 651.5q16 15.5 16 37.5q0 23 -16 38.5t-38 15.5t-37.5 -16t-15.5 -38t15.5 -37.5t37.5 -15.5t38 15.5z" />
    <glyph glyph-name="Uhungarumlaut" unicode="&#x170;" horiz-adv-x="801" 
d="M244.5 18.5q-68.5 34.5 -106.5 96t-38 140.5v496q0 14 8.5 22t21.5 8q14 0 22 -8t8 -22v-496q0 -61 30.5 -109t85 -75t124.5 -27t124.5 27t85.5 75t31 109v496q0 14 8.5 22t21.5 8q14 0 22 -8t8 -22v-496q0 -79 -38.5 -140.5t-107 -96t-155.5 -34.5t-155.5 34.5z
M304.5 868.5q-5.5 5.5 -5.5 14.5q0 7 1 9l46 144q4 9 11.5 14t16.5 5q14 0 22.5 -9t8.5 -21q0 -5 -2 -11l-65 -137q-7 -14 -20 -14q-8 0 -13.5 5.5zM461.5 868.5q-5.5 5.5 -5.5 14.5q0 7 1 9l47 144q3 9 10.5 14t16.5 5q14 0 22.5 -9t8.5 -21q0 -5 -2 -11l-65 -137
q-6 -14 -20 -14q-8 0 -13.5 5.5z" />
    <glyph glyph-name="uhungarumlaut" unicode="&#x171;" horiz-adv-x="673" 
d="M575 539q8 -8 8 -22v-487q0 -13 -8 -21.5t-22 -8.5q-13 0 -21.5 8.5t-8.5 21.5v52q-34 -42 -83 -65.5t-107 -23.5q-73 0 -130.5 30t-90 87.5t-32.5 137.5v269q0 13 8.5 21.5t21.5 8.5t21.5 -8.5t8.5 -21.5v-269q0 -95 53.5 -145t139.5 -50q53 0 96.5 20.5t68.5 57
t25 80.5v306q0 14 8.5 22t21.5 8q14 0 22 -8zM240.5 634.5q-5.5 5.5 -5.5 14.5q0 7 1 9l46 144q4 9 11.5 14t16.5 5q14 0 22.5 -9t8.5 -21q0 -5 -2 -11l-65 -137q-7 -14 -20 -14q-8 0 -13.5 5.5zM397.5 634.5q-5.5 5.5 -5.5 14.5q0 7 1 9l47 144q3 9 10.5 14t16.5 5
q14 0 22.5 -9t8.5 -21q0 -5 -2 -11l-65 -137q-6 -14 -20 -14q-8 0 -13.5 5.5z" />
    <glyph glyph-name="Uogonek" unicode="&#x172;" horiz-adv-x="801" 
d="M693 773q8 -8 8 -22v-496q0 -86 -45.5 -151t-124.5 -96q-8 -30 -58 -67q-21 -17 -21 -41q0 -21 14.5 -35.5t35.5 -14.5q16 0 28 8l35 26q9 6 18 6q13 0 22 -9t9 -22q0 -15 -10 -23l-41 -28q-28 -19 -61 -19q-45 0 -78 32.5t-33 78.5q0 48 40 85q-10 -1 -31 -1
q-87 0 -155.5 34.5t-106.5 96t-38 140.5v496q0 14 8.5 22t21.5 8q14 0 22 -8t8 -22v-496q0 -61 30.5 -109t85 -75t124.5 -27t124.5 27t85.5 75t31 109v496q0 14 8.5 22t21.5 8q14 0 22 -8z" />
    <glyph glyph-name="uogonek" unicode="&#x173;" horiz-adv-x="673" 
d="M655 -159q9 -9 9 -22q0 -15 -10 -23l-41 -28q-28 -19 -61 -19q-45 0 -78 32.5t-33 78.5q0 53 47 91q31 25 38 44q4 7 9 10q-12 8 -12 25v52q-34 -42 -83 -65.5t-107 -23.5q-73 0 -130.5 30t-90 87.5t-32.5 137.5v269q0 13 8.5 21.5t21.5 8.5t21.5 -8.5t8.5 -21.5v-269
q0 -95 53.5 -145t139.5 -50q53 0 96.5 20.5t68.5 57t25 80.5v306q0 14 8.5 22t21.5 8q14 0 22 -8t8 -22v-487q0 -16 -12 -25q12 -9 12 -24q0 -19 -15 -38.5t-45 -41.5q-21 -17 -21 -41q0 -21 14.5 -35.5t35.5 -14.5q16 0 28 8l35 26q9 6 18 6q13 0 22 -9z" />
    <glyph glyph-name="Wcircumflex" unicode="&#x174;" horiz-adv-x="938" 
d="M900 772.5q8 -8.5 8 -22.5q0 -4 -2 -14l-206 -710q-4 -12 -12.5 -19t-18.5 -7q-12 0 -20 7t-11 19l-170 601l-168 -601q-10 -26 -32 -26q-11 0 -19.5 7.5t-11.5 18.5l-207 710q-2 10 -2 13q0 14 8 23t22 9q23 0 29 -23l181 -626l172 600q2 8 10.5 13.5t17.5 5.5
q10 0 18 -5.5t11 -14.5l172 -599l181 629q2 9 10 14.5t19 5.5q13 0 21 -8.5zM326 890.5q-9 8.5 -9 21.5q0 17 16 27l121 81q8 4 15 4t15 -4l121 -81q16 -10 16 -27q0 -13 -9 -21.5t-22 -8.5q-10 0 -19 6l-102 68l-102 -68q-9 -6 -18 -6q-14 0 -23 8.5z" />
    <glyph glyph-name="wcircumflex" unicode="&#x175;" horiz-adv-x="749" 
d="M722 539q7 -8 7 -20q0 -7 -3 -15l-161 -485q-3 -9 -10.5 -14t-18.5 -5q-10 0 -18 5t-10 14l-136 423l-132 -423q-7 -19 -28 -19q-10 0 -17.5 5t-10.5 14l-162 485q-2 12 -2 16q0 27 25 27q9 0 16.5 -4.5t11.5 -13.5l141 -426l130 420q3 11 11 17.5t19 6.5q22 0 30 -24
l131 -412l139 418q8 18 28 18q13 0 20 -8zM232 656.5q-9 8.5 -9 21.5q0 17 16 27l121 81q8 4 15 4t15 -4l121 -81q16 -10 16 -27q0 -13 -9 -21.5t-22 -8.5q-10 0 -19 6l-102 68l-102 -68q-9 -6 -18 -6q-14 0 -23 8.5z" />
    <glyph glyph-name="Ycircumflex" unicode="&#x176;" horiz-adv-x="633" 
d="M620.5 773q7.5 -8 7.5 -20q0 -11 -5 -19l-276 -442v-262q0 -13 -8.5 -21.5t-21.5 -8.5t-21.5 8.5t-8.5 21.5v262l-276 442q-6 11 -6 19q0 12 8 20t21 8t24 -12l259 -422l255 415q7 11 13.5 15t15.5 4q12 0 19.5 -8zM174 890.5q-9 8.5 -9 21.5q0 17 16 27l121 81q8 4 15 4
t15 -4l121 -81q16 -10 16 -27q0 -13 -9 -21.5t-22 -8.5q-10 0 -19 6l-102 68l-102 -68q-9 -6 -18 -6q-14 0 -23 8.5z" />
    <glyph glyph-name="ycircumflex" unicode="&#x177;" horiz-adv-x="554" 
d="M544 523q0 -4 -4 -14l-336 -728q-9 -18 -23 -18q-6 0 -14 3q-19 8 -19 23q0 4 4 14l100 216q-1 1 -4 7l-219 480q-4 8 -4 16q0 15 17 23q8 4 16 4q15 0 23 -17l203 -444l204 443q9 18 23 18q7 0 14 -3q19 -8 19 -23zM142 656.5q-9 8.5 -9 21.5q0 17 16 27l121 81
q8 4 15 4t15 -4l121 -81q16 -10 16 -27q0 -13 -9 -21.5t-22 -8.5q-10 0 -19 6l-102 68l-102 -68q-9 -6 -18 -6q-14 0 -23 8.5z" />
    <glyph glyph-name="Ydieresis" unicode="&#x178;" horiz-adv-x="633" 
d="M620.5 773q7.5 -8 7.5 -20q0 -11 -5 -19l-276 -442v-262q0 -13 -8.5 -21.5t-21.5 -8.5t-21.5 8.5t-8.5 21.5v262l-276 442q-6 11 -6 19q0 12 8 20t21 8t24 -12l259 -422l255 415q7 11 13.5 15t15.5 4q12 0 19.5 -8zM180 906q-15 15 -15 37q0 21 15 36t37 15t36.5 -15
t14.5 -36q0 -22 -14.5 -37t-36.5 -15t-37 15zM380 906q-15 15 -15 37q0 21 15 36t37 15t36.5 -15t14.5 -36q0 -22 -14.5 -37t-36.5 -15t-37 15z" />
    <glyph glyph-name="Zacute" unicode="&#x179;" horiz-adv-x="711" 
d="M53.5 9q-8.5 9 -8.5 21q0 11 7 19l535 678h-512q-14 0 -22 6.5t-8 20.5q0 11 8.5 19t21.5 8h561q13 0 21.5 -9.5t8.5 -21.5q0 -9 -5 -16l-539 -680h514q13 0 21.5 -7t8.5 -20q0 -11 -9 -19t-21 -8h-561q-13 0 -21.5 9zM319 871q-9 9 -9 22q0 11 7 20l123 123q9 9 22 9
t22 -9t9 -22q0 -12 -9 -21l-123 -123q-8 -8 -20 -8q-13 0 -22 9z" />
    <glyph glyph-name="zacute" unicode="&#x17a;" horiz-adv-x="555" 
d="M510 27q0 -27 -27 -27h-391q-27 0 -27 27q0 15 8 21l357 445h-338q-27 0 -27 27t27 27h391q27 0 27 -27q0 -12 -4 -17l-358 -449h335q27 0 27 -27zM251 637q-9 9 -9 22q0 11 7 20l123 123q9 9 22 9t22 -9t9 -22q0 -12 -9 -21l-123 -123q-8 -8 -20 -8q-13 0 -22 9z" />
    <glyph glyph-name="Zdotaccent" unicode="&#x17b;" horiz-adv-x="711" 
d="M53.5 9q-8.5 9 -8.5 21q0 11 7 19l535 678h-512q-14 0 -22 6.5t-8 20.5q0 11 8.5 19t21.5 8h561q13 0 21.5 -9.5t8.5 -21.5q0 -9 -5 -16l-539 -680h514q13 0 21.5 -7t8.5 -20q0 -11 -9 -19t-21 -8h-561q-13 0 -21.5 9zM322 909.5q-13 13.5 -13 33.5q0 22 14 34t33 12
t32.5 -12t13.5 -34q0 -20 -13.5 -33.5t-33.5 -13.5t-33 13.5z" />
    <glyph glyph-name="zdotaccent" unicode="&#x17c;" horiz-adv-x="555" 
d="M510 27q0 -27 -27 -27h-391q-27 0 -27 27q0 15 8 21l357 445h-338q-27 0 -27 27t27 27h391q27 0 27 -27q0 -12 -4 -17l-358 -449h335q27 0 27 -27zM254 675.5q-13 13.5 -13 33.5q0 22 14 34t33 12t32.5 -12t13.5 -34q0 -20 -13.5 -33.5t-33.5 -13.5t-33 13.5z" />
    <glyph glyph-name="Zcaron" unicode="&#x17d;" horiz-adv-x="711" 
d="M53.5 9q-8.5 9 -8.5 21q0 11 7 19l535 678h-512q-14 0 -22 6.5t-8 20.5q0 11 8.5 19t21.5 8h561q13 0 21.5 -9.5t8.5 -21.5q0 -9 -5 -16l-539 -680h514q13 0 21.5 -7t8.5 -20q0 -11 -9 -19t-21 -8h-561q-13 0 -21.5 9zM341 886l-121 80q-16 10 -16 27q0 12 7.5 19.5
t18.5 7.5q12 0 24 -8l102 -70l102 68q13 9 25 9q11 0 18 -7.5t7 -18.5q0 -15 -16 -27l-121 -80q-5 -4 -15 -4t-15 4z" />
    <glyph glyph-name="zcaron" unicode="&#x17e;" horiz-adv-x="555" 
d="M510 27q0 -27 -27 -27h-391q-27 0 -27 27q0 15 8 21l357 445h-338q-27 0 -27 27t27 27h391q27 0 27 -27q0 -12 -4 -17l-358 -449h335q27 0 27 -27zM273 652l-121 80q-16 10 -16 27q0 12 7.5 19.5t18.5 7.5q12 0 24 -8l102 -70l102 68q13 9 25 9q11 0 18 -7.5t7 -18.5
q0 -15 -16 -27l-121 -80q-5 -4 -15 -4t-15 4z" />
    <glyph glyph-name="longs" unicode="&#x17f;" horiz-adv-x="290" 
d="M68.5 8.5q-8.5 8.5 -8.5 21.5v518q0 107 50 170t150 63q13 0 21.5 -7.5t8.5 -19.5t-8.5 -19.5t-21.5 -7.5q-73 0 -106 -48.5t-33 -130.5v-518q0 -13 -8.5 -21.5t-22.5 -8.5q-13 0 -21.5 8.5z" />
    <glyph glyph-name="uni018F" unicode="&#x18f;" horiz-adv-x="830" 
d="M580.5 739.5q89.5 -51.5 139.5 -143.5t50 -208t-46 -206.5t-128 -141t-186 -50.5q-107 0 -186.5 50t-121.5 139t-42 202q0 18 12 29t30 11h606q-7 90 -50 160.5t-115.5 110t-164.5 39.5q-56 0 -108.5 -17t-93.5 -48q-12 -10 -25 -10q-11 0 -20 9q-8 8 -8 20t9 21
q46 40 109 62.5t137 22.5q113 0 202.5 -51.5zM560.5 90.5q66.5 40.5 105.5 113t43 163.5h-590q1 -91 38 -163t103 -113t150 -41t150.5 40.5z" />
    <glyph glyph-name="florin" unicode="&#x192;" horiz-adv-x="469" 
d="M8.5 -225.5q-8.5 8.5 -8.5 21.5t8.5 22t21.5 9q173 0 173 172v457h-51q-13 0 -21.5 8.5t-8.5 21.5t8.5 22t21.5 9h51v31q0 233 233 233q13 0 21.5 -8.5t8.5 -21.5t-8.5 -22t-21.5 -9q-173 0 -173 -172v-31h133q13 0 21.5 -9t8.5 -22t-8.5 -21.5t-21.5 -8.5h-132v-457
q0 -233 -234 -233q-13 0 -21.5 8.5z" />
    <glyph glyph-name="Ohorn" unicode="&#x1a0;" horiz-adv-x="921" 
d="M824.5 563.5q36.5 -79.5 36.5 -172.5q0 -113 -52.5 -204.5t-144 -144t-203.5 -52.5q-113 0 -204.5 52.5t-144 144t-52.5 204.5q0 112 52.5 203.5t144 144t204.5 52.5q100 0 184 -42h39q18 0 29.5 13t11.5 33v23q0 13 7.5 21t21.5 8t21.5 -9.5t7.5 -24.5v-18
q0 -33 -16.5 -59t-44.5 -37q66 -56 102.5 -135.5zM634 94.5q78 44.5 122.5 122.5t44.5 174q0 95 -44.5 173t-122.5 122.5t-173 44.5q-96 0 -174 -44.5t-122.5 -122.5t-44.5 -173q0 -96 44.5 -174t122.5 -122.5t174 -44.5q95 0 173 44.5z" />
    <glyph glyph-name="ohorn" unicode="&#x1a1;" 
d="M599.5 381q19.5 -50 19.5 -108q0 -78 -36.5 -142t-100.5 -100.5t-142 -36.5q-79 0 -143 36.5t-100.5 100.5t-36.5 142q0 79 36.5 143t100.5 100.5t143 36.5q75 0 134 -32h37q18 0 29.5 13t11.5 33v23q0 13 7.5 21t21.5 8t21.5 -9.5t7.5 -24.5v-18q0 -35 -18 -61.5
t-48 -37.5q36 -37 55.5 -87zM452 79q50 29 78.5 80t28.5 114t-28.5 114t-78.5 80.5t-112 29.5t-112 -29.5t-79 -80.5t-29 -114t29 -114t79 -80t112 -29t112 29z" />
    <glyph glyph-name="Uhorn" unicode="&#x1af;" horiz-adv-x="801" 
d="M804.5 869.5q7.5 -9.5 7.5 -24.5v-18q0 -44 -28.5 -74t-70.5 -30h-12v-468q0 -79 -38.5 -140.5t-107 -96t-155.5 -34.5t-155.5 34.5t-106.5 96t-38 140.5v496q0 14 8.5 22t21.5 8q14 0 22 -8t8 -22v-496q0 -61 30.5 -109t85 -75t124.5 -27t124.5 27t85.5 75t31 109v496
q0 14 8.5 22t21.5 8h42q18 0 29.5 13t11.5 33v23q0 13 7.5 21t21.5 8t21.5 -9.5z" />
    <glyph glyph-name="uhorn" unicode="&#x1b0;" horiz-adv-x="673" 
d="M686.5 635.5q7.5 -9.5 7.5 -24.5v-18q0 -44 -28.5 -74t-70.5 -30h-12v-459q0 -13 -8 -21.5t-22 -8.5q-13 0 -21.5 8.5t-8.5 21.5v52q-34 -42 -83 -65.5t-107 -23.5q-73 0 -130.5 30t-90 87.5t-32.5 137.5v269q0 13 8.5 21.5t21.5 8.5t21.5 -8.5t8.5 -21.5v-269
q0 -95 53.5 -145t139.5 -50q53 0 96.5 20.5t68.5 57t25 80.5v306q0 14 8.5 22t21.5 8h42q18 0 29.5 13t11.5 33v23q0 13 7.5 21t21.5 8t21.5 -9.5z" />
    <glyph glyph-name="Gcaron" unicode="&#x1e6;" horiz-adv-x="767" 
d="M695.5 372q8.5 -8 8.5 -21v-254q0 -7 -1 -11.5t-6 -9.5q-86 -86 -246 -86q-105 0 -195 54.5t-143 147t-53 199.5t52.5 199t142 146.5t196.5 54.5q140 0 247 -89q9 -7 9 -20q0 -12 -8 -21.5t-22 -9.5q-11 0 -25 12q-76 68 -201 68q-88 0 -164.5 -47t-121.5 -125.5
t-45 -167.5q0 -92 44.5 -170.5t121 -124.5t165.5 -46q109 0 193 62v214h-168q-13 0 -21.5 8t-8.5 20q0 11 8.5 18.5t21.5 7.5h198q13 0 21.5 -8zM419 886l-121 80q-16 10 -16 27q0 12 7.5 19.5t18.5 7.5q12 0 24 -8l102 -70l102 68q13 9 25 9q11 0 18 -7.5t7 -18.5
q0 -15 -16 -27l-121 -80q-5 -4 -15 -4t-15 4z" />
    <glyph glyph-name="gcaron" unicode="&#x1e7;" 
d="M484.5 517q63.5 -36 99 -99.5t35.5 -144.5v-196q0 -80 -36 -145.5t-99 -103t-140 -37.5q-79 0 -138.5 29.5t-99.5 80.5q-8 10 -8 20q0 12 10 19q8 6 18 6q16 0 26 -13q33 -40 81.5 -63t110.5 -23q61 0 110 30t77 82.5t28 117.5v44q-29 -59 -86.5 -93t-132.5 -34
q-81 0 -144.5 35.5t-99.5 99t-36 144.5q0 80 37 144t101 100t142 36q81 0 144.5 -36zM453 78.5q50 28.5 78 79t28 115.5t-28 116t-78 79.5t-113 28.5q-64 0 -114 -28.5t-78 -79.5t-28 -116t28 -115.5t78 -79t114 -28.5q63 0 113 28.5zM325 652l-121 80q-16 10 -16 27
q0 12 7.5 19.5t18.5 7.5q12 0 24 -8l102 -70l102 68q13 9 25 9q11 0 18 -7.5t7 -18.5q0 -15 -16 -27l-121 -80q-5 -4 -15 -4t-15 4z" />
    <glyph glyph-name="uni01EA" unicode="&#x1ea;" horiz-adv-x="921" 
d="M813 194q-48 -89 -132.5 -142.5t-190.5 -60.5q2 -6 2 -10q0 -19 -15 -38.5t-45 -41.5q-21 -17 -21 -41q0 -21 14.5 -35.5t35.5 -14.5q16 0 28 8l35 26q9 6 18 6q13 0 22 -9t9 -22q0 -15 -10 -23l-41 -28q-28 -19 -61 -19q-45 0 -78 32.5t-33 78.5q0 53 47 91q27 21 36 40
q-106 6 -191 60t-133.5 143t-48.5 197q0 112 52.5 203.5t144 144t204.5 52.5q112 0 203.5 -52.5t144 -144t52.5 -203.5q0 -108 -48 -197zM634 94.5q78 44.5 122.5 122.5t44.5 174q0 95 -44.5 173t-122.5 122.5t-173 44.5q-96 0 -174 -44.5t-122.5 -122.5t-44.5 -173
q0 -96 44.5 -174t122.5 -122.5t174 -44.5q95 0 173 44.5z" />
    <glyph glyph-name="uni01EB" unicode="&#x1eb;" 
d="M533 -129q9 -9 9 -22q0 -15 -10 -23l-41 -28q-28 -19 -61 -19q-45 0 -78 32.5t-33 78.5q0 53 47 91l18 16q-21 -3 -44 -3q-79 0 -143 36.5t-100.5 100.5t-36.5 142q0 79 36.5 143t100.5 100.5t143 36.5q78 0 142 -36.5t100.5 -100.5t36.5 -143q0 -86 -43 -153.5
t-116 -100.5q1 -2 1 -8q0 -19 -15 -38.5t-45 -41.5q-21 -17 -21 -41q0 -21 14.5 -35.5t35.5 -14.5q16 0 28 8l35 26q9 6 18 6q13 0 22 -9zM149 159q29 -51 79 -80t112 -29t112 29t78.5 80t28.5 114t-28.5 114t-78.5 80.5t-112 29.5t-112 -29.5t-79 -80.5t-29 -114t29 -114z
" />
    <glyph glyph-name="Aringacute" unicode="&#x1fa;" horiz-adv-x="703" 
d="M690 30q0 -12 -9 -21t-21 -9q-20 0 -28 19l-74 177h-407l-74 -177q-7 -19 -28 -19q-14 0 -22 9t-8 21q0 7 3 13l303 717q8 21 29 21q20 0 29 -21l304 -717q3 -6 3 -13zM174 250h361l-181 432zM287 858.5q-27 27.5 -27 64.5q0 38 27.5 65t64.5 27q38 0 65 -27t27 -65
q0 -37 -27 -64.5t-65 -27.5t-65 27.5zM390 885.5q16 15.5 16 37.5q0 23 -16 38.5t-38 15.5t-37.5 -16t-15.5 -38t15.5 -37.5t37.5 -15.5t38 15.5zM315 1065q-9 9 -9 22q0 11 7 20l123 123q9 9 22 9t22 -9t9 -22q0 -12 -9 -21l-123 -123q-8 -8 -20 -8q-13 0 -22 9z" />
    <glyph glyph-name="aringacute" unicode="&#x1fb;" 
d="M482 516.5q64 -36.5 100.5 -100.5t36.5 -143v-243q0 -13 -8 -21.5t-22 -8.5q-13 0 -21.5 8.5t-8.5 21.5v78q-33 -53 -90.5 -83.5t-128.5 -30.5q-79 0 -143 36.5t-100.5 100.5t-36.5 142q0 79 36.5 143t100.5 100.5t143 36.5q78 0 142 -36.5zM452 79q50 29 78.5 80
t28.5 114t-28.5 114t-78.5 80.5t-112 29.5t-112 -29.5t-79 -80.5t-29 -114t29 -114t79 -80t112 -29t112 29zM275 624.5q-27 27.5 -27 64.5q0 38 27.5 65t64.5 27q38 0 65 -27t27 -65q0 -37 -27 -64.5t-65 -27.5t-65 27.5zM378 651.5q16 15.5 16 37.5q0 23 -16 38.5t-38 15.5
t-37.5 -16t-15.5 -38t15.5 -37.5t37.5 -15.5t38 15.5zM303 831q-9 9 -9 22q0 11 7 20l123 123q9 9 22 9t22 -9t9 -22q0 -12 -9 -21l-123 -123q-8 -8 -20 -8q-13 0 -22 9z" />
    <glyph glyph-name="AEacute" unicode="&#x1fc;" horiz-adv-x="931" 
d="M877 51q9 -9 9 -21q0 -13 -9 -21.5t-21 -8.5h-381q-13 0 -21.5 8.5t-8.5 21.5v166h-264l-104 -177q-7 -19 -28 -19q-14 0 -22.5 9t-8.5 21q0 5 4 13l418 710q9 15 21 21.5t32 6.5h363q12 0 21 -8.5t9 -21.5q0 -12 -9 -21t-21 -9h-351v-300h231q13 0 21.5 -8.5t8.5 -21.5
t-8.5 -22t-21.5 -9h-231v-300h351q12 0 21 -9zM213 250h232v394zM529 871q-9 9 -9 22q0 11 7 20l123 123q9 9 22 9t22 -9t9 -22q0 -12 -9 -21l-123 -123q-8 -8 -20 -8q-13 0 -22 9z" />
    <glyph glyph-name="aeacute" unicode="&#x1fd;" horiz-adv-x="1108" 
d="M946.5 517.5q57.5 -34.5 89.5 -95.5t32 -139q0 -13 -8 -20.5t-21 -7.5h-419q3 -59 31 -105.5t75 -72.5t105 -26q89 0 141 49q10 8 21 8t18 -6q11 -9 11 -21q0 -10 -9 -19q-32 -29 -83.5 -48t-98.5 -19q-67 0 -122 28t-90 79v-72q0 -13 -8 -21.5t-22 -8.5q-13 0 -21.5 8.5
t-8.5 21.5v78q-33 -53 -90.5 -83.5t-128.5 -30.5q-79 0 -143 36.5t-100.5 100.5t-36.5 142q0 79 36.5 143t100.5 100.5t143 36.5q84 0 151 -42t101 -113q29 71 88 112.5t136 41.5q73 0 130.5 -34.5zM452 79q50 29 78.5 80t28.5 114t-28.5 114t-78.5 80.5t-112 29.5
t-112 -29.5t-79 -80.5t-29 -114t29 -114t79 -80t112 -29t112 29zM684.5 444q-53.5 -52 -63.5 -137h389q-7 85 -60 137t-134 52q-78 0 -131.5 -52zM527 637q-9 9 -9 22q0 11 7 20l123 123q9 9 22 9t22 -9t9 -22q0 -12 -9 -21l-123 -123q-8 -8 -20 -8q-13 0 -22 9z" />
    <glyph glyph-name="Oslashacute" unicode="&#x1fe;" horiz-adv-x="859" 
d="M837 532.5q24 -66.5 24 -141.5q0 -113 -52.5 -204.5t-144 -144t-203.5 -52.5q-78 0 -147.5 26t-122.5 73l-81 -81q-8 -8 -21 -8q-14 0 -22.5 9t-8.5 22q0 12 8 20l83 83q-43 52 -66 117.5t-23 139.5q0 112 52.5 203.5t144 144t204.5 52.5q76 0 144 -24.5t121 -70.5l78 77
q8 8 21 8t22.5 -9t9.5 -21q0 -11 -9 -20l-79 -79q44 -53 68 -119.5zM287 686.5q-78 -44.5 -122.5 -122.5t-44.5 -173q0 -63 19.5 -118.5t55.5 -100.5l484 484q-45 36 -100.5 55.5t-117.5 19.5q-96 0 -174 -44.5zM634 94.5q78 44.5 122.5 122.5t44.5 174q0 63 -20.5 120
t-57.5 102l-484 -484q45 -38 101.5 -58.5t120.5 -20.5q95 0 173 44.5zM424 871q-9 9 -9 22q0 11 7 20l123 123q9 9 22 9t22 -9t9 -22q0 -12 -9 -21l-123 -123q-8 -8 -20 -8q-13 0 -22 9z" />
    <glyph glyph-name="oslashacute" unicode="&#x1ff;" horiz-adv-x="694" 
d="M634 273q0 -78 -36.5 -142t-100.5 -100.5t-142 -36.5q-51 0 -96.5 16t-82.5 45l-63 -63q-9 -9 -22 -9t-22 9.5t-9 21.5t9 21l64 63q-58 75 -58 175q0 79 36.5 143t100.5 100.5t143 36.5q52 0 97.5 -16t82.5 -46l46 46q8 10 23 10q14 0 21.5 -9.5t7.5 -22.5t-7 -20
l-49 -48q57 -74 57 -174zM243 467.5q-50 -29.5 -79 -80.5t-29 -114q0 -78 45 -139l315 314q-28 24 -64 36.5t-76 12.5q-62 0 -112 -29.5zM467 79q50 29 78.5 80t28.5 114q0 75 -39 131l-312 -311q57 -43 132 -43q62 0 112 29zM318 637q-9 9 -9 22q0 11 7 20l123 123
q9 9 22 9t22 -9t9 -22q0 -12 -9 -21l-123 -123q-8 -8 -20 -8q-13 0 -22 9z" />
    <glyph glyph-name="uni0200" unicode="&#x200;" horiz-adv-x="703" 
d="M690 30q0 -12 -9 -21t-21 -9q-20 0 -28 19l-74 177h-407l-74 -177q-7 -19 -28 -19q-14 0 -22 9t-8 21q0 7 3 13l303 717q8 21 29 21q20 0 29 -21l304 -717q3 -6 3 -13zM174 250h361l-181 432zM287 877l-65 137q-2 6 -2 11q0 12 8.5 21t22.5 9q9 0 16.5 -5t10.5 -14
l47 -144q1 -2 1 -9q0 -9 -5.5 -14.5t-13.5 -5.5q-14 0 -20 14zM444 877l-65 137q-2 6 -2 11q0 12 8.5 21t22.5 9q9 0 16.5 -5t11.5 -14l46 -144q1 -2 1 -9q0 -9 -5.5 -14.5t-13.5 -5.5q-13 0 -20 14z" />
    <glyph glyph-name="uni0201" unicode="&#x201;" 
d="M482 516.5q64 -36.5 100.5 -100.5t36.5 -143v-243q0 -13 -8 -21.5t-22 -8.5q-13 0 -21.5 8.5t-8.5 21.5v78q-33 -53 -90.5 -83.5t-128.5 -30.5q-79 0 -143 36.5t-100.5 100.5t-36.5 142q0 79 36.5 143t100.5 100.5t143 36.5q78 0 142 -36.5zM452 79q50 29 78.5 80
t28.5 114t-28.5 114t-78.5 80.5t-112 29.5t-112 -29.5t-79 -80.5t-29 -114t29 -114t79 -80t112 -29t112 29zM275 643l-65 137q-2 6 -2 11q0 12 8.5 21t22.5 9q9 0 16.5 -5t10.5 -14l47 -144q1 -2 1 -9q0 -9 -5.5 -14.5t-13.5 -5.5q-14 0 -20 14zM432 643l-65 137q-2 6 -2 11
q0 12 8.5 21t22.5 9q9 0 16.5 -5t11.5 -14l46 -144q1 -2 1 -9q0 -9 -5.5 -14.5t-13.5 -5.5q-13 0 -20 14z" />
    <glyph glyph-name="uni0202" unicode="&#x202;" horiz-adv-x="703" 
d="M690 30q0 -12 -9 -21t-21 -9q-20 0 -28 19l-74 177h-407l-74 -177q-7 -19 -28 -19q-14 0 -22 9t-8 21q0 7 3 13l303 717q8 21 29 21q20 0 29 -21l304 -717q3 -6 3 -13zM174 250h361l-181 432zM456 993q44 -31 48 -81q-1 -12 -10 -21t-21 -9q-13 0 -21.5 9t-8.5 22
q0 24 -25 40.5t-67 16.5t-66.5 -16.5t-24.5 -40.5q0 -13 -8.5 -22t-21.5 -9t-22 9t-9 22q0 30 20.5 55.5t55.5 40.5t76 15q61 0 105 -31z" />
    <glyph glyph-name="uni0203" unicode="&#x203;" 
d="M482 516.5q64 -36.5 100.5 -100.5t36.5 -143v-243q0 -13 -8 -21.5t-22 -8.5q-13 0 -21.5 8.5t-8.5 21.5v78q-33 -53 -90.5 -83.5t-128.5 -30.5q-79 0 -143 36.5t-100.5 100.5t-36.5 142q0 79 36.5 143t100.5 100.5t143 36.5q78 0 142 -36.5zM452 79q50 29 78.5 80
t28.5 114t-28.5 114t-78.5 80.5t-112 29.5t-112 -29.5t-79 -80.5t-29 -114t29 -114t79 -80t112 -29t112 29zM444 759q44 -31 48 -81q-1 -12 -10 -21t-21 -9q-13 0 -21.5 9t-8.5 22q0 24 -25 40.5t-67 16.5t-66.5 -16.5t-24.5 -40.5q0 -13 -8.5 -22t-21.5 -9t-22 9t-9 22
q0 30 20.5 55.5t55.5 40.5t76 15q61 0 105 -31z" />
    <glyph glyph-name="uni0204" unicode="&#x204;" horiz-adv-x="686" 
d="M108.5 8.5q-8.5 8.5 -8.5 21.5v721q0 13 8.5 21.5t21.5 8.5h481q12 0 21 -8.5t9 -21.5q0 -12 -9 -21t-21 -9h-451v-300h331q13 0 21.5 -8.5t8.5 -21.5t-8.5 -22t-21.5 -9h-331v-300h451q12 0 21 -9t9 -21q0 -13 -9 -21.5t-21 -8.5h-481q-13 0 -21.5 8.5zM309 877l-65 137
q-2 6 -2 11q0 12 8.5 21t22.5 9q9 0 16.5 -5t10.5 -14l47 -144q1 -2 1 -9q0 -9 -5.5 -14.5t-13.5 -5.5q-14 0 -20 14zM466 877l-65 137q-2 6 -2 11q0 12 8.5 21t22.5 9q9 0 16.5 -5t11.5 -14l46 -144q1 -2 1 -9q0 -9 -5.5 -14.5t-13.5 -5.5q-13 0 -20 14z" />
    <glyph glyph-name="uni0205" unicode="&#x205;" horiz-adv-x="609" 
d="M447.5 517.5q57.5 -34.5 89.5 -95.5t32 -139q0 -13 -8 -20.5t-21 -7.5h-419q3 -59 31 -105.5t75 -72.5t105 -26q39 0 78.5 13.5t62.5 35.5q10 8 21 8t18 -6q11 -9 11 -21q0 -10 -9 -19q-32 -29 -83.5 -48t-98.5 -19q-79 0 -140.5 35.5t-96.5 99t-35 143.5
q0 81 32.5 144.5t91 99t133.5 35.5q73 0 130.5 -34.5zM185.5 444q-53.5 -52 -63.5 -137h389q-7 85 -60 137t-134 52q-78 0 -131.5 -52zM250 643l-65 137q-2 6 -2 11q0 12 8.5 21t22.5 9q9 0 16.5 -5t10.5 -14l47 -144q1 -2 1 -9q0 -9 -5.5 -14.5t-13.5 -5.5q-14 0 -20 14z
M407 643l-65 137q-2 6 -2 11q0 12 8.5 21t22.5 9q9 0 16.5 -5t11.5 -14l46 -144q1 -2 1 -9q0 -9 -5.5 -14.5t-13.5 -5.5q-13 0 -20 14z" />
    <glyph glyph-name="uni0206" unicode="&#x206;" horiz-adv-x="686" 
d="M108.5 8.5q-8.5 8.5 -8.5 21.5v721q0 13 8.5 21.5t21.5 8.5h481q12 0 21 -8.5t9 -21.5q0 -12 -9 -21t-21 -9h-451v-300h331q13 0 21.5 -8.5t8.5 -21.5t-8.5 -22t-21.5 -9h-331v-300h451q12 0 21 -9t9 -21q0 -13 -9 -21.5t-21 -8.5h-481q-13 0 -21.5 8.5zM478 993
q44 -31 48 -81q-1 -12 -10 -21t-21 -9q-13 0 -21.5 9t-8.5 22q0 24 -25 40.5t-67 16.5t-66.5 -16.5t-24.5 -40.5q0 -13 -8.5 -22t-21.5 -9t-22 9t-9 22q0 30 20.5 55.5t55.5 40.5t76 15q61 0 105 -31z" />
    <glyph glyph-name="uni0207" unicode="&#x207;" horiz-adv-x="609" 
d="M447.5 517.5q57.5 -34.5 89.5 -95.5t32 -139q0 -13 -8 -20.5t-21 -7.5h-419q3 -59 31 -105.5t75 -72.5t105 -26q39 0 78.5 13.5t62.5 35.5q10 8 21 8t18 -6q11 -9 11 -21q0 -10 -9 -19q-32 -29 -83.5 -48t-98.5 -19q-79 0 -140.5 35.5t-96.5 99t-35 143.5
q0 81 32.5 144.5t91 99t133.5 35.5q73 0 130.5 -34.5zM185.5 444q-53.5 -52 -63.5 -137h389q-7 85 -60 137t-134 52q-78 0 -131.5 -52zM419 759q44 -31 48 -81q-1 -12 -10 -21t-21 -9q-13 0 -21.5 9t-8.5 22q0 24 -25 40.5t-67 16.5t-66.5 -16.5t-24.5 -40.5q0 -13 -8.5 -22
t-21.5 -9t-22 9t-9 22q0 30 20.5 55.5t55.5 40.5t76 15q61 0 105 -31z" />
    <glyph glyph-name="uni0208" unicode="&#x208;" horiz-adv-x="260" 
d="M108.5 8.5q-8.5 8.5 -8.5 21.5v721q0 13 8.5 21.5t21.5 8.5t21.5 -8.5t8.5 -21.5v-721q0 -13 -8.5 -21.5t-21.5 -8.5t-21.5 8.5zM65 877l-65 137q-2 6 -2 11q0 12 8.5 21t22.5 9q9 0 16.5 -5t10.5 -14l47 -144q1 -2 1 -9q0 -9 -5.5 -14.5t-13.5 -5.5q-14 0 -20 14z
M222 877l-65 137q-2 6 -2 11q0 12 8.5 21t22.5 9q9 0 16.5 -5t11.5 -14l46 -144q1 -2 1 -9q0 -9 -5.5 -14.5t-13.5 -5.5q-13 0 -20 14z" />
    <glyph glyph-name="uni0209" unicode="&#x209;" horiz-adv-x="280" 
d="M118.5 8.5q-8.5 8.5 -8.5 21.5v487q0 14 8.5 22t21.5 8q14 0 22 -8t8 -22v-487q0 -13 -8 -21.5t-22 -8.5q-13 0 -21.5 8.5zM75 643l-65 137q-2 6 -2 11q0 12 8.5 21t22.5 9q9 0 16.5 -5t10.5 -14l47 -144q1 -2 1 -9q0 -9 -5.5 -14.5t-13.5 -5.5q-14 0 -20 14zM232 643
l-65 137q-2 6 -2 11q0 12 8.5 21t22.5 9q9 0 16.5 -5t11.5 -14l46 -144q1 -2 1 -9q0 -9 -5.5 -14.5t-13.5 -5.5q-13 0 -20 14z" />
    <glyph glyph-name="uni020A" unicode="&#x20a;" horiz-adv-x="260" 
d="M108.5 8.5q-8.5 8.5 -8.5 21.5v721q0 13 8.5 21.5t21.5 8.5t21.5 -8.5t8.5 -21.5v-721q0 -13 -8.5 -21.5t-21.5 -8.5t-21.5 8.5zM234 993q44 -31 48 -81q-1 -12 -10 -21t-21 -9q-13 0 -21.5 9t-8.5 22q0 24 -25 40.5t-67 16.5t-66.5 -16.5t-24.5 -40.5q0 -13 -8.5 -22
t-21.5 -9t-22 9t-9 22q0 30 20.5 55.5t55.5 40.5t76 15q61 0 105 -31z" />
    <glyph glyph-name="uni020B" unicode="&#x20b;" horiz-adv-x="280" 
d="M233 759q40 -31 43 -81q0 -12 -8 -21t-19 -9q-12 0 -19.5 9t-7.5 22q0 24 -23 40.5t-60 16.5t-59.5 -16.5t-22.5 -40.5q0 -13 -8 -22t-19 -9t-19.5 9t-8.5 22q0 30 18.5 55.5t50 40.5t68.5 15q54 0 94 -31zM118.5 8.5q-8.5 8.5 -8.5 21.5v487q0 14 8.5 22t21.5 8
q14 0 22 -8t8 -22v-487q0 -13 -8 -21.5t-22 -8.5q-13 0 -21.5 8.5z" />
    <glyph glyph-name="uni020C" unicode="&#x20c;" horiz-adv-x="921" 
d="M256.5 42.5q-91.5 52.5 -144 144t-52.5 204.5q0 112 52.5 203.5t144 144t204.5 52.5q112 0 203.5 -52.5t144 -144t52.5 -203.5q0 -113 -52.5 -204.5t-144 -144t-203.5 -52.5q-113 0 -204.5 52.5zM634 94.5q78 44.5 122.5 122.5t44.5 174q0 95 -44.5 173t-122.5 122.5
t-173 44.5q-96 0 -174 -44.5t-122.5 -122.5t-44.5 -173q0 -96 44.5 -174t122.5 -122.5t174 -44.5q95 0 173 44.5zM396 877l-65 137q-2 6 -2 11q0 12 8.5 21t22.5 9q9 0 16.5 -5t10.5 -14l47 -144q1 -2 1 -9q0 -9 -5.5 -14.5t-13.5 -5.5q-14 0 -20 14zM553 877l-65 137
q-2 6 -2 11q0 12 8.5 21t22.5 9q9 0 16.5 -5t11.5 -14l46 -144q1 -2 1 -9q0 -9 -5.5 -14.5t-13.5 -5.5q-13 0 -20 14z" />
    <glyph glyph-name="uni020D" unicode="&#x20d;" 
d="M197 30.5q-64 36.5 -100.5 100.5t-36.5 142q0 79 36.5 143t100.5 100.5t143 36.5q78 0 142 -36.5t100.5 -100.5t36.5 -143q0 -78 -36.5 -142t-100.5 -100.5t-142 -36.5q-79 0 -143 36.5zM452 79q50 29 78.5 80t28.5 114t-28.5 114t-78.5 80.5t-112 29.5t-112 -29.5
t-79 -80.5t-29 -114t29 -114t79 -80t112 -29t112 29zM275 643l-65 137q-2 6 -2 11q0 12 8.5 21t22.5 9q9 0 16.5 -5t10.5 -14l47 -144q1 -2 1 -9q0 -9 -5.5 -14.5t-13.5 -5.5q-14 0 -20 14zM432 643l-65 137q-2 6 -2 11q0 12 8.5 21t22.5 9q9 0 16.5 -5t11.5 -14l46 -144
q1 -2 1 -9q0 -9 -5.5 -14.5t-13.5 -5.5q-13 0 -20 14z" />
    <glyph glyph-name="uni020E" unicode="&#x20e;" horiz-adv-x="921" 
d="M256.5 42.5q-91.5 52.5 -144 144t-52.5 204.5q0 112 52.5 203.5t144 144t204.5 52.5q112 0 203.5 -52.5t144 -144t52.5 -203.5q0 -113 -52.5 -204.5t-144 -144t-203.5 -52.5q-113 0 -204.5 52.5zM634 94.5q78 44.5 122.5 122.5t44.5 174q0 95 -44.5 173t-122.5 122.5
t-173 44.5q-96 0 -174 -44.5t-122.5 -122.5t-44.5 -173q0 -96 44.5 -174t122.5 -122.5t174 -44.5q95 0 173 44.5zM565 993q44 -31 48 -81q-1 -12 -10 -21t-21 -9q-13 0 -21.5 9t-8.5 22q0 24 -25 40.5t-67 16.5t-66.5 -16.5t-24.5 -40.5q0 -13 -8.5 -22t-21.5 -9t-22 9
t-9 22q0 30 20.5 55.5t55.5 40.5t76 15q61 0 105 -31z" />
    <glyph glyph-name="uni020F" unicode="&#x20f;" 
d="M197 30.5q-64 36.5 -100.5 100.5t-36.5 142q0 79 36.5 143t100.5 100.5t143 36.5q78 0 142 -36.5t100.5 -100.5t36.5 -143q0 -78 -36.5 -142t-100.5 -100.5t-142 -36.5q-79 0 -143 36.5zM452 79q50 29 78.5 80t28.5 114t-28.5 114t-78.5 80.5t-112 29.5t-112 -29.5
t-79 -80.5t-29 -114t29 -114t79 -80t112 -29t112 29zM444 759q44 -31 48 -81q-1 -12 -10 -21t-21 -9q-13 0 -21.5 9t-8.5 22q0 24 -25 40.5t-67 16.5t-66.5 -16.5t-24.5 -40.5q0 -13 -8.5 -22t-21.5 -9t-22 9t-9 22q0 30 20.5 55.5t55.5 40.5t76 15q61 0 105 -31z" />
    <glyph glyph-name="uni0210" unicode="&#x210;" horiz-adv-x="608" 
d="M583 23q0 -11 -8.5 -17t-24.5 -6q-10 0 -16 4t-11 12l-184 294h-18h-161v-280q0 -13 -8 -21.5t-22 -8.5q-13 0 -21.5 8.5t-8.5 21.5v721q0 14 8.5 22t21.5 8h191q72 0 129 -30t89 -84t32 -123q0 -82 -45.5 -141.5t-122.5 -81.5l172 -275q8 -14 8 -23zM321 370q55 0 98 22
t67.5 62t24.5 90q0 51 -24.5 91.5t-67.5 63t-98 22.5h-161v-351h161zM239 877l-65 137q-2 6 -2 11q0 12 8.5 21t22.5 9q9 0 16.5 -5t10.5 -14l47 -144q1 -2 1 -9q0 -9 -5.5 -14.5t-13.5 -5.5q-14 0 -20 14zM396 877l-65 137q-2 6 -2 11q0 12 8.5 21t22.5 9q9 0 16.5 -5
t11.5 -14l46 -144q1 -2 1 -9q0 -9 -5.5 -14.5t-13.5 -5.5q-13 0 -20 14z" />
    <glyph glyph-name="uni0211" unicode="&#x211;" horiz-adv-x="438" 
d="M398 520q0 -5 -1 -8q-3 -11 -9.5 -15.5t-17.5 -4.5q-9 0 -23.5 2t-24.5 2q-50 0 -89 -21t-61 -58t-22 -83v-304q0 -13 -8 -21.5t-22 -8.5q-13 0 -21.5 8.5t-8.5 21.5v487q0 14 8.5 22t21.5 8q14 0 22 -8t8 -22v-62q29 46 74 72t98 26q76 0 76 -33zM174 643l-65 137
q-2 6 -2 11q0 12 8.5 21t22.5 9q9 0 16.5 -5t10.5 -14l47 -144q1 -2 1 -9q0 -9 -5.5 -14.5t-13.5 -5.5q-14 0 -20 14zM331 643l-65 137q-2 6 -2 11q0 12 8.5 21t22.5 9q9 0 16.5 -5t11.5 -14l46 -144q1 -2 1 -9q0 -9 -5.5 -14.5t-13.5 -5.5q-13 0 -20 14z" />
    <glyph glyph-name="uni0212" unicode="&#x212;" horiz-adv-x="608" 
d="M583 23q0 -11 -8.5 -17t-24.5 -6q-10 0 -16 4t-11 12l-184 294h-18h-161v-280q0 -13 -8 -21.5t-22 -8.5q-13 0 -21.5 8.5t-8.5 21.5v721q0 14 8.5 22t21.5 8h191q72 0 129 -30t89 -84t32 -123q0 -82 -45.5 -141.5t-122.5 -81.5l172 -275q8 -14 8 -23zM321 370q55 0 98 22
t67.5 62t24.5 90q0 51 -24.5 91.5t-67.5 63t-98 22.5h-161v-351h161zM408 993q44 -31 48 -81q-1 -12 -10 -21t-21 -9q-13 0 -21.5 9t-8.5 22q0 24 -25 40.5t-67 16.5t-66.5 -16.5t-24.5 -40.5q0 -13 -8.5 -22t-21.5 -9t-22 9t-9 22q0 30 20.5 55.5t55.5 40.5t76 15
q61 0 105 -31z" />
    <glyph glyph-name="uni0213" unicode="&#x213;" horiz-adv-x="438" 
d="M398 520q0 -5 -1 -8q-3 -11 -9.5 -15.5t-17.5 -4.5q-9 0 -23.5 2t-24.5 2q-50 0 -89 -21t-61 -58t-22 -83v-304q0 -13 -8 -21.5t-22 -8.5q-13 0 -21.5 8.5t-8.5 21.5v487q0 14 8.5 22t21.5 8q14 0 22 -8t8 -22v-62q29 46 74 72t98 26q76 0 76 -33zM343 759q44 -31 48 -81
q-1 -12 -10 -21t-21 -9q-13 0 -21.5 9t-8.5 22q0 24 -25 40.5t-67 16.5t-66.5 -16.5t-24.5 -40.5q0 -13 -8.5 -22t-21.5 -9t-22 9t-9 22q0 30 20.5 55.5t55.5 40.5t76 15q61 0 105 -31z" />
    <glyph glyph-name="uni0214" unicode="&#x214;" horiz-adv-x="801" 
d="M244.5 18.5q-68.5 34.5 -106.5 96t-38 140.5v496q0 14 8.5 22t21.5 8q14 0 22 -8t8 -22v-496q0 -61 30.5 -109t85 -75t124.5 -27t124.5 27t85.5 75t31 109v496q0 14 8.5 22t21.5 8q14 0 22 -8t8 -22v-496q0 -79 -38.5 -140.5t-107 -96t-155.5 -34.5t-155.5 34.5zM336 877
l-65 137q-2 6 -2 11q0 12 8.5 21t22.5 9q9 0 16.5 -5t10.5 -14l47 -144q1 -2 1 -9q0 -9 -5.5 -14.5t-13.5 -5.5q-14 0 -20 14zM493 877l-65 137q-2 6 -2 11q0 12 8.5 21t22.5 9q9 0 16.5 -5t11.5 -14l46 -144q1 -2 1 -9q0 -9 -5.5 -14.5t-13.5 -5.5q-13 0 -20 14z" />
    <glyph glyph-name="uni0215" unicode="&#x215;" horiz-adv-x="673" 
d="M575 539q8 -8 8 -22v-487q0 -13 -8 -21.5t-22 -8.5q-13 0 -21.5 8.5t-8.5 21.5v52q-34 -42 -83 -65.5t-107 -23.5q-73 0 -130.5 30t-90 87.5t-32.5 137.5v269q0 13 8.5 21.5t21.5 8.5t21.5 -8.5t8.5 -21.5v-269q0 -95 53.5 -145t139.5 -50q53 0 96.5 20.5t68.5 57
t25 80.5v306q0 14 8.5 22t21.5 8q14 0 22 -8zM272 643l-65 137q-2 6 -2 11q0 12 8.5 21t22.5 9q9 0 16.5 -5t10.5 -14l47 -144q1 -2 1 -9q0 -9 -5.5 -14.5t-13.5 -5.5q-14 0 -20 14zM429 643l-65 137q-2 6 -2 11q0 12 8.5 21t22.5 9q9 0 16.5 -5t11.5 -14l46 -144q1 -2 1 -9
q0 -9 -5.5 -14.5t-13.5 -5.5q-13 0 -20 14z" />
    <glyph glyph-name="uni0216" unicode="&#x216;" horiz-adv-x="801" 
d="M244.5 18.5q-68.5 34.5 -106.5 96t-38 140.5v496q0 14 8.5 22t21.5 8q14 0 22 -8t8 -22v-496q0 -61 30.5 -109t85 -75t124.5 -27t124.5 27t85.5 75t31 109v496q0 14 8.5 22t21.5 8q14 0 22 -8t8 -22v-496q0 -79 -38.5 -140.5t-107 -96t-155.5 -34.5t-155.5 34.5zM505 993
q44 -31 48 -81q-1 -12 -10 -21t-21 -9q-13 0 -21.5 9t-8.5 22q0 24 -25 40.5t-67 16.5t-66.5 -16.5t-24.5 -40.5q0 -13 -8.5 -22t-21.5 -9t-22 9t-9 22q0 30 20.5 55.5t55.5 40.5t76 15q61 0 105 -31z" />
    <glyph glyph-name="uni0217" unicode="&#x217;" horiz-adv-x="673" 
d="M575 539q8 -8 8 -22v-487q0 -13 -8 -21.5t-22 -8.5q-13 0 -21.5 8.5t-8.5 21.5v52q-34 -42 -83 -65.5t-107 -23.5q-73 0 -130.5 30t-90 87.5t-32.5 137.5v269q0 13 8.5 21.5t21.5 8.5t21.5 -8.5t8.5 -21.5v-269q0 -95 53.5 -145t139.5 -50q53 0 96.5 20.5t68.5 57
t25 80.5v306q0 14 8.5 22t21.5 8q14 0 22 -8zM441 759q44 -31 48 -81q-1 -12 -10 -21t-21 -9q-13 0 -21.5 9t-8.5 22q0 24 -25 40.5t-67 16.5t-66.5 -16.5t-24.5 -40.5q0 -13 -8.5 -22t-21.5 -9t-22 9t-9 22q0 30 20.5 55.5t55.5 40.5t76 15q61 0 105 -31z" />
    <glyph glyph-name="Scommaaccent" unicode="&#x218;" horiz-adv-x="644" 
d="M171 28.5q-69 38.5 -103 105.5q-3 6 -3 12q0 12 8.5 20t22.5 8q20 0 29 -19q27 -50 80.5 -77.5t128.5 -27.5q86 0 135.5 43t49.5 122q0 68 -48.5 112.5t-143.5 57.5q-111 16 -174.5 72.5t-63.5 137.5q0 58 29.5 102.5t83 69t123.5 24.5q73 0 134 -35t90 -84q4 -7 4 -16
q0 -8 -4.5 -14.5t-12.5 -10.5q-4 -2 -12 -2q-18 0 -28 15q-59 87 -171 87q-83 0 -129.5 -37.5t-46.5 -104.5q0 -56 46 -94t142 -54q126 -21 184 -77.5t58 -148.5q0 -69 -30.5 -120t-86 -78t-128.5 -27q-94 0 -163 38.5zM249.5 -212q-38.5 20 -38.5 46q0 11 6.5 17.5
t18.5 6.5q11 0 19 -3.5t18 -11.5q13 -10 26 -15.5t33 -5.5q28 0 45 13t17 35q0 19 -16.5 30.5t-48.5 11.5q-44 0 -44 24q0 25 40 25q53 0 87 -26.5t34 -67.5q0 -43 -34 -71t-83 -28q-41 0 -79.5 20z" />
    <glyph glyph-name="scommaaccent" unicode="&#x219;" horiz-adv-x="536" 
d="M163 14.5q-55 20.5 -91 62.5q-7 8 -7 18q0 14 13 23q6 5 17 5q14 0 23 -11q50 -61 161 -61q79 0 116.5 28t37.5 72q0 79 -153 101q-97 14 -146.5 53t-49.5 94q0 73 53.5 113.5t139.5 40.5q126 0 191 -90q6 -7 6 -17q0 -14 -16 -23q-10 -4 -15 -4q-15 0 -25 13
q-51 65 -143 65q-61 0 -97 -26.5t-36 -65.5q0 -40 34.5 -64t115.5 -36q106 -15 152.5 -56.5t46.5 -100.5q0 -46 -29.5 -81t-78.5 -54t-107 -19t-113 20.5zM205.5 -212q-38.5 20 -38.5 46q0 11 6.5 17.5t18.5 6.5q11 0 19 -3.5t18 -11.5q13 -10 26 -15.5t33 -5.5q28 0 45 13
t17 35q0 19 -16.5 30.5t-48.5 11.5q-44 0 -44 24q0 25 40 25q53 0 87 -26.5t34 -67.5q0 -43 -34 -71t-83 -28q-41 0 -79.5 20z" />
    <glyph glyph-name="uni021A" unicode="&#x21a;" horiz-adv-x="650" 
d="M627.5 773.5q7.5 -7.5 7.5 -19.5t-7.5 -19.5t-19.5 -7.5h-253v-697q0 -13 -8.5 -21.5t-21.5 -8.5t-21.5 8.5t-8.5 21.5v697h-253q-12 0 -19.5 7.5t-7.5 19.5t7.5 19.5t19.5 7.5h566q12 0 19.5 -7.5zM252.5 -212q-38.5 20 -38.5 46q0 11 6.5 17.5t18.5 6.5q11 0 19 -3.5
t18 -11.5q13 -10 26 -15.5t33 -5.5q28 0 45 13t17 35q0 19 -16.5 30.5t-48.5 11.5q-44 0 -44 24q0 25 40 25q53 0 87 -26.5t34 -67.5q0 -43 -34 -71t-83 -28q-41 0 -79.5 20z" />
    <glyph glyph-name="uni021B" unicode="&#x21b;" horiz-adv-x="403" 
d="M359.5 52.5q8.5 -8.5 8.5 -22.5q0 -13 -8.5 -21.5t-22.5 -8.5h-23q-55 0 -98 25t-67 68.5t-24 98.5v281h-78q-12 0 -19.5 7.5t-7.5 19.5t7.5 19.5t19.5 7.5h78v163q0 14 8.5 22.5t21.5 8.5q14 0 22.5 -8.5t8.5 -22.5v-163h132q12 0 19.5 -7.5t7.5 -19.5t-7.5 -19.5
t-19.5 -7.5h-132v-281q0 -58 36 -94.5t93 -36.5h22q14 0 22.5 -8.5zM149.5 -212q-38.5 20 -38.5 46q0 11 6.5 17.5t18.5 6.5q11 0 19 -3.5t18 -11.5q13 -10 26 -15.5t33 -5.5q28 0 45 13t17 35q0 19 -16.5 30.5t-48.5 11.5q-44 0 -44 24q0 25 40 25q53 0 87 -26.5t34 -67.5
q0 -43 -34 -71t-83 -28q-41 0 -79.5 20z" />
    <glyph glyph-name="uni022A" unicode="&#x22a;" horiz-adv-x="921" 
d="M256.5 42.5q-91.5 52.5 -144 144t-52.5 204.5q0 112 52.5 203.5t144 144t204.5 52.5q112 0 203.5 -52.5t144 -144t52.5 -203.5q0 -113 -52.5 -204.5t-144 -144t-203.5 -52.5q-113 0 -204.5 52.5zM634 94.5q78 44.5 122.5 122.5t44.5 174q0 95 -44.5 173t-122.5 122.5
t-173 44.5q-96 0 -174 -44.5t-122.5 -122.5t-44.5 -173q0 -96 44.5 -174t122.5 -122.5t174 -44.5q95 0 173 44.5zM324 906q-15 15 -15 37q0 21 15 36t37 15t36.5 -15t14.5 -36q0 -22 -14.5 -37t-36.5 -15t-37 15zM524 906q-15 15 -15 37q0 21 15 36t37 15t36.5 -15t14.5 -36
q0 -22 -14.5 -37t-36.5 -15t-37 15zM306.5 1086.5q-8.5 8.5 -8.5 21.5t8.5 22t21.5 9h265q13 0 21.5 -9t8.5 -22t-8.5 -21.5t-21.5 -8.5h-265q-13 0 -21.5 8.5z" />
    <glyph glyph-name="uni022B" unicode="&#x22b;" 
d="M197 30.5q-64 36.5 -100.5 100.5t-36.5 142q0 79 36.5 143t100.5 100.5t143 36.5q78 0 142 -36.5t100.5 -100.5t36.5 -143q0 -78 -36.5 -142t-100.5 -100.5t-142 -36.5q-79 0 -143 36.5zM452 79q50 29 78.5 80t28.5 114t-28.5 114t-78.5 80.5t-112 29.5t-112 -29.5
t-79 -80.5t-29 -114t29 -114t79 -80t112 -29t112 29zM203 672q-15 15 -15 37q0 21 15 36t37 15t36.5 -15t14.5 -36q0 -22 -14.5 -37t-36.5 -15t-37 15zM403 672q-15 15 -15 37q0 21 15 36t37 15t36.5 -15t14.5 -36q0 -22 -14.5 -37t-36.5 -15t-37 15zM185.5 852.5
q-8.5 8.5 -8.5 21.5t8.5 22t21.5 9h265q13 0 21.5 -9t8.5 -22t-8.5 -21.5t-21.5 -8.5h-265q-13 0 -21.5 8.5z" />
    <glyph glyph-name="uni022C" unicode="&#x22c;" horiz-adv-x="921" 
d="M256.5 42.5q-91.5 52.5 -144 144t-52.5 204.5q0 112 52.5 203.5t144 144t204.5 52.5q112 0 203.5 -52.5t144 -144t52.5 -203.5q0 -113 -52.5 -204.5t-144 -144t-203.5 -52.5q-113 0 -204.5 52.5zM634 94.5q78 44.5 122.5 122.5t44.5 174q0 95 -44.5 173t-122.5 122.5
t-173 44.5q-96 0 -174 -44.5t-122.5 -122.5t-44.5 -173q0 -96 44.5 -174t122.5 -122.5t174 -44.5q95 0 173 44.5zM517 873.5q-21 9.5 -45 25.5q-20 14 -32 18.5t-25 4.5q-41 0 -77 -41q-9 -12 -25 -12q-10 0 -15 4q-15 9 -15 23q0 10 6 17q27 32 59.5 49.5t66.5 17.5
q26 0 45.5 -8.5t44.5 -24.5q21 -14 32.5 -19.5t28.5 -5.5q34 0 55 22q12 14 28 14q7 0 11 -3q18 -9 18 -24q0 -8 -6 -16q-39 -51 -106 -51q-28 0 -49 9.5zM316.5 1050.5q-8.5 8.5 -8.5 21.5t8.5 22t21.5 9h265q13 0 21.5 -9t8.5 -22t-8.5 -21.5t-21.5 -8.5h-265
q-13 0 -21.5 8.5z" />
    <glyph glyph-name="uni022D" unicode="&#x22d;" 
d="M197 30.5q-64 36.5 -100.5 100.5t-36.5 142q0 79 36.5 143t100.5 100.5t143 36.5q78 0 142 -36.5t100.5 -100.5t36.5 -143q0 -78 -36.5 -142t-100.5 -100.5t-142 -36.5q-79 0 -143 36.5zM452 79q50 29 78.5 80t28.5 114t-28.5 114t-78.5 80.5t-112 29.5t-112 -29.5
t-79 -80.5t-29 -114t29 -114t79 -80t112 -29t112 29zM396 639.5q-21 9.5 -45 25.5q-20 14 -32 18.5t-25 4.5q-41 0 -77 -41q-9 -12 -25 -12q-10 0 -15 4q-15 9 -15 23q0 10 6 17q27 32 59.5 49.5t66.5 17.5q26 0 45.5 -8.5t44.5 -24.5q21 -14 32.5 -19.5t28.5 -5.5
q34 0 55 22q12 14 28 14q7 0 11 -3q18 -9 18 -24q0 -8 -6 -16q-39 -51 -106 -51q-28 0 -49 9.5zM195.5 816.5q-8.5 8.5 -8.5 21.5t8.5 22t21.5 9h265q13 0 21.5 -9t8.5 -22t-8.5 -21.5t-21.5 -8.5h-265q-13 0 -21.5 8.5z" />
    <glyph glyph-name="uni0230" unicode="&#x230;" horiz-adv-x="921" 
d="M256.5 42.5q-91.5 52.5 -144 144t-52.5 204.5q0 112 52.5 203.5t144 144t204.5 52.5q112 0 203.5 -52.5t144 -144t52.5 -203.5q0 -113 -52.5 -204.5t-144 -144t-203.5 -52.5q-113 0 -204.5 52.5zM634 94.5q78 44.5 122.5 122.5t44.5 174q0 95 -44.5 173t-122.5 122.5
t-173 44.5q-96 0 -174 -44.5t-122.5 -122.5t-44.5 -173q0 -96 44.5 -174t122.5 -122.5t174 -44.5q95 0 173 44.5zM427 909.5q-13 13.5 -13 33.5q0 22 14 34t33 12t32.5 -12t13.5 -34q0 -20 -13.5 -33.5t-33.5 -13.5t-33 13.5zM306.5 1061.5q-8.5 8.5 -8.5 21.5t8.5 22
t21.5 9h265q13 0 21.5 -9t8.5 -22t-8.5 -21.5t-21.5 -8.5h-265q-13 0 -21.5 8.5z" />
    <glyph glyph-name="uni0231" unicode="&#x231;" 
d="M197 30.5q-64 36.5 -100.5 100.5t-36.5 142q0 79 36.5 143t100.5 100.5t143 36.5q78 0 142 -36.5t100.5 -100.5t36.5 -143q0 -78 -36.5 -142t-100.5 -100.5t-142 -36.5q-79 0 -143 36.5zM452 79q50 29 78.5 80t28.5 114t-28.5 114t-78.5 80.5t-112 29.5t-112 -29.5
t-79 -80.5t-29 -114t29 -114t79 -80t112 -29t112 29zM306 675.5q-13 13.5 -13 33.5q0 22 14 34t33 12t32.5 -12t13.5 -34q0 -20 -13.5 -33.5t-33.5 -13.5t-33 13.5zM185.5 827.5q-8.5 8.5 -8.5 21.5t8.5 22t21.5 9h265q13 0 21.5 -9t8.5 -22t-8.5 -21.5t-21.5 -8.5h-265
q-13 0 -21.5 8.5z" />
    <glyph glyph-name="uni0232" unicode="&#x232;" horiz-adv-x="633" 
d="M620.5 773q7.5 -8 7.5 -20q0 -11 -5 -19l-276 -442v-262q0 -13 -8.5 -21.5t-21.5 -8.5t-21.5 8.5t-8.5 21.5v262l-276 442q-6 11 -6 19q0 12 8 20t21 8t24 -12l259 -422l255 415q7 11 13.5 15t15.5 4q12 0 19.5 -8zM162.5 903.5q-8.5 8.5 -8.5 21.5t8.5 22t21.5 9h265
q13 0 21.5 -9t8.5 -22t-8.5 -21.5t-21.5 -8.5h-265q-13 0 -21.5 8.5z" />
    <glyph glyph-name="uni0233" unicode="&#x233;" horiz-adv-x="554" 
d="M544 523q0 -4 -4 -14l-336 -728q-9 -18 -23 -18q-6 0 -14 3q-19 8 -19 23q0 4 4 14l100 216q-1 1 -4 7l-219 480q-4 8 -4 16q0 15 17 23q8 4 16 4q15 0 23 -17l203 -444l204 443q9 18 23 18q7 0 14 -3q19 -8 19 -23zM130.5 669.5q-8.5 8.5 -8.5 21.5t8.5 22t21.5 9h265
q13 0 21.5 -9t8.5 -22t-8.5 -21.5t-21.5 -8.5h-265q-13 0 -21.5 8.5z" />
    <glyph glyph-name="uni0237" unicode="&#x237;" horiz-adv-x="284" 
d="M-81.5 -225.5q-8.5 8.5 -8.5 21.5t8.5 22t22.5 9q76 0 124 48t48 124v518q0 14 8.5 22t21.5 8q14 0 22.5 -8.5t8.5 -21.5v-518q0 -67 -30 -120t-83 -83t-120 -30q-14 0 -22.5 8.5z" />
    <glyph glyph-name="uni0259" unicode="&#x259;" horiz-adv-x="609" 
d="M417.5 516.5q61.5 -35.5 96.5 -99t35 -143.5q0 -81 -32.5 -144.5t-91 -99t-133.5 -35.5q-73 0 -130.5 34.5t-89.5 95.5t-32 139q0 13 8 20.5t21 7.5h419q-3 59 -31 105.5t-75 72.5t-105 26q-39 0 -78.5 -13.5t-62.5 -35.5q-10 -8 -21 -8q-10 0 -18 6q-11 9 -11 21
q0 10 9 19q32 29 83.5 48t98.5 19q79 0 140.5 -35.5zM423.5 103q53.5 52 63.5 137h-389q7 -85 60 -137t134 -52q78 0 131.5 52z" />
    <glyph glyph-name="uni02BC" unicode="&#x2bc;" horiz-adv-x="158" 
d="M27 768q13 -19 13 -54q0 -27 -13.5 -66t-33 -68t-34.5 -29q-11 0 -18 9t-3 20q17 44 17 80q0 16 -4 40t-4 38q0 23 12.5 36t32.5 13q22 0 35 -19z" />
    <glyph glyph-name="circumflex" unicode="&#x2c6;" horiz-adv-x="391" 
d="M50 636.5q-9 8.5 -9 21.5q0 17 16 27l121 81q8 4 15 4t15 -4l121 -81q16 -10 16 -27q0 -13 -9 -21.5t-22 -8.5q-10 0 -19 6l-102 68l-102 -68q-9 -6 -18 -6q-14 0 -23 8.5z" />
    <glyph glyph-name="caron" unicode="&#x2c7;" horiz-adv-x="391" 
d="M178 632l-121 80q-16 10 -16 27q0 12 7.5 19.5t18.5 7.5q12 0 24 -8l102 -70l102 68q13 9 25 9q11 0 18 -7.5t7 -18.5q0 -15 -16 -27l-121 -80q-5 -4 -15 -4t-15 4z" />
    <glyph glyph-name="uni02C9" unicode="&#x2c9;" horiz-adv-x="391" 
d="M50 634q-9 9 -9 22t9 22t22 9h242q13 0 22 -9t9 -22t-9 -22t-22 -9h-242q-13 0 -22 9z" />
    <glyph glyph-name="breve" unicode="&#x2d8;" horiz-adv-x="391" 
d="M117 643q-35 15 -55.5 40.5t-20.5 55.5q0 13 9 22t22 9t21.5 -9t8.5 -22q0 -24 24.5 -40.5t66.5 -16.5t67 16.5t25 40.5q0 13 8.5 22t21.5 9t21.5 -9t9.5 -21q-4 -50 -48 -81t-105 -31q-41 0 -76 15z" />
    <glyph glyph-name="dotaccent" unicode="&#x2d9;" horiz-adv-x="195" 
d="M57.5 643q-14.5 15 -14.5 36t15 35.5t36 14.5t35.5 -14t14.5 -36q0 -21 -14.5 -36t-35.5 -15q-22 0 -36.5 15z" />
    <glyph glyph-name="ring" unicode="&#x2da;" horiz-adv-x="273" 
d="M69.5 624.5q-27.5 27.5 -27.5 64.5q0 38 27.5 65t64.5 27q38 0 65 -27t27 -65q0 -37 -27 -64.5t-65 -27.5q-37 0 -64.5 27.5zM172 651.5q16 15.5 16 37.5q0 23 -15.5 38.5t-38.5 15.5q-22 0 -37.5 -16t-15.5 -38t15.5 -37.5t37.5 -15.5t38 15.5z" />
    <glyph glyph-name="ogonek" unicode="&#x2db;" horiz-adv-x="313" 
d="M75 -197.5q-33 32.5 -33 78.5q0 53 47 91q31 25 38 44q8 15 26 15q14 0 22.5 -8t8.5 -21q0 -19 -15 -38.5t-45 -41.5q-21 -17 -21 -41q0 -21 14.5 -35.5t35.5 -14.5q16 0 28 8l35 26q9 6 18 6q13 0 22 -9t9 -22q0 -15 -10 -23l-41 -28q-28 -19 -61 -19q-45 0 -78 32.5z
" />
    <glyph glyph-name="tilde" unicode="&#x2dc;" horiz-adv-x="469" 
d="M277 639.5q-21 9.5 -45 25.5q-20 14 -32 18.5t-25 4.5q-41 0 -77 -41q-9 -12 -25 -12q-10 0 -15 4q-15 9 -15 23q0 10 6 17q27 32 59.5 49.5t66.5 17.5q26 0 45.5 -8.5t44.5 -24.5q21 -14 32.5 -19.5t28.5 -5.5q34 0 55 22q12 14 28 14q7 0 11 -3q18 -9 18 -24
q0 -8 -6 -16q-39 -51 -106 -51q-28 0 -49 9.5z" />
    <glyph glyph-name="hungarumlaut" unicode="&#x2dd;" horiz-adv-x="352" 
d="M47.5 594.5q-5.5 5.5 -5.5 14.5q0 7 1 9l46 144q4 9 11.5 14t16.5 5q14 0 22.5 -9t8.5 -21q0 -5 -2 -11l-65 -137q-7 -14 -20 -14q-8 0 -13.5 5.5zM204.5 594.5q-5.5 5.5 -5.5 14.5q0 7 1 9l47 144q3 9 10.5 14t16.5 5q14 0 22.5 -9t8.5 -21q0 -5 -2 -11l-65 -137
q-6 -14 -20 -14q-8 0 -13.5 5.5z" />
    <glyph glyph-name="gravecomb" unicode="&#x300;" horiz-adv-x="0" 
d="M-94 647l-123 123q-8 8 -8 21t9 22t22 9q12 0 21 -9l123 -123q7 -7 7 -20t-8.5 -22t-21.5 -9q-10 0 -21 8z" />
    <glyph glyph-name="acutecomb" unicode="&#x301;" horiz-adv-x="0" 
d="M-222 637q-9 9 -9 22q0 11 7 20l123 123q9 9 22 9t22 -9t9 -22q0 -12 -9 -21l-123 -123q-8 -8 -20 -8q-13 0 -22 9z" />
    <glyph glyph-name="uni0302" unicode="&#x302;" horiz-adv-x="0" 
d="M-341 656.5q-9 8.5 -9 21.5q0 17 16 27l121 81q8 4 15 4t15 -4l121 -81q16 -10 16 -27q0 -13 -9 -21.5t-22 -8.5q-10 0 -19 6l-102 68l-102 -68q-9 -6 -18 -6q-14 0 -23 8.5z" />
    <glyph glyph-name="tildecomb" unicode="&#x303;" horiz-adv-x="0" 
d="M-192 639.5q-21 9.5 -45 25.5q-20 14 -32 18.5t-25 4.5q-41 0 -77 -41q-9 -12 -25 -12q-10 0 -15 4q-15 9 -15 23q0 10 6 17q27 32 59.5 49.5t66.5 17.5q26 0 45.5 -8.5t44.5 -24.5q21 -14 32.5 -19.5t28.5 -5.5q34 0 55 22q12 14 28 14q7 0 11 -3q18 -9 18 -24
q0 -8 -6 -16q-39 -51 -106 -51q-28 0 -49 9.5z" />
    <glyph glyph-name="uni0304" unicode="&#x304;" horiz-adv-x="0" 
d="M-428.5 669.5q-8.5 8.5 -8.5 21.5t8.5 22t21.5 9h265q13 0 21.5 -9t8.5 -22t-8.5 -21.5t-21.5 -8.5h-265q-13 0 -21.5 8.5z" />
    <glyph glyph-name="uni0306" unicode="&#x306;" horiz-adv-x="0" 
d="M-274 663q-35 15 -55.5 40.5t-20.5 55.5q0 13 9 22t22 9t21.5 -9t8.5 -22q0 -24 24.5 -40.5t66.5 -16.5t67 16.5t25 40.5q0 13 8.5 22t21.5 9q12 0 21 -9t10 -21q-4 -50 -48 -81t-105 -31q-41 0 -76 15z" />
    <glyph glyph-name="uni0307" unicode="&#x307;" horiz-adv-x="0" 
d="M-174 675.5q-13 13.5 -13 33.5q0 22 14 34t33 12t32.5 -12t13.5 -34q0 -20 -13.5 -33.5t-33.5 -13.5t-33 13.5z" />
    <glyph glyph-name="uni0308" unicode="&#x308;" horiz-adv-x="0" 
d="M-388 672q-15 15 -15 37q0 21 15 36t37 15t36.5 -15t14.5 -36q0 -22 -14.5 -37t-36.5 -15t-37 15zM-188 672q-15 15 -15 37q0 21 15 36t37 15t36.5 -15t14.5 -36q0 -22 -14.5 -37t-36.5 -15t-37 15z" />
    <glyph glyph-name="hookabovecomb" unicode="&#x309;" horiz-adv-x="0" 
d="M-191.5 604.5q-8.5 8.5 -8.5 20.5v33q0 26 26 32l24 5q23 5 32.5 16t9.5 30q0 23 -15.5 37t-39.5 14q-23 0 -42 -16q-9 -7 -19 -7q-12 0 -20.5 8.5t-8.5 20.5q0 14 10 22q36 30 80 30q49 0 81 -28t32 -75q0 -42 -26 -66.5t-66 -31.5v-24q0 -12 -8.5 -20.5t-20.5 -8.5
t-20.5 8.5z" />
    <glyph glyph-name="uni030A" unicode="&#x30a;" horiz-adv-x="0" 
d="M-204 624.5q-27 27.5 -27 64.5q0 38 27.5 65t64.5 27q38 0 65 -27t27 -65q0 -37 -27 -64.5t-65 -27.5t-65 27.5zM-101 651.5q16 15.5 16 37.5q0 23 -16 38.5t-38 15.5t-37.5 -16t-15.5 -38t15.5 -37.5t37.5 -15.5t38 15.5z" />
    <glyph glyph-name="uni030B" unicode="&#x30b;" horiz-adv-x="0" 
d="M-304.5 634.5q-5.5 5.5 -5.5 14.5q0 7 1 9l46 144q4 9 11.5 14t16.5 5q14 0 22.5 -9t8.5 -21q0 -5 -2 -11l-65 -137q-7 -14 -20 -14q-8 0 -13.5 5.5zM-147.5 634.5q-5.5 5.5 -5.5 14.5q0 7 1 9l47 144q3 9 10.5 14t16.5 5q14 0 22.5 -9t8.5 -21q0 -5 -2 -11l-65 -137
q-6 -14 -20 -14q-8 0 -13.5 5.5z" />
    <glyph glyph-name="uni030C" unicode="&#x30c;" horiz-adv-x="0" 
d="M-213 652l-121 80q-16 10 -16 27q0 12 7.5 19.5t18.5 7.5q12 0 24 -8l102 -70l102 68q13 9 25 9q11 0 18 -7.5t7 -18.5q0 -15 -16 -27l-121 -80q-5 -4 -15 -4t-15 4z" />
    <glyph glyph-name="uni030F" unicode="&#x30f;" horiz-adv-x="0" 
d="M-243 643l-65 137q-2 6 -2 11q0 12 8.5 21t22.5 9q9 0 16.5 -5t10.5 -14l47 -144q1 -2 1 -9q0 -9 -5.5 -14.5t-13.5 -5.5q-14 0 -20 14zM-86 643l-65 137q-2 6 -2 11q0 12 8.5 21t22.5 9q9 0 16.5 -5t11.5 -14l46 -144q1 -2 1 -9q0 -9 -5.5 -14.5t-13.5 -5.5
q-13 0 -20 14z" />
    <glyph glyph-name="uni0311" unicode="&#x311;" horiz-adv-x="0" 
d="M-98 759q44 -31 48 -81q-1 -12 -10 -21t-21 -9q-13 0 -21.5 9t-8.5 22q0 24 -25 40.5t-67 16.5t-66.5 -16.5t-24.5 -40.5q0 -13 -8.5 -22t-21.5 -9t-22 9t-9 22q0 30 20.5 55.5t55.5 40.5t76 15q61 0 105 -31z" />
    <glyph glyph-name="uni0312" unicode="&#x312;" horiz-adv-x="0" 
d="M-145.5 685.5q-17.5 22.5 -17.5 60.5q0 36 11.5 73t30 61.5t40.5 24.5q19 0 19 -17q0 -10 -14 -30q-9 -14 -13.5 -23t-4.5 -21q0 -18 5.5 -28.5t17.5 -27.5q11 -13 16 -22.5t5 -23.5q0 -23 -15 -36t-36 -13q-27 0 -44.5 22.5z" />
    <glyph glyph-name="uni031B" unicode="&#x31b;" horiz-adv-x="0" 
d="M-191 547h42q18 0 29.5 13t11.5 33v23q0 13 7.5 21t21.5 8t21.5 -9.5t7.5 -24.5v-18q0 -44 -28.5 -74t-70.5 -30h-42v58z" />
    <glyph glyph-name="dotbelowcomb" unicode="&#x323;" horiz-adv-x="0" 
d="M-130 -184.5q-13 13.5 -13 33.5q0 22 14 34t33 12t32.5 -12t13.5 -34q0 -20 -13.5 -33.5t-33.5 -13.5t-33 13.5z" />
    <glyph glyph-name="uni0324" unicode="&#x324;" horiz-adv-x="0" 
d="M-338 -178q-15 15 -15 37q0 21 15 36t37 15t36.5 -15t14.5 -36q0 -22 -14.5 -37t-36.5 -15t-37 15zM-138 -178q-15 15 -15 37q0 21 15 36t37 15t36.5 -15t14.5 -36q0 -22 -14.5 -37t-36.5 -15t-37 15z" />
    <glyph glyph-name="uni0326" unicode="&#x326;" horiz-adv-x="0" 
d="M-231.5 -212q-38.5 20 -38.5 46q0 11 6.5 17.5t18.5 6.5q11 0 19 -3.5t18 -11.5q13 -10 26 -15.5t33 -5.5q28 0 45 13t17 35q0 19 -16.5 30.5t-48.5 11.5q-44 0 -44 24q0 25 40 25q53 0 87 -26.5t34 -67.5q0 -43 -34 -71t-83 -28q-41 0 -79.5 20z" />
    <glyph glyph-name="uni0327" unicode="&#x327;" horiz-adv-x="0" 
d="M-243.5 -212q-31.5 20 -31.5 46q0 13 8.5 22t21.5 9q8 0 14 -3.5t12 -8t9 -7.5q10 -8 19.5 -12.5t26.5 -4.5q26 0 42.5 11t16.5 30t-13 30.5t-44 20.5q-16 4 -24 10t-8 17q0 6 5 19l20 49q8 22 35 22q12 0 19.5 -7.5t7.5 -18.5q0 -6 -3 -12l-15 -36q50 -15 69 -37t19 -55
q0 -44 -38 -74t-89 -30q-48 0 -79.5 20z" />
    <glyph glyph-name="uni0328" unicode="&#x328;" horiz-adv-x="0" 
d="M-238 -197.5q-33 32.5 -33 78.5q0 53 47 91q31 25 38 44q8 15 26 15q14 0 22.5 -8t8.5 -21q0 -19 -15 -38.5t-45 -41.5q-21 -17 -21 -41q0 -21 14.5 -35.5t35.5 -14.5q16 0 28 8l35 26q9 6 18 6q13 0 22 -9t9 -22q0 -15 -10 -23l-41 -28q-28 -19 -61 -19q-45 0 -78 32.5z
" />
    <glyph glyph-name="uni032E" unicode="&#x32e;" horiz-adv-x="0" 
d="M-274 -207q-35 15 -55.5 40.5t-20.5 55.5q0 13 9 22t22 9t21.5 -9t8.5 -22q0 -24 24.5 -40.5t66.5 -16.5t67 16.5t25 40.5q0 13 8.5 22t21.5 9q12 0 21 -9t10 -21q-4 -50 -48 -81t-105 -31q-41 0 -76 15z" />
    <glyph glyph-name="uni0331" unicode="&#x331;" horiz-adv-x="0" 
d="M-366.5 -150.5q-8.5 8.5 -8.5 21.5t8.5 22t21.5 9h265q13 0 21.5 -9t8.5 -22t-8.5 -21.5t-21.5 -8.5h-265q-13 0 -21.5 8.5z" />
    <glyph glyph-name="uni0335" unicode="&#x335;" horiz-adv-x="0" 
d="M-414.5 290.5q-7.5 7.5 -7.5 19.5t7.5 19.5t19.5 7.5h318q12 0 19.5 -7.5t7.5 -19.5t-7.5 -19.5t-19.5 -7.5h-318q-12 0 -19.5 7.5z" />
    <glyph glyph-name="uni0336" unicode="&#x336;" horiz-adv-x="0" 
d="M-824.5 290.5q-7.5 7.5 -7.5 19.5t7.5 19.5t19.5 7.5h738q12 0 19.5 -7.5t7.5 -19.5t-7.5 -19.5t-19.5 -7.5h-738q-12 0 -19.5 7.5z" />
    <glyph glyph-name="tonos" unicode="&#x384;" horiz-adv-x="273" 
d="M51 657q-9 9 -9 22q0 11 7 20l123 123q9 9 22 9t22 -9t9 -22q0 -12 -9 -21l-123 -123q-8 -8 -20 -8q-13 0 -22 9z" />
    <glyph glyph-name="dieresistonos" unicode="&#x385;" horiz-adv-x="506" 
d="M324 822q13 0 21.5 -9t8.5 -22q0 -14 -7 -21l-123 -123q-11 -8 -21 -8q-13 0 -22 9t-9 22q0 12 8 20l123 123q9 9 21 9zM119.5 739q11.5 -12 11.5 -29t-11.5 -28.5t-28.5 -11.5t-29 11.5t-12 28.5t12 29t29 12t28.5 -12zM444 739q12 -12 12 -29t-12 -28.5t-29 -11.5
t-29 11.5t-12 28.5t12 29t29 12t29 -12z" />
    <glyph glyph-name="Alphatonos" unicode="&#x386;" horiz-adv-x="703" 
d="M690 30q0 -12 -9 -21t-21 -9q-20 0 -28 19l-74 177h-407l-74 -177q-7 -19 -28 -19q-14 0 -22 9t-8 21q0 7 3 13l303 717q8 21 29 21q20 0 29 -21l304 -717q3 -6 3 -13zM174 250h361l-181 432zM45 607q-9 9 -9 22q0 11 7 20l123 123q9 9 22 9t22 -9t9 -22q0 -12 -9 -21
l-123 -123q-8 -8 -20 -8q-13 0 -22 9z" />
    <glyph glyph-name="anoteleia" unicode="&#x387;" horiz-adv-x="195" 
d="M58 455.5q-15 14.5 -15 36.5q0 21 14.5 35.5t36.5 14.5q21 0 35.5 -14.5t14.5 -35.5q0 -22 -14.5 -36.5t-35.5 -14.5t-36 14.5z" />
    <glyph glyph-name="Epsilontonos" unicode="&#x388;" horiz-adv-x="820" 
d="M242.5 8.5q-8.5 8.5 -8.5 21.5v721q0 13 8.5 21.5t21.5 8.5h481q12 0 21 -8.5t9 -21.5q0 -12 -9 -21t-21 -9h-451v-300h331q13 0 21.5 -8.5t8.5 -21.5t-8.5 -22t-21.5 -9h-331v-300h451q12 0 21 -9t9 -21q0 -13 -9 -21.5t-21 -8.5h-481q-13 0 -21.5 8.5zM9 607
q-9 9 -9 22q0 11 7 20l123 123q9 9 22 9t22 -9t9 -22q0 -12 -9 -21l-123 -123q-8 -8 -20 -8q-13 0 -22 9z" />
    <glyph glyph-name="Etatonos" unicode="&#x389;" horiz-adv-x="949" 
d="M232.5 8.5q-8.5 8.5 -8.5 21.5v721q0 13 8.5 21.5t21.5 8.5t21.5 -8.5t8.5 -21.5v-330h505v330q0 13 8.5 21.5t21.5 8.5q12 0 21 -8.5t9 -21.5v-721q0 -13 -9 -21.5t-21 -8.5q-13 0 -21.5 8.5t-8.5 21.5v337h-505v-337q0 -13 -8.5 -21.5t-21.5 -8.5t-21.5 8.5zM9 607
q-9 9 -9 22q0 11 7 20l123 123q9 9 22 9t22 -9t9 -22q0 -12 -9 -21l-123 -123q-8 -8 -20 -8q-13 0 -22 9z" />
    <glyph glyph-name="Iotatonos" unicode="&#x38a;" horiz-adv-x="394" 
d="M242.5 8.5q-8.5 8.5 -8.5 21.5v721q0 13 8.5 21.5t21.5 8.5t21.5 -8.5t8.5 -21.5v-721q0 -13 -8.5 -21.5t-21.5 -8.5t-21.5 8.5zM9 607q-9 9 -9 22q0 11 7 20l123 123q9 9 22 9t22 -9t9 -22q0 -12 -9 -21l-123 -123q-8 -8 -20 -8q-13 0 -22 9z" />
    <glyph glyph-name="Omicrontonos" unicode="&#x38c;" horiz-adv-x="955" 
d="M290.5 42.5q-91.5 52.5 -144 144t-52.5 204.5q0 112 52.5 203.5t144 144t204.5 52.5q112 0 203.5 -52.5t144 -144t52.5 -203.5q0 -113 -52.5 -204.5t-144 -144t-203.5 -52.5q-113 0 -204.5 52.5zM668 94.5q78 44.5 122.5 122.5t44.5 174q0 95 -44.5 173t-122.5 122.5
t-173 44.5q-96 0 -174 -44.5t-122.5 -122.5t-44.5 -173q0 -96 44.5 -174t122.5 -122.5t174 -44.5q95 0 173 44.5zM9 607q-9 9 -9 22q0 11 7 20l123 123q9 9 22 9t22 -9t9 -22q0 -12 -9 -21l-123 -123q-8 -8 -20 -8q-13 0 -22 9z" />
    <glyph glyph-name="Upsilontonos" unicode="&#x38e;" horiz-adv-x="837" 
d="M824.5 773q7.5 -8 7.5 -20q0 -11 -5 -19l-276 -442v-262q0 -13 -8.5 -21.5t-21.5 -8.5t-21.5 8.5t-8.5 21.5v262l-276 442q-6 11 -6 19q0 12 8 20t21 8t24 -12l259 -422l255 415q7 11 13.5 15t15.5 4q12 0 19.5 -8zM9 607q-9 9 -9 22q0 11 7 20l123 123q9 9 22 9t22 -9
t9 -22q0 -12 -9 -21l-123 -123q-8 -8 -20 -8q-13 0 -22 9z" />
    <glyph glyph-name="Omegatonos" unicode="&#x38f;" horiz-adv-x="954" 
d="M121.5 8.5q-8.5 8.5 -8.5 21.5q0 12 8.5 21t21.5 9h114q-78 52 -111 135t-33 196q0 106 52 195.5t141 142t197 52.5q106 0 195.5 -53t142.5 -143t53 -194q0 -118 -30 -195.5t-114 -135.5h114q13 0 21.5 -9t8.5 -21q0 -13 -8.5 -21.5t-21.5 -8.5h-241q-12 0 -20.5 8.5
t-8.5 21.5q0 12 8.5 21t20.5 9q58 0 106.5 44.5t76.5 120.5t28 166q0 88 -45 164t-121.5 121t-164.5 45t-164 -44.5t-121 -120.5t-45 -165q0 -90 28 -166t76.5 -120.5t105.5 -44.5q13 0 21.5 -9t8.5 -21q0 -13 -8.5 -21.5t-21.5 -8.5h-240q-13 0 -21.5 8.5zM19 607
q-9 9 -9 22q0 11 7 20l123 123q9 9 22 9t22 -9t9 -22q0 -12 -9 -21l-123 -123q-8 -8 -20 -8q-13 0 -22 9z" />
    <glyph glyph-name="iotadieresistonos" unicode="&#x390;" horiz-adv-x="280" 
d="M118.5 8.5q-8.5 8.5 -8.5 21.5v487q0 14 8.5 22t21.5 8q14 0 22 -8t8 -22v-487q0 -13 -8 -21.5t-22 -8.5q-13 0 -21.5 8.5zM231 822q13 0 21.5 -9t8.5 -22q0 -14 -7 -21l-123 -123q-11 -8 -21 -8q-13 0 -22 9t-9 22q0 12 8 20l123 123q9 9 21 9zM26.5 739
q11.5 -12 11.5 -29t-11.5 -28.5t-28.5 -11.5t-29 11.5t-12 28.5t12 29t29 12t28.5 -12zM351 739q12 -12 12 -29t-12 -28.5t-29 -11.5t-29 11.5t-12 28.5t12 29t29 12t29 -12z" />
    <glyph glyph-name="Alpha" unicode="&#x391;" horiz-adv-x="703" 
d="M690 30q0 -12 -9 -21t-21 -9q-20 0 -28 19l-74 177h-407l-74 -177q-7 -19 -28 -19q-14 0 -22 9t-8 21q0 7 3 13l303 717q8 21 29 21q20 0 29 -21l304 -717q3 -6 3 -13zM174 250h361l-181 432z" />
    <glyph glyph-name="Beta" unicode="&#x392;" horiz-adv-x="675" 
d="M110.5 7.5q-10.5 7.5 -10.5 22.5v721q0 14 8.5 22t21.5 8h245q55 0 102 -24.5t74.5 -67.5t27.5 -97q0 -56 -30 -100.5t-80 -66.5q70 -19 110.5 -70.5t40.5 -127.5q0 -66 -29.5 -117.5t-82 -80.5t-118.5 -29h-251q-18 0 -28.5 7.5zM375 451q64 0 104 39t40 102
q0 61 -39.5 95t-104.5 34h-215v-270h215zM390 60q49 0 87.5 21.5t60.5 59.5t22 86q0 47 -22 84.5t-60.5 58.5t-87.5 21h-230v-331h230z" />
    <glyph glyph-name="Gamma" unicode="&#x393;" horiz-adv-x="625" 
d="M91.5 8.5q-8.5 -8.5 -21.5 -8.5t-21.5 8.5t-8.5 21.5v721q1 13 9.5 21.5t21.5 8.5h481q12 0 21 -8.5t9 -21.5q0 -12 -9 -21t-21 -9h-452v-691q0 -13 -8.5 -21.5z" />
    <glyph glyph-name="uni0394" unicode="&#x394;" horiz-adv-x="703" 
d="M29 8.5q-9 8.5 -9 21.5q0 7 5 19l302 722q5 19 27 19q9 0 16.5 -5t11.5 -14l302 -722q4 -9 4 -19q0 -13 -8.5 -21.5t-21.5 -8.5h-607q-13 0 -22 8.5zM95 61h518l-259 615z" />
    <glyph glyph-name="Epsilon" unicode="&#x395;" horiz-adv-x="686" 
d="M108.5 8.5q-8.5 8.5 -8.5 21.5v721q0 13 8.5 21.5t21.5 8.5h481q12 0 21 -8.5t9 -21.5q0 -12 -9 -21t-21 -9h-451v-300h331q13 0 21.5 -8.5t8.5 -21.5t-8.5 -22t-21.5 -9h-331v-300h451q12 0 21 -9t9 -21q0 -13 -9 -21.5t-21 -8.5h-481q-13 0 -21.5 8.5z" />
    <glyph glyph-name="Zeta" unicode="&#x396;" horiz-adv-x="711" 
d="M53.5 9q-8.5 9 -8.5 21q0 11 7 19l535 678h-512q-14 0 -22 6.5t-8 20.5q0 11 8.5 19t21.5 8h561q13 0 21.5 -9.5t8.5 -21.5q0 -9 -5 -16l-539 -680h514q13 0 21.5 -7t8.5 -20q0 -11 -9 -19t-21 -8h-561q-13 0 -21.5 9z" />
    <glyph glyph-name="Eta" unicode="&#x397;" horiz-adv-x="825" 
d="M108.5 8.5q-8.5 8.5 -8.5 21.5v721q0 13 8.5 21.5t21.5 8.5t21.5 -8.5t8.5 -21.5v-330h505v330q0 13 8.5 21.5t21.5 8.5q12 0 21 -8.5t9 -21.5v-721q0 -13 -9 -21.5t-21 -8.5q-13 0 -21.5 8.5t-8.5 21.5v337h-505v-337q0 -13 -8.5 -21.5t-21.5 -8.5t-21.5 8.5z" />
    <glyph glyph-name="Theta" unicode="&#x398;" horiz-adv-x="921" 
d="M256.5 42.5q-91.5 52.5 -144 144t-52.5 204.5q0 112 52.5 203.5t144 144t204.5 52.5q112 0 203.5 -52.5t144 -144t52.5 -203.5q0 -113 -52.5 -204.5t-144 -144t-203.5 -52.5q-113 0 -204.5 52.5zM634 94.5q78 44.5 122.5 122.5t44.5 174q0 95 -44.5 173t-122.5 122.5
t-173 44.5q-96 0 -174 -44.5t-122.5 -122.5t-44.5 -173q0 -96 44.5 -174t122.5 -122.5t174 -44.5q95 0 173 44.5zM264.5 367.5q-8.5 8.5 -8.5 21.5t8.5 22t21.5 9h345q13 0 21.5 -9t8.5 -22t-8.5 -21.5t-21.5 -8.5h-345q-13 0 -21.5 8.5z" />
    <glyph glyph-name="Iota" unicode="&#x399;" horiz-adv-x="260" 
d="M108.5 8.5q-8.5 8.5 -8.5 21.5v721q0 13 8.5 21.5t21.5 8.5t21.5 -8.5t8.5 -21.5v-721q0 -13 -8.5 -21.5t-21.5 -8.5t-21.5 8.5z" />
    <glyph glyph-name="Kappa" unicode="&#x39a;" horiz-adv-x="647" 
d="M109 8.5q-9 8.5 -9 21.5v721q0 13 9 21.5t21 8.5q13 0 21.5 -8.5t8.5 -21.5v-367l388 388q11 9 23 9q13 0 21.5 -9t8.5 -21q0 -11 -9 -22l-287 -287l290 -394q6 -9 6 -18q0 -12 -9 -21t-20 -9q-17 0 -26 13l-285 385l-101 -101v-267q0 -13 -8.5 -21.5t-21.5 -8.5
q-12 0 -21 8.5z" />
    <glyph glyph-name="Lambda" unicode="&#x39b;" horiz-adv-x="703" 
d="M690 30q0 -12 -9 -21t-21 -9q-20 0 -28 19l-278 663l-277 -663q-7 -19 -28 -19q-14 0 -22 9t-8 21q0 7 3 13l303 717q8 21 29 21q20 0 29 -21l304 -717q3 -6 3 -13z" />
    <glyph glyph-name="Mu" unicode="&#x39c;" horiz-adv-x="981" 
d="M873 772.5q8 -8.5 8 -21.5v-721q0 -13 -8 -21.5t-21 -8.5t-22 8.5t-9 21.5v613l-304 -619q-7 -14 -26 -14q-18 0 -28 19l-303 605v-604q0 -13 -8.5 -21.5t-21.5 -8.5t-21.5 8.5t-8.5 21.5v721q0 13 8.5 21.5t21.5 8.5q20 0 27 -15l336 -664l332 664q9 15 27 15
q13 0 21 -8.5z" />
    <glyph glyph-name="Nu" unicode="&#x39d;" horiz-adv-x="821" 
d="M108.5 8.5q-8.5 8.5 -8.5 21.5v721q0 13 8.5 21.5t21.5 8.5q14 0 23 -10l508 -661v641q0 13 8.5 21.5t21.5 8.5q12 0 21 -8.5t9 -21.5v-721q0 -13 -9 -21.5t-21 -8.5q-14 0 -22 9l-509 662v-641q0 -13 -8.5 -21.5t-21.5 -8.5t-21.5 8.5z" />
    <glyph glyph-name="Xi" unicode="&#x39e;" horiz-adv-x="625" 
d="M572 772.5q9 -8.5 9 -21.5q0 -12 -9 -21t-21 -9h-481q-13 0 -21.5 9t-8.5 21q0 13 8.5 21.5t21.5 8.5h481q12 0 21 -8.5zM532.5 412.5q8.5 -8.5 8.5 -21.5t-8.5 -22t-21.5 -9h-401q-12 1 -20.5 10t-8.5 21t8.5 20t21.5 10h400q13 0 21.5 -8.5zM572 51q9 -9 9 -21
q0 -13 -9 -21.5t-21 -8.5h-481q-13 0 -21.5 8.5t-8.5 21.5q0 12 8.5 21t21.5 9h481q12 0 21 -9z" />
    <glyph glyph-name="Omicron" unicode="&#x39f;" horiz-adv-x="921" 
d="M256.5 42.5q-91.5 52.5 -144 144t-52.5 204.5q0 112 52.5 203.5t144 144t204.5 52.5q112 0 203.5 -52.5t144 -144t52.5 -203.5q0 -113 -52.5 -204.5t-144 -144t-203.5 -52.5q-113 0 -204.5 52.5zM634 94.5q78 44.5 122.5 122.5t44.5 174q0 95 -44.5 173t-122.5 122.5
t-173 44.5q-96 0 -174 -44.5t-122.5 -122.5t-44.5 -173q0 -96 44.5 -174t122.5 -122.5t174 -44.5q95 0 173 44.5z" />
    <glyph glyph-name="Pi" unicode="&#x3a0;" horiz-adv-x="664" 
d="M91.5 8.5q-8.5 -8.5 -21.5 -8.5q-12 0 -21 8.5t-9 21.5v721q0 13 9 21.5t21 8.5h521q13 0 21.5 -8.5t8.5 -21.5v-721q0 -13 -8.5 -21.5t-21.5 -8.5t-21.5 8.5t-8.5 21.5v691h-461v-691q0 -13 -8.5 -21.5z" />
    <glyph glyph-name="Rho" unicode="&#x3a1;" horiz-adv-x="605" 
d="M108.5 8.5q-8.5 8.5 -8.5 21.5v721q0 14 8.5 22t21.5 8h200q72 0 129 -32t89 -89t32 -129q0 -73 -32 -130t-89 -89t-129 -32h-170v-250q0 -13 -8 -21.5t-22 -8.5q-13 0 -21.5 8.5zM330 340q55 0 98 24.5t67.5 68t24.5 98.5t-24.5 98t-67.5 67.5t-98 24.5h-170v-381h170z
" />
    <glyph glyph-name="Sigma" unicode="&#x3a3;" horiz-adv-x="625" 
d="M572 51q9 -9 9 -21q0 -13 -9 -21.5t-21 -8.5h-481q-13 0 -21.5 8.5t-8.5 21.5q0 9 5 16l267 345l-267 344q-5 8 -5 16q0 13 8.5 21.5t21.5 8.5h481q12 0 21 -8.5t9 -21.5q0 -12 -9 -21t-21 -9h-419l243 -313q6 -6 6 -17q0 -10 -6 -18l-243 -313h419q12 0 21 -9z" />
    <glyph glyph-name="Tau" unicode="&#x3a4;" horiz-adv-x="650" 
d="M627.5 773.5q7.5 -7.5 7.5 -19.5t-7.5 -19.5t-19.5 -7.5h-253v-697q0 -13 -8.5 -21.5t-21.5 -8.5t-21.5 8.5t-8.5 21.5v697h-253q-12 0 -19.5 7.5t-7.5 19.5t7.5 19.5t19.5 7.5h566q12 0 19.5 -7.5z" />
    <glyph glyph-name="Upsilon" unicode="&#x3a5;" horiz-adv-x="633" 
d="M620.5 773q7.5 -8 7.5 -20q0 -11 -5 -19l-276 -442v-262q0 -13 -8.5 -21.5t-21.5 -8.5t-21.5 8.5t-8.5 21.5v262l-276 442q-6 11 -6 19q0 12 8 20t21 8t24 -12l259 -422l255 415q7 11 13.5 15t15.5 4q12 0 19.5 -8z" />
    <glyph glyph-name="Phi" unicode="&#x3a6;" horiz-adv-x="851" 
d="M746 238q-45 -69 -123.5 -110.5t-176.5 -46.5v-51q0 -13 -8.5 -21.5t-21.5 -8.5t-21.5 8.5t-8.5 21.5v51q-93 7 -167.5 49t-116.5 110t-42 151q0 82 42 150t116.5 110t167.5 49v51q0 13 8.5 21.5t21.5 8.5t21.5 -8.5t8.5 -21.5v-51q98 -5 176.5 -46.5t123.5 -110
t45 -152.5t-45 -153zM591.5 179q65.5 34 102.5 89.5t37 122.5t-37 122t-102.5 89t-146.5 38v-499q81 4 146.5 38zM154.5 270.5q34.5 -54.5 96 -89t137.5 -40.5v499q-76 -6 -137.5 -40.5t-96 -89t-34.5 -119.5q0 -66 34.5 -120.5z" />
    <glyph glyph-name="Chi" unicode="&#x3a7;" horiz-adv-x="701" 
d="M657 29q0 -12 -7.5 -20.5t-20.5 -8.5q-6 0 -13 2.5t-10 7.5l-254 352l-254 -352q-9 -10 -23 -10q-13 0 -21.5 8t-8.5 20q0 11 7 21l257 355l-239 330q-7 8 -7 20q0 11 8 19t20 8q15 0 25 -13l235 -325l234 325q10 13 25 13q13 0 21.5 -10t8.5 -22q0 -8 -5 -15l-241 -332
l256 -353q7 -8 7 -20z" />
    <glyph glyph-name="Psi" unicode="&#x3a8;" horiz-adv-x="703" 
d="M48.5 772.5q8.5 8.5 21.5 8.5t21.5 -8.5t8.5 -21.5v-200q0 -60 27 -113t77 -89.5t116 -46.5v449q0 13 8.5 21.5t21.5 8.5t21.5 -8.5t8.5 -21.5v-449q66 10 116 46t77.5 89.5t27.5 113.5v200q0 13 8.5 21.5t21.5 8.5q12 0 21 -8.5t9 -21.5v-200q0 -77 -36 -144.5
t-100 -111.5t-145 -54v-211q0 -13 -8.5 -21.5t-21.5 -8.5t-21.5 8.5t-8.5 21.5v211q-82 10 -146 54.5t-99 112t-35 143.5v200q0 13 8.5 21.5z" />
    <glyph glyph-name="uni03A9" unicode="&#x3a9;" horiz-adv-x="901" 
d="M68.5 8.5q-8.5 8.5 -8.5 21.5q0 12 8.5 21t21.5 9h114q-78 52 -111 135t-33 196q0 106 52 195.5t141 142t197 52.5q106 0 195.5 -53t142.5 -143t53 -194q0 -118 -30 -195.5t-114 -135.5h114q13 0 21.5 -9t8.5 -21q0 -13 -8.5 -21.5t-21.5 -8.5h-241q-12 0 -20.5 8.5
t-8.5 21.5q0 12 8.5 21t20.5 9q58 0 106.5 44.5t76.5 120.5t28 166q0 88 -45 164t-121.5 121t-164.5 45t-164 -44.5t-121 -120.5t-45 -165q0 -90 28 -166t76.5 -120.5t105.5 -44.5q13 0 21.5 -9t8.5 -21q0 -13 -8.5 -21.5t-21.5 -8.5h-240q-13 0 -21.5 8.5z" />
    <glyph glyph-name="Iotadieresis" unicode="&#x3aa;" horiz-adv-x="260" 
d="M108.5 8.5q-8.5 8.5 -8.5 21.5v721q0 13 8.5 21.5t21.5 8.5t21.5 -8.5t8.5 -21.5v-721q0 -13 -8.5 -21.5t-21.5 -8.5t-21.5 8.5zM-7 906q-15 15 -15 37q0 21 15 36t37 15t36.5 -15t14.5 -36q0 -22 -14.5 -37t-36.5 -15t-37 15zM193 906q-15 15 -15 37q0 21 15 36t37 15
t36.5 -15t14.5 -36q0 -22 -14.5 -37t-36.5 -15t-37 15z" />
    <glyph glyph-name="Upsilondieresis" unicode="&#x3ab;" horiz-adv-x="633" 
d="M620.5 773q7.5 -8 7.5 -20q0 -11 -5 -19l-276 -442v-262q0 -13 -8.5 -21.5t-21.5 -8.5t-21.5 8.5t-8.5 21.5v262l-276 442q-6 11 -6 19q0 12 8 20t21 8t24 -12l259 -422l255 415q7 11 13.5 15t15.5 4q12 0 19.5 -8zM180 906q-15 15 -15 37q0 21 15 36t37 15t36.5 -15
t14.5 -36q0 -22 -14.5 -37t-36.5 -15t-37 15zM380 906q-15 15 -15 37q0 21 15 36t37 15t36.5 -15t14.5 -36q0 -22 -14.5 -37t-36.5 -15t-37 15z" />
    </font>
</defs>
</svg>
