<?xml version="1.0" standalone="no"?>
<!DOCTYPE svg PUBLIC "-//W3C//DTD SVG 1.1//EN" "http://www.w3.org/Graphics/SVG/1.1/DTD/svg11.dtd" >
<svg xmlns="http://www.w3.org/2000/svg" xmlns:xlink="http://www.w3.org/1999/xlink" version="1.1">
<metadata>
Created by FontForge 20161003 at Tue Nov 13 07:23:38 2018
 By www-data
Copyright 2011 The Comfortaa Project Authors (aajohan@gmail.com), with Reserved Font Name "Comfortaa".
</metadata>
<defs>
<font id="ComfortaaBold" horiz-adv-x="675" >
  <font-face 
    font-family="ComfortaaBold"
    font-weight="700"
    font-stretch="normal"
    units-per-em="1000"
    panose-1="0 0 8 0 0 0 0 0 0 0"
    ascent="800"
    descent="-200"
    x-height="545"
    cap-height="781"
    bbox="-875 -276 1283 1285"
    underline-thickness="50"
    underline-position="-150"
    unicode-range="U+000D-FB02"
  />
<missing-glyph horiz-adv-x="625" 
d="M580 768.5q12 -12.5 12 -29.5v-697q0 -17 -12 -29.5t-30 -12.5h-470q-18 0 -30.5 12.5t-12.5 29.5v697q0 17 12.5 29.5t30.5 12.5h470q18 0 30 -12.5zM112 707v-632h406v632h-406zM372.5 566q-20.5 20 -52.5 20q-41 0 -63 -22t-22 -63q0 -17 -11 -27.5t-28 -10.5
q-16 0 -27 11t-11 27q0 70 45 113t117 43q65 0 107 -40t42 -103q0 -51 -22.5 -84.5t-67.5 -69.5q-12 -10 -19.5 -28t-7.5 -36q0 -17 -10.5 -28t-27.5 -11t-28 11t-11 28q0 29 15 59t40 52q34 29 48.5 50t14.5 57q0 32 -20.5 52zM349 215q15 -15 15 -35t-14.5 -35t-35.5 -15
q-20 0 -35 14.5t-15 35.5q0 20 15 35t35 15t35 -15z" />
    <glyph glyph-name="fi" unicode="fi" horiz-adv-x="631" 
d="M339 515q13 -12 13 -32q0 -18 -13 -30t-34 -12h-103v-390q0 -21 -14.5 -36t-36.5 -15t-36.5 15t-14.5 36v390h-43q-21 0 -34 12t-13 30q0 20 13 32t34 12h43v17q0 116 70 180t217 64q72 0 115.5 -24t43.5 -62q0 -44 -54 -44q-18 0 -33.5 7.5t-34.5 21.5
q-24 16 -40.5 23.5t-37.5 7.5q-144 0 -144 -174v-17h103q21 0 34 -12zM521 533q14 -14 14 -37v-445q0 -22 -14 -36.5t-37 -14.5q-22 0 -36.5 14.5t-14.5 36.5v445q0 23 14.5 37t36.5 14q23 0 37 -14z" />
    <glyph glyph-name="fl" unicode="fl" horiz-adv-x="647" 
d="M624.5 86q12.5 -14 12.5 -36t-19 -36t-49 -14h-2q-43 0 -77.5 23.5t-53.5 66t-19 95.5v495q-38 9 -89 9q-57 0 -91.5 -36.5t-34.5 -98.5v-27h82q21 0 34 -12t13 -32q0 -18 -13 -30t-34 -12h-82v-390q0 -21 -14.5 -36t-36.5 -15t-36.5 15t-14.5 36v390h-43q-21 0 -34 12
t-13 30q0 20 13 32t34 12h43v17q0 66 25.5 120t75.5 85.5t122 31.5q46 0 103 -15l3 -1q14 16 38 16q22 0 36 -14t14 -36v-546q0 -37 14 -61t36 -24h25q20 0 32.5 -14z" />
    <glyph glyph-name="f_f" unicode="ff" horiz-adv-x="734" 
d="M236 652q-34 -37 -34 -98v-27h102q21 0 34 -12t13 -32q0 -18 -13 -30t-34 -12h-102v-390q0 -23 -14 -37t-39 -14q-20 0 -34.5 14t-14.5 37v390h-43q-21 0 -34 12t-13 30q0 20 13 32t34 12h43v17q0 71 28.5 124.5t80 83t117.5 29.5q22 0 36.5 -13t14.5 -33t-14.5 -33
t-36.5 -13q-56 0 -90 -37zM603 652q-34 -37 -34 -98v-27h102q21 0 34 -12t13 -32q0 -18 -13 -30t-34 -12h-102v-390q0 -23 -14 -37t-39 -14q-20 0 -34.5 14t-14.5 37v390h-43q-21 0 -34 12t-13 30q0 20 13 32t34 12h43v17q0 71 28.5 124.5t80 83t117.5 29.5q22 0 36.5 -13
t14.5 -33t-14.5 -33t-36.5 -13q-56 0 -90 -37z" />
    <glyph glyph-name="f_f_i" unicode="ffi" horiz-adv-x="1036" 
d="M236 652q-34 -37 -34 -98v-27h102q21 0 34 -12t13 -32q0 -18 -13 -30t-34 -12h-102v-390q0 -23 -14 -37t-39 -14q-20 0 -34.5 14t-14.5 37v390h-43q-21 0 -34 12t-13 30q0 20 13 32t34 12h43v17q0 71 28.5 124.5t80 83t117.5 29.5q22 0 36.5 -13t14.5 -33t-14.5 -33
t-36.5 -13q-56 0 -90 -37zM603 652q-34 -37 -34 -98v-27h102q21 0 34 -12t13 -32q0 -18 -13 -30t-34 -12h-102v-390q0 -23 -14 -37t-39 -14q-20 0 -34.5 14t-14.5 37v390h-43q-21 0 -34 12t-13 30q0 20 13 32t34 12h43v17q0 71 28.5 124.5t80 83t117.5 29.5q22 0 36.5 -13
t14.5 -33t-14.5 -33t-36.5 -13q-56 0 -90 -37zM848.5 14.5q-14.5 14.5 -14.5 36.5v445q0 23 14.5 37t36.5 14q23 0 37 -14t14 -37v-445q0 -22 -14 -36.5t-37 -14.5q-22 0 -36.5 14.5zM838.5 655.5q-19.5 19.5 -19.5 46.5t19.5 46.5t46.5 19.5t46.5 -19.5t19.5 -46.5
t-19.5 -46.5t-46.5 -19.5t-46.5 19.5z" />
    <glyph glyph-name="f_f_l" unicode="ffl" horiz-adv-x="1034" 
d="M236 652q-34 -37 -34 -98v-27h102q21 0 34 -12t13 -32q0 -18 -13 -30t-34 -12h-102v-390q0 -23 -14 -37t-39 -14q-20 0 -34.5 14t-14.5 37v390h-43q-21 0 -34 12t-13 30q0 20 13 32t34 12h43v17q0 71 28.5 124.5t80 83t117.5 29.5q22 0 36.5 -13t14.5 -33t-14.5 -33
t-36.5 -13q-56 0 -90 -37zM603 652q-34 -37 -34 -98v-27h102q21 0 34 -12t13 -32q0 -18 -13 -30t-34 -12h-102v-390q0 -23 -14 -37t-39 -14q-20 0 -34.5 14t-14.5 37v390h-43q-21 0 -34 12t-13 30q0 20 13 32t34 12h43v17q0 71 28.5 124.5t80 83t117.5 29.5q22 0 36.5 -13
t14.5 -33t-14.5 -33t-36.5 -13q-56 0 -90 -37zM876.5 23.5q-34.5 23.5 -53.5 66t-19 95.5v546q0 22 14 36t36 14t36 -14t14 -36v-546q0 -37 14 -61t36 -24h25q20 0 32.5 -14t12.5 -36t-19 -36t-49 -14h-2q-43 0 -77.5 23.5z" />
    <glyph glyph-name=".notdef" horiz-adv-x="625" 
d="M580 768.5q12 -12.5 12 -29.5v-697q0 -17 -12 -29.5t-30 -12.5h-470q-18 0 -30.5 12.5t-12.5 29.5v697q0 17 12.5 29.5t30.5 12.5h470q18 0 30 -12.5zM112 707v-632h406v632h-406zM372.5 566q-20.5 20 -52.5 20q-41 0 -63 -22t-22 -63q0 -17 -11 -27.5t-28 -10.5
q-16 0 -27 11t-11 27q0 70 45 113t117 43q65 0 107 -40t42 -103q0 -51 -22.5 -84.5t-67.5 -69.5q-12 -10 -19.5 -28t-7.5 -36q0 -17 -10.5 -28t-27.5 -11t-28 11t-11 28q0 29 15 59t40 52q34 29 48.5 50t14.5 57q0 32 -20.5 52zM349 215q15 -15 15 -35t-14.5 -35t-35.5 -15
q-20 0 -35 14.5t-15 35.5q0 20 15 35t35 15t35 -15z" />
    <glyph glyph-name=".null" horiz-adv-x="0" 
 />
    <glyph glyph-name="nonmarkingreturn" unicode="&#xd;" horiz-adv-x="293" 
 />
    <glyph glyph-name="NULL" horiz-adv-x="0" 
 />
    <glyph glyph-name="NULL" horiz-adv-x="0" 
 />
    <glyph glyph-name="space" unicode=" " horiz-adv-x="293" 
 />
    <glyph glyph-name="exclam" unicode="!" horiz-adv-x="288" 
d="M83 200q-15 15 -15 36v493q0 22 14.5 37t36.5 15t36.5 -15t14.5 -37v-493q0 -21 -15.5 -36t-35.5 -15q-21 0 -36 15zM70.5 20q-20.5 20 -20.5 49t20.5 49.5t48.5 20.5t48.5 -20.5t20.5 -49.5t-20.5 -49t-48.5 -20t-48.5 20z" />
    <glyph glyph-name="quotedbl" unicode="&#x22;" horiz-adv-x="273" 
d="M172 561q-12 12 -12 29l-10 140q0 21 15 36t36 15t36 -15t15 -36l-9 -140q-1 -17 -13 -29t-29 -12t-29 12zM52 561q-12 12 -13 29l-9 139q0 21 15 36t36 15q20 0 35 -15t15 -36l-9 -139q0 -17 -12 -29t-29 -12t-29 12z" />
    <glyph glyph-name="numbersign" unicode="#" horiz-adv-x="717" 
d="M661.5 540q12.5 -11 9.5 -32q-1 -19 -17.5 -30t-39.5 -11h-67l-24 -142h64q23 0 34.5 -10.5t11.5 -29.5q0 -17 -16.5 -30.5t-42.5 -13.5h-72l-33 -191q-4 -23 -17.5 -36.5t-36.5 -13.5q-18 0 -29 12t-11 31q0 7 1 11l31 187h-154l-32 -191q-4 -22 -18.5 -36t-35.5 -14
q-19 0 -30 10.5t-11 31.5q0 8 1 12l32 187h-69q-20 0 -32.5 9.5t-12.5 25.5q0 24 15.5 36.5t42.5 12.5h77l23 142h-74q-21 0 -33.5 9.5t-12.5 27.5q0 23 15.5 35t43.5 12h81l33 181q10 50 54 50q19 0 30 -11.5t11 -30.5q0 -8 -1 -12l-32 -177h154l33 181q4 22 18 36t36 14
q19 0 29.5 -11t10.5 -29q0 -9 -1 -14l-31 -177h60q22 0 34.5 -11zM428 325l24 142h-154l-23 -142h153z" />
    <glyph glyph-name="dollar" unicode="$" horiz-adv-x="636" 
d="M556.5 100.5q-30.5 -47.5 -81.5 -74.5t-112 -34v-63q0 -14 -8.5 -22.5t-22.5 -8.5q-13 0 -22 8.5t-9 22.5v62q-89 5 -158.5 43t-95.5 102q-4 9 -4 20q0 15 10 26t28 15q3 1 9 1q14 0 27.5 -9t20.5 -25q15 -33 60 -55t103 -27v273q-106 16 -167.5 73.5t-61.5 142.5
q0 86 64.5 140t164.5 63v48q0 14 9 22.5t22 8.5q14 0 22.5 -8.5t8.5 -22.5v-48q74 -6 123.5 -39.5t84.5 -92.5q11 -19 11 -35q0 -23 -19 -35q-10 -7 -24 -7q-13 0 -25 7t-19 20q-21 39 -52.5 62.5t-79.5 29.5v-251q104 -14 164 -71.5t60 -149.5q0 -64 -30.5 -111.5z
M199.5 491.5q28.5 -33.5 101.5 -49.5v243q-59 -6 -94.5 -36t-35.5 -79q0 -45 28.5 -78.5zM452 125.5q35 32.5 35 83.5q0 48 -31 84t-93 52v-261q54 9 89 41.5z" />
    <glyph glyph-name="percent" unicode="%" horiz-adv-x="859" 
d="M127 409q-46 27 -73 73t-27 99t27 99t73 73.5t100 27.5q53 0 99 -27.5t73 -73.5t27 -99t-27 -99t-72.5 -73t-99.5 -27t-100 27zM130.5 15q-14.5 15 -14.5 36t12 34l526 676q18 20 41 20q22 0 37 -15t15 -36q0 -17 -11 -31l-531 -683q-15 -16 -38 -16q-22 0 -36.5 15z
M295.5 512.5q28.5 28.5 28.5 68.5t-29 69t-68 29q-41 0 -69.5 -29t-28.5 -69t28.5 -68.5t69.5 -28.5q40 0 68.5 28.5zM533.5 27q-45.5 27 -72.5 72.5t-27 99.5t27 99.5t72.5 72.5t99.5 27q53 0 99 -26.5t73.5 -72.5t27.5 -100t-27 -99.5t-73 -72.5t-100 -27t-99.5 27z
M702 130.5q29 28.5 29 68.5t-29 68.5t-69 28.5t-68.5 -28.5t-28.5 -68.5t28.5 -68.5t68.5 -28.5t69 28.5z" />
    <glyph glyph-name="ampersand" unicode="&#x26;" horiz-adv-x="731" 
d="M704 43q0 -13 -14 -27q-16 -16 -32 -16q-14 0 -32 16l-110 110l-5 -6q-56 -64 -117.5 -99t-136.5 -35q-96 0 -154 52t-58 143q0 63 41 116.5t126 121.5l6 4l-52 52q-70 72 -70 155q0 47 24 86t66 61t94 22q53 0 95 -23t66 -63.5t24 -89.5q-1 -57 -29.5 -100.5
t-97.5 -98.5l180 -180l80 85q19 21 34 21q11 0 23 -12q16 -15 16 -32t-14 -32l-82 -87l111 -111q18 -18 18 -33zM284 477l11 8q49 39 66 70.5t18 69.5q0 40 -26.5 67t-72.5 27q-43 0 -70.5 -25.5t-27.5 -61.5q0 -53 49 -102zM459 183l-188 187l-13 -10q-58 -46 -88.5 -88
t-30.5 -87q0 -56 30.5 -84.5t87.5 -28.5q56 0 100.5 25.5t94.5 77.5z" />
    <glyph glyph-name="quotesingle" unicode="'" horiz-adv-x="156" 
d="M52 561q-12 12 -13 29l-9 139q0 21 15 36t36 15q20 0 35 -15t15 -36l-9 -139q0 -17 -12 -29t-29 -12t-29 12z" />
    <glyph glyph-name="parenleft" unicode="(" horiz-adv-x="273" 
d="M168.5 -226q-11.5 8 -20.5 26q-113 238 -113 474q0 241 113 471q7 17 20 26t28 9q22 0 36.5 -15.5t14.5 -37.5q-1 -16 -7 -26q-105 -213 -105 -428q0 -105 27 -214t79 -216q6 -12 6 -25q0 -22 -14.5 -37t-36.5 -15q-16 0 -27.5 8z" />
    <glyph glyph-name="parenright" unicode=")" horiz-adv-x="273" 
d="M40.5 -219q-14.5 15 -14.5 37q0 13 6 25q52 107 79 216t27 214q0 215 -105 428q-6 10 -7 26q0 22 14.5 37.5t36.5 15.5q15 0 28 -9t20 -26q113 -230 113 -471q0 -236 -113 -474q-9 -18 -20.5 -26t-27.5 -8q-22 0 -36.5 15z" />
    <glyph glyph-name="asterisk" unicode="*" horiz-adv-x="381" 
d="M88 495q-14 15 -14 36q0 26 24 42l40 29l-50 2q-21 2 -35.5 16.5t-14.5 34.5q0 22 16 36.5t35 14.5q16 0 32 -11l39 -28l-14 46q-3 9 -3 16q0 22 14.5 37t36.5 15t36.5 -15t14.5 -37q0 -7 -3 -16l-14 -47l39 29q14 11 32 11q19 0 35 -14.5t16 -36.5q0 -20 -13.5 -35
t-35.5 -16l-51 -2l41 -29q23 -17 23 -42q0 -22 -15.5 -36.5t-42.5 -14.5q-29 3 -41 35l-21 50l-20 -51q-5 -17 -18 -25.5t-31 -8.5q-23 0 -37 15z" />
    <glyph glyph-name="plus" unicode="+" horiz-adv-x="547" 
d="M237.5 162.5q-14.5 14.5 -14.5 36.5v134h-134q-22 0 -36.5 15t-14.5 37t14.5 36.5t36.5 14.5h134v134q0 21 15.5 36t35.5 15q22 0 36.5 -14.5t14.5 -36.5v-134h134q21 0 36.5 -15t15.5 -37q0 -21 -15.5 -36t-36.5 -15h-134v-134q0 -22 -14.5 -36.5t-36.5 -14.5
t-36.5 14.5z" />
    <glyph glyph-name="comma" unicode="," horiz-adv-x="245" 
d="M175 97q20 -26 20 -72q0 -41 -18.5 -88t-45.5 -78.5t-50 -31.5q-12 0 -18.5 7.5t-6.5 18.5q0 12 5 22.5t16 24.5q13 18 19 30.5t6 29.5q0 15 -6.5 25.5t-18.5 22.5q-13 13 -20 24t-7 28q0 27 18.5 45t48.5 18q38 0 58 -26z" />
    <glyph glyph-name="hyphen" unicode="-" horiz-adv-x="391" 
d="M50.5 237q-14.5 14 -14.5 36t14.5 36.5t36.5 14.5h223q22 0 36 -14.5t14 -36.5t-14 -36t-36 -14h-223q-22 0 -36.5 14z" />
    <glyph glyph-name="period" unicode="." horiz-adv-x="238" 
d="M70.5 4.5q-20.5 20.5 -20.5 48.5q0 29 20.5 49.5t48.5 20.5t48.5 -20.5t20.5 -49.5q0 -28 -20 -48.5t-49 -20.5q-28 0 -48.5 20.5z" />
    <glyph glyph-name="slash" unicode="/" horiz-adv-x="469" 
d="M362 773q13 8 28 8q21 0 35.5 -14.5t14.5 -35.5q0 -11 -4 -22l-301 -753q-6 -15 -19 -22.5t-28 -7.5q-21 0 -36 14.5t-15 35.5q0 10 5 22l301 753q6 14 19 22z" />
    <glyph glyph-name="zero" unicode="0" horiz-adv-x="578" 
d="M112.5 103q-62.5 103 -62.5 288t62.5 288t176.5 103q75 0 129 -47t82 -135t28 -209t-28 -209t-82 -135t-129 -47q-114 0 -176.5 103zM390.5 183q34.5 79 34.5 208q0 128 -35 208t-101 80q-67 0 -101.5 -79.5t-34.5 -208.5q0 -130 35 -208.5t101 -78.5q67 0 101.5 79z" />
    <glyph glyph-name="one" unicode="1" horiz-adv-x="393" 
d="M206 15q-15 15 -15 36v610l-73 -31q-17 -7 -32 -7q-22 0 -36.5 14t-14.5 36q0 17 8 29.5t25 18.5l156 56q12 4 19 4q22 0 36 -14.5t14 -37.5v-678q0 -21 -15 -36t-37 -15q-20 0 -35 15z" />
    <glyph glyph-name="two" unicode="2" horiz-adv-x="588" 
d="M79.5 15q-14.5 15 -14.5 36q0 22 14 36l284 332q63 72 63 125q0 65 -33.5 104t-91.5 39q-37 0 -68 -19.5t-48.5 -52.5t-17.5 -71q0 -20 -14.5 -35t-36.5 -15q-21 0 -36 15t-15 35q0 67 31 121t84.5 85t120.5 31t117.5 -29t78 -82.5t27.5 -125.5q0 -44 -25.5 -91.5
t-63.5 -90.5l-229 -260h280q22 0 37 -15t15 -36t-15 -36t-37 -15h-370q-22 0 -36.5 15z" />
    <glyph glyph-name="three" unicode="3" horiz-adv-x="599" 
d="M179.5 31.5q-58.5 31.5 -91.5 86t-33 122.5q0 22 13 37t33 15t33 -15t13 -37q0 -41 21 -75.5t57.5 -55t80.5 -20.5q67 0 107 37t40 102q0 41 -18 75.5t-49.5 54t-69.5 19.5q-22 0 -36.5 15t-14.5 37t14.5 36.5t36.5 14.5q28 0 54.5 14.5t43 39.5t16.5 55q0 44 -32 74
t-82 30q-38 0 -69.5 -15t-50 -40t-18.5 -56q0 -23 -13 -38.5t-33 -15.5t-33 14.5t-13 36.5q0 57 30 103.5t82 73t116 26.5q58 0 106 -25.5t75.5 -69.5t27.5 -98t-34 -93.5t-85 -62.5q76 -26 113 -79.5t37 -126.5q0 -64 -33 -116t-88.5 -81.5t-120.5 -29.5q-74 0 -132.5 31.5
z" />
    <glyph glyph-name="four" unicode="4" horiz-adv-x="653" 
d="M599 258q14 -11 14 -35q0 -19 -15 -32.5t-36 -13.5h-60v-126q0 -21 -14.5 -36t-35.5 -15q-20 0 -34 15t-14 36v126h-333q-23 0 -37 15t-14 35q0 17 10 30l383 502q17 22 42 22q21 0 34 -15t13 -37v-460h60q23 0 37 -11zM152 269h252v331z" />
    <glyph glyph-name="five" unicode="5" horiz-adv-x="629" 
d="M189.5 33.5q-58.5 33.5 -91.5 91.5t-33 130q0 22 14 36.5t36 14.5t37 -14.5t15 -36.5q0 -43 20 -78t54.5 -55t77.5 -20t78 20t55 55t20 78t-20 78t-55 55t-78 20h-167q-22 0 -36 14.5t-14 36.5v270q0 22 14 37t36 15h334q21 0 36 -15.5t15 -36.5q0 -20 -14.5 -35
t-36.5 -15h-283v-169h116q71 0 129.5 -33.5t92 -92t33.5 -129.5t-33.5 -129.5t-92 -92t-129.5 -33.5t-129.5 33.5z" />
    <glyph glyph-name="six" unicode="6" horiz-adv-x="581" 
d="M422.5 444.5q53.5 -30.5 83.5 -84.5t30 -123q0 -68 -30 -122t-83.5 -84.5t-121.5 -30.5q-69 0 -122.5 30.5t-83.5 84.5t-30 122q0 77 38 137l227 378q18 28 46 28q23 0 38 -15t15 -36q0 -15 -8 -27l-137 -227h17q68 0 121.5 -30.5zM401 131q39 41 39 106t-39 106.5
t-101 41.5q-61 0 -100 -41.5t-39 -106.5t38.5 -106t100.5 -41t101 41z" />
    <glyph glyph-name="seven" unicode="7" horiz-adv-x="547" 
d="M108 15q-15 15 -15 36q0 14 9 32l287 596h-304q-22 0 -36.5 14.5t-14.5 36.5t14.5 36.5t36.5 14.5h381q21 0 36 -15t15 -36q0 -11 -7 -27l-320 -675q-7 -13 -20 -20.5t-27 -7.5q-20 0 -35 15z" />
    <glyph glyph-name="eight" unicode="8" horiz-adv-x="581" 
d="M492.5 357.5q28.5 -50.5 28.5 -113.5q0 -68 -30 -123.5t-82.5 -87.5t-117.5 -32t-118 31.5t-83 86t-30 122.5q0 63 28.5 114.5t78.5 82.5q-35 26 -54.5 65t-19.5 85q0 56 26 101.5t71.5 71.5t102.5 26q55 0 99.5 -25.5t70 -70.5t25.5 -101q0 -47 -19.5 -86t-54.5 -65
q50 -31 78.5 -81.5zM220.5 513q28.5 -31 70.5 -31t70 32.5t28 78.5q0 44 -28 72.5t-70 28.5q-43 0 -71 -29.5t-28 -75.5q0 -45 28.5 -76zM384 341.5q-37 39.5 -93 39.5q-57 0 -94 -40.5t-37 -101.5q0 -40 17 -73.5t47 -53t67 -19.5t66.5 20t46.5 54.5t17 75.5q0 59 -37 98.5
z" />
    <glyph glyph-name="nine" unicode="9" horiz-adv-x="581" 
d="M478 408l-227 -378q-18 -28 -46 -28q-23 0 -38 15t-15 36q0 15 8 27l137 227h-17q-68 0 -121.5 30.5t-83.5 84.5t-30 123q0 68 30 122t83.5 84.5t121.5 30.5q69 0 122.5 -30.5t83.5 -84.5t30 -122q0 -77 -38 -137zM180 438.5q39 -41.5 101 -41.5q61 0 100 41.5t39 106.5
t-38.5 106t-100.5 41t-101 -41t-39 -106t39 -106.5z" />
    <glyph glyph-name="colon" unicode=":" horiz-adv-x="195" 
d="M43.5 428.5q-20.5 20.5 -20.5 48.5q0 29 20.5 49.5t48.5 20.5t48.5 -20.5t20.5 -49.5q0 -28 -20 -48.5t-49 -20.5q-28 0 -48.5 20.5zM54.5 4.5q-20.5 20.5 -20.5 48.5q0 29 20.5 49.5t48.5 20.5t48.5 -20.5t20.5 -49.5q0 -28 -20 -48.5t-49 -20.5q-28 0 -48.5 20.5z" />
    <glyph glyph-name="semicolon" unicode=";" horiz-adv-x="195" 
d="M175 97q20 -26 20 -72q0 -41 -18.5 -88t-45.5 -78.5t-50 -31.5q-12 0 -18.5 7.5t-6.5 18.5q0 12 5 22.5t16 24.5q13 18 19 30.5t6 29.5q0 15 -6.5 25.5t-18.5 22.5q-13 13 -20 24t-7 28q0 27 18.5 45t48.5 18q38 0 58 -26zM49.5 428.5q-20.5 20.5 -20.5 48.5
q0 29 20.5 49.5t48.5 20.5t48.5 -20.5t20.5 -49.5q0 -28 -20 -48.5t-49 -20.5q-28 0 -48.5 20.5z" />
    <glyph glyph-name="less" unicode="&#x3c;" horiz-adv-x="547" 
d="M511 125q0 -22 -16 -36.5t-36 -14.5q-14 0 -25 7l-369 221q-27 17 -27 46q0 26 27 45l369 222q14 6 26 6q21 0 36 -13.5t15 -34.5q0 -30 -25 -45l-301 -179l301 -180q25 -16 25 -44z" />
    <glyph glyph-name="equal" unicode="=" horiz-adv-x="508" 
d="M52 422.5q-14 14.5 -14 36.5t14 36.5t36 14.5h334q21 0 36 -15t15 -36q0 -22 -15 -36.5t-36 -14.5h-334q-22 0 -36 14.5zM52 199.5q-14 14.5 -14 36.5t14 36.5t36 14.5h334q21 0 36 -15t15 -36t-15 -36t-36 -15h-334q-22 0 -36 14.5z" />
    <glyph glyph-name="greater" unicode="&#x3e;" horiz-adv-x="547" 
d="M511 348q0 -29 -27 -46l-369 -221q-11 -7 -25 -7q-20 0 -36 14.5t-16 36.5q0 28 25 44l301 180l-301 179q-25 15 -25 45q0 21 15 34.5t36 13.5q12 0 26 -6l369 -222q27 -19 27 -45z" />
    <glyph glyph-name="question" unicode="?" horiz-adv-x="547" 
d="M375 667q-34 36 -91 36q-71 0 -107.5 -38.5t-36.5 -104.5q0 -22 -14 -36.5t-37 -14.5q-22 0 -36.5 14.5t-14.5 36.5q0 69 30.5 123t86.5 84t129 30q64 0 115.5 -27.5t80.5 -77t29 -112.5q0 -54 -17 -94.5t-46 -72t-75 -68.5q-24 -19 -35 -51t-11 -58q0 -22 -14 -36.5
t-37 -14.5q-22 0 -36.5 14.5t-14.5 36.5q0 42 21 88t61 80q38 32 57.5 53t33 51t13.5 72q0 51 -34 87zM323.5 118.5q20.5 -20.5 20.5 -49.5q0 -28 -20.5 -48.5t-49.5 -20.5q-28 0 -48.5 20.5t-20.5 48.5q0 29 20.5 49.5t48.5 20.5q29 0 49.5 -20.5z" />
    <glyph glyph-name="at" unicode="@" horiz-adv-x="1094" 
d="M284.5 -169.5q-115.5 64.5 -180 180t-64.5 262.5t64.5 262.5t180 180t262.5 64.5t262.5 -64.5t180 -180t64.5 -262.5q0 -92 -26 -164.5t-72 -113t-105 -40.5q-56 0 -91 30t-35 81v45q-29 -52 -81.5 -85t-106.5 -33q-78 0 -139 35.5t-95.5 99.5t-34.5 145t35.5 144.5
t99 99.5t144.5 36t145 -35.5t99.5 -99.5t35.5 -145v-160q0 -53 34 -53q24 0 44.5 27.5t32.5 76t12 109.5q0 117 -51.5 208.5t-143 143t-208.5 51.5t-208.5 -51.5t-143 -143t-51.5 -208.5t51.5 -208.5t143 -143t208.5 -51.5q40 0 86.5 9.5t79.5 24.5q20 9 34 9
q20 0 31.5 -14.5t11.5 -40.5q0 -27 -31 -48t-86.5 -32.5t-125.5 -11.5q-147 0 -262.5 64.5zM638 120q40 22 62 62t22 91t-22 91t-62 62t-91 22t-91 -22t-62 -62t-22 -91t22 -91t62 -62t91 -22t91 22z" />
    <glyph glyph-name="A" unicode="A" horiz-adv-x="703" 
d="M689 51q0 -21 -15 -36t-37 -15q-15 0 -28.5 8.5t-19.5 23.5l-56 140h-359l-57 -140q-7 -15 -20 -23.5t-28 -8.5q-22 0 -36.5 15.5t-14.5 36.5q0 10 5 23l281 671q15 35 49 35q36 0 49 -35l282 -673q5 -13 5 -22zM209 258h289l-143 356z" />
    <glyph glyph-name="B" unicode="B" horiz-adv-x="723" 
d="M115 15q-15 15 -15 37v677q0 23 15 37.5t37 14.5h239q67 0 119 -26.5t81.5 -74t29.5 -107.5q0 -49 -26.5 -88t-72.5 -63q68 -16 107 -64t39 -122q0 -68 -32.5 -122t-91 -84t-132.5 -30h-260q-22 0 -37 15zM391 460q59 0 94.5 29t35.5 84t-35.5 83.5t-94.5 28.5h-187v-225
h187zM412 96q70 0 113 36.5t43 103.5q0 62 -42.5 95t-113.5 33h-208v-268h208z" />
    <glyph glyph-name="C" unicode="C" horiz-adv-x="777" 
d="M254.5 43q-88.5 53 -139.5 145t-51 203q0 110 51 201.5t139.5 145t195.5 53.5q76 0 131.5 -20t112.5 -66q12 -9 16 -18.5t4 -22.5q0 -20 -14.5 -33t-33.5 -13t-35 13q-41 35 -80 50.5t-101 15.5q-78 0 -143.5 -41t-104 -111.5t-38.5 -153.5q0 -84 38.5 -154t104 -111
t143.5 -41q96 0 184 66q17 12 33 12q19 0 31.5 -13.5t12.5 -35.5q0 -21 -16 -37q-108 -87 -245 -87q-107 0 -195.5 53z" />
    <glyph glyph-name="D" unicode="D" horiz-adv-x="783" 
d="M115 15q-15 15 -15 37v677q0 23 15 37.5t37 14.5h181q113 0 201 -50t137 -138.5t49 -201.5t-49 -202t-137 -139t-201 -50h-181q-22 0 -37 15zM333 92q83 0 148.5 38t102 106.5t36.5 154.5t-36.5 154t-102 106t-148.5 38h-129v-597h129z" />
    <glyph glyph-name="E" unicode="E" horiz-adv-x="700" 
d="M115 15q-15 15 -15 37v677q0 23 15 37.5t37 14.5h452q23 0 37 -13.5t14 -35.5q0 -21 -14 -34t-37 -13h-400v-243h287q22 0 36.5 -13.5t14.5 -34.5t-14.5 -34.5t-36.5 -13.5h-287v-250h400q23 0 37 -13t14 -34q0 -22 -14 -35.5t-37 -13.5h-452q-22 0 -37 15z" />
    <glyph glyph-name="F" unicode="F" horiz-adv-x="625" 
d="M52 15q-15 15 -15 37v677q0 23 15 37.5t37 14.5h452q23 0 37 -13.5t14 -35.5q0 -21 -14 -34t-37 -13h-400v-243h287q22 0 36.5 -13.5t14.5 -34.5t-14.5 -34.5t-36.5 -13.5h-287v-294q0 -22 -15 -37t-37 -15t-37 15z" />
    <glyph glyph-name="G" unicode="G" horiz-adv-x="777" 
d="M696.5 390.5q14.5 -14.5 14.5 -37.5v-239q0 -24 -16 -37q-105 -87 -245 -87q-107 0 -195.5 53t-139.5 145t-51 203q0 110 51 201.5t139.5 145t195.5 53.5q76 0 131.5 -20t112.5 -66q12 -9 16 -18.5t4 -22.5q0 -20 -14.5 -33t-34.5 -13q-18 0 -34 13q-41 35 -80 50.5
t-101 15.5q-78 0 -143.5 -41t-104 -111.5t-38.5 -153.5q0 -84 38.5 -154t104 -111t143.5 -41q84 0 161 50v178h-138q-23 0 -37.5 13t-14.5 33t14.5 33t37.5 13h187q22 0 36.5 -14.5z" />
    <glyph glyph-name="H" unicode="H" horiz-adv-x="871" 
d="M115 15q-15 15 -15 37v677q0 23 15 37.5t37 14.5q23 0 37.5 -14.5t14.5 -37.5v-287h464v287q0 23 15 37.5t37 14.5t36.5 -14.5t14.5 -37.5v-677q0 -23 -14.5 -37.5t-36.5 -14.5t-37 15t-15 37v298h-464v-298q0 -22 -14.5 -37t-37.5 -15q-22 0 -37 15z" />
    <glyph glyph-name="I" unicode="I" horiz-adv-x="304" 
d="M115 15q-15 15 -15 37v677q0 23 15 37.5t37 14.5q23 0 37.5 -14.5t14.5 -37.5v-677q0 -22 -14.5 -37t-37.5 -15q-22 0 -37 15z" />
    <glyph glyph-name="J" unicode="J" horiz-adv-x="626" 
d="M160.5 20.5q-54.5 30.5 -85 85t-30.5 124.5q0 23 15 37.5t37 14.5q23 0 37.5 -14.5t14.5 -37.5q0 -64 38 -105t98 -41t98.5 41t38.5 105v499q0 23 14.5 37.5t36.5 14.5q23 0 38 -14.5t15 -37.5v-499q0 -70 -31 -124.5t-85.5 -85t-124.5 -30.5t-124.5 30.5z" />
    <glyph glyph-name="K" unicode="K" horiz-adv-x="667" 
d="M115.5 15q-15.5 15 -15.5 37v677q0 22 15.5 37t36.5 15q22 0 37 -15t15 -37v-300l331 331q12 12 21.5 16.5t21.5 4.5q21 0 32.5 -12.5t11.5 -30.5q0 -26 -19 -45l-255 -256l260 -354q10 -14 10 -32q0 -20 -13 -35.5t-33 -15.5q-28 0 -43 22l-253 343l-72 -72v-241
q0 -22 -15 -37t-37 -15q-21 0 -36.5 15z" />
    <glyph glyph-name="L" unicode="L" horiz-adv-x="642" 
d="M114.5 15q-14.5 15 -14.5 37v677q0 22 15 37t36 15q22 0 37 -15t15 -37v-625h362q22 0 37 -15t15 -37t-15 -37t-37 -15h-414q-22 0 -36.5 15z" />
    <glyph glyph-name="M" unicode="M" horiz-adv-x="982" 
d="M867 766q15 -15 15 -37v-677q0 -22 -15.5 -37t-36.5 -15q-22 0 -37 15t-15 37v497l-242 -493q-17 -26 -45 -26q-33 0 -48 31l-239 479v-488q0 -22 -15 -37t-37 -15t-37 15t-15 37v677q0 22 15 37t37 15q30 0 46 -28l297 -595l289 595q16 28 46 28q22 0 37 -15z" />
    <glyph glyph-name="N" unicode="N" horiz-adv-x="830" 
d="M114.5 14.5q-14.5 14.5 -14.5 37.5v677q0 23 14.5 37.5t36.5 14.5q11 0 22 -5.5t18 -13.5l436 -580v547q0 23 15 37.5t37 14.5t36.5 -14.5t14.5 -37.5v-677q0 -23 -14.5 -37.5t-36.5 -14.5q-11 0 -22.5 4.5t-17.5 13.5l-436 580v-546q0 -22 -14.5 -37t-37.5 -15
q-22 0 -36.5 14.5z" />
    <glyph glyph-name="O" unicode="O" horiz-adv-x="921" 
d="M254.5 41q-90.5 51 -140.5 142.5t-50 207.5t50 207t140.5 142t206.5 51q115 0 205.5 -51t141 -142t50.5 -207t-50.5 -207.5t-140.5 -142.5t-206 -51t-206.5 51zM614 124.5q68 40.5 106 110.5t38 156t-38 156t-105.5 110t-153.5 40t-153.5 -40t-105.5 -110t-38 -156
t38 -156t106 -110.5t153 -40.5t153 40.5z" />
    <glyph glyph-name="P" unicode="P" horiz-adv-x="623" 
d="M115 15q-15 15 -15 37v677q0 23 15 37.5t37 14.5h200q74 0 132.5 -33t91 -92t32.5 -134q0 -73 -32.5 -130t-91 -89t-132.5 -32h-148v-219q0 -22 -14.5 -37t-37.5 -15q-22 0 -37 15zM352 367q68 0 112 43.5t44 111.5q0 71 -44 117t-112 46h-148v-318h148z" />
    <glyph glyph-name="Q" unicode="Q" horiz-adv-x="921" 
d="M805 86q15 -16 15 -35q0 -20 -15 -35q-16 -16 -35 -16q-18 0 -36 16l-41 41q-100 -67 -232 -67q-116 0 -206.5 51t-140.5 142.5t-50 207.5t50 207t140.5 142t206.5 51q115 0 205.5 -51t141 -142t50.5 -207q0 -79 -23.5 -147t-67.5 -120zM621 129l-96 96q-16 18 -16 36
q0 19 16 35t36 16t35 -16l99 -100q63 83 63 195q0 86 -38 156t-105.5 110t-153.5 40t-153.5 -40t-105.5 -110t-38 -156t38 -156t106 -110.5t153 -40.5q90 0 160 45z" />
    <glyph glyph-name="R" unicode="R" horiz-adv-x="632" 
d="M617 47q0 -20 -13.5 -33.5t-36.5 -13.5q-29 0 -45 25l-172 276h-18h-128v-249q0 -22 -14.5 -37t-37.5 -15q-22 0 -37 15t-15 37v677q0 23 15 37.5t37 14.5h180q74 0 132.5 -31t91 -87t32.5 -128q0 -71 -36 -126t-98 -83l153 -246q10 -16 10 -33zM332 397q68 0 112 38.5
t44 99.5q0 66 -44 108t-112 42h-128v-288h128z" />
    <glyph glyph-name="S" unicode="S" horiz-adv-x="688" 
d="M171.5 34q-79.5 44 -109.5 115q-5 12 -5 20q0 15 11 26.5t30 15.5q3 1 10 1q16 0 30.5 -9.5t21.5 -25.5q18 -39 71 -66t117 -27q75 0 127 34.5t52 94.5q0 57 -44 97.5t-134 49.5q-124 12 -195 72.5t-71 151.5q0 64 36.5 110.5t100 71t142.5 24.5q86 0 145 -35t100 -100
q12 -19 12 -36q0 -22 -20 -36q-11 -7 -26 -7t-28 7.5t-20 20.5q-27 45 -67.5 68.5t-102.5 23.5q-76 0 -123 -29.5t-47 -85.5q0 -52 42 -87t150 -46q120 -12 186 -72.5t66 -159.5q0 -72 -39 -123.5t-103.5 -77t-138.5 -25.5q-97 0 -176.5 44z" />
    <glyph glyph-name="T" unicode="T" horiz-adv-x="661" 
d="M632.5 767.5q13.5 -13.5 13.5 -34.5t-13.5 -34.5t-34.5 -13.5h-215v-633q0 -22 -15 -37t-37 -15t-37 15t-15 37v633h-216q-21 0 -34.5 13.5t-13.5 34.5t13.5 34.5t34.5 13.5h535q21 0 34.5 -13.5z" />
    <glyph glyph-name="U" unicode="U" horiz-adv-x="845" 
d="M257.5 19.5q-74.5 35.5 -116 98.5t-41.5 144v467q0 23 15 37.5t37 14.5q23 0 37.5 -14.5t14.5 -37.5v-467q0 -53 28.5 -95t79 -65.5t115.5 -23.5q62 0 111 23.5t76.5 65.5t27.5 95v467q0 23 15 37.5t37 14.5t36.5 -14.5t14.5 -37.5v-467q0 -80 -40.5 -143.5t-113 -99
t-164.5 -35.5q-95 0 -169.5 35.5z" />
    <glyph glyph-name="V" unicode="V" horiz-adv-x="737" 
d="M704.5 769q12.5 -12 12.5 -31q0 -12 -6 -26l-296 -679q-13 -33 -47 -33q-32 0 -47 33l-293 670q-8 21 -8 35q0 20 12.5 31.5t34.5 11.5q35 0 48 -31l252 -604l256 604q7 18 18 24.5t29 6.5q22 0 34.5 -12z" />
    <glyph glyph-name="W" unicode="W" horiz-adv-x="938" 
d="M917 769q10 -12 10 -32q0 -15 -4 -28l-201 -667q-7 -19 -20.5 -30.5t-31.5 -11.5t-32 11.5t-20 29.5l-149 576l-151 -575q-7 -19 -20.5 -30.5t-31.5 -11.5t-32 11t-20 30l-201 668q-4 13 -4 27q0 21 11.5 33t31.5 12q18 0 31.5 -10t19.5 -29l164 -570l151 564q4 15 18 25
t32 10q17 0 31 -9t18 -25l153 -569l166 579q5 18 17.5 26t33.5 8q20 0 30 -12z" />
    <glyph glyph-name="X" unicode="X" horiz-adv-x="716" 
d="M657 84q11 -16 11 -34q0 -20 -13 -35t-35 -15q-25 0 -40 19l-217 301l-230 -305q-15 -15 -36 -15q-22 0 -34.5 14t-12.5 34t12 36l233 310l-220 305q-10 13 -10 31q0 21 13 36t35 15q26 0 37 -15l215 -298l224 298q14 15 37 15q21 0 33.5 -14t12.5 -34q0 -17 -11 -34
l-228 -304z" />
    <glyph glyph-name="Y" unicode="Y" horiz-adv-x="670" 
d="M652.5 767q12.5 -14 12.5 -34q0 -17 -10 -33l-269 -415v-233q0 -22 -15 -37t-37 -15q-21 0 -36 15t-15 37v233l-267 415q-11 17 -11 32q0 21 15.5 35t36.5 14q16 0 26 -7t20 -22l234 -371l238 375q16 25 46 25q19 0 31.5 -14z" />
    <glyph glyph-name="Z" unicode="Z" horiz-adv-x="742" 
d="M69 16q-14 16 -14 37q0 18 10 31l489 605h-438q-24 0 -37 12t-12 32q-1 21 13.5 34.5t37.5 13.5h516q24 0 38.5 -15.5t14.5 -36.5q0 -16 -11 -30l-491 -607h449q22 0 36.5 -13.5t14.5 -31.5q0 -22 -14 -34.5t-37 -12.5h-528q-23 0 -37 16z" />
    <glyph glyph-name="bracketleft" unicode="[" horiz-adv-x="321" 
d="M80 -219.5q-15 14.5 -15 37.5v911q0 23 15 38t37 15h152q22 0 37 -15t15 -38q0 -22 -15 -36.5t-37 -14.5h-100v-808h100q23 0 37.5 -15t14.5 -37q0 -23 -14.5 -37.5t-37.5 -14.5h-152q-22 0 -37 14.5z" />
    <glyph glyph-name="backslash" unicode="\" horiz-adv-x="469" 
d="M356 -70.5q-14 8.5 -20 22.5l-303 756q-4 9 -4 21q0 23 15 38t37 15q36 0 48 -31l302 -757q5 -10 5 -21q0 -22 -15 -37t-37 -15q-14 0 -28 8.5z" />
    <glyph glyph-name="bracketright" unicode="]" horiz-adv-x="321" 
d="M52 -234q-22 0 -37 14.5t-15 37.5q0 22 15 37t37 15h100v808h-100q-22 0 -37 14.5t-15 36.5q0 23 15 38t37 15h152q22 0 37 -15t15 -38v-911q0 -23 -14.5 -37.5t-37.5 -14.5h-152z" />
    <glyph glyph-name="asciicircum" unicode="^" horiz-adv-x="469" 
d="M51.5 470.5q-14.5 14.5 -14.5 36.5q0 15 7 27l150 225q16 22 42 22t42 -22l150 -225q8 -13 8 -27q0 -21 -15 -36t-36 -15q-25 0 -42 20l-107 161l-107 -161q-15 -20 -41 -20q-22 0 -36.5 14.5z" />
    <glyph glyph-name="underscore" unicode="_" horiz-adv-x="469" 
d="M-28.5 -87q-14.5 15 -14.5 36q0 22 14.5 36.5t36.5 14.5h469q21 0 35.5 -15t14.5 -36t-15 -36t-35 -15h-469q-22 0 -36.5 15z" />
    <glyph glyph-name="grave" unicode="`" horiz-adv-x="273" 
d="M146 597l-98 97q-13 13 -13 35t14 37t36 15q20 0 37 -15l97 -98q13 -13 13 -34q0 -22 -14.5 -36.5t-36.5 -14.5t-35 14z" />
    <glyph glyph-name="a" unicode="a" 
d="M477.5 514.5q62.5 -36.5 99 -100t36.5 -141.5v-223q0 -22 -14.5 -36.5t-36.5 -14.5t-36.5 14.5t-14.5 36.5v37q-35 -43 -85 -67t-108 -24q-72 0 -130.5 36t-92 99.5t-33.5 141.5t36 141.5t99.5 100t140.5 36.5t139.5 -36.5zM428.5 110.5q40.5 24.5 63.5 67t23 95.5
t-23 96t-63.5 67.5t-90.5 24.5t-90.5 -24.5t-64 -67.5t-23.5 -96t23.5 -95.5t64 -67t90.5 -24.5t90.5 24.5z" />
    <glyph glyph-name="b" unicode="b" horiz-adv-x="703" 
d="M515.5 515q58.5 -36 92 -99.5t33.5 -141.5t-36 -141.5t-99.5 -100t-140.5 -36.5t-139.5 36.5t-99 100t-36.5 141.5v456q0 23 14.5 37t36.5 14q23 0 37 -14t14 -37v-270q35 43 85 67t108 24q72 0 130.5 -36zM455.5 110.5q40.5 24.5 64 67.5t23.5 96t-23.5 95.5t-64 67
t-90.5 24.5t-90.5 -24.5t-63.5 -67t-23 -95.5t23 -96t63.5 -67.5t90.5 -24.5t90.5 24.5z" />
    <glyph glyph-name="c" unicode="c" horiz-adv-x="601" 
d="M196 32q-63 36 -98.5 99.5t-35.5 141.5q0 80 34.5 143.5t96.5 99t140 35.5q118 0 196 -90q10 -11 10 -26q0 -22 -22 -37q-10 -7 -23 -7q-23 0 -39 18q-25 27 -54.5 39.5t-67.5 12.5q-77 0 -125 -51.5t-48 -136.5q0 -54 22.5 -96.5t63 -66.5t92.5 -24q68 0 110 35
q19 14 37 14q14 0 26 -9q19 -16 19 -36q0 -15 -12 -27q-72 -67 -180 -67q-79 0 -142 36z" />
    <glyph glyph-name="d" unicode="d" horiz-adv-x="703" 
d="M599 767q14 -14 14 -37v-456q0 -78 -36.5 -141.5t-99 -100t-139.5 -36.5t-140.5 36.5t-99.5 100t-36 141.5t33.5 141.5t92 99.5t130.5 36q58 0 108 -24t85 -67v270q0 23 14.5 37t36.5 14q23 0 37 -14zM428.5 110.5q40.5 24.5 63.5 67.5t23 96t-23 95.5t-63.5 67
t-90.5 24.5t-90.5 -24.5t-64 -67t-23.5 -95.5t23.5 -96t64 -67.5t90.5 -24.5t90.5 24.5z" />
    <glyph glyph-name="e" unicode="e" horiz-adv-x="621" 
d="M568 250.5q-13 -12.5 -33 -12.5h-380q11 -70 63.5 -113t128.5 -43q30 0 62.5 11t53.5 27q14 11 33 11t30 -10q18 -15 18 -34q0 -18 -16 -30q-34 -27 -84.5 -44t-96.5 -17q-82 0 -147 35.5t-101.5 98.5t-36.5 143t34.5 143.5t96 99t139.5 35.5q77 0 133 -34t86 -95
t30 -140q0 -19 -13 -31.5zM213.5 425q-45.5 -40 -57.5 -107h333q-9 67 -50 107t-107 40q-73 0 -118.5 -40z" />
    <glyph glyph-name="f" unicode="f" horiz-adv-x="367" 
d="M236 652q-34 -37 -34 -98v-27h102q21 0 34 -12t13 -32q0 -18 -13 -30t-34 -12h-102v-390q0 -23 -14 -37t-39 -14q-20 0 -34.5 14t-14.5 37v390h-43q-21 0 -34 12t-13 30q0 20 13 32t34 12h43v17q0 71 28.5 124.5t80 83t117.5 29.5q22 0 36.5 -13t14.5 -33t-14.5 -33
t-36.5 -13q-56 0 -90 -37z" />
    <glyph glyph-name="g" unicode="g" 
d="M479.5 515.5q62.5 -35.5 98 -98.5t35.5 -144v-216q0 -79 -35 -144t-98.5 -102.5t-143.5 -37.5q-72 0 -134 28.5t-104 81.5q-11 14 -11 28q0 21 21 36q14 9 28 9q25 0 41 -21q27 -35 68 -53.5t93 -18.5q49 0 89 23.5t64 69t24 108.5v49q-31 -55 -82 -86t-115 -31
q-74 0 -132.5 35.5t-91 98.5t-32.5 143q0 81 35 144t98 98.5t143 35.5q79 0 141.5 -35.5zM429.5 110q40.5 24 63 66.5t22.5 96.5t-22.5 97t-63 67t-91.5 24t-91.5 -24t-63.5 -67t-23 -97t23 -96.5t63.5 -66.5t91.5 -24t91.5 24z" />
    <glyph glyph-name="h" unicode="h" horiz-adv-x="683" 
d="M486 522q55 -30 86 -87.5t31 -138.5v-246q0 -22 -14.5 -36.5t-36.5 -14.5t-36.5 14.5t-14.5 36.5v246q0 81 -43.5 122.5t-115.5 41.5q-42 0 -76.5 -17t-54 -46t-19.5 -65v-282q0 -22 -14 -36.5t-37 -14.5q-22 0 -36.5 14.5t-14.5 36.5v680q0 23 14.5 37t36.5 14
q23 0 37 -14t14 -37v-245q32 32 76 49.5t94 17.5q69 0 124 -30z" />
    <glyph glyph-name="i" unicode="i" horiz-adv-x="302" 
d="M114.5 14.5q-14.5 14.5 -14.5 36.5v445q0 23 14.5 37t36.5 14q23 0 37 -14t14 -37v-445q0 -22 -14 -36.5t-37 -14.5q-22 0 -36.5 14.5zM104.5 655.5q-19.5 19.5 -19.5 46.5t19.5 46.5t46.5 19.5t46.5 -19.5t19.5 -46.5t-19.5 -46.5t-46.5 -19.5t-46.5 19.5z" />
    <glyph glyph-name="j" unicode="j" horiz-adv-x="287" 
d="M-86 -219.5q-14 14.5 -14 36.5t14 36.5t36 14.5q59 0 97 37.5t38 96.5v494q0 23 14.5 37t36.5 14q23 0 37 -14t14 -37v-494q0 -68 -30 -122t-84 -84t-123 -30q-22 0 -36 14.5zM89.5 655.5q-19.5 19.5 -19.5 46.5t19.5 46.5t46.5 19.5t46.5 -19.5t19.5 -46.5t-19.5 -46.5
t-46.5 -19.5t-46.5 19.5z" />
    <glyph glyph-name="k" unicode="k" horiz-adv-x="569" 
d="M514 42q0 -22 -18 -37q-15 -12 -32 -12q-22 0 -36 18l-190 235l-50 -44v-153q0 -22 -13.5 -35.5t-35.5 -13.5t-35.5 13.5t-13.5 35.5v683q0 22 13.5 35.5t35.5 13.5t35.5 -13.5t13.5 -35.5v-407l243 217q13 13 31 13q21 0 34 -16q13 -13 13 -31q0 -21 -16 -34l-184 -164
l194 -238q11 -12 11 -30z" />
    <glyph glyph-name="l" unicode="l" horiz-adv-x="300" 
d="M142.5 23.5q-34.5 23.5 -53.5 66t-19 95.5v546q0 22 14 36t36 14t36 -14t14 -36v-546q0 -37 14 -61t36 -24h25q20 0 32.5 -14t12.5 -36t-19 -36t-49 -14h-2q-43 0 -77.5 23.5z" />
    <glyph glyph-name="m" unicode="m" horiz-adv-x="938" 
d="M805.5 495q53.5 -57 53.5 -159v-286q0 -22 -14 -36.5t-37 -14.5q-22 0 -36.5 14.5t-14.5 36.5v286q0 61 -30.5 92.5t-81.5 31.5q-52 0 -85.5 -36t-33.5 -92v-282q0 -22 -14 -36.5t-37 -14.5q-22 0 -36.5 14.5t-14.5 36.5v286q0 61 -30.5 92.5t-81.5 31.5q-53 0 -86.5 -36
t-33.5 -92v-282q0 -22 -14 -36.5t-37 -14.5q-22 0 -36.5 14.5t-14.5 36.5v445q0 23 14.5 37t36.5 14t36 -13.5t15 -35.5q26 26 62 40.5t78 14.5q51 0 91.5 -20.5t66.5 -58.5q30 37 75 58t100 21q87 0 140.5 -57z" />
    <glyph glyph-name="n" unicode="n" horiz-adv-x="682" 
d="M486 522q55 -30 86 -87.5t31 -138.5v-246q0 -22 -14.5 -36.5t-36.5 -14.5t-36.5 14.5t-14.5 36.5v246q0 81 -43.5 122.5t-115.5 41.5q-42 0 -76.5 -17t-54 -46t-19.5 -65v-282q0 -22 -14 -36.5t-37 -14.5q-22 0 -36.5 14.5t-14.5 36.5v446q0 23 14.5 37t36.5 14
q23 0 37 -14t14 -37v-11q32 32 76 49.5t94 17.5q69 0 124 -30z" />
    <glyph glyph-name="o" unicode="o" 
d="M195 31.5q-63 35.5 -98 98.5t-35 143q0 81 35 144t98 98.5t143 35.5q79 0 141.5 -35.5t98 -98.5t35.5 -144q0 -80 -35 -143t-97.5 -98.5t-142.5 -35.5t-143 35.5zM429.5 110q40.5 24 63 66.5t22.5 96.5t-22.5 97t-63 67t-91.5 24t-91.5 -24t-63.5 -67t-23 -97t23 -96.5
t63.5 -66.5t91.5 -24t91.5 24z" />
    <glyph glyph-name="p" unicode="p" horiz-adv-x="703" 
d="M505.5 514.5q63.5 -36.5 99.5 -100t36 -141.5t-33.5 -141.5t-92 -99.5t-130.5 -36q-58 0 -108 24t-85 67v-270q0 -23 -14 -37t-37 -14q-22 0 -36.5 14t-14.5 37v456q0 78 36.5 141.5t99 100t139.5 36.5t140.5 -36.5zM455.5 110.5q40.5 24.5 64 67t23.5 95.5t-23.5 96
t-64 67.5t-90.5 24.5t-90.5 -24.5t-63.5 -67.5t-23 -96t23 -95.5t63.5 -67t90.5 -24.5t90.5 24.5z" />
    <glyph glyph-name="q" unicode="q" horiz-adv-x="703" 
d="M477.5 514.5q62.5 -36.5 99 -100t36.5 -141.5v-456q0 -23 -14 -37t-37 -14q-22 0 -36.5 14t-14.5 37v270q-35 -43 -85 -67t-108 -24q-72 0 -130.5 36t-92 99.5t-33.5 141.5t36 141.5t99.5 100t140.5 36.5t139.5 -36.5zM428.5 110.5q40.5 24.5 63.5 67t23 95.5t-23 96
t-63.5 67.5t-90.5 24.5t-90.5 -24.5t-64 -67.5t-23.5 -96t23.5 -95.5t64 -67t90.5 -24.5t90.5 24.5z" />
    <glyph glyph-name="r" unicode="r" horiz-adv-x="486" 
d="M441 537q30 -16 30 -40q0 -7 -1 -10q-9 -32 -40 -32q-5 0 -15 2q-40 7 -65 7q-72 0 -116 -33t-44 -89v-292q0 -24 -12.5 -37t-37.5 -13q-24 0 -37 12.5t-13 37.5v447q0 24 13 37t37 13q50 0 50 -50v-19q30 35 74 55t94 20q53 0 83 -16z" />
    <glyph glyph-name="s" unicode="s" horiz-adv-x="543" 
d="M161 17q-60 21 -94 55q-13 13 -13 31q0 24 20 39q19 14 35 14q20 0 38 -18q19 -21 57 -36.5t81 -15.5q57 0 88.5 19t31.5 51q0 31 -31 51.5t-105 34.5q-192 37 -192 158q0 49 29 83t76 51t100 17q65 0 116.5 -21t81.5 -58q13 -16 13 -32q0 -17 -17 -31q-11 -8 -28 -8
q-26 0 -47 19q-25 23 -53 32.5t-68 9.5q-46 0 -75.5 -15.5t-29.5 -43.5q0 -20 10 -33.5t38 -25t81 -22.5q109 -22 154.5 -61t45.5 -101q0 -46 -25 -83.5t-73.5 -59t-116.5 -21.5t-128 21z" />
    <glyph glyph-name="t" unicode="t" horiz-adv-x="401" 
d="M353.5 86q12.5 -14 12.5 -36t-16.5 -36t-42.5 -14h-18q-49 0 -89.5 25.5t-63.5 69.5t-23 99v247h-46q-21 0 -34 12t-13 30q0 20 13 32t34 12h46v144q0 22 14 36t36 14t36 -14t14 -36v-144h85q21 0 34 -12t13 -32q0 -18 -13 -30t-34 -12h-85v-247q0 -40 22 -67t54 -27h34
q18 0 30.5 -14z" />
    <glyph glyph-name="u" unicode="u" horiz-adv-x="682" 
d="M578 534q14 -14 14 -37v-446q0 -22 -14 -36.5t-37 -14.5q-22 0 -36.5 14.5t-14.5 36.5v11q-32 -32 -76 -49.5t-94 -17.5q-69 0 -124 30t-86 87.5t-31 138.5v246q0 22 14.5 36.5t36.5 14.5t36.5 -14.5t14.5 -36.5v-246q0 -81 43.5 -122.5t115.5 -41.5q42 0 76.5 17t54 46
t19.5 65v282q0 23 14.5 37t36.5 14q23 0 37 -14z" />
    <glyph glyph-name="v" unicode="v" horiz-adv-x="548" 
d="M531 523.5q7 -10.5 7 -23.5q0 -9 -5 -19l-212 -447q-15 -33 -46 -33q-17 0 -28 7.5t-20 25.5l-212 447q-4 8 -4 18q0 27 28 41q9 5 21 5t23 -6.5t17 -18.5l174 -375l172 375q6 12 17.5 18.5t24.5 6.5t23 -5q13 -6 20 -16.5z" />
    <glyph glyph-name="w" unicode="w" horiz-adv-x="728" 
d="M702.5 536q10.5 -11 10.5 -30q0 -16 -5 -29l-148 -444q-5 -14 -18 -23.5t-29 -9.5q-17 0 -30.5 9.5t-17.5 23.5l-98 363l-103 -363q-5 -14 -18.5 -23.5t-29.5 -9.5t-29.5 9.5t-18.5 23.5l-148 444q-4 13 -4 28q0 42 42 42q19 0 31.5 -11t20.5 -35l108 -337l102 345
q5 17 17.5 27.5t32.5 10.5q19 0 31.5 -10.5t17.5 -27.5l90 -352l110 344q14 46 52 46q21 0 31.5 -11z" />
    <glyph glyph-name="x" unicode="x" horiz-adv-x="557" 
d="M519 42q0 -18 -12.5 -30t-32.5 -12q-24 0 -36 16l-159 190l-151 -190q-15 -16 -36 -16q-20 0 -31.5 12t-11.5 30q0 20 14 37l155 194l-165 195q-15 18 -15 38q0 17 11.5 29t32.5 12q24 0 38 -17l164 -196l147 196q13 17 37 17q20 0 31.5 -12.5t11.5 -30.5q0 -22 -14 -40
l-151 -197l159 -190q14 -15 14 -35z" />
    <glyph glyph-name="y" unicode="y" horiz-adv-x="539" 
d="M539 503q0 -10 -6 -24l-306 -688q-12 -31 -39 -31q-10 0 -24 6q-30 13 -30 39q0 12 6 24l100 225l-225 427q-5 9 -5 21q0 13 8 24t21 17q9 4 20 4q28 0 42 -28l183 -364l161 363q13 29 39 29q13 0 24 -5q31 -12 31 -39z" />
    <glyph glyph-name="z" unicode="z" horiz-adv-x="540" 
d="M500 47q0 -47 -47 -47h-341q-47 0 -47 47q0 20 9 32l283 374h-255q-47 0 -47 47t47 47h341q47 0 47 -47q0 -20 -9 -32l-282 -374h254q47 0 47 -47z" />
    <glyph glyph-name="braceleft" unicode="{" horiz-adv-x="391" 
d="M147 -71v233q0 61 -60 61q-22 0 -36.5 14t-14.5 36t14.5 36.5t36.5 14.5q60 0 60 61v233q0 163 163 163q22 0 36 -15t14 -37t-14 -36t-36 -14q-61 0 -61 -61v-233q0 -69 -32 -112q32 -41 32 -111v-233q0 -61 61 -61q22 0 36 -14.5t14 -36.5t-14 -36.5t-36 -14.5
q-163 0 -163 163z" />
    <glyph glyph-name="bar" unicode="|" horiz-adv-x="391" 
d="M161.5 -219.5q-14.5 14.5 -14.5 36.5v913q0 22 14.5 36.5t36.5 14.5t36.5 -14.5t14.5 -36.5v-913q0 -22 -14.5 -36.5t-36.5 -14.5t-36.5 14.5z" />
    <glyph glyph-name="braceright" unicode="}" horiz-adv-x="391" 
d="M45 -219.5q-14 14.5 -14 36.5t14 36.5t36 14.5q61 0 61 61v233q0 70 32 111q-32 43 -32 112v233q0 61 -61 61q-22 0 -36 14t-14 36t14 37t36 15q163 0 163 -163v-233q0 -61 60 -61q22 0 36.5 -14.5t14.5 -36.5t-14.5 -36t-36.5 -14q-60 0 -60 -61v-233q0 -163 -163 -163
q-22 0 -36 14.5z" />
    <glyph glyph-name="asciitilde" unicode="~" horiz-adv-x="469" 
d="M279 310.5q-23 8.5 -49 22.5q-42 23 -66 23q-15 0 -26 -5.5t-22 -21.5q-20 -27 -45 -27q-8 0 -20 5q-8 4 -13 13t-5 20q0 15 9 28q23 33 56.5 50.5t72.5 17.5q28 0 49.5 -8t48.5 -22q24 -14 35.5 -18.5t24.5 -4.5q23 0 40 17q11 11 19 16t18 5q11 0 22 -7q16 -10 16 -33
q0 -18 -11 -32q-38 -47 -101 -47q-30 0 -53 8.5z" />
    <glyph glyph-name="uni00A0" unicode="&#xa0;" horiz-adv-x="293" 
 />
    <glyph glyph-name="exclamdown" unicode="&#xa1;" horiz-adv-x="288" 
d="M217.5 528q20.5 -20 20.5 -49t-20.5 -49.5t-48.5 -20.5t-48.5 20.5t-20.5 49.5t20.5 49t48.5 20t48.5 -20zM204.5 348q15.5 -15 15.5 -36v-493q0 -22 -14.5 -37t-36.5 -15t-36.5 15t-14.5 37v493q0 21 15 36t36 15q20 0 35.5 -15z" />
    <glyph glyph-name="cent" unicode="&#xa2;" horiz-adv-x="601" 
d="M530 90q0 -15 -12 -27q-72 -67 -180 -67q-44 0 -90 13l-31 -83q-9 -22 -31 -22q-13 0 -22.5 8t-9.5 21q0 6 3 14l33 88q-60 36 -94 98.5t-34 139.5q0 80 34.5 143.5t96.5 99t140 35.5q30 0 51 -4l31 82q8 21 29 21q13 0 22.5 -9t9.5 -20q0 -4 -2 -10l-31 -83
q45 -21 86 -67q10 -11 10 -26q0 -22 -22 -37q-10 -7 -23 -7q-23 0 -39 18q-21 23 -44 34l-131 -348q27 -9 58 -9q68 0 110 35q19 14 37 14q14 0 26 -9q19 -16 19 -36zM177 188.5q17 -38.5 47 -63.5l127 335q-6 1 -18 1q-77 0 -125 -51.5t-48 -136.5q0 -46 17 -84.5z" />
    <glyph glyph-name="sterling" unicode="&#xa3;" horiz-adv-x="508" 
d="M88.5 14q-13.5 14 -13.5 37q0 13 4 21q51 121 52 228h-42q-22 0 -36.5 15t-14.5 38q0 22 14.5 36.5t36.5 14.5h32q-27 67 -36.5 100t-9.5 74q0 55 27.5 101.5t74 73.5t100.5 27q59 0 107.5 -22.5t81.5 -67.5q10 -13 10 -31q0 -22 -14.5 -37t-37.5 -15q-21 0 -31 13
q-4 4 -25 24t-42 29t-45 9q-48 0 -75 -30.5t-27 -79.5q0 -62 48 -168h126q22 0 36.5 -14.5t14.5 -36.5q0 -23 -14.5 -38t-36.5 -15h-119q-2 -100 -33 -196h215l9 19q10 20 16 29q17 27 44 27q22 0 37 -15.5t15 -36.5q0 -13 -6 -24l-36 -72q-16 -31 -47 -31h-321
q-25 0 -38.5 14z" />
    <glyph glyph-name="currency" unicode="&#xa4;" horiz-adv-x="532" 
d="M62.5 157.5q-17.5 17.5 -17.5 43.5q0 25 18 43l31 28q-22 44 -22 90t21 86l-30 31q-18 17 -18 43t17.5 43.5t43.5 17.5q23 0 42 -17l30 -32q41 22 88 22q46 0 86 -21l32 30q20 18 41 18q26 0 44 -17.5t18 -43.5q0 -27 -18 -44l-29 -27q20 -38 20 -87q0 -48 -20 -88
l30 -32q17 -17 17 -43t-17 -43.5t-43 -17.5q-21 0 -43 15l-28 33q-43 -21 -89 -21q-42 0 -86 19l-31 -28q-19 -18 -44 -18q-26 0 -43.5 17.5zM330.5 297q26.5 27 26.5 64q0 39 -27 65.5t-64 26.5t-64 -27t-27 -65q0 -36 26.5 -63.5t64.5 -27.5t64.5 27z" />
    <glyph glyph-name="yen" unicode="&#xa5;" horiz-adv-x="670" 
d="M652.5 767q12.5 -14 12.5 -34q0 -17 -10 -33l-211 -325h52q23 0 37.5 -12t14.5 -33t-14.5 -33t-37.5 -12h-110v-50h110q23 0 37.5 -12t14.5 -33t-14.5 -33t-37.5 -12h-110v-93q0 -22 -15 -37t-37 -15q-21 0 -36 15t-15 37v93h-109q-23 0 -37 12t-14 33t14 33t37 12h109
v50h-109q-23 0 -37 12t-14 33t14 33t37 12h51l-209 325q-11 17 -11 32q0 21 15.5 35t36.5 14q16 0 26 -7t20 -22l234 -371l238 375q16 25 46 25q19 0 31.5 -14z" />
    <glyph glyph-name="brokenbar" unicode="&#xa6;" horiz-adv-x="234" 
d="M85.5 422.5q-14.5 14.5 -14.5 36.5v333q0 22 14.5 36.5t36.5 14.5t36.5 -14.5t14.5 -36.5v-333q0 -22 -14.5 -36.5t-36.5 -14.5t-36.5 14.5zM85.5 -219.5q-14.5 14.5 -14.5 36.5v334q0 22 14.5 36.5t36.5 14.5t36.5 -14.5t14.5 -36.5v-334q0 -22 -14.5 -36.5t-36.5 -14.5
t-36.5 14.5z" />
    <glyph glyph-name="section" unicode="&#xa7;" horiz-adv-x="469" 
d="M139 -206q-47 28 -74.5 75t-27.5 102q0 22 15 37t38 15q22 0 36.5 -15t14.5 -37q0 -41 29.5 -70.5t70.5 -29.5q40 0 70 29.5t30 70.5q0 40 -30 69.5t-70 29.5q-55 0 -102 27.5t-74.5 74t-27.5 102.5q0 83 67 152q-36 36 -51.5 72t-15.5 80q0 55 27.5 101.5t74.5 74.5
t102 28t101.5 -28t74.5 -74.5t28 -101.5q0 -23 -15 -38t-37 -15t-37 15t-15 38q0 40 -30 70t-70 30t-70 -29.5t-30 -70.5q0 -42 29 -71t71 -29q55 0 102 -27.5t74.5 -74.5t27.5 -102q0 -87 -68 -152q68 -65 68 -151q0 -55 -28 -102t-74.5 -75t-101.5 -28t-102 28zM311 204
q30 29 30 70t-30 70.5t-70 29.5q-41 0 -70.5 -29.5t-29.5 -70.5q0 -42 29.5 -70.5t70.5 -28.5q40 0 70 29z" />
    <glyph glyph-name="dieresis" unicode="&#xa8;" horiz-adv-x="469" 
d="M81.5 631.5q-17.5 17.5 -17.5 42.5q0 24 18 42t43 18q24 0 42 -18t18 -42q0 -25 -18 -42.5t-42 -17.5q-26 0 -43.5 17.5zM304.5 631.5q-17.5 17.5 -17.5 42.5q0 24 17.5 42t42.5 18q24 0 42 -18t18 -42q0 -25 -18 -42.5t-42 -17.5q-25 0 -42.5 17.5z" />
    <glyph glyph-name="copyright" unicode="&#xa9;" horiz-adv-x="859" 
d="M239.5 51.5q-89.5 51.5 -142 141t-52.5 198.5q0 106 52 195.5t141.5 142t197.5 52.5q106 0 195.5 -52.5t142 -142t52.5 -195.5q0 -108 -53 -198t-142.5 -141.5t-194.5 -51.5q-107 0 -196.5 51.5zM589.5 124q71.5 42 113 113t41.5 155t-42 155t-113 113t-155 42t-155 -42
t-113 -113t-42 -155t41.5 -155t112.5 -113t156 -42q84 0 155.5 42zM321.5 179.5q-53.5 31.5 -84 87.5t-30.5 126q0 71 29.5 127t82 87.5t119.5 31.5q99 0 167 -80q10 -13 10 -25q0 -21 -21 -36q-10 -7 -22 -7q-20 0 -35 17q-21 23 -45 33.5t-54 10.5q-64 0 -102.5 -44
t-38.5 -115q0 -70 40.5 -114.5t104.5 -44.5q56 0 89 29q17 14 34 14q14 0 24 -9q18 -15 18 -35q0 -14 -12 -26q-61 -59 -153 -59q-67 0 -120.5 31.5z" />
    <glyph glyph-name="ordfeminine" unicode="&#xaa;" horiz-adv-x="481" 
d="M340.5 762q45.5 -26 71.5 -71.5t26 -101.5v-154q0 -22 -14 -36.5t-34 -14.5t-32.5 14t-11.5 35q-43 -43 -107 -43q-56 0 -101.5 26t-71.5 71.5t-26 101.5t26 101.5t71.5 71.5t101.5 26t101.5 -26zM311.5 517q28.5 29 28.5 72q0 44 -28.5 72.5t-72.5 28.5q-43 0 -72 -28.5
t-29 -72.5q0 -43 29 -72t72 -29q44 0 72.5 29z" />
    <glyph glyph-name="guillemotleft" unicode="&#xab;" horiz-adv-x="469" 
d="M171.5 8q-12.5 8 -19.5 23l-108 216q-7 16 -7 26q0 12 6 24l109 218q15 31 47 31q22 0 36.5 -14t14.5 -36q0 -14 -4 -22l-100 -201l100 -201q4 -8 4 -21q0 -21 -14.5 -36t-36.5 -15q-15 0 -27.5 8zM358.5 8q-12.5 8 -19.5 23l-108 216q-7 13 -7 26q0 12 6 24l109 218
q13 31 47 31q22 0 36.5 -14t14.5 -36q0 -12 -5 -22l-100 -201l100 -201q5 -10 5 -21q0 -21 -14.5 -36t-36.5 -15q-15 0 -27.5 8z" />
    <glyph glyph-name="logicalnot" unicode="&#xac;" horiz-adv-x="547" 
d="M424 311q-15 15 -15 37v97h-320q-22 0 -36.5 14.5t-14.5 36.5q0 21 14.5 36t36.5 15h370q22 0 37 -15t15 -36v-148q0 -22 -15 -37t-37 -15q-20 0 -35 15z" />
    <glyph glyph-name="uni00AD" unicode="&#xad;" horiz-adv-x="391" 
d="M50.5 237q-14.5 14 -14.5 36t14.5 36.5t36.5 14.5h223q22 0 36 -14.5t14 -36.5t-14 -36t-36 -14h-223q-22 0 -36.5 14z" />
    <glyph glyph-name="registered" unicode="&#xae;" horiz-adv-x="859" 
d="M631.5 728.5q89.5 -52.5 142 -142t52.5 -195.5q0 -108 -53 -198t-142.5 -141.5t-194.5 -51.5q-107 0 -196.5 51.5t-142 141t-52.5 198.5q0 106 52 195.5t141.5 142t197.5 52.5q106 0 195.5 -52.5zM589.5 124q71.5 42 113 113t41.5 155t-42 155t-113 113t-155 42t-155 -42
t-113 -113t-42 -155t41.5 -155t112.5 -113t156 -42q84 0 155.5 42zM598 225q8 -14 8 -26q0 -14 -10 -23t-27 -9q-12 0 -22 5t-15 13l-92 155h-9h-63v-135q0 -17 -10.5 -27.5t-28.5 -10.5t-29 10.5t-11 27.5v392q0 17 12 27.5t31 10.5h99q72 0 118.5 -41t46.5 -105
q0 -42 -21 -75.5t-57 -53.5zM368 410h69q36 0 57.5 21.5t21.5 57.5t-21.5 56t-57.5 20h-69v-155z" />
    <glyph glyph-name="macron" unicode="&#xaf;" horiz-adv-x="547" 
d="M112 659q-14 12 -14 34q0 21 14 32.5t37 11.5h250q23 0 37.5 -11.5t14.5 -32.5q0 -22 -14.5 -34t-37.5 -12h-250q-23 0 -37 12z" />
    <glyph glyph-name="degree" unicode="&#xb0;" horiz-adv-x="469" 
d="M136.5 398q-45.5 27 -72.5 73t-27 99t27 99t72.5 73.5t99.5 27.5t100 -27t73 -73t27 -100q0 -53 -27 -99t-73 -73t-100 -27t-99.5 27zM304.5 501.5q28.5 28.5 28.5 68.5t-28.5 68.5t-68.5 28.5t-68.5 -28.5t-28.5 -68.5t28.5 -68.5t68.5 -28.5t68.5 28.5z" />
    <glyph glyph-name="plusminus" unicode="&#xb1;" horiz-adv-x="547" 
d="M237.5 162.5q-14.5 14.5 -14.5 36.5v134h-134q-22 0 -36.5 15t-14.5 37t14.5 36.5t36.5 14.5h134v134q0 21 15.5 36t35.5 15q22 0 36.5 -14.5t14.5 -36.5v-134h134q21 0 36.5 -15t15.5 -37q0 -21 -15.5 -36t-36.5 -15h-134v-134q0 -22 -14.5 -36.5t-36.5 -14.5
t-36.5 14.5zM52.5 14.5q-14.5 14.5 -14.5 36.5t14.5 36.5t36.5 14.5h371q22 0 36.5 -14.5t14.5 -36.5t-14.5 -36.5t-36.5 -14.5h-371q-22 0 -36.5 14.5z" />
    <glyph glyph-name="uni00B2" unicode="&#xb2;" horiz-adv-x="376" 
d="M319 458q12 -10 12 -29q0 -20 -12 -31.5t-32 -11.5h-197q-19 0 -31.5 12.5t-12.5 31.5t11 31l152 155q28 29 28 56q0 20 -15 34.5t-42 14.5q-30 0 -48.5 -18t-18.5 -43q0 -20 -9.5 -31t-27.5 -11q-16 0 -26 12t-10 30q0 60 38 97t103 37q62 0 98.5 -35t36.5 -90
q0 -31 -15 -52.5t-43 -51.5l-96 -97h125q20 0 32 -10z" />
    <glyph glyph-name="uni00B3" unicode="&#xb3;" horiz-adv-x="384" 
d="M285 763q37 -33 37 -84q0 -26 -16 -48.5t-46 -35.5q38 -10 58.5 -37t20.5 -62q0 -52 -42 -86t-103 -34q-65 0 -107 35t-42 90q0 20 12.5 32t31.5 12q18 0 29 -12t11 -32q0 -21 16.5 -34.5t46.5 -13.5q26 0 44 12.5t18 35.5q0 24 -15 39t-36 15q-22 0 -34.5 10t-12.5 28
q0 19 11 29.5t31 10.5q22 0 34.5 10t12.5 29q0 20 -16 32t-38 12q-25 0 -42.5 -10.5t-20.5 -27.5q-2 -15 -12 -25.5t-23 -10.5q-18 0 -29.5 11.5t-11.5 28.5q0 48 40.5 81t99.5 33q56 0 93 -33z" />
    <glyph glyph-name="acute" unicode="&#xb4;" horiz-adv-x="273" 
d="M65.5 597.5q-14.5 14.5 -14.5 36.5q0 21 12 34l98 98q15 15 36 15q22 0 36.5 -15t14.5 -37t-14 -35l-97 -97q-14 -14 -35 -14q-22 0 -36.5 14.5z" />
    <glyph glyph-name="uni00B5" unicode="&#xb5;" horiz-adv-x="682" 
d="M578 534q14 -14 14 -37v-446q0 -22 -14 -36.5t-37 -14.5q-22 0 -36.5 14.5t-14.5 36.5v13q-28 -33 -67 -51t-83 -18q-48 0 -89.5 22.5t-69.5 62.5v-263q0 -23 -14 -37t-37 -14q-22 0 -36.5 14t-14.5 37v680q0 23 14.5 37t36.5 14q23 0 37 -14t14 -37v-246
q0 -72 44.5 -118t114.5 -46q66 0 108 36t42 92v282q0 23 14.5 37t36.5 14q23 0 37 -14z" />
    <glyph glyph-name="paragraph" unicode="&#xb6;" horiz-adv-x="593" 
d="M244.5 14.5q-14.5 14.5 -14.5 36.5v331q-52 3 -94 30.5t-66.5 72t-24.5 96.5q0 56 26 102t71.5 72t101.5 26h252q23 0 37.5 -14.5t14.5 -37.5q0 -16 -10.5 -29.5t-26.5 -18.5v-630q0 -22 -15 -36.5t-37 -14.5q-21 0 -35.5 14.5t-14.5 36.5v628h-77v-628
q0 -22 -14.5 -36.5t-36.5 -14.5t-36.5 14.5z" />
    <glyph glyph-name="periodcentered" unicode="&#xb7;" horiz-adv-x="195" 
d="M49.5 317.5q-20.5 20.5 -20.5 48.5q0 29 20.5 49.5t48.5 20.5t48.5 -20.5t20.5 -49.5q0 -28 -20 -48.5t-49 -20.5q-28 0 -48.5 20.5z" />
    <glyph glyph-name="cedilla" unicode="&#xb8;" horiz-adv-x="313" 
d="M61 -209q-39 25 -39 59q0 19 14 33.5t33 14.5q13 0 21 -5.5t13 -19.5q7 -17 22 -26t35 -9t33 9.5t13 25.5q0 18 -10.5 29t-34.5 15q-25 4 -37.5 14t-12.5 28q0 13 5 26l10 28q14 41 57 41q19 0 31.5 -10t12.5 -26q0 -7 -5 -19l-15 -34q52 -11 76 -34t24 -61
q0 -26 -18.5 -50t-52 -39t-77.5 -15q-59 0 -98 25z" />
    <glyph glyph-name="uni00B9" unicode="&#xb9;" horiz-adv-x="302" 
d="M159 400q-11 14 -11 37v243l-28 -9q-27 -9 -47 -9q-29 0 -37 22q-3 8 -3 14q0 14 10.5 25t26.5 17l111 37q11 4 21 4q32 0 32 -52v-292q0 -23 -11 -37t-33 -14q-20 0 -31 14z" />
    <glyph glyph-name="ordmasculine" unicode="&#xba;" horiz-adv-x="478" 
d="M137.5 416q-45.5 26 -71.5 71.5t-26 101.5t26 101.5t71.5 71.5t101.5 26t101.5 -26t71.5 -71.5t26 -101.5t-26 -101.5t-71.5 -71.5t-101.5 -26t-101.5 26zM311.5 517q28.5 29 28.5 72q0 44 -28.5 72.5t-72.5 28.5q-43 0 -72 -28.5t-29 -72.5q0 -43 29 -72t72 -29
q44 0 72.5 29z" />
    <glyph glyph-name="guillemotright" unicode="&#xbb;" horiz-adv-x="469" 
d="M52.5 15q-14.5 15 -14.5 36q0 12 4 21l100 201l-100 201q-5 15 -5 22q0 21 15 35.5t36 14.5q34 0 47 -31l109 -218q6 -12 6 -24q0 -13 -7 -26l-108 -216q-7 -15 -19.5 -23t-27.5 -8q-21 0 -35.5 15zM238.5 15q-14.5 15 -14.5 36q0 12 5 21l100 201l-100 201q-5 10 -5 22
q0 22 14.5 36t36.5 14q34 0 47 -31l109 -218q6 -12 6 -24q0 -10 -7 -26l-108 -216q-7 -15 -19.5 -23t-27.5 -8q-22 0 -36.5 15z" />
    <glyph glyph-name="onequarter" unicode="&#xbc;" horiz-adv-x="794" 
d="M159 400q-11 14 -11 37v243l-28 -9q-27 -9 -47 -9q-29 0 -37 22q-3 8 -3 14q0 14 10.5 25t26.5 17l111 37q11 4 21 4q32 0 32 -52v-292q0 -23 -11 -37t-33 -14q-20 0 -31 14zM623 782q15 0 26 -10t11 -26q0 -13 -10 -29l-454 -692q-17 -25 -38 -25q-13 0 -23.5 9
t-10.5 23q0 13 6 21l450 700q19 29 43 29zM606 0q-11 10 -11 26v55h-164q-16 0 -26 9.5t-10 24.5q0 12 11 28l191 248q15 19 38 19q17 0 29.5 -10t12.5 -25v-222h31q15 0 25.5 -10t10.5 -26t-10.5 -26t-25.5 -10h-31v-55q0 -16 -11 -26t-31 -10q-18 0 -29 10zM496 153h99
v132z" />
    <glyph glyph-name="onehalf" unicode="&#xbd;" horiz-adv-x="885" 
d="M159 400q-11 14 -11 37v243l-28 -9q-27 -9 -47 -9q-29 0 -37 22q-3 8 -3 14q0 14 10.5 25t26.5 17l111 37q11 4 21 4q32 0 32 -52v-292q0 -23 -11 -37t-33 -14q-20 0 -31 14zM671 782q15 0 26 -10t11 -26q0 -13 -10 -29l-454 -692q-17 -25 -38 -25q-13 0 -23.5 9
t-10.5 23q0 13 6 21l450 700q19 29 43 29zM818 72q12 -10 12 -29q0 -20 -12 -31.5t-32 -11.5h-197q-19 0 -31.5 12.5t-12.5 31.5t11 31l152 155q28 29 28 56q0 20 -15 34.5t-42 14.5q-30 0 -48.5 -18t-18.5 -43q0 -20 -9.5 -31t-27.5 -11q-16 0 -26 12t-10 30q0 60 38 97
t103 37q62 0 98.5 -35t36.5 -90q0 -31 -15 -52.5t-43 -51.5l-96 -97h125q20 0 32 -10z" />
    <glyph glyph-name="threequarters" unicode="&#xbe;" horiz-adv-x="863" 
d="M285 763q37 -33 37 -84q0 -26 -16 -48.5t-46 -35.5q38 -10 58.5 -37t20.5 -62q0 -52 -42 -86t-103 -34q-65 0 -107 35t-42 90q0 20 12.5 32t31.5 12q18 0 29 -12t11 -32q0 -21 16.5 -34.5t46.5 -13.5q26 0 44 12.5t18 35.5q0 24 -15 39t-36 15q-22 0 -34.5 10t-12.5 28
q0 19 11 29.5t31 10.5q22 0 34.5 10t12.5 29q0 20 -16 32t-38 12q-25 0 -42.5 -10.5t-20.5 -27.5q-2 -15 -12 -25.5t-23 -10.5q-18 0 -29.5 11.5t-11.5 28.5q0 48 40.5 81t99.5 33q56 0 93 -33zM671 782q15 0 26 -10t11 -26q0 -13 -10 -29l-454 -692q-17 -25 -38 -25
q-13 0 -23.5 9t-10.5 23q0 13 6 21l450 700q19 29 43 29zM670 0q-11 10 -11 26v55h-164q-16 0 -26 9.5t-10 24.5q0 12 11 28l191 248q15 19 38 19q17 0 29.5 -10t12.5 -25v-222h31q15 0 25.5 -10t10.5 -26t-10.5 -26t-25.5 -10h-31v-55q0 -16 -11 -26t-31 -10q-18 0 -29 10z
M560 153h99v132z" />
    <glyph glyph-name="questiondown" unicode="&#xbf;" horiz-adv-x="547" 
d="M221 503q-21 21 -21 49t20.5 48.5t49.5 20.5t49 -20t20 -49t-20.5 -49.5t-48.5 -20.5t-49 21zM169 -46q34 -36 91 -36q71 0 107.5 38.5t36.5 104.5q0 23 14.5 37t36.5 14q23 0 37 -14t14 -37q0 -69 -30.5 -123t-86.5 -84t-129 -30q-64 0 -115.5 27.5t-80.5 77t-29 112.5
q0 54 17 94.5t46 72t75 68.5q24 19 35 51t11 58q0 23 14.5 37t36.5 14q23 0 37 -14t14 -37q0 -42 -21 -88t-61 -80q-38 -32 -57.5 -53t-33 -51t-13.5 -72q0 -51 34 -87z" />
    <glyph glyph-name="Agrave" unicode="&#xc0;" horiz-adv-x="703" 
d="M689 51q0 -21 -15 -36t-37 -15q-15 0 -28.5 8.5t-19.5 23.5l-56 140h-359l-57 -140q-7 -15 -20 -23.5t-28 -8.5q-22 0 -36.5 15.5t-14.5 36.5q0 10 5 23l281 671q15 35 49 35q36 0 49 -35l282 -673q5 -13 5 -22zM209 258h289l-143 356zM314 881l-98 97q-13 13 -13 35
t14 37t36 15q21 0 37 -15l97 -98q13 -13 13 -34q0 -22 -14.5 -36.5t-36.5 -14.5t-35 14z" />
    <glyph glyph-name="Aacute" unicode="&#xc1;" horiz-adv-x="703" 
d="M689 51q0 -21 -15 -36t-37 -15q-15 0 -28.5 8.5t-19.5 23.5l-56 140h-359l-57 -140q-7 -15 -20 -23.5t-28 -8.5q-22 0 -36.5 15.5t-14.5 36.5q0 10 5 23l281 671q15 35 49 35q36 0 49 -35l282 -673q5 -13 5 -22zM209 258h289l-143 356zM319 881.5q-14 14.5 -14 36.5
q0 21 12 34l98 98q15 15 36 15q22 0 36.5 -15t14.5 -37t-14 -35l-97 -97q-14 -14 -35 -14q-23 0 -37 14.5z" />
    <glyph glyph-name="Acircumflex" unicode="&#xc2;" horiz-adv-x="703" 
d="M689 51q0 -21 -15 -36t-37 -15q-15 0 -28.5 8.5t-19.5 23.5l-56 140h-359l-57 -140q-7 -15 -20 -23.5t-28 -8.5q-22 0 -36.5 15.5t-14.5 36.5q0 10 5 23l281 671q15 35 49 35q36 0 49 -35l282 -673q5 -13 5 -22zM209 258h289l-143 356zM204.5 860.5
q-14.5 11.5 -14.5 29.5q0 26 24 44l112 73q13 8 26 8q15 0 27 -8l111 -73q24 -18 24 -44q0 -18 -14 -29.5t-36 -11.5q-18 0 -33 11l-79 56l-79 -56q-14 -11 -32 -11q-22 0 -36.5 11.5z" />
    <glyph glyph-name="Atilde" unicode="&#xc3;" horiz-adv-x="703" 
d="M689 51q0 -21 -15 -36t-37 -15q-15 0 -28.5 8.5t-19.5 23.5l-56 140h-359l-57 -140q-7 -15 -20 -23.5t-28 -8.5q-22 0 -36.5 15.5t-14.5 36.5q0 10 5 23l281 671q15 35 49 35q36 0 49 -35l282 -673q5 -13 5 -22zM209 258h289l-143 356zM335 903q-15 14 -22 19t-16 5
q-10 0 -16.5 -6.5t-15.5 -21.5q-7 -11 -18 -17.5t-23 -6.5q-8 0 -17 3q-12 5 -19 15t-7 22q0 11 6 21q41 73 102 73q27 0 45 -10.5t29 -20.5t14 -13q21 -18 34 -18q11 0 22 15q18 26 44 26q8 0 16 -3q13 -6 20 -16t7 -22q0 -10 -7 -22q-19 -33 -41.5 -48t-49.5 -15
q-44 0 -87 41z" />
    <glyph glyph-name="Adieresis" unicode="&#xc4;" horiz-adv-x="703" 
d="M689 51q0 -21 -15 -36t-37 -15q-15 0 -28.5 8.5t-19.5 23.5l-56 140h-359l-57 -140q-7 -15 -20 -23.5t-28 -8.5q-22 0 -36.5 15.5t-14.5 36.5q0 10 5 23l281 671q15 35 49 35q36 0 49 -35l282 -673q5 -13 5 -22zM209 258h289l-143 356zM197.5 882.5
q-17.5 17.5 -17.5 42.5q0 24 18 42t43 18q24 0 42 -18t18 -42q0 -25 -18 -42.5t-42 -17.5q-26 0 -43.5 17.5zM420 882.5q-17 17.5 -17 42.5q0 24 17.5 42t42.5 18q24 0 42 -18t18 -42q0 -25 -18 -42.5t-42 -17.5q-26 0 -43 17.5z" />
    <glyph glyph-name="Aring" unicode="&#xc5;" horiz-adv-x="703" 
d="M689 51q0 -21 -15 -36t-37 -15q-15 0 -28.5 8.5t-19.5 23.5l-56 140h-359l-57 -140q-7 -15 -20 -23.5t-28 -8.5q-22 0 -36.5 15.5t-14.5 36.5q0 10 5 23l281 671q15 35 49 35q36 0 49 -35l282 -673q5 -13 5 -22zM209 258h289l-143 356zM275 850q-30 30 -30 77t30 77.5
t77 30.5t77 -30.5t30 -77.5t-30 -77t-77 -30t-77 30zM388.5 890.5q14.5 14.5 14.5 36.5q0 23 -14.5 37.5t-36.5 14.5q-23 0 -37.5 -14.5t-14.5 -37.5q0 -22 14.5 -36.5t37.5 -14.5q22 0 36.5 14.5z" />
    <glyph glyph-name="AE" unicode="&#xc6;" horiz-adv-x="1001" 
d="M942 83q14 -13 14 -34q0 -22 -14 -35.5t-37 -13.5h-412q-22 0 -37 15t-15 37v120h-236l-86 -140q-19 -32 -48 -32q-22 0 -37.5 15.5t-15.5 35.5q0 13 7 24l420 674q20 32 55 32h405q23 0 37 -13.5t14 -35.5q0 -21 -14 -34t-37 -13h-360v-243h247q22 0 36.5 -13.5
t14.5 -34.5t-14.5 -34.5t-36.5 -13.5h-247v-250h360q23 0 37 -13zM258 258h183v304z" />
    <glyph glyph-name="Ccedilla" unicode="&#xc7;" horiz-adv-x="777" 
d="M667 163q19 0 31.5 -13.5t12.5 -35.5q0 -21 -16 -37q-88 -72 -197 -84l-12 -28q52 -11 76 -34t24 -61q0 -26 -18.5 -50t-52 -39t-77.5 -15q-59 0 -98 25t-39 59q0 19 14 33.5t33 14.5q13 0 21 -5.5t13 -19.5q7 -17 22 -26t35 -9t33 9.5t13 25.5q0 18 -10.5 29t-34.5 15
q-25 4 -37.5 14t-12.5 28q0 13 5 26l3 8q-95 13 -171 68t-119.5 141.5t-43.5 188.5q0 110 51 201.5t139.5 145t195.5 53.5q76 0 131.5 -20t112.5 -66q12 -9 16 -18.5t4 -22.5q0 -20 -14.5 -33t-33.5 -13t-35 13q-41 35 -80 50.5t-101 15.5q-78 0 -143.5 -41t-104 -111.5
t-38.5 -153.5q0 -84 38.5 -154t104 -111t143.5 -41q96 0 184 66q17 12 33 12z" />
    <glyph glyph-name="Egrave" unicode="&#xc8;" horiz-adv-x="700" 
d="M115 15q-15 15 -15 37v677q0 23 15 37.5t37 14.5h452q23 0 37 -13.5t14 -35.5q0 -21 -14 -34t-37 -13h-400v-243h287q22 0 36.5 -13.5t14.5 -34.5t-14.5 -34.5t-36.5 -13.5h-287v-250h400q23 0 37 -13t14 -34q0 -22 -14 -35.5t-37 -13.5h-452q-22 0 -37 15zM352 881
l-98 97q-13 13 -13 35t14 37t36 15q21 0 37 -15l97 -98q13 -13 13 -34q0 -22 -14.5 -36.5t-36.5 -14.5t-35 14z" />
    <glyph glyph-name="Eacute" unicode="&#xc9;" horiz-adv-x="700" 
d="M115 15q-15 15 -15 37v677q0 23 15 37.5t37 14.5h452q23 0 37 -13.5t14 -35.5q0 -21 -14 -34t-37 -13h-400v-243h287q22 0 36.5 -13.5t14.5 -34.5t-14.5 -34.5t-36.5 -13.5h-287v-250h400q23 0 37 -13t14 -34q0 -22 -14 -35.5t-37 -13.5h-452q-22 0 -37 15zM357 881.5
q-14 14.5 -14 36.5q0 21 12 34l98 98q15 15 36 15q22 0 36.5 -15t14.5 -37t-14 -35l-97 -97q-14 -14 -35 -14q-23 0 -37 14.5z" />
    <glyph glyph-name="Ecircumflex" unicode="&#xca;" horiz-adv-x="700" 
d="M115 15q-15 15 -15 37v677q0 23 15 37.5t37 14.5h452q23 0 37 -13.5t14 -35.5q0 -21 -14 -34t-37 -13h-400v-243h287q22 0 36.5 -13.5t14.5 -34.5t-14.5 -34.5t-36.5 -13.5h-287v-250h400q23 0 37 -13t14 -34q0 -22 -14 -35.5t-37 -13.5h-452q-22 0 -37 15zM242.5 860.5
q-14.5 11.5 -14.5 29.5q0 26 24 44l112 73q13 8 26 8q15 0 27 -8l111 -73q24 -18 24 -44q0 -18 -14 -29.5t-36 -11.5q-18 0 -33 11l-79 56l-79 -56q-14 -11 -32 -11q-22 0 -36.5 11.5z" />
    <glyph glyph-name="Edieresis" unicode="&#xcb;" horiz-adv-x="700" 
d="M115 15q-15 15 -15 37v677q0 23 15 37.5t37 14.5h452q23 0 37 -13.5t14 -35.5q0 -21 -14 -34t-37 -13h-400v-243h287q22 0 36.5 -13.5t14.5 -34.5t-14.5 -34.5t-36.5 -13.5h-287v-250h400q23 0 37 -13t14 -34q0 -22 -14 -35.5t-37 -13.5h-452q-22 0 -37 15zM235.5 882.5
q-17.5 17.5 -17.5 42.5q0 24 18 42t43 18q24 0 42 -18t18 -42q0 -25 -18 -42.5t-42 -17.5q-26 0 -43.5 17.5zM458 882.5q-17 17.5 -17 42.5q0 24 17.5 42t42.5 18q24 0 42 -18t18 -42q0 -25 -18 -42.5t-42 -17.5q-26 0 -43 17.5z" />
    <glyph glyph-name="Igrave" unicode="&#xcc;" horiz-adv-x="304" 
d="M115 15q-15 15 -15 37v677q0 23 15 37.5t37 14.5q23 0 37.5 -14.5t14.5 -37.5v-677q0 -22 -14.5 -37t-37.5 -15q-22 0 -37 15zM114 881l-98 97q-13 13 -13 35t14 37t36 15q21 0 37 -15l97 -98q13 -13 13 -34q0 -22 -14.5 -36.5t-36.5 -14.5t-35 14z" />
    <glyph glyph-name="Iacute" unicode="&#xcd;" horiz-adv-x="304" 
d="M115 15q-15 15 -15 37v677q0 23 15 37.5t37 14.5q23 0 37.5 -14.5t14.5 -37.5v-677q0 -22 -14.5 -37t-37.5 -15q-22 0 -37 15zM119 881.5q-14 14.5 -14 36.5q0 21 12 34l98 98q15 15 36 15q22 0 36.5 -15t14.5 -37t-14 -35l-97 -97q-14 -14 -35 -14q-23 0 -37 14.5z" />
    <glyph glyph-name="Icircumflex" unicode="&#xce;" horiz-adv-x="304" 
d="M115 15q-15 15 -15 37v677q0 23 15 37.5t37 14.5q23 0 37.5 -14.5t14.5 -37.5v-677q0 -22 -14.5 -37t-37.5 -15q-22 0 -37 15zM4.5 860.5q-14.5 11.5 -14.5 29.5q0 26 24 44l112 73q13 8 26 8q15 0 27 -8l111 -73q24 -18 24 -44q0 -18 -14 -29.5t-36 -11.5q-18 0 -33 11
l-79 56l-79 -56q-14 -11 -32 -11q-22 0 -36.5 11.5z" />
    <glyph glyph-name="Idieresis" unicode="&#xcf;" horiz-adv-x="304" 
d="M115 15q-15 15 -15 37v677q0 23 15 37.5t37 14.5q23 0 37.5 -14.5t14.5 -37.5v-677q0 -22 -14.5 -37t-37.5 -15q-22 0 -37 15zM-2.5 882.5q-17.5 17.5 -17.5 42.5q0 24 18 42t43 18q24 0 42 -18t18 -42q0 -25 -18 -42.5t-42 -17.5q-26 0 -43.5 17.5zM220 882.5
q-17 17.5 -17 42.5q0 24 17.5 42t42.5 18q24 0 42 -18t18 -42q0 -25 -18 -42.5t-42 -17.5q-26 0 -43 17.5z" />
    <glyph glyph-name="Eth" unicode="&#xd0;" horiz-adv-x="783" 
d="M534 731q88 -50 137 -138.5t49 -201.5t-49 -202t-137 -139t-201 -50h-181q-22 0 -37 15t-15 37v294h-50q-23 0 -37 12t-14 33t14 33t37 12h50v293q0 23 15 37.5t37 14.5h181q113 0 201 -50zM481.5 130q65.5 38 102 106.5t36.5 154.5t-36.5 154t-102 106t-148.5 38h-129
v-253h128q23 0 37.5 -12t14.5 -33t-14.5 -33t-37.5 -12h-128v-254h129q83 0 148.5 38z" />
    <glyph glyph-name="Ntilde" unicode="&#xd1;" horiz-adv-x="830" 
d="M114.5 14.5q-14.5 14.5 -14.5 37.5v677q0 23 14.5 37.5t36.5 14.5q11 0 22 -5.5t18 -13.5l436 -580v547q0 23 15 37.5t37 14.5t36.5 -14.5t14.5 -37.5v-677q0 -23 -14.5 -37.5t-36.5 -14.5q-11 0 -22.5 4.5t-17.5 13.5l-436 580v-546q0 -22 -14.5 -37t-37.5 -15
q-22 0 -36.5 14.5zM469 864.5q-23 8.5 -49 22.5q-42 23 -66 23q-15 0 -26 -5.5t-22 -21.5q-20 -27 -45 -27q-8 0 -20 5q-8 4 -13 13t-5 20q0 15 9 28q23 33 56.5 50.5t72.5 17.5q28 0 49.5 -8t48.5 -22q24 -14 35.5 -18.5t24.5 -4.5q23 0 40 17q11 11 19 16t18 5q11 0 22 -7
q16 -10 16 -33q0 -18 -11 -32q-38 -47 -101 -47q-30 0 -53 8.5z" />
    <glyph glyph-name="Ograve" unicode="&#xd2;" horiz-adv-x="921" 
d="M254.5 41q-90.5 51 -140.5 142.5t-50 207.5t50 207t140.5 142t206.5 51q115 0 205.5 -51t141 -142t50.5 -207t-50.5 -207.5t-140.5 -142.5t-206 -51t-206.5 51zM614 124.5q68 40.5 106 110.5t38 156t-38 156t-105.5 110t-153.5 40t-153.5 -40t-105.5 -110t-38 -156
t38 -156t106 -110.5t153 -40.5t153 40.5zM423 881l-98 97q-13 13 -13 35t14 37t36 15q21 0 37 -15l97 -98q13 -13 13 -34q0 -22 -14.5 -36.5t-36.5 -14.5t-35 14z" />
    <glyph glyph-name="Oacute" unicode="&#xd3;" horiz-adv-x="921" 
d="M254.5 41q-90.5 51 -140.5 142.5t-50 207.5t50 207t140.5 142t206.5 51q115 0 205.5 -51t141 -142t50.5 -207t-50.5 -207.5t-140.5 -142.5t-206 -51t-206.5 51zM614 124.5q68 40.5 106 110.5t38 156t-38 156t-105.5 110t-153.5 40t-153.5 -40t-105.5 -110t-38 -156
t38 -156t106 -110.5t153 -40.5t153 40.5zM428 881.5q-14 14.5 -14 36.5q0 21 12 34l98 98q15 15 36 15q22 0 36.5 -15t14.5 -37t-14 -35l-97 -97q-14 -14 -35 -14q-23 0 -37 14.5z" />
    <glyph glyph-name="Ocircumflex" unicode="&#xd4;" horiz-adv-x="921" 
d="M254.5 41q-90.5 51 -140.5 142.5t-50 207.5t50 207t140.5 142t206.5 51q115 0 205.5 -51t141 -142t50.5 -207t-50.5 -207.5t-140.5 -142.5t-206 -51t-206.5 51zM614 124.5q68 40.5 106 110.5t38 156t-38 156t-105.5 110t-153.5 40t-153.5 -40t-105.5 -110t-38 -156
t38 -156t106 -110.5t153 -40.5t153 40.5zM313.5 860.5q-14.5 11.5 -14.5 29.5q0 26 24 44l112 73q13 8 26 8q15 0 27 -8l111 -73q24 -18 24 -44q0 -18 -14 -29.5t-36 -11.5q-18 0 -33 11l-79 56l-79 -56q-14 -11 -32 -11q-22 0 -36.5 11.5z" />
    <glyph glyph-name="Otilde" unicode="&#xd5;" horiz-adv-x="921" 
d="M254.5 41q-90.5 51 -140.5 142.5t-50 207.5t50 207t140.5 142t206.5 51q115 0 205.5 -51t141 -142t50.5 -207t-50.5 -207.5t-140.5 -142.5t-206 -51t-206.5 51zM614 124.5q68 40.5 106 110.5t38 156t-38 156t-105.5 110t-153.5 40t-153.5 -40t-105.5 -110t-38 -156
t38 -156t106 -110.5t153 -40.5t153 40.5zM515 864.5q-23 8.5 -49 22.5q-42 23 -66 23q-15 0 -26 -5.5t-22 -21.5q-20 -27 -45 -27q-8 0 -20 5q-8 4 -13 13t-5 20q0 15 9 28q23 33 56.5 50.5t72.5 17.5q28 0 49.5 -8t48.5 -22q24 -14 35.5 -18.5t24.5 -4.5q23 0 40 17
q11 11 19 16t18 5q11 0 22 -7q16 -10 16 -33q0 -18 -11 -32q-38 -47 -101 -47q-30 0 -53 8.5z" />
    <glyph glyph-name="Odieresis" unicode="&#xd6;" horiz-adv-x="921" 
d="M254.5 41q-90.5 51 -140.5 142.5t-50 207.5t50 207t140.5 142t206.5 51q115 0 205.5 -51t141 -142t50.5 -207t-50.5 -207.5t-140.5 -142.5t-206 -51t-206.5 51zM614 124.5q68 40.5 106 110.5t38 156t-38 156t-105.5 110t-153.5 40t-153.5 -40t-105.5 -110t-38 -156
t38 -156t106 -110.5t153 -40.5t153 40.5zM306.5 882.5q-17.5 17.5 -17.5 42.5q0 24 18 42t43 18q24 0 42 -18t18 -42q0 -25 -18 -42.5t-42 -17.5q-26 0 -43.5 17.5zM529 882.5q-17 17.5 -17 42.5q0 24 17.5 42t42.5 18q24 0 42 -18t18 -42q0 -25 -18 -42.5t-42 -17.5
q-26 0 -43 17.5z" />
    <glyph glyph-name="multiply" unicode="&#xd7;" horiz-adv-x="469" 
d="M51.5 162.5q-14.5 14.5 -14.5 36.5t14 36l113 113l-113 112q-14 17 -14 36q0 21 14.5 36t36.5 15q20 0 37 -15l111 -112l112 112q15 15 37 15q21 0 36 -15t15 -36q0 -19 -15 -36l-112 -112l112 -113q15 -15 15 -36q0 -22 -15 -36.5t-36 -14.5q-22 0 -36 14l-113 113
l-113 -113q-14 -14 -35 -14q-22 0 -36.5 14.5z" />
    <glyph glyph-name="Oslash" unicode="&#xd8;" horiz-adv-x="921" 
d="M835.5 534.5q22.5 -66.5 22.5 -143.5q0 -116 -50.5 -207.5t-140.5 -142.5t-206 -51q-81 0 -150 25.5t-121 72.5l-80 -80q-8 -8 -21 -8q-14 0 -22.5 9t-8.5 22q0 12 8 20l82 82q-84 106 -84 258q0 116 50 207t140.5 142t206.5 51q79 0 146.5 -24.5t119.5 -69.5l77 76
q8 8 21 8t22.5 -9t9.5 -21q0 -11 -9 -20l-78 -78q43 -52 65.5 -118.5zM307.5 657q-67.5 -40 -105.5 -110t-38 -156q0 -54 15.5 -102.5t44.5 -87.5l429 429q-39 32 -88 49.5t-104 17.5q-86 0 -153.5 -40zM614 124.5q68 40.5 106 110.5t38 156q0 56 -16.5 105t-46.5 89
l-430 -430q80 -71 196 -71q85 0 153 40.5z" />
    <glyph glyph-name="Ugrave" unicode="&#xd9;" horiz-adv-x="845" 
d="M257.5 19.5q-74.5 35.5 -116 98.5t-41.5 144v467q0 23 15 37.5t37 14.5q23 0 37.5 -14.5t14.5 -37.5v-467q0 -53 28.5 -95t79 -65.5t115.5 -23.5q62 0 111 23.5t76.5 65.5t27.5 95v467q0 23 15 37.5t37 14.5t36.5 -14.5t14.5 -37.5v-467q0 -80 -40.5 -143.5t-113 -99
t-164.5 -35.5q-95 0 -169.5 35.5zM385 881l-98 97q-13 13 -13 35t14 37t36 15q21 0 37 -15l97 -98q13 -13 13 -34q0 -22 -14.5 -36.5t-36.5 -14.5t-35 14z" />
    <glyph glyph-name="Uacute" unicode="&#xda;" horiz-adv-x="845" 
d="M257.5 19.5q-74.5 35.5 -116 98.5t-41.5 144v467q0 23 15 37.5t37 14.5q23 0 37.5 -14.5t14.5 -37.5v-467q0 -53 28.5 -95t79 -65.5t115.5 -23.5q62 0 111 23.5t76.5 65.5t27.5 95v467q0 23 15 37.5t37 14.5t36.5 -14.5t14.5 -37.5v-467q0 -80 -40.5 -143.5t-113 -99
t-164.5 -35.5q-95 0 -169.5 35.5zM390 881.5q-14 14.5 -14 36.5q0 21 12 34l98 98q15 15 36 15q22 0 36.5 -15t14.5 -37t-14 -35l-97 -97q-14 -14 -35 -14q-23 0 -37 14.5z" />
    <glyph glyph-name="Ucircumflex" unicode="&#xdb;" horiz-adv-x="845" 
d="M257.5 19.5q-74.5 35.5 -116 98.5t-41.5 144v467q0 23 15 37.5t37 14.5q23 0 37.5 -14.5t14.5 -37.5v-467q0 -53 28.5 -95t79 -65.5t115.5 -23.5q62 0 111 23.5t76.5 65.5t27.5 95v467q0 23 15 37.5t37 14.5t36.5 -14.5t14.5 -37.5v-467q0 -80 -40.5 -143.5t-113 -99
t-164.5 -35.5q-95 0 -169.5 35.5zM275.5 860.5q-14.5 11.5 -14.5 29.5q0 26 24 44l112 73q13 8 26 8q15 0 27 -8l111 -73q24 -18 24 -44q0 -18 -14 -29.5t-36 -11.5q-18 0 -33 11l-79 56l-79 -56q-14 -11 -32 -11q-22 0 -36.5 11.5z" />
    <glyph glyph-name="Udieresis" unicode="&#xdc;" horiz-adv-x="845" 
d="M257.5 19.5q-74.5 35.5 -116 98.5t-41.5 144v467q0 23 15 37.5t37 14.5q23 0 37.5 -14.5t14.5 -37.5v-467q0 -53 28.5 -95t79 -65.5t115.5 -23.5q62 0 111 23.5t76.5 65.5t27.5 95v467q0 23 15 37.5t37 14.5t36.5 -14.5t14.5 -37.5v-467q0 -80 -40.5 -143.5t-113 -99
t-164.5 -35.5q-95 0 -169.5 35.5zM268.5 882.5q-17.5 17.5 -17.5 42.5q0 24 18 42t43 18q24 0 42 -18t18 -42q0 -25 -18 -42.5t-42 -17.5q-26 0 -43.5 17.5zM491 882.5q-17 17.5 -17 42.5q0 24 17.5 42t42.5 18q24 0 42 -18t18 -42q0 -25 -18 -42.5t-42 -17.5
q-26 0 -43 17.5z" />
    <glyph glyph-name="Yacute" unicode="&#xdd;" horiz-adv-x="670" 
d="M652.5 767q12.5 -14 12.5 -34q0 -17 -10 -33l-269 -415v-233q0 -22 -15 -37t-37 -15q-21 0 -36 15t-15 37v233l-267 415q-11 17 -11 32q0 21 15.5 35t36.5 14q16 0 26 -7t20 -22l234 -371l238 375q16 25 46 25q19 0 31.5 -14zM302 881.5q-14 14.5 -14 36.5q0 21 12 34
l98 98q15 15 36 15q22 0 36.5 -15t14.5 -37t-14 -35l-97 -97q-14 -14 -35 -14q-23 0 -37 14.5z" />
    <glyph glyph-name="Thorn" unicode="&#xde;" horiz-adv-x="623" 
d="M484.5 606q58.5 -29 91 -82t32.5 -122q0 -67 -32.5 -118t-91 -79t-132.5 -28h-148v-125q0 -22 -14.5 -37t-37.5 -15q-22 0 -37 15t-15 37v677q0 23 15 37.5t37 14.5q23 0 37.5 -14.5t14.5 -37.5v-94h148q74 0 132.5 -29zM464 305q44 38 44 97q0 62 -44 102.5t-112 40.5
h-148v-278h148q68 0 112 38z" />
    <glyph glyph-name="germandbls" unicode="&#xdf;" horiz-adv-x="547" 
d="M52.5 14.5q-14.5 14.5 -14.5 36.5v527q0 58 28.5 104t78.5 72t111 26q58 0 102.5 -24t69.5 -65.5t25 -92.5q0 -33 -11.5 -55t-34.5 -50q-17 -19 -26 -34.5t-9 -33.5q0 -22 13.5 -40.5t42.5 -45.5q42 -40 64 -73.5t22 -83.5q0 -53 -25 -94.5t-70 -64.5t-104 -23
q-33 0 -68 13.5t-58 36t-23 47.5q0 44 45 44q13 0 21 -5t20 -16q16 -15 31 -22.5t42 -7.5q42 0 65.5 25.5t23.5 66.5q0 32 -16 56.5t-47 55.5q-34 34 -51.5 61.5t-17.5 66.5q0 33 10.5 53t31.5 42q20 21 29.5 38t9.5 45q0 42 -29.5 66t-79.5 24q-48 0 -80 -31t-32 -81v-527
q0 -22 -15 -36.5t-38 -14.5q-22 0 -36.5 14.5z" />
    <glyph glyph-name="agrave" unicode="&#xe0;" 
d="M477.5 514.5q62.5 -36.5 99 -100t36.5 -141.5v-223q0 -22 -14.5 -36.5t-36.5 -14.5t-36.5 14.5t-14.5 36.5v37q-35 -43 -85 -67t-108 -24q-72 0 -130.5 36t-92 99.5t-33.5 141.5t36 141.5t99.5 100t140.5 36.5t139.5 -36.5zM428.5 110.5q40.5 24.5 63.5 67t23 95.5
t-23 96t-63.5 67.5t-90.5 24.5t-90.5 -24.5t-64 -67.5t-23.5 -96t23.5 -95.5t64 -67t90.5 -24.5t90.5 24.5zM300 647l-98 97q-13 13 -13 35t14 37t36 15q21 0 37 -15l97 -98q13 -13 13 -34q0 -22 -14.5 -36.5t-36.5 -14.5t-35 14z" />
    <glyph glyph-name="aacute" unicode="&#xe1;" 
d="M477.5 514.5q62.5 -36.5 99 -100t36.5 -141.5v-223q0 -22 -14.5 -36.5t-36.5 -14.5t-36.5 14.5t-14.5 36.5v37q-35 -43 -85 -67t-108 -24q-72 0 -130.5 36t-92 99.5t-33.5 141.5t36 141.5t99.5 100t140.5 36.5t139.5 -36.5zM428.5 110.5q40.5 24.5 63.5 67t23 95.5
t-23 96t-63.5 67.5t-90.5 24.5t-90.5 -24.5t-64 -67.5t-23.5 -96t23.5 -95.5t64 -67t90.5 -24.5t90.5 24.5zM305 647.5q-14 14.5 -14 36.5q0 21 12 34l98 98q15 15 36 15q22 0 36.5 -15t14.5 -37t-14 -35l-97 -97q-14 -14 -35 -14q-23 0 -37 14.5z" />
    <glyph glyph-name="acircumflex" unicode="&#xe2;" 
d="M477.5 514.5q62.5 -36.5 99 -100t36.5 -141.5v-223q0 -22 -14.5 -36.5t-36.5 -14.5t-36.5 14.5t-14.5 36.5v37q-35 -43 -85 -67t-108 -24q-72 0 -130.5 36t-92 99.5t-33.5 141.5t36 141.5t99.5 100t140.5 36.5t139.5 -36.5zM428.5 110.5q40.5 24.5 63.5 67t23 95.5
t-23 96t-63.5 67.5t-90.5 24.5t-90.5 -24.5t-64 -67.5t-23.5 -96t23.5 -95.5t64 -67t90.5 -24.5t90.5 24.5zM190.5 626.5q-14.5 11.5 -14.5 29.5q0 26 24 44l112 73q13 8 26 8q15 0 27 -8l111 -73q24 -18 24 -44q0 -18 -14 -29.5t-36 -11.5q-18 0 -33 11l-79 56l-79 -56
q-14 -11 -32 -11q-22 0 -36.5 11.5z" />
    <glyph glyph-name="atilde" unicode="&#xe3;" 
d="M477.5 514.5q62.5 -36.5 99 -100t36.5 -141.5v-223q0 -22 -14.5 -36.5t-36.5 -14.5t-36.5 14.5t-14.5 36.5v37q-35 -43 -85 -67t-108 -24q-72 0 -130.5 36t-92 99.5t-33.5 141.5t36 141.5t99.5 100t140.5 36.5t139.5 -36.5zM428.5 110.5q40.5 24.5 63.5 67t23 95.5
t-23 96t-63.5 67.5t-90.5 24.5t-90.5 -24.5t-64 -67.5t-23.5 -96t23.5 -95.5t64 -67t90.5 -24.5t90.5 24.5zM392 630.5q-23 8.5 -49 22.5q-42 23 -66 23q-15 0 -26 -5.5t-22 -21.5q-20 -27 -45 -27q-8 0 -20 5q-8 4 -13 13t-5 20q0 15 9 28q23 33 56.5 50.5t72.5 17.5
q28 0 49.5 -8t48.5 -22q24 -14 35.5 -18.5t24.5 -4.5q23 0 40 17q11 11 19 16t18 5q11 0 22 -7q16 -10 16 -33q0 -18 -11 -32q-38 -47 -101 -47q-30 0 -53 8.5z" />
    <glyph glyph-name="adieresis" unicode="&#xe4;" 
d="M477.5 514.5q62.5 -36.5 99 -100t36.5 -141.5v-223q0 -22 -14.5 -36.5t-36.5 -14.5t-36.5 14.5t-14.5 36.5v37q-35 -43 -85 -67t-108 -24q-72 0 -130.5 36t-92 99.5t-33.5 141.5t36 141.5t99.5 100t140.5 36.5t139.5 -36.5zM428.5 110.5q40.5 24.5 63.5 67t23 95.5
t-23 96t-63.5 67.5t-90.5 24.5t-90.5 -24.5t-64 -67.5t-23.5 -96t23.5 -95.5t64 -67t90.5 -24.5t90.5 24.5zM183.5 648.5q-17.5 17.5 -17.5 42.5q0 24 18 42t43 18q24 0 42 -18t18 -42q0 -25 -18 -42.5t-42 -17.5q-26 0 -43.5 17.5zM406 648.5q-17 17.5 -17 42.5
q0 24 17.5 42t42.5 18q24 0 42 -18t18 -42q0 -25 -18 -42.5t-42 -17.5q-26 0 -43 17.5z" />
    <glyph glyph-name="aring" unicode="&#xe5;" 
d="M477.5 514.5q62.5 -36.5 99 -100t36.5 -141.5v-223q0 -22 -14.5 -36.5t-36.5 -14.5t-36.5 14.5t-14.5 36.5v37q-35 -43 -85 -67t-108 -24q-72 0 -130.5 36t-92 99.5t-33.5 141.5t36 141.5t99.5 100t140.5 36.5t139.5 -36.5zM428.5 110.5q40.5 24.5 63.5 67t23 95.5
t-23 96t-63.5 67.5t-90.5 24.5t-90.5 -24.5t-64 -67.5t-23.5 -96t23.5 -95.5t64 -67t90.5 -24.5t90.5 24.5zM261 616q-30 30 -30 77t30 77.5t77 30.5t77 -30.5t30 -77.5t-30 -77t-77 -30t-77 30zM374.5 656.5q14.5 14.5 14.5 36.5q0 23 -14.5 37.5t-36.5 14.5
q-23 0 -37.5 -14.5t-14.5 -37.5q0 -22 14.5 -36.5t37.5 -14.5q22 0 36.5 14.5z" />
    <glyph glyph-name="ae" unicode="&#xe6;" horiz-adv-x="1079" 
d="M613 238v-1q12 -69 64.5 -112t127.5 -43q30 0 62.5 11t53.5 27q15 12 35 12q17 0 28 -11q18 -18 18 -35t-16 -29q-35 -27 -85.5 -44t-95.5 -17q-57 0 -106 19t-86 53v-18q0 -22 -14.5 -36.5t-36.5 -14.5t-36.5 14.5t-14.5 36.5v37q-35 -43 -85 -67t-108 -24
q-72 0 -130.5 36t-92 99.5t-33.5 141.5t36 141.5t99.5 100t140.5 36.5q73 0 133.5 -33t97.5 -91q33 58 91 91t130 33q77 0 133 -34t86 -95t30 -140q0 -19 -13 -31.5t-33 -12.5h-380zM671.5 425q-45.5 -40 -57.5 -107h333q-9 67 -50 107t-107 40q-73 0 -118.5 -40z
M428.5 110.5q40.5 24.5 63.5 67t23 95.5t-23 96t-63.5 67.5t-90.5 24.5t-90.5 -24.5t-64 -67.5t-23.5 -96t23.5 -95.5t64 -67t90.5 -24.5t90.5 24.5z" />
    <glyph glyph-name="ccedilla" unicode="&#xe7;" horiz-adv-x="601" 
d="M530 90q0 -15 -12 -27q-55 -52 -135 -64l-15 -34q52 -11 76 -34t24 -61q0 -26 -18.5 -50t-52 -39t-77.5 -15q-59 0 -98 25t-39 59q0 19 14 33.5t33 14.5q13 0 21 -5.5t13 -19.5q7 -17 22 -26t35 -9t33 9.5t13 25.5q0 18 -10.5 29t-34.5 15q-25 4 -37.5 14t-12.5 28
q0 13 5 26l6 16q-65 12 -115.5 50t-78 95.5t-27.5 126.5q0 80 34.5 143.5t96.5 99t140 35.5q118 0 196 -90q10 -11 10 -26q0 -22 -22 -37q-10 -7 -23 -7q-23 0 -39 18q-25 27 -54.5 39.5t-67.5 12.5q-77 0 -125 -51.5t-48 -136.5q0 -54 22.5 -96.5t63 -66.5t92.5 -24
q68 0 110 35q19 14 37 14q14 0 26 -9q19 -16 19 -36z" />
    <glyph glyph-name="egrave" unicode="&#xe8;" horiz-adv-x="621" 
d="M568 250.5q-13 -12.5 -33 -12.5h-380q11 -70 63.5 -113t128.5 -43q30 0 62.5 11t53.5 27q14 11 33 11t30 -10q18 -15 18 -34q0 -18 -16 -30q-34 -27 -84.5 -44t-96.5 -17q-82 0 -147 35.5t-101.5 98.5t-36.5 143t34.5 143.5t96 99t139.5 35.5q77 0 133 -34t86 -95
t30 -140q0 -19 -13 -31.5zM213.5 425q-45.5 -40 -57.5 -107h333q-9 67 -50 107t-107 40q-73 0 -118.5 -40zM284 647l-98 97q-13 13 -13 35t14 37t36 15q21 0 37 -15l97 -98q13 -13 13 -34q0 -22 -14.5 -36.5t-36.5 -14.5t-35 14z" />
    <glyph glyph-name="eacute" unicode="&#xe9;" horiz-adv-x="621" 
d="M568 250.5q-13 -12.5 -33 -12.5h-380q11 -70 63.5 -113t128.5 -43q30 0 62.5 11t53.5 27q14 11 33 11t30 -10q18 -15 18 -34q0 -18 -16 -30q-34 -27 -84.5 -44t-96.5 -17q-82 0 -147 35.5t-101.5 98.5t-36.5 143t34.5 143.5t96 99t139.5 35.5q77 0 133 -34t86 -95
t30 -140q0 -19 -13 -31.5zM213.5 425q-45.5 -40 -57.5 -107h333q-9 67 -50 107t-107 40q-73 0 -118.5 -40zM289 647.5q-14 14.5 -14 36.5q0 21 12 34l98 98q15 15 36 15q22 0 36.5 -15t14.5 -37t-14 -35l-97 -97q-14 -14 -35 -14q-23 0 -37 14.5z" />
    <glyph glyph-name="ecircumflex" unicode="&#xea;" horiz-adv-x="621" 
d="M568 250.5q-13 -12.5 -33 -12.5h-380q11 -70 63.5 -113t128.5 -43q30 0 62.5 11t53.5 27q14 11 33 11t30 -10q18 -15 18 -34q0 -18 -16 -30q-34 -27 -84.5 -44t-96.5 -17q-82 0 -147 35.5t-101.5 98.5t-36.5 143t34.5 143.5t96 99t139.5 35.5q77 0 133 -34t86 -95
t30 -140q0 -19 -13 -31.5zM213.5 425q-45.5 -40 -57.5 -107h333q-9 67 -50 107t-107 40q-73 0 -118.5 -40zM174.5 626.5q-14.5 11.5 -14.5 29.5q0 26 24 44l112 73q13 8 26 8q15 0 27 -8l111 -73q24 -18 24 -44q0 -18 -14 -29.5t-36 -11.5q-18 0 -33 11l-79 56l-79 -56
q-14 -11 -32 -11q-22 0 -36.5 11.5z" />
    <glyph glyph-name="edieresis" unicode="&#xeb;" horiz-adv-x="621" 
d="M568 250.5q-13 -12.5 -33 -12.5h-380q11 -70 63.5 -113t128.5 -43q30 0 62.5 11t53.5 27q14 11 33 11t30 -10q18 -15 18 -34q0 -18 -16 -30q-34 -27 -84.5 -44t-96.5 -17q-82 0 -147 35.5t-101.5 98.5t-36.5 143t34.5 143.5t96 99t139.5 35.5q77 0 133 -34t86 -95
t30 -140q0 -19 -13 -31.5zM213.5 425q-45.5 -40 -57.5 -107h333q-9 67 -50 107t-107 40q-73 0 -118.5 -40zM167.5 648.5q-17.5 17.5 -17.5 42.5q0 24 18 42t43 18q24 0 42 -18t18 -42q0 -25 -18 -42.5t-42 -17.5q-26 0 -43.5 17.5zM390 648.5q-17 17.5 -17 42.5
q0 24 17.5 42t42.5 18q24 0 42 -18t18 -42q0 -25 -18 -42.5t-42 -17.5q-26 0 -43 17.5z" />
    <glyph glyph-name="igrave" unicode="&#xec;" horiz-adv-x="302" 
d="M114.5 14.5q-14.5 14.5 -14.5 36.5v445q0 23 14.5 37t36.5 14q23 0 37 -14t14 -37v-445q0 -22 -14 -36.5t-37 -14.5q-22 0 -36.5 14.5zM113 647l-98 97q-13 13 -13 35t14 37t36 15q21 0 37 -15l97 -98q13 -13 13 -34q0 -22 -14.5 -36.5t-36.5 -14.5t-35 14z" />
    <glyph glyph-name="iacute" unicode="&#xed;" horiz-adv-x="302" 
d="M114.5 14.5q-14.5 14.5 -14.5 36.5v445q0 23 14.5 37t36.5 14q23 0 37 -14t14 -37v-445q0 -22 -14 -36.5t-37 -14.5q-22 0 -36.5 14.5zM118 647.5q-14 14.5 -14 36.5q0 21 12 34l98 98q15 15 36 15q22 0 36.5 -15t14.5 -37t-14 -35l-97 -97q-14 -14 -35 -14
q-23 0 -37 14.5z" />
    <glyph glyph-name="icircumflex" unicode="&#xee;" horiz-adv-x="302" 
d="M18 626.5q-13 11.5 -13 29.5q0 26 21 44l101 73q11 8 24 8t24 -8l100 -73q21 -18 21 -44q0 -18 -12.5 -29.5t-32.5 -11.5q-15 0 -29 11l-71 56l-71 -56q-12 -11 -29 -11q-20 0 -33 11.5zM114.5 14.5q-14.5 14.5 -14.5 36.5v445q0 23 14.5 37t36.5 14q23 0 37 -14t14 -37
v-445q0 -22 -14 -36.5t-37 -14.5q-22 0 -36.5 14.5z" />
    <glyph glyph-name="idieresis" unicode="&#xef;" horiz-adv-x="302" 
d="M6.5 678.5q-17.5 17.5 -17.5 42.5q0 24 18 42t43 18q24 0 42 -18t18 -42q0 -25 -18 -42.5t-42 -17.5q-26 0 -43.5 17.5zM209.5 678.5q-17.5 17.5 -17.5 42.5q0 24 17.5 42t42.5 18q24 0 42 -18t18 -42q0 -25 -18 -42.5t-42 -17.5q-25 0 -42.5 17.5zM114.5 14.5
q-14.5 14.5 -14.5 36.5v445q0 23 14.5 37t36.5 14q23 0 37 -14t14 -37v-445q0 -22 -14 -36.5t-37 -14.5q-22 0 -36.5 14.5z" />
    <glyph glyph-name="eth" unicode="&#xf0;" horiz-adv-x="673" 
d="M603 254q0 -75 -35.5 -133.5t-98 -91.5t-141.5 -33q-77 0 -137.5 33t-94.5 91.5t-34 133.5t31.5 133.5t87.5 91t127 32.5q72 0 128 -33t87 -92q-4 82 -23 135t-58.5 90t-109.5 67l-37 -67q-8 -14 -24 -14q-9 0 -20 6q-19 10 -19 25q0 6 5 16l33 59q-12 5 -36 13
q-42 14 -42 38q0 8 3 15q7 20 31 20q14 0 30 -6l48 -18l29 52q9 16 22 16q8 0 20 -7q20 -11 20 -27q0 -7 -4 -14l-26 -47q90 -43 141 -93t73 -116.5t23 -161.5zM419.5 107.5q40.5 21.5 63 60t22.5 86.5t-22.5 86t-63 59.5t-91.5 21.5q-74 0 -121 -46.5t-47 -120.5t47 -121
t121 -47q51 0 91.5 21.5z" />
    <glyph glyph-name="ntilde" unicode="&#xf1;" horiz-adv-x="682" 
d="M486 522q55 -30 86 -87.5t31 -138.5v-246q0 -22 -14.5 -36.5t-36.5 -14.5t-36.5 14.5t-14.5 36.5v246q0 81 -43.5 122.5t-115.5 41.5q-42 0 -76.5 -17t-54 -46t-19.5 -65v-282q0 -22 -14 -36.5t-37 -14.5q-22 0 -36.5 14.5t-14.5 36.5v446q0 23 14.5 37t36.5 14
q23 0 37 -14t14 -37v-11q32 32 76 49.5t94 17.5q69 0 124 -30zM395 630.5q-23 8.5 -49 22.5q-42 23 -66 23q-15 0 -26 -5.5t-22 -21.5q-20 -27 -45 -27q-8 0 -20 5q-8 4 -13 13t-5 20q0 15 9 28q23 33 56.5 50.5t72.5 17.5q28 0 49.5 -8t48.5 -22q24 -14 35.5 -18.5
t24.5 -4.5q23 0 40 17q11 11 19 16t18 5q11 0 22 -7q16 -10 16 -33q0 -18 -11 -32q-38 -47 -101 -47q-30 0 -53 8.5z" />
    <glyph glyph-name="ograve" unicode="&#xf2;" 
d="M195 31.5q-63 35.5 -98 98.5t-35 143q0 81 35 144t98 98.5t143 35.5q79 0 141.5 -35.5t98 -98.5t35.5 -144q0 -80 -35 -143t-97.5 -98.5t-142.5 -35.5t-143 35.5zM429.5 110q40.5 24 63 66.5t22.5 96.5t-22.5 97t-63 67t-91.5 24t-91.5 -24t-63.5 -67t-23 -97t23 -96.5
t63.5 -66.5t91.5 -24t91.5 24zM300 647l-98 97q-13 13 -13 35t14 37t36 15q21 0 37 -15l97 -98q13 -13 13 -34q0 -22 -14.5 -36.5t-36.5 -14.5t-35 14z" />
    <glyph glyph-name="oacute" unicode="&#xf3;" 
d="M195 31.5q-63 35.5 -98 98.5t-35 143q0 81 35 144t98 98.5t143 35.5q79 0 141.5 -35.5t98 -98.5t35.5 -144q0 -80 -35 -143t-97.5 -98.5t-142.5 -35.5t-143 35.5zM429.5 110q40.5 24 63 66.5t22.5 96.5t-22.5 97t-63 67t-91.5 24t-91.5 -24t-63.5 -67t-23 -97t23 -96.5
t63.5 -66.5t91.5 -24t91.5 24zM305 647.5q-14 14.5 -14 36.5q0 21 12 34l98 98q15 15 36 15q22 0 36.5 -15t14.5 -37t-14 -35l-97 -97q-14 -14 -35 -14q-23 0 -37 14.5z" />
    <glyph glyph-name="ocircumflex" unicode="&#xf4;" 
d="M195 31.5q-63 35.5 -98 98.5t-35 143q0 81 35 144t98 98.5t143 35.5q79 0 141.5 -35.5t98 -98.5t35.5 -144q0 -80 -35 -143t-97.5 -98.5t-142.5 -35.5t-143 35.5zM429.5 110q40.5 24 63 66.5t22.5 96.5t-22.5 97t-63 67t-91.5 24t-91.5 -24t-63.5 -67t-23 -97t23 -96.5
t63.5 -66.5t91.5 -24t91.5 24zM190.5 626.5q-14.5 11.5 -14.5 29.5q0 26 24 44l112 73q13 8 26 8q15 0 27 -8l111 -73q24 -18 24 -44q0 -18 -14 -29.5t-36 -11.5q-18 0 -33 11l-79 56l-79 -56q-14 -11 -32 -11q-22 0 -36.5 11.5z" />
    <glyph glyph-name="otilde" unicode="&#xf5;" 
d="M195 31.5q-63 35.5 -98 98.5t-35 143q0 81 35 144t98 98.5t143 35.5q79 0 141.5 -35.5t98 -98.5t35.5 -144q0 -80 -35 -143t-97.5 -98.5t-142.5 -35.5t-143 35.5zM429.5 110q40.5 24 63 66.5t22.5 96.5t-22.5 97t-63 67t-91.5 24t-91.5 -24t-63.5 -67t-23 -97t23 -96.5
t63.5 -66.5t91.5 -24t91.5 24zM392 630.5q-23 8.5 -49 22.5q-42 23 -66 23q-15 0 -26 -5.5t-22 -21.5q-20 -27 -45 -27q-8 0 -20 5q-8 4 -13 13t-5 20q0 15 9 28q23 33 56.5 50.5t72.5 17.5q28 0 49.5 -8t48.5 -22q24 -14 35.5 -18.5t24.5 -4.5q23 0 40 17q11 11 19 16t18 5
q11 0 22 -7q16 -10 16 -33q0 -18 -11 -32q-38 -47 -101 -47q-30 0 -53 8.5z" />
    <glyph glyph-name="odieresis" unicode="&#xf6;" 
d="M195 31.5q-63 35.5 -98 98.5t-35 143q0 81 35 144t98 98.5t143 35.5q79 0 141.5 -35.5t98 -98.5t35.5 -144q0 -80 -35 -143t-97.5 -98.5t-142.5 -35.5t-143 35.5zM429.5 110q40.5 24 63 66.5t22.5 96.5t-22.5 97t-63 67t-91.5 24t-91.5 -24t-63.5 -67t-23 -97t23 -96.5
t63.5 -66.5t91.5 -24t91.5 24zM183.5 648.5q-17.5 17.5 -17.5 42.5q0 24 18 42t43 18q24 0 42 -18t18 -42q0 -25 -18 -42.5t-42 -17.5q-26 0 -43.5 17.5zM406 648.5q-17 17.5 -17 42.5q0 24 17.5 42t42.5 18q24 0 42 -18t18 -42q0 -25 -18 -42.5t-42 -17.5q-26 0 -43 17.5z
" />
    <glyph glyph-name="divide" unicode="&#xf7;" horiz-adv-x="469" 
d="M193.5 444q-17.5 18 -17.5 43t17.5 42.5t42.5 17.5t42.5 -17.5t17.5 -42.5q0 -26 -17.5 -43.5t-42.5 -17.5t-42.5 18zM51.5 311q-14.5 15 -14.5 37t14.5 36t36.5 14h297q22 0 36.5 -14t14.5 -36t-14.5 -37t-36.5 -15h-297q-22 0 -36.5 15zM193.5 166q-17.5 18 -17.5 43
t17.5 42.5t42.5 17.5t42.5 -17.5t17.5 -42.5q0 -26 -17.5 -43.5t-42.5 -17.5t-42.5 18z" />
    <glyph glyph-name="oslash" unicode="&#xf8;" horiz-adv-x="708" 
d="M638 542.5q8 -9.5 8 -21.5q0 -13 -8 -21l-59 -59q54 -75 54 -173q0 -80 -35 -143t-97.5 -98.5t-142.5 -35.5q-53 0 -98.5 15.5t-80.5 44.5l-63 -63q-10 -9 -22 -9q-14 0 -23 9t-9 21t10 22l64 65q-54 73 -54 172q0 81 35 144t98 98.5t143 35.5q104 0 178 -60l57 56
q10 10 23 10q14 0 22 -9.5zM266.5 432q-40.5 -24 -63.5 -67t-23 -97q0 -63 29 -107l259 259q-47 36 -110 36q-51 0 -91.5 -24zM449.5 105q40.5 24 63 66.5t22.5 96.5q0 61 -28 106l-258 -257q45 -36 109 -36q51 0 91.5 24z" />
    <glyph glyph-name="ugrave" unicode="&#xf9;" horiz-adv-x="682" 
d="M578 534q14 -14 14 -37v-446q0 -22 -14 -36.5t-37 -14.5q-22 0 -36.5 14.5t-14.5 36.5v11q-32 -32 -76 -49.5t-94 -17.5q-69 0 -124 30t-86 87.5t-31 138.5v246q0 22 14.5 36.5t36.5 14.5t36.5 -14.5t14.5 -36.5v-246q0 -81 43.5 -122.5t115.5 -41.5q42 0 76.5 17t54 46
t19.5 65v282q0 23 14.5 37t36.5 14q23 0 37 -14zM303 647l-98 97q-13 13 -13 35t14 37t36 15q21 0 37 -15l97 -98q13 -13 13 -34q0 -22 -14.5 -36.5t-36.5 -14.5t-35 14z" />
    <glyph glyph-name="uacute" unicode="&#xfa;" horiz-adv-x="682" 
d="M578 534q14 -14 14 -37v-446q0 -22 -14 -36.5t-37 -14.5q-22 0 -36.5 14.5t-14.5 36.5v11q-32 -32 -76 -49.5t-94 -17.5q-69 0 -124 30t-86 87.5t-31 138.5v246q0 22 14.5 36.5t36.5 14.5t36.5 -14.5t14.5 -36.5v-246q0 -81 43.5 -122.5t115.5 -41.5q42 0 76.5 17t54 46
t19.5 65v282q0 23 14.5 37t36.5 14q23 0 37 -14zM308 647.5q-14 14.5 -14 36.5q0 21 12 34l98 98q15 15 36 15q22 0 36.5 -15t14.5 -37t-14 -35l-97 -97q-14 -14 -35 -14q-23 0 -37 14.5z" />
    <glyph glyph-name="ucircumflex" unicode="&#xfb;" horiz-adv-x="682" 
d="M578 534q14 -14 14 -37v-446q0 -22 -14 -36.5t-37 -14.5q-22 0 -36.5 14.5t-14.5 36.5v11q-32 -32 -76 -49.5t-94 -17.5q-69 0 -124 30t-86 87.5t-31 138.5v246q0 22 14.5 36.5t36.5 14.5t36.5 -14.5t14.5 -36.5v-246q0 -81 43.5 -122.5t115.5 -41.5q42 0 76.5 17t54 46
t19.5 65v282q0 23 14.5 37t36.5 14q23 0 37 -14zM193.5 626.5q-14.5 11.5 -14.5 29.5q0 26 24 44l112 73q13 8 26 8q15 0 27 -8l111 -73q24 -18 24 -44q0 -18 -14 -29.5t-36 -11.5q-18 0 -33 11l-79 56l-79 -56q-14 -11 -32 -11q-22 0 -36.5 11.5z" />
    <glyph glyph-name="udieresis" unicode="&#xfc;" horiz-adv-x="682" 
d="M578 534q14 -14 14 -37v-446q0 -22 -14 -36.5t-37 -14.5q-22 0 -36.5 14.5t-14.5 36.5v11q-32 -32 -76 -49.5t-94 -17.5q-69 0 -124 30t-86 87.5t-31 138.5v246q0 22 14.5 36.5t36.5 14.5t36.5 -14.5t14.5 -36.5v-246q0 -81 43.5 -122.5t115.5 -41.5q42 0 76.5 17t54 46
t19.5 65v282q0 23 14.5 37t36.5 14q23 0 37 -14zM186.5 648.5q-17.5 17.5 -17.5 42.5q0 24 18 42t43 18q24 0 42 -18t18 -42q0 -25 -18 -42.5t-42 -17.5q-26 0 -43.5 17.5zM409 648.5q-17 17.5 -17 42.5q0 24 17.5 42t42.5 18q24 0 42 -18t18 -42q0 -25 -18 -42.5t-42 -17.5
q-26 0 -43 17.5z" />
    <glyph glyph-name="yacute" unicode="&#xfd;" horiz-adv-x="539" 
d="M539 503q0 -10 -6 -24l-306 -688q-12 -31 -39 -31q-10 0 -24 6q-30 13 -30 39q0 12 6 24l100 225l-225 427q-5 9 -5 21q0 13 8 24t21 17q9 4 20 4q28 0 42 -28l183 -364l161 363q13 29 39 29q13 0 24 -5q31 -12 31 -39zM241 647.5q-14 14.5 -14 36.5q0 21 12 34l98 98
q15 15 36 15q22 0 36.5 -15t14.5 -37t-14 -35l-97 -97q-14 -14 -35 -14q-23 0 -37 14.5z" />
    <glyph glyph-name="thorn" unicode="&#xfe;" horiz-adv-x="703" 
d="M515.5 515.5q58.5 -35.5 92 -99t33.5 -143.5t-32.5 -143t-91 -98.5t-132.5 -35.5q-61 0 -111.5 29t-81.5 81v-289q1 -22 -13.5 -36.5t-37.5 -14.5q-22 0 -36.5 14t-14.5 37v913q0 23 14.5 37t36.5 14q23 0 37.5 -14.5t13.5 -36.5l-8 -296q34 56 88 86.5t113 30.5
q72 0 130.5 -35.5zM456.5 110q40.5 24 63.5 66.5t23 96.5t-23 97t-63.5 67t-91.5 24t-91.5 -24t-63 -67t-22.5 -97t22.5 -96.5t63 -66.5t91.5 -24t91.5 24z" />
    <glyph glyph-name="ydieresis" unicode="&#xff;" horiz-adv-x="539" 
d="M539 503q0 -10 -6 -24l-306 -688q-12 -31 -39 -31q-10 0 -24 6q-30 13 -30 39q0 12 6 24l100 225l-225 427q-5 9 -5 21q0 13 8 24t21 17q9 4 20 4q28 0 42 -28l183 -364l161 363q13 29 39 29q13 0 24 -5q31 -12 31 -39zM119.5 648.5q-17.5 17.5 -17.5 42.5q0 24 18 42
t43 18q24 0 42 -18t18 -42q0 -25 -18 -42.5t-42 -17.5q-26 0 -43.5 17.5zM342 648.5q-17 17.5 -17 42.5q0 24 17.5 42t42.5 18q24 0 42 -18t18 -42q0 -25 -18 -42.5t-42 -17.5q-26 0 -43 17.5z" />
    <glyph glyph-name="Amacron" unicode="&#x100;" horiz-adv-x="703" 
d="M689 51q0 -21 -15 -36t-37 -15q-15 0 -28.5 8.5t-19.5 23.5l-56 140h-359l-57 -140q-7 -15 -20 -23.5t-28 -8.5q-22 0 -36.5 15.5t-14.5 36.5q0 10 5 23l281 671q15 35 49 35q36 0 49 -35l282 -673q5 -13 5 -22zM209 258h289l-143 356zM189 893q-14 12 -14 34
q0 21 14 32.5t37 11.5h250q23 0 37.5 -11.5t14.5 -32.5q0 -22 -14.5 -34t-37.5 -12h-250q-23 0 -37 12z" />
    <glyph glyph-name="amacron" unicode="&#x101;" 
d="M477.5 514.5q62.5 -36.5 99 -100t36.5 -141.5v-223q0 -22 -14.5 -36.5t-36.5 -14.5t-36.5 14.5t-14.5 36.5v37q-35 -43 -85 -67t-108 -24q-72 0 -130.5 36t-92 99.5t-33.5 141.5t36 141.5t99.5 100t140.5 36.5t139.5 -36.5zM428.5 110.5q40.5 24.5 63.5 67t23 95.5
t-23 96t-63.5 67.5t-90.5 24.5t-90.5 -24.5t-64 -67.5t-23.5 -96t23.5 -95.5t64 -67t90.5 -24.5t90.5 24.5zM175 659q-14 12 -14 34q0 21 14 32.5t37 11.5h250q23 0 37.5 -11.5t14.5 -32.5q0 -22 -14.5 -34t-37.5 -12h-250q-23 0 -37 12z" />
    <glyph glyph-name="Abreve" unicode="&#x102;" horiz-adv-x="703" 
d="M689 51q0 -21 -15 -36t-37 -15q-15 0 -28.5 8.5t-19.5 23.5l-56 140h-359l-57 -140q-7 -15 -20 -23.5t-28 -8.5q-22 0 -36.5 15.5t-14.5 36.5q0 10 5 23l281 671q15 35 49 35q36 0 49 -35l282 -673q5 -13 5 -22zM209 258h289l-143 356zM270.5 855.5q-37.5 16.5 -59.5 45
t-22 63.5q0 22 13.5 36.5t34.5 14.5q19 0 33.5 -11.5t14.5 -29.5q0 -22 21 -37.5t46 -15.5q30 0 48 14.5t18 38.5q0 18 14.5 29.5t34.5 11.5q21 0 34 -14.5t13 -36.5q0 -35 -22 -63.5t-59 -45t-81 -16.5t-81.5 16.5z" />
    <glyph glyph-name="abreve" unicode="&#x103;" 
d="M477.5 514.5q62.5 -36.5 99 -100t36.5 -141.5v-223q0 -22 -14.5 -36.5t-36.5 -14.5t-36.5 14.5t-14.5 36.5v37q-35 -43 -85 -67t-108 -24q-72 0 -130.5 36t-92 99.5t-33.5 141.5t36 141.5t99.5 100t140.5 36.5t139.5 -36.5zM428.5 110.5q40.5 24.5 63.5 67t23 95.5
t-23 96t-63.5 67.5t-90.5 24.5t-90.5 -24.5t-64 -67.5t-23.5 -96t23.5 -95.5t64 -67t90.5 -24.5t90.5 24.5zM256.5 621.5q-37.5 16.5 -59.5 45t-22 63.5q0 22 13.5 36.5t34.5 14.5q19 0 33.5 -11.5t14.5 -29.5q0 -22 21 -37.5t46 -15.5q30 0 48 14.5t18 38.5q0 18 14.5 29.5
t34.5 11.5q21 0 34 -14.5t13 -36.5q0 -35 -22 -63.5t-59 -45t-81 -16.5t-81.5 16.5z" />
    <glyph glyph-name="Aogonek" unicode="&#x104;" horiz-adv-x="703" 
d="M743.5 -121.5q14.5 -14.5 14.5 -36.5q0 -25 -18 -41l-38 -25q-31 -22 -69 -22q-33 0 -62 17t-46 45.5t-17 62.5q0 59 52 102q19 13 28 32l6 9l-5 10l-56 140h-359l-57 -140q-7 -15 -20 -23.5t-28 -8.5q-22 0 -36.5 15.5t-14.5 36.5q0 10 5 23l281 671q15 35 49 35
q36 0 49 -35l282 -673q5 -12 5 -22q0 -21 -13 -34q7 -13 8 -27q0 -45 -64 -91q-10 -9 -10 -20q0 -10 6.5 -16.5t16.5 -6.5q8 0 12 4l31 23q15 10 31 10q22 0 36.5 -14.5zM209 258h289l-143 356z" />
    <glyph glyph-name="aogonek" unicode="&#x105;" 
d="M717.5 -151.5q14.5 -14.5 14.5 -36.5q0 -25 -18 -41l-38 -25q-31 -22 -69 -22q-33 0 -62 17t-46 45.5t-17 62.5q0 59 52 102q19 13 28 32q6 12 16 18q-10 -2 -16 -2q-22 0 -36.5 14.5t-14.5 36.5v37q-35 -43 -85 -67t-108 -24q-72 0 -130.5 36t-92 99.5t-33.5 141.5
t36 141.5t99.5 100t140.5 36.5t139.5 -36.5t99 -100t36.5 -141.5v-223q0 -27 -21 -42q8 2 15 2q21 0 35 -14t16 -36q0 -45 -64 -91q-10 -9 -10 -20q0 -10 6.5 -16.5t16.5 -6.5q8 0 12 4l31 23q15 10 31 10q22 0 36.5 -14.5zM428.5 110.5q40.5 24.5 63.5 67t23 95.5t-23 96
t-63.5 67.5t-90.5 24.5t-90.5 -24.5t-64 -67.5t-23.5 -96t23.5 -95.5t64 -67t90.5 -24.5t90.5 24.5z" />
    <glyph glyph-name="Cacute" unicode="&#x106;" horiz-adv-x="777" 
d="M254.5 43q-88.5 53 -139.5 145t-51 203q0 110 51 201.5t139.5 145t195.5 53.5q76 0 131.5 -20t112.5 -66q12 -9 16 -18.5t4 -22.5q0 -20 -14.5 -33t-33.5 -13t-35 13q-41 35 -80 50.5t-101 15.5q-78 0 -143.5 -41t-104 -111.5t-38.5 -153.5q0 -84 38.5 -154t104 -111
t143.5 -41q96 0 184 66q17 12 33 12q19 0 31.5 -13.5t12.5 -35.5q0 -21 -16 -37q-108 -87 -245 -87q-107 0 -195.5 53zM416 881.5q-14 14.5 -14 36.5q0 21 12 34l98 98q15 15 36 15q22 0 36.5 -15t14.5 -37t-14 -35l-97 -97q-14 -14 -35 -14q-23 0 -37 14.5z" />
    <glyph glyph-name="cacute" unicode="&#x107;" horiz-adv-x="601" 
d="M196 32q-63 36 -98.5 99.5t-35.5 141.5q0 80 34.5 143.5t96.5 99t140 35.5q118 0 196 -90q10 -11 10 -26q0 -22 -22 -37q-10 -7 -23 -7q-23 0 -39 18q-25 27 -54.5 39.5t-67.5 12.5q-77 0 -125 -51.5t-48 -136.5q0 -54 22.5 -96.5t63 -66.5t92.5 -24q68 0 110 35
q19 14 37 14q14 0 26 -9q19 -16 19 -36q0 -15 -12 -27q-72 -67 -180 -67q-79 0 -142 36zM300 647.5q-14 14.5 -14 36.5q0 21 12 34l98 98q15 15 36 15q22 0 36.5 -15t14.5 -37t-14 -35l-97 -97q-14 -14 -35 -14q-23 0 -37 14.5z" />
    <glyph glyph-name="Ccircumflex" unicode="&#x108;" horiz-adv-x="777" 
d="M254.5 43q-88.5 53 -139.5 145t-51 203q0 110 51 201.5t139.5 145t195.5 53.5q76 0 131.5 -20t112.5 -66q12 -9 16 -18.5t4 -22.5q0 -20 -14.5 -33t-33.5 -13t-35 13q-41 35 -80 50.5t-101 15.5q-78 0 -143.5 -41t-104 -111.5t-38.5 -153.5q0 -84 38.5 -154t104 -111
t143.5 -41q96 0 184 66q17 12 33 12q19 0 31.5 -13.5t12.5 -35.5q0 -21 -16 -37q-108 -87 -245 -87q-107 0 -195.5 53zM301.5 860.5q-14.5 11.5 -14.5 29.5q0 26 24 44l112 73q13 8 26 8q15 0 27 -8l111 -73q24 -18 24 -44q0 -18 -14 -29.5t-36 -11.5q-18 0 -33 11l-79 56
l-79 -56q-14 -11 -32 -11q-22 0 -36.5 11.5z" />
    <glyph glyph-name="ccircumflex" unicode="&#x109;" horiz-adv-x="601" 
d="M196 32q-63 36 -98.5 99.5t-35.5 141.5q0 80 34.5 143.5t96.5 99t140 35.5q118 0 196 -90q10 -11 10 -26q0 -22 -22 -37q-10 -7 -23 -7q-23 0 -39 18q-25 27 -54.5 39.5t-67.5 12.5q-77 0 -125 -51.5t-48 -136.5q0 -54 22.5 -96.5t63 -66.5t92.5 -24q68 0 110 35
q19 14 37 14q14 0 26 -9q19 -16 19 -36q0 -15 -12 -27q-72 -67 -180 -67q-79 0 -142 36zM185.5 626.5q-14.5 11.5 -14.5 29.5q0 26 24 44l112 73q13 8 26 8q15 0 27 -8l111 -73q24 -18 24 -44q0 -18 -14 -29.5t-36 -11.5q-18 0 -33 11l-79 56l-79 -56q-14 -11 -32 -11
q-22 0 -36.5 11.5z" />
    <glyph glyph-name="Cdotaccent" unicode="&#x10a;" horiz-adv-x="777" 
d="M254.5 43q-88.5 53 -139.5 145t-51 203q0 110 51 201.5t139.5 145t195.5 53.5q76 0 131.5 -20t112.5 -66q12 -9 16 -18.5t4 -22.5q0 -20 -14.5 -33t-33.5 -13t-35 13q-41 35 -80 50.5t-101 15.5q-78 0 -143.5 -41t-104 -111.5t-38.5 -153.5q0 -84 38.5 -154t104 -111
t143.5 -41q96 0 184 66q17 12 33 12q19 0 31.5 -13.5t12.5 -35.5q0 -21 -16 -37q-108 -87 -245 -87q-107 0 -195.5 53zM402.5 889.5q-19.5 19.5 -19.5 46.5t19.5 46.5t46.5 19.5t46.5 -19.5t19.5 -46.5t-19.5 -46.5t-46.5 -19.5t-46.5 19.5z" />
    <glyph glyph-name="cdotaccent" unicode="&#x10b;" horiz-adv-x="601" 
d="M196 32q-63 36 -98.5 99.5t-35.5 141.5q0 80 34.5 143.5t96.5 99t140 35.5q118 0 196 -90q10 -11 10 -26q0 -22 -22 -37q-10 -7 -23 -7q-23 0 -39 18q-25 27 -54.5 39.5t-67.5 12.5q-77 0 -125 -51.5t-48 -136.5q0 -54 22.5 -96.5t63 -66.5t92.5 -24q68 0 110 35
q19 14 37 14q14 0 26 -9q19 -16 19 -36q0 -15 -12 -27q-72 -67 -180 -67q-79 0 -142 36zM286.5 655.5q-19.5 19.5 -19.5 46.5t19.5 46.5t46.5 19.5t46.5 -19.5t19.5 -46.5t-19.5 -46.5t-46.5 -19.5t-46.5 19.5z" />
    <glyph glyph-name="Ccaron" unicode="&#x10c;" horiz-adv-x="777" 
d="M254.5 43q-88.5 53 -139.5 145t-51 203q0 110 51 201.5t139.5 145t195.5 53.5q76 0 131.5 -20t112.5 -66q12 -9 16 -18.5t4 -22.5q0 -20 -14.5 -33t-33.5 -13t-35 13q-41 35 -80 50.5t-101 15.5q-78 0 -143.5 -41t-104 -111.5t-38.5 -153.5q0 -84 38.5 -154t104 -111
t143.5 -41q96 0 184 66q17 12 33 12q19 0 31.5 -13.5t12.5 -35.5q0 -21 -16 -37q-108 -87 -245 -87q-107 0 -195.5 53zM423 867l-112 74q-24 18 -24 43q0 13 10.5 22t27.5 9q22 0 45 -16l79 -53l79 53q25 17 47 17q17 0 26.5 -9.5t9.5 -22.5q0 -25 -24 -43l-111 -74
q-12 -8 -27 -8t-26 8z" />
    <glyph glyph-name="ccaron" unicode="&#x10d;" horiz-adv-x="601" 
d="M196 32q-63 36 -98.5 99.5t-35.5 141.5q0 80 34.5 143.5t96.5 99t140 35.5q118 0 196 -90q10 -11 10 -26q0 -22 -22 -37q-10 -7 -23 -7q-23 0 -39 18q-25 27 -54.5 39.5t-67.5 12.5q-77 0 -125 -51.5t-48 -136.5q0 -54 22.5 -96.5t63 -66.5t92.5 -24q68 0 110 35
q19 14 37 14q14 0 26 -9q19 -16 19 -36q0 -15 -12 -27q-72 -67 -180 -67q-79 0 -142 36zM307 633l-112 74q-24 18 -24 43q0 13 10.5 22t27.5 9q22 0 45 -16l79 -53l79 53q25 17 47 17q17 0 26.5 -9.5t9.5 -22.5q0 -25 -24 -43l-111 -74q-12 -8 -27 -8t-26 8z" />
    <glyph glyph-name="Dcaron" unicode="&#x10e;" horiz-adv-x="783" 
d="M115 15q-15 15 -15 37v677q0 23 15 37.5t37 14.5h181q113 0 201 -50t137 -138.5t49 -201.5t-49 -202t-137 -139t-201 -50h-181q-22 0 -37 15zM333 92q83 0 148.5 38t102 106.5t36.5 154.5t-36.5 154t-102 106t-148.5 38h-129v-597h129zM366 867l-112 74q-24 18 -24 43
q0 13 10.5 22t27.5 9q22 0 45 -16l79 -53l79 53q25 17 47 17q17 0 26.5 -9.5t9.5 -22.5q0 -25 -24 -43l-111 -74q-12 -8 -27 -8t-26 8z" />
    <glyph glyph-name="dcaron" unicode="&#x10f;" horiz-adv-x="804" 
d="M599 767q14 -14 14 -37v-456q0 -78 -36.5 -141.5t-99 -100t-139.5 -36.5t-140.5 36.5t-99.5 100t-36 141.5t33.5 141.5t92 99.5t130.5 36q58 0 108 -24t85 -67v270q0 23 14.5 37t36.5 14q23 0 37 -14zM428.5 110.5q40.5 24.5 63.5 67.5t23 96t-23 95.5t-63.5 67
t-90.5 24.5t-90.5 -24.5t-64 -67t-23.5 -95.5t23.5 -96t64 -67.5t90.5 -24.5t90.5 24.5zM655 526q0 11 6.5 23.5t20.5 30.5q16 22 24.5 37.5t10.5 32.5q1 4 1 12q0 15 -8 39q-1 2 -5 15t-4 31q0 19 14 30.5t35 11.5q29 0 46.5 -23t17.5 -57q0 -45 -23.5 -93t-55 -80.5
t-52.5 -32.5q-28 0 -28 23z" />
    <glyph glyph-name="Dcroat" unicode="&#x110;" horiz-adv-x="783" 
d="M534 731q88 -50 137 -138.5t49 -201.5t-49 -202t-137 -139t-201 -50h-181q-22 0 -37 15t-15 37v294h-50q-23 0 -37 12t-14 33t14 33t37 12h50v293q0 23 15 37.5t37 14.5h181q113 0 201 -50zM481.5 130q65.5 38 102 106.5t36.5 154.5t-36.5 154t-102 106t-148.5 38h-129
v-253h128q23 0 37.5 -12t14.5 -33t-14.5 -33t-37.5 -12h-128v-254h129q83 0 148.5 38z" />
    <glyph glyph-name="dcroat" unicode="&#x111;" horiz-adv-x="703" 
d="M689 679q14 -10 14 -30q0 -17 -15 -28.5t-37 -11.5h-38v-335q0 -78 -36.5 -141.5t-99 -100t-139.5 -36.5t-140.5 36.5t-99.5 100t-36 141.5t33.5 141.5t92 99.5t130.5 36q58 0 108 -24t85 -67v149h-142q-22 0 -36.5 11.5t-14.5 28.5q0 20 13.5 30t37.5 10h142v41
q0 23 14.5 37t36.5 14q23 0 37 -14t14 -37v-41h38q24 0 38 -10zM428.5 110.5q40.5 24.5 63.5 67.5t23 96t-23 95.5t-63.5 67t-90.5 24.5t-90.5 -24.5t-64 -67t-23.5 -95.5t23.5 -96t64 -67.5t90.5 -24.5t90.5 24.5z" />
    <glyph glyph-name="Emacron" unicode="&#x112;" horiz-adv-x="700" 
d="M115 15q-15 15 -15 37v677q0 23 15 37.5t37 14.5h452q23 0 37 -13.5t14 -35.5q0 -21 -14 -34t-37 -13h-400v-243h287q22 0 36.5 -13.5t14.5 -34.5t-14.5 -34.5t-36.5 -13.5h-287v-250h400q23 0 37 -13t14 -34q0 -22 -14 -35.5t-37 -13.5h-452q-22 0 -37 15zM227 893
q-14 12 -14 34q0 21 14 32.5t37 11.5h250q23 0 37.5 -11.5t14.5 -32.5q0 -22 -14.5 -34t-37.5 -12h-250q-23 0 -37 12z" />
    <glyph glyph-name="emacron" unicode="&#x113;" horiz-adv-x="621" 
d="M568 250.5q-13 -12.5 -33 -12.5h-380q11 -70 63.5 -113t128.5 -43q30 0 62.5 11t53.5 27q14 11 33 11t30 -10q18 -15 18 -34q0 -18 -16 -30q-34 -27 -84.5 -44t-96.5 -17q-82 0 -147 35.5t-101.5 98.5t-36.5 143t34.5 143.5t96 99t139.5 35.5q77 0 133 -34t86 -95
t30 -140q0 -19 -13 -31.5zM213.5 425q-45.5 -40 -57.5 -107h333q-9 67 -50 107t-107 40q-73 0 -118.5 -40zM159 659q-14 12 -14 34q0 21 14 32.5t37 11.5h250q23 0 37.5 -11.5t14.5 -32.5q0 -22 -14.5 -34t-37.5 -12h-250q-23 0 -37 12z" />
    <glyph glyph-name="Ebreve" unicode="&#x114;" horiz-adv-x="700" 
d="M115 15q-15 15 -15 37v677q0 23 15 37.5t37 14.5h452q23 0 37 -13.5t14 -35.5q0 -21 -14 -34t-37 -13h-400v-243h287q22 0 36.5 -13.5t14.5 -34.5t-14.5 -34.5t-36.5 -13.5h-287v-250h400q23 0 37 -13t14 -34q0 -22 -14 -35.5t-37 -13.5h-452q-22 0 -37 15zM308.5 855.5
q-37.5 16.5 -59.5 45t-22 63.5q0 22 13.5 36.5t34.5 14.5q19 0 33.5 -11.5t14.5 -29.5q0 -22 21 -37.5t46 -15.5q30 0 48 14.5t18 38.5q0 18 14.5 29.5t34.5 11.5q21 0 34 -14.5t13 -36.5q0 -35 -22 -63.5t-59 -45t-81 -16.5t-81.5 16.5z" />
    <glyph glyph-name="ebreve" unicode="&#x115;" horiz-adv-x="621" 
d="M568 250.5q-13 -12.5 -33 -12.5h-380q11 -70 63.5 -113t128.5 -43q30 0 62.5 11t53.5 27q14 11 33 11t30 -10q18 -15 18 -34q0 -18 -16 -30q-34 -27 -84.5 -44t-96.5 -17q-82 0 -147 35.5t-101.5 98.5t-36.5 143t34.5 143.5t96 99t139.5 35.5q77 0 133 -34t86 -95
t30 -140q0 -19 -13 -31.5zM213.5 425q-45.5 -40 -57.5 -107h333q-9 67 -50 107t-107 40q-73 0 -118.5 -40zM240.5 621.5q-37.5 16.5 -59.5 45t-22 63.5q0 22 13.5 36.5t34.5 14.5q19 0 33.5 -11.5t14.5 -29.5q0 -22 21 -37.5t46 -15.5q30 0 48 14.5t18 38.5q0 18 14.5 29.5
t34.5 11.5q21 0 34 -14.5t13 -36.5q0 -35 -22 -63.5t-59 -45t-81 -16.5t-81.5 16.5z" />
    <glyph glyph-name="Edotaccent" unicode="&#x116;" horiz-adv-x="700" 
d="M115 15q-15 15 -15 37v677q0 23 15 37.5t37 14.5h452q23 0 37 -13.5t14 -35.5q0 -21 -14 -34t-37 -13h-400v-243h287q22 0 36.5 -13.5t14.5 -34.5t-14.5 -34.5t-36.5 -13.5h-287v-250h400q23 0 37 -13t14 -34q0 -22 -14 -35.5t-37 -13.5h-452q-22 0 -37 15zM343.5 889.5
q-19.5 19.5 -19.5 46.5t19.5 46.5t46.5 19.5t46.5 -19.5t19.5 -46.5t-19.5 -46.5t-46.5 -19.5t-46.5 19.5z" />
    <glyph glyph-name="edotaccent" unicode="&#x117;" horiz-adv-x="621" 
d="M568 250.5q-13 -12.5 -33 -12.5h-380q11 -70 63.5 -113t128.5 -43q30 0 62.5 11t53.5 27q14 11 33 11t30 -10q18 -15 18 -34q0 -18 -16 -30q-34 -27 -84.5 -44t-96.5 -17q-82 0 -147 35.5t-101.5 98.5t-36.5 143t34.5 143.5t96 99t139.5 35.5q77 0 133 -34t86 -95
t30 -140q0 -19 -13 -31.5zM213.5 425q-45.5 -40 -57.5 -107h333q-9 67 -50 107t-107 40q-73 0 -118.5 -40zM275.5 655.5q-19.5 19.5 -19.5 46.5t19.5 46.5t46.5 19.5t46.5 -19.5t19.5 -46.5t-19.5 -46.5t-46.5 -19.5t-46.5 19.5z" />
    <glyph glyph-name="Eogonek" unicode="&#x118;" horiz-adv-x="700" 
d="M740.5 -151.5q14.5 -14.5 14.5 -36.5q0 -25 -18 -41l-38 -25q-31 -22 -69 -22q-33 0 -62 17t-46 45.5t-17 62.5q0 59 52 102q19 13 28 32q7 12 14 17h-447q-22 0 -37 15t-15 37v677q0 23 15 37.5t37 14.5h452q23 0 37 -13.5t14 -35.5q0 -21 -14 -34t-37 -13h-400v-243
h287q22 0 36.5 -13.5t14.5 -34.5t-14.5 -34.5t-36.5 -13.5h-287v-250h400q23 0 37 -13t14 -34q0 -26 -19 -39q19 -2 31.5 -16t13.5 -34q0 -45 -64 -91q-10 -9 -10 -20q0 -10 6.5 -16.5t16.5 -6.5q8 0 12 4l31 23q15 10 31 10q22 0 36.5 -14.5z" />
    <glyph glyph-name="eogonek" unicode="&#x119;" horiz-adv-x="621" 
d="M568 250.5q-13 -12.5 -33 -12.5h-380q11 -70 63.5 -113t128.5 -43q23 0 45 6q10 4 15 5q33 10 56 27q14 11 33 11t30 -10q18 -15 18 -34q0 -18 -16 -30q-24 -20 -66 -37q-12 -34 -60 -68q-10 -9 -10 -20q0 -10 6.5 -16.5t16.5 -6.5q8 0 12 4l31 23q15 10 31 10
q22 0 36.5 -14.5t14.5 -36.5q0 -25 -18 -41l-38 -25q-31 -22 -69 -22q-33 0 -62 17t-46 45.5t-17 62.5t19 66q-73 8 -129 45t-87 96.5t-31 133.5q0 80 34.5 143.5t96 99t139.5 35.5q77 0 133 -34t86 -95t30 -140q0 -19 -13 -31.5zM213.5 425q-45.5 -40 -57.5 -107h333
q-9 67 -50 107t-107 40q-73 0 -118.5 -40z" />
    <glyph glyph-name="Ecaron" unicode="&#x11a;" horiz-adv-x="700" 
d="M115 15q-15 15 -15 37v677q0 23 15 37.5t37 14.5h452q23 0 37 -13.5t14 -35.5q0 -21 -14 -34t-37 -13h-400v-243h287q22 0 36.5 -13.5t14.5 -34.5t-14.5 -34.5t-36.5 -13.5h-287v-250h400q23 0 37 -13t14 -34q0 -22 -14 -35.5t-37 -13.5h-452q-22 0 -37 15zM364 867
l-112 74q-24 18 -24 43q0 13 10.5 22t27.5 9q22 0 45 -16l79 -53l79 53q25 17 47 17q17 0 26.5 -9.5t9.5 -22.5q0 -25 -24 -43l-111 -74q-12 -8 -27 -8t-26 8z" />
    <glyph glyph-name="ecaron" unicode="&#x11b;" horiz-adv-x="621" 
d="M568 250.5q-13 -12.5 -33 -12.5h-380q11 -70 63.5 -113t128.5 -43q30 0 62.5 11t53.5 27q14 11 33 11t30 -10q18 -15 18 -34q0 -18 -16 -30q-34 -27 -84.5 -44t-96.5 -17q-82 0 -147 35.5t-101.5 98.5t-36.5 143t34.5 143.5t96 99t139.5 35.5q77 0 133 -34t86 -95
t30 -140q0 -19 -13 -31.5zM213.5 425q-45.5 -40 -57.5 -107h333q-9 67 -50 107t-107 40q-73 0 -118.5 -40zM296 633l-112 74q-24 18 -24 43q0 13 10.5 22t27.5 9q22 0 45 -16l79 -53l79 53q25 17 47 17q17 0 26.5 -9.5t9.5 -22.5q0 -25 -24 -43l-111 -74q-12 -8 -27 -8
t-26 8z" />
    <glyph glyph-name="Gcircumflex" unicode="&#x11c;" horiz-adv-x="777" 
d="M696.5 390.5q14.5 -14.5 14.5 -37.5v-239q0 -24 -16 -37q-105 -87 -245 -87q-107 0 -195.5 53t-139.5 145t-51 203q0 110 51 201.5t139.5 145t195.5 53.5q76 0 131.5 -20t112.5 -66q12 -9 16 -18.5t4 -22.5q0 -20 -14.5 -33t-34.5 -13q-18 0 -34 13q-41 35 -80 50.5
t-101 15.5q-78 0 -143.5 -41t-104 -111.5t-38.5 -153.5q0 -84 38.5 -154t104 -111t143.5 -41q84 0 161 50v178h-138q-23 0 -37.5 13t-14.5 33t14.5 33t37.5 13h187q22 0 36.5 -14.5zM301.5 860.5q-14.5 11.5 -14.5 29.5q0 26 24 44l112 73q13 8 26 8q15 0 27 -8l111 -73
q24 -18 24 -44q0 -18 -14 -29.5t-36 -11.5q-18 0 -33 11l-79 56l-79 -56q-14 -11 -32 -11q-22 0 -36.5 11.5z" />
    <glyph glyph-name="gcircumflex" unicode="&#x11d;" 
d="M479.5 515.5q62.5 -35.5 98 -98.5t35.5 -144v-216q0 -79 -35 -144t-98.5 -102.5t-143.5 -37.5q-72 0 -134 28.5t-104 81.5q-11 14 -11 28q0 21 21 36q14 9 28 9q25 0 41 -21q27 -35 68 -53.5t93 -18.5q49 0 89 23.5t64 69t24 108.5v49q-31 -55 -82 -86t-115 -31
q-74 0 -132.5 35.5t-91 98.5t-32.5 143q0 81 35 144t98 98.5t143 35.5q79 0 141.5 -35.5zM429.5 110q40.5 24 63 66.5t22.5 96.5t-22.5 97t-63 67t-91.5 24t-91.5 -24t-63.5 -67t-23 -97t23 -96.5t63.5 -66.5t91.5 -24t91.5 24zM190.5 626.5q-14.5 11.5 -14.5 29.5
q0 26 24 44l112 73q13 8 26 8q15 0 27 -8l111 -73q24 -18 24 -44q0 -18 -14 -29.5t-36 -11.5q-18 0 -33 11l-79 56l-79 -56q-14 -11 -32 -11q-22 0 -36.5 11.5z" />
    <glyph glyph-name="Gbreve" unicode="&#x11e;" horiz-adv-x="777" 
d="M696.5 390.5q14.5 -14.5 14.5 -37.5v-239q0 -24 -16 -37q-105 -87 -245 -87q-107 0 -195.5 53t-139.5 145t-51 203q0 110 51 201.5t139.5 145t195.5 53.5q76 0 131.5 -20t112.5 -66q12 -9 16 -18.5t4 -22.5q0 -20 -14.5 -33t-34.5 -13q-18 0 -34 13q-41 35 -80 50.5
t-101 15.5q-78 0 -143.5 -41t-104 -111.5t-38.5 -153.5q0 -84 38.5 -154t104 -111t143.5 -41q84 0 161 50v178h-138q-23 0 -37.5 13t-14.5 33t14.5 33t37.5 13h187q22 0 36.5 -14.5zM367.5 855.5q-37.5 16.5 -59.5 45t-22 63.5q0 22 13.5 36.5t34.5 14.5q19 0 33.5 -11.5
t14.5 -29.5q0 -22 21 -37.5t46 -15.5q30 0 48 14.5t18 38.5q0 18 14.5 29.5t34.5 11.5q21 0 34 -14.5t13 -36.5q0 -35 -22 -63.5t-59 -45t-81 -16.5t-81.5 16.5z" />
    <glyph glyph-name="gbreve" unicode="&#x11f;" 
d="M479.5 515.5q62.5 -35.5 98 -98.5t35.5 -144v-216q0 -79 -35 -144t-98.5 -102.5t-143.5 -37.5q-72 0 -134 28.5t-104 81.5q-11 14 -11 28q0 21 21 36q14 9 28 9q25 0 41 -21q27 -35 68 -53.5t93 -18.5q49 0 89 23.5t64 69t24 108.5v49q-31 -55 -82 -86t-115 -31
q-74 0 -132.5 35.5t-91 98.5t-32.5 143q0 81 35 144t98 98.5t143 35.5q79 0 141.5 -35.5zM429.5 110q40.5 24 63 66.5t22.5 96.5t-22.5 97t-63 67t-91.5 24t-91.5 -24t-63.5 -67t-23 -97t23 -96.5t63.5 -66.5t91.5 -24t91.5 24zM256.5 621.5q-37.5 16.5 -59.5 45t-22 63.5
q0 22 13.5 36.5t34.5 14.5q19 0 33.5 -11.5t14.5 -29.5q0 -22 21 -37.5t46 -15.5q30 0 48 14.5t18 38.5q0 18 14.5 29.5t34.5 11.5q21 0 34 -14.5t13 -36.5q0 -35 -22 -63.5t-59 -45t-81 -16.5t-81.5 16.5z" />
    <glyph glyph-name="Gdotaccent" unicode="&#x120;" horiz-adv-x="777" 
d="M696.5 390.5q14.5 -14.5 14.5 -37.5v-239q0 -24 -16 -37q-105 -87 -245 -87q-107 0 -195.5 53t-139.5 145t-51 203q0 110 51 201.5t139.5 145t195.5 53.5q76 0 131.5 -20t112.5 -66q12 -9 16 -18.5t4 -22.5q0 -20 -14.5 -33t-34.5 -13q-18 0 -34 13q-41 35 -80 50.5
t-101 15.5q-78 0 -143.5 -41t-104 -111.5t-38.5 -153.5q0 -84 38.5 -154t104 -111t143.5 -41q84 0 161 50v178h-138q-23 0 -37.5 13t-14.5 33t14.5 33t37.5 13h187q22 0 36.5 -14.5zM402.5 889.5q-19.5 19.5 -19.5 46.5t19.5 46.5t46.5 19.5t46.5 -19.5t19.5 -46.5
t-19.5 -46.5t-46.5 -19.5t-46.5 19.5z" />
    <glyph glyph-name="gdotaccent" unicode="&#x121;" 
d="M479.5 515.5q62.5 -35.5 98 -98.5t35.5 -144v-216q0 -79 -35 -144t-98.5 -102.5t-143.5 -37.5q-72 0 -134 28.5t-104 81.5q-11 14 -11 28q0 21 21 36q14 9 28 9q25 0 41 -21q27 -35 68 -53.5t93 -18.5q49 0 89 23.5t64 69t24 108.5v49q-31 -55 -82 -86t-115 -31
q-74 0 -132.5 35.5t-91 98.5t-32.5 143q0 81 35 144t98 98.5t143 35.5q79 0 141.5 -35.5zM429.5 110q40.5 24 63 66.5t22.5 96.5t-22.5 97t-63 67t-91.5 24t-91.5 -24t-63.5 -67t-23 -97t23 -96.5t63.5 -66.5t91.5 -24t91.5 24zM291.5 655.5q-19.5 19.5 -19.5 46.5
t19.5 46.5t46.5 19.5t46.5 -19.5t19.5 -46.5t-19.5 -46.5t-46.5 -19.5t-46.5 19.5z" />
    <glyph glyph-name="Gcommaaccent" unicode="&#x122;" horiz-adv-x="777" 
d="M696.5 390.5q14.5 -14.5 14.5 -37.5v-239q0 -24 -16 -37q-105 -87 -245 -87q-107 0 -195.5 53t-139.5 145t-51 203q0 110 51 201.5t139.5 145t195.5 53.5q76 0 131.5 -20t112.5 -66q12 -9 16 -18.5t4 -22.5q0 -20 -14.5 -33t-34.5 -13q-18 0 -34 13q-41 35 -80 50.5
t-101 15.5q-78 0 -143.5 -41t-104 -111.5t-38.5 -153.5q0 -84 38.5 -154t104 -111t143.5 -41q84 0 161 50v178h-138q-23 0 -37.5 13t-14.5 33t14.5 33t37.5 13h187q22 0 36.5 -14.5zM347 -226.5q-39 20.5 -39 58.5q0 15 10 24t25 9q12 0 20 -5t18 -15q13 -14 25 -21t35 -7
q29 0 41 8t12 27q0 41 -75 41q-22 0 -35 8.5t-13 23.5q0 35 58 35q60 0 97 -29t37 -74q0 -48 -36.5 -76t-93.5 -28q-47 0 -86 20.5z" />
    <glyph glyph-name="gcommaaccent" unicode="&#x123;" 
d="M479.5 515.5q62.5 -35.5 98 -98.5t35.5 -144v-216q0 -79 -35 -144t-98.5 -102.5t-143.5 -37.5q-72 0 -134 28.5t-104 81.5q-11 14 -11 28q0 21 21 36q14 9 28 9q25 0 41 -21q27 -35 68 -53.5t93 -18.5q49 0 89 23.5t64 69t24 108.5v49q-31 -55 -82 -86t-115 -31
q-74 0 -132.5 35.5t-91 98.5t-32.5 143q0 81 35 144t98 98.5t143 35.5q79 0 141.5 -35.5zM429.5 110q40.5 24 63 66.5t22.5 96.5t-22.5 97t-63 67t-91.5 24t-91.5 -24t-63.5 -67t-23 -97t23 -96.5t63.5 -66.5t91.5 -24t91.5 24zM286 653q-20 26 -20 72q0 41 18.5 88
t45.5 78.5t50 31.5q12 0 18.5 -7.5t6.5 -18.5q0 -12 -5 -22.5t-16 -24.5q-13 -18 -19 -30.5t-6 -29.5q0 -15 6.5 -25.5t18.5 -22.5q13 -13 20 -24t7 -28q0 -27 -18.5 -45t-48.5 -18q-38 0 -58 26z" />
    <glyph glyph-name="Hcircumflex" unicode="&#x124;" horiz-adv-x="871" 
d="M115 15q-15 15 -15 37v677q0 23 15 37.5t37 14.5q23 0 37.5 -14.5t14.5 -37.5v-287h464v287q0 23 15 37.5t37 14.5t36.5 -14.5t14.5 -37.5v-677q0 -23 -14.5 -37.5t-36.5 -14.5t-37 15t-15 37v298h-464v-298q0 -22 -14.5 -37t-37.5 -15q-22 0 -37 15zM288.5 860.5
q-14.5 11.5 -14.5 29.5q0 26 24 44l112 73q13 8 26 8q15 0 27 -8l111 -73q24 -18 24 -44q0 -18 -14 -29.5t-36 -11.5q-18 0 -33 11l-79 56l-79 -56q-14 -11 -32 -11q-22 0 -36.5 11.5z" />
    <glyph glyph-name="hcircumflex" unicode="&#x125;" horiz-adv-x="683" 
d="M486 522q55 -30 86 -87.5t31 -138.5v-246q0 -22 -14.5 -36.5t-36.5 -14.5t-36.5 14.5t-14.5 36.5v246q0 81 -43.5 122.5t-115.5 41.5q-42 0 -76.5 -17t-54 -46t-19.5 -65v-282q0 -22 -14 -36.5t-37 -14.5q-22 0 -36.5 14.5t-14.5 36.5v680q0 23 14.5 37t36.5 14
q23 0 37 -14t14 -37v-245q32 32 76 49.5t94 17.5q69 0 124 -30zM-6.5 860.5q-14.5 11.5 -14.5 29.5q0 26 24 44l112 73q13 8 26 8q15 0 27 -8l111 -73q24 -18 24 -44q0 -18 -14 -29.5t-36 -11.5q-18 0 -33 11l-79 56l-79 -56q-14 -11 -32 -11q-22 0 -36.5 11.5z" />
    <glyph glyph-name="Hbar" unicode="&#x126;" horiz-adv-x="871" 
d="M834.5 628.5q13.5 -7.5 13.5 -27.5t-13.5 -27.5t-38.5 -7.5h-25v-514q0 -23 -14.5 -37.5t-36.5 -14.5t-37 15t-15 37v298h-464v-298q0 -22 -14.5 -37t-37.5 -15q-22 0 -37 15t-15 37v514h-26q-25 0 -38 7.5t-13 27.5t13 27.5t38 7.5h26v93q0 23 15 37.5t37 14.5
q23 0 37.5 -14.5t14.5 -37.5v-93h464v93q0 23 15 37.5t37 14.5t36.5 -14.5t14.5 -37.5v-93h25q25 0 38.5 -7.5zM668 442v124h-464v-124h464z" />
    <glyph glyph-name="hbar" unicode="&#x127;" horiz-adv-x="683" 
d="M486 522q55 -30 86 -87.5t31 -138.5v-246q0 -22 -14.5 -36.5t-36.5 -14.5t-36.5 14.5t-14.5 36.5v246q0 81 -43.5 122.5t-115.5 41.5q-42 0 -76.5 -17t-54 -46t-19.5 -65v-282q0 -22 -14 -36.5t-37 -14.5q-22 0 -36.5 14.5t-14.5 36.5v551h-42q-23 0 -37 12t-14 33t14 33
t37 12h42v39q0 23 14.5 37t36.5 14q23 0 37 -14t14 -37v-39h178q23 0 37.5 -12t14.5 -33t-14.5 -33t-37.5 -12h-178v-116q32 32 76 49.5t94 17.5q69 0 124 -30z" />
    <glyph glyph-name="Itilde" unicode="&#x128;" horiz-adv-x="304" 
d="M115 15q-15 15 -15 37v677q0 23 15 37.5t37 14.5q23 0 37.5 -14.5t14.5 -37.5v-677q0 -22 -14.5 -37t-37.5 -15q-22 0 -37 15zM135 903q-15 14 -22 19t-16 5q-10 0 -16.5 -6.5t-15.5 -21.5q-7 -11 -18 -17.5t-23 -6.5q-8 0 -17 3q-12 5 -19 15t-7 22q0 11 6 21
q41 73 102 73q27 0 45 -10.5t29 -20.5t14 -13q21 -18 34 -18q11 0 22 15q18 26 44 26q8 0 16 -3q13 -6 20 -16t7 -22q0 -10 -7 -22q-19 -33 -41.5 -48t-49.5 -15q-44 0 -87 41z" />
    <glyph glyph-name="itilde" unicode="&#x129;" horiz-adv-x="302" 
d="M114.5 14.5q-14.5 14.5 -14.5 36.5v445q0 23 14.5 37t36.5 14q23 0 37 -14t14 -37v-445q0 -22 -14 -36.5t-37 -14.5q-22 0 -36.5 14.5zM134 669q-15 14 -22 19t-16 5q-10 0 -16.5 -6.5t-15.5 -21.5q-7 -11 -18 -17.5t-23 -6.5q-8 0 -17 3q-12 5 -19 15t-7 22q0 11 6 21
q41 73 102 73q27 0 45 -10.5t29 -20.5t14 -13q21 -18 34 -18q11 0 22 15q18 26 44 26q8 0 16 -3q13 -6 20 -16t7 -22q0 -10 -7 -22q-19 -33 -41.5 -48t-49.5 -15q-44 0 -87 41z" />
    <glyph glyph-name="Imacron" unicode="&#x12a;" horiz-adv-x="304" 
d="M115 15q-15 15 -15 37v677q0 23 15 37.5t37 14.5q23 0 37.5 -14.5t14.5 -37.5v-677q0 -22 -14.5 -37t-37.5 -15q-22 0 -37 15zM-11 893q-14 12 -14 34q0 21 14 32.5t37 11.5h250q23 0 37.5 -11.5t14.5 -32.5q0 -22 -14.5 -34t-37.5 -12h-250q-23 0 -37 12z" />
    <glyph glyph-name="imacron" unicode="&#x12b;" horiz-adv-x="302" 
d="M20.5 659q-11.5 12 -11.5 34q0 21 11.5 32.5t29.5 11.5h200q18 0 30 -11.5t12 -32.5q0 -22 -12 -34t-30 -12h-200q-18 0 -29.5 12zM114.5 14.5q-14.5 14.5 -14.5 36.5v445q0 23 14.5 37t36.5 14q23 0 37 -14t14 -37v-445q0 -22 -14 -36.5t-37 -14.5q-22 0 -36.5 14.5z
" />
    <glyph glyph-name="Ibreve" unicode="&#x12c;" horiz-adv-x="304" 
d="M115 15q-15 15 -15 37v677q0 23 15 37.5t37 14.5q23 0 37.5 -14.5t14.5 -37.5v-677q0 -22 -14.5 -37t-37.5 -15q-22 0 -37 15zM70.5 855.5q-37.5 16.5 -59.5 45t-22 63.5q0 22 13.5 36.5t34.5 14.5q19 0 33.5 -11.5t14.5 -29.5q0 -22 21 -37.5t46 -15.5q30 0 48 14.5
t18 38.5q0 18 14.5 29.5t34.5 11.5q21 0 34 -14.5t13 -36.5q0 -35 -22 -63.5t-59 -45t-81 -16.5t-81.5 16.5z" />
    <glyph glyph-name="ibreve" unicode="&#x12d;" horiz-adv-x="302" 
d="M77.5 621.5q-33.5 16.5 -53.5 45t-20 63.5q0 22 12 36.5t31 14.5q17 0 30 -11.5t13 -29.5q0 -22 19 -37.5t42 -15.5q27 0 43 15t16 38q0 18 13 29.5t31 11.5q19 0 30.5 -14.5t11.5 -36.5q0 -35 -19.5 -63.5t-52.5 -45t-73 -16.5t-73.5 16.5zM114.5 14.5
q-14.5 14.5 -14.5 36.5v445q0 23 14.5 37t36.5 14q23 0 37 -14t14 -37v-445q0 -22 -14 -36.5t-37 -14.5q-22 0 -36.5 14.5z" />
    <glyph glyph-name="Iogonek" unicode="&#x12e;" horiz-adv-x="304" 
d="M262.5 -151.5q14.5 -14.5 14.5 -36.5q0 -24 -18 -41l-38 -25q-31 -22 -69 -22q-33 0 -62 17t-46 45.5t-17 62.5q0 59 52 102q19 13 28 32q7 15 22 22q-14 6 -21.5 18.5t-7.5 28.5v677q0 23 15 37.5t37 14.5q23 0 37.5 -14.5t14.5 -37.5v-677q0 -16 -7.5 -28.5
t-21.5 -18.5q12 -6 19.5 -18t8.5 -27q0 -45 -64 -91q-10 -9 -10 -20q0 -10 6.5 -16.5t16.5 -6.5q8 0 12 4l31 23q15 10 31 10q22 0 36.5 -14.5z" />
    <glyph glyph-name="iogonek" unicode="&#x12f;" horiz-adv-x="302" 
d="M104.5 655.5q-19.5 19.5 -19.5 46.5t19.5 46.5t46.5 19.5t46.5 -19.5t19.5 -46.5t-19.5 -46.5t-46.5 -19.5t-46.5 19.5zM261.5 -151.5q14.5 -14.5 14.5 -36.5q0 -25 -18 -41l-38 -25q-31 -22 -69 -22q-33 0 -62 17t-46 45.5t-17 62.5q0 59 52 102q19 13 28 32q7 15 22 22
q-13 6 -20.5 18t-7.5 28v445q0 23 14.5 37t36.5 14q23 0 37 -14t14 -37v-445q0 -33 -28 -46q12 -6 19.5 -18t8.5 -27q0 -45 -64 -91q-10 -9 -10 -20q0 -10 6.5 -16.5t16.5 -6.5q8 0 12 4l31 23q15 10 31 10q22 0 36.5 -14.5z" />
    <glyph glyph-name="Idotaccent" unicode="&#x130;" horiz-adv-x="304" 
d="M115 15q-15 15 -15 37v677q0 23 15 37.5t37 14.5q23 0 37.5 -14.5t14.5 -37.5v-677q0 -22 -14.5 -37t-37.5 -15q-22 0 -37 15zM105.5 889.5q-19.5 19.5 -19.5 46.5t19.5 46.5t46.5 19.5t46.5 -19.5t19.5 -46.5t-19.5 -46.5t-46.5 -19.5t-46.5 19.5z" />
    <glyph glyph-name="dotlessi" unicode="&#x131;" horiz-adv-x="302" 
d="M114.5 14.5q-14.5 14.5 -14.5 36.5v445q0 23 14.5 37t36.5 14q23 0 37 -14t14 -37v-445q0 -22 -14 -36.5t-37 -14.5q-22 0 -36.5 14.5z" />
    <glyph glyph-name="IJ" unicode="&#x132;" horiz-adv-x="651" 
d="M115 305q-15 15 -15 37v387q0 23 15 37.5t37 14.5q23 0 37.5 -14.5t14.5 -37.5v-387q0 -22 -14.5 -37t-37.5 -15q-22 0 -37 15zM201.5 13q-47.5 23 -74.5 64t-27 93q0 23 15 37.5t37 14.5q23 0 37.5 -14.5t14.5 -37.5q0 -38 29.5 -62t76.5 -24q60 0 98.5 41t38.5 105v499
q0 23 14.5 37.5t36.5 14.5q23 0 38 -14.5t15 -37.5v-499q0 -70 -31 -124.5t-85.5 -85t-124.5 -30.5q-61 0 -108.5 23z" />
    <glyph glyph-name="ij" unicode="&#x133;" horiz-adv-x="589" 
d="M114.5 14.5q-14.5 14.5 -14.5 36.5v445q0 23 14.5 37t36.5 14q23 0 37 -14t14 -37v-445q0 -22 -14 -36.5t-37 -14.5q-22 0 -36.5 14.5zM104.5 655.5q-19.5 19.5 -19.5 46.5t19.5 46.5t46.5 19.5t46.5 -19.5t19.5 -46.5t-19.5 -46.5t-46.5 -19.5t-46.5 19.5zM216 -219.5
q-14 14.5 -14 36.5t14 36.5t36 14.5q59 0 97 37.5t38 96.5v494q0 23 14.5 37t36.5 14q23 0 37 -14t14 -37v-494q0 -68 -30 -122t-84 -84t-123 -30q-22 0 -36 14.5zM391.5 655.5q-19.5 19.5 -19.5 46.5t19.5 46.5t46.5 19.5t46.5 -19.5t19.5 -46.5t-19.5 -46.5t-46.5 -19.5
t-46.5 19.5z" />
    <glyph glyph-name="Jcircumflex" unicode="&#x134;" horiz-adv-x="626" 
d="M160.5 20.5q-54.5 30.5 -85 85t-30.5 124.5q0 23 15 37.5t37 14.5q23 0 37.5 -14.5t14.5 -37.5q0 -64 38 -105t98 -41t98.5 41t38.5 105v499q0 23 14.5 37.5t36.5 14.5q23 0 38 -14.5t15 -37.5v-499q0 -70 -31 -124.5t-85.5 -85t-124.5 -30.5t-124.5 30.5zM326.5 860.5
q-14.5 11.5 -14.5 29.5q0 26 24 44l112 73q13 8 26 8q15 0 27 -8l111 -73q24 -18 24 -44q0 -18 -14 -29.5t-36 -11.5q-18 0 -33 11l-79 56l-79 -56q-14 -11 -32 -11q-22 0 -36.5 11.5z" />
    <glyph glyph-name="jcircumflex" unicode="&#x135;" horiz-adv-x="287" 
d="M3 626.5q-13 11.5 -13 29.5q0 26 21 44l101 73q11 8 24 8t24 -8l100 -73q21 -18 21 -44q0 -18 -12.5 -29.5t-32.5 -11.5q-15 0 -29 11l-71 56l-71 -56q-12 -11 -29 -11q-20 0 -33 11.5zM-86 -219.5q-14 14.5 -14 36.5t14 36.5t36 14.5q59 0 97 37.5t38 96.5v494
q0 23 14.5 37t36.5 14q23 0 37 -14t14 -37v-494q0 -68 -30 -122t-84 -84t-123 -30q-22 0 -36 14.5z" />
    <glyph glyph-name="Kcommaaccent" unicode="&#x136;" horiz-adv-x="667" 
d="M115.5 15q-15.5 15 -15.5 37v677q0 22 15.5 37t36.5 15q22 0 37 -15t15 -37v-300l331 331q12 12 21.5 16.5t21.5 4.5q21 0 32.5 -12.5t11.5 -30.5q0 -26 -19 -45l-255 -256l260 -354q10 -14 10 -32q0 -20 -13 -35.5t-33 -15.5q-28 0 -43 22l-253 343l-72 -72v-241
q0 -22 -15 -37t-37 -15q-21 0 -36.5 15zM252 -226.5q-39 20.5 -39 58.5q0 15 10 24t25 9q12 0 20 -5t18 -15q13 -14 25 -21t35 -7q29 0 41 8t12 27q0 41 -75 41q-22 0 -35 8.5t-13 23.5q0 35 58 35q60 0 97 -29t37 -74q0 -48 -36.5 -76t-93.5 -28q-47 0 -86 20.5z" />
    <glyph glyph-name="kcommaaccent" unicode="&#x137;" horiz-adv-x="569" 
d="M514 42q0 -22 -18 -37q-15 -12 -32 -12q-22 0 -36 18l-190 235l-50 -44v-153q0 -22 -13.5 -35.5t-35.5 -13.5t-35.5 13.5t-13.5 35.5v683q0 22 13.5 35.5t35.5 13.5t35.5 -13.5t13.5 -35.5v-407l243 217q13 13 31 13q21 0 34 -16q13 -13 13 -31q0 -21 -16 -34l-184 -164
l194 -238q11 -12 11 -30zM193 -226.5q-39 20.5 -39 58.5q0 15 10 24t25 9q12 0 20 -5t18 -15q13 -14 25 -21t35 -7q29 0 41 8t12 27q0 41 -75 41q-22 0 -35 8.5t-13 23.5q0 35 58 35q60 0 97 -29t37 -74q0 -48 -36.5 -76t-93.5 -28q-47 0 -86 20.5z" />
    <glyph glyph-name="kgreenlandic" unicode="&#x138;" horiz-adv-x="569" 
d="M514 42q0 -22 -18 -37q-15 -12 -32 -12q-22 0 -36 18l-190 235l-50 -44v-153q0 -22 -13.5 -35.5t-35.5 -13.5t-35.5 13.5t-13.5 35.5v449q0 22 13.5 35.5t35.5 13.5t35.5 -13.5t13.5 -35.5v-173l243 217q13 13 31 13q21 0 34 -16q13 -13 13 -31q0 -21 -16 -34l-184 -164
l194 -238q11 -12 11 -30z" />
    <glyph glyph-name="Lacute" unicode="&#x139;" horiz-adv-x="642" 
d="M114.5 15q-14.5 15 -14.5 37v677q0 22 15 37t36 15q22 0 37 -15t15 -37v-625h362q22 0 37 -15t15 -37t-15 -37t-37 -15h-414q-22 0 -36.5 15zM118 881.5q-14 14.5 -14 36.5q0 21 12 34l98 98q15 15 36 15q22 0 36.5 -15t14.5 -37t-14 -35l-97 -97q-14 -14 -35 -14
q-23 0 -37 14.5z" />
    <glyph glyph-name="lacute" unicode="&#x13a;" horiz-adv-x="300" 
d="M87.5 761.5q-14.5 14.5 -14.5 36.5q0 21 12 34l98 98q15 15 36 15q22 0 36.5 -15t14.5 -37q0 -21 -14 -35l-97 -97q-14 -14 -35 -14q-22 0 -36.5 14.5zM142.5 23.5q-34.5 23.5 -53.5 66t-19 95.5v446q0 22 14 36t36 14t36 -14t14 -36v-446q0 -37 14 -61t36 -24h25
q20 0 32.5 -14t12.5 -36t-19 -36t-49 -14h-2q-43 0 -77.5 23.5z" />
    <glyph glyph-name="Lcommaaccent" unicode="&#x13b;" horiz-adv-x="642" 
d="M114.5 15q-14.5 15 -14.5 37v677q0 22 15 37t36 15q22 0 37 -15t15 -37v-625h362q22 0 37 -15t15 -37t-15 -37t-37 -15h-414q-22 0 -36.5 15zM249 -226.5q-39 20.5 -39 58.5q0 15 10 24t25 9q12 0 20 -5t18 -15q13 -14 25 -21t35 -7q29 0 41 8t12 27q0 41 -75 41
q-22 0 -35 8.5t-13 23.5q0 35 58 35q60 0 97 -29t37 -74q0 -48 -36.5 -76t-93.5 -28q-47 0 -86 20.5z" />
    <glyph glyph-name="lcommaaccent" unicode="&#x13c;" horiz-adv-x="300" 
d="M142.5 23.5q-34.5 23.5 -53.5 66t-19 95.5v546q0 22 14 36t36 14t36 -14t14 -36v-546q0 -37 14 -61t36 -24h25q20 0 32.5 -14t12.5 -36t-19 -36t-49 -14h-2q-43 0 -77.5 23.5zM140 -226.5q-39 20.5 -39 58.5q0 15 10 24t25 9q12 0 20 -5t18 -15q13 -14 25 -21t35 -7
q29 0 41 8t12 27q0 41 -75 41q-22 0 -35 8.5t-13 23.5q0 35 58 35q60 0 97 -29t37 -74q0 -48 -36.5 -76t-93.5 -28q-47 0 -86 20.5z" />
    <glyph glyph-name="Lcaron" unicode="&#x13d;" horiz-adv-x="642" 
d="M114.5 15q-14.5 15 -14.5 37v677q0 22 15 37t36 15q22 0 37 -15t15 -37v-625h362q22 0 37 -15t15 -37t-15 -37t-37 -15h-414q-22 0 -36.5 15zM354 526q0 11 6.5 23.5t20.5 30.5q16 22 24.5 37.5t10.5 32.5q1 4 1 12q0 15 -8 39q-1 2 -5 15t-4 31q0 19 14 30.5t35 11.5
q29 0 46.5 -23t17.5 -57q0 -45 -23.5 -93t-55 -80.5t-52.5 -32.5q-28 0 -28 23z" />
    <glyph glyph-name="lcaron" unicode="&#x13e;" horiz-adv-x="401" 
d="M142.5 23.5q-34.5 23.5 -53.5 66t-19 95.5v546q0 22 14 36t36 14t36 -14t14 -36v-546q0 -37 14 -61t36 -24h25q20 0 32.5 -14t12.5 -36t-19 -36t-49 -14h-2q-43 0 -77.5 23.5zM277 526q0 11 6.5 23.5t20.5 30.5q16 22 24.5 37.5t10.5 32.5q1 4 1 12q0 15 -8 39
q-1 2 -5 15t-4 31q0 19 14 30.5t35 11.5q29 0 46.5 -23t17.5 -57q0 -45 -23.5 -93t-55 -80.5t-52.5 -32.5q-28 0 -28 23z" />
    <glyph glyph-name="Ldot" unicode="&#x13f;" horiz-adv-x="586" 
d="M114.5 15q-14.5 15 -14.5 37v677q0 22 15 37t36 15q22 0 37 -15t15 -37v-625h362q22 0 37 -15t15 -37t-15 -37t-37 -15h-414q-22 0 -36.5 15zM399.5 317.5q-20.5 20.5 -20.5 48.5q0 29 20.5 49.5t48.5 20.5t48.5 -20.5t20.5 -49.5q0 -28 -20 -48.5t-49 -20.5
q-28 0 -48.5 20.5z" />
    <glyph glyph-name="ldot" unicode="&#x140;" horiz-adv-x="377" 
d="M142.5 23.5q-34.5 23.5 -53.5 66t-19 95.5v546q0 22 14 36t36 14t36 -14t14 -36v-546q0 -37 14 -61t36 -24h25q20 0 32.5 -14t12.5 -36t-19 -36t-49 -14h-2q-43 0 -77.5 23.5zM269.5 317.5q-20.5 20.5 -20.5 48.5q0 29 20.5 49.5t48.5 20.5t48.5 -20.5t20.5 -49.5
q0 -28 -20 -48.5t-49 -20.5q-28 0 -48.5 20.5z" />
    <glyph glyph-name="Lslash" unicode="&#x141;" horiz-adv-x="664" 
d="M127 15q-15 15 -15 37v216l-12 -13q-15 -15 -35 -15q-23 0 -38.5 15t-15.5 37q0 21 15 36l86 86v315q0 22 15 37t37 15t37 -15t15 -37v-213l122 117q15 15 37 15q21 0 36.5 -16t15.5 -37t-15 -36l-196 -188v-267h362q22 0 37 -15t15 -37t-15 -37t-37 -15h-414
q-22 0 -37 15z" />
    <glyph glyph-name="lslash" unicode="&#x142;" horiz-adv-x="352" 
d="M123.5 15q-14.5 15 -14.5 36v213l-12 -13q-15 -15 -36 -15t-36 15t-15 36q0 20 14 36l85 84v311q0 22 14.5 37t36.5 15q21 0 36 -15t15 -37v-210l24 24q17 15 36 15q21 0 36 -15t15 -36q0 -20 -14 -36l-97 -95v-263h23q22 0 36.5 -14.5t14.5 -36.5q0 -21 -14.5 -36
t-36.5 -15h-74q-22 0 -36.5 15z" />
    <glyph glyph-name="Nacute" unicode="&#x143;" horiz-adv-x="830" 
d="M114.5 14.5q-14.5 14.5 -14.5 37.5v677q0 23 14.5 37.5t36.5 14.5q11 0 22 -5.5t18 -13.5l436 -580v547q0 23 15 37.5t37 14.5t36.5 -14.5t14.5 -37.5v-677q0 -23 -14.5 -37.5t-36.5 -14.5q-11 0 -22.5 4.5t-17.5 13.5l-436 580v-546q0 -22 -14.5 -37t-37.5 -15
q-22 0 -36.5 14.5zM382 881.5q-14 14.5 -14 36.5q0 21 12 34l98 98q15 15 36 15q22 0 36.5 -15t14.5 -37t-14 -35l-97 -97q-14 -14 -35 -14q-23 0 -37 14.5z" />
    <glyph glyph-name="nacute" unicode="&#x144;" horiz-adv-x="682" 
d="M486 522q55 -30 86 -87.5t31 -138.5v-246q0 -22 -14.5 -36.5t-36.5 -14.5t-36.5 14.5t-14.5 36.5v246q0 81 -43.5 122.5t-115.5 41.5q-42 0 -76.5 -17t-54 -46t-19.5 -65v-282q0 -22 -14 -36.5t-37 -14.5q-22 0 -36.5 14.5t-14.5 36.5v446q0 23 14.5 37t36.5 14
q23 0 37 -14t14 -37v-11q32 32 76 49.5t94 17.5q69 0 124 -30zM308 647.5q-14 14.5 -14 36.5q0 21 12 34l98 98q15 15 36 15q22 0 36.5 -15t14.5 -37t-14 -35l-97 -97q-14 -14 -35 -14q-23 0 -37 14.5z" />
    <glyph glyph-name="Ncommaaccent" unicode="&#x145;" horiz-adv-x="830" 
d="M114.5 14.5q-14.5 14.5 -14.5 37.5v677q0 23 14.5 37.5t36.5 14.5q11 0 22 -5.5t18 -13.5l436 -580v547q0 23 15 37.5t37 14.5t36.5 -14.5t14.5 -37.5v-677q0 -23 -14.5 -37.5t-36.5 -14.5q-11 0 -22.5 4.5t-17.5 13.5l-436 580v-546q0 -22 -14.5 -37t-37.5 -15
q-22 0 -36.5 14.5zM333 -226.5q-39 20.5 -39 58.5q0 15 10 24t25 9q12 0 20 -5t18 -15q13 -14 25 -21t35 -7q29 0 41 8t12 27q0 41 -75 41q-22 0 -35 8.5t-13 23.5q0 35 58 35q60 0 97 -29t37 -74q0 -48 -36.5 -76t-93.5 -28q-47 0 -86 20.5z" />
    <glyph glyph-name="ncommaaccent" unicode="&#x146;" horiz-adv-x="682" 
d="M486 522q55 -30 86 -87.5t31 -138.5v-246q0 -22 -14.5 -36.5t-36.5 -14.5t-36.5 14.5t-14.5 36.5v246q0 81 -43.5 122.5t-115.5 41.5q-42 0 -76.5 -17t-54 -46t-19.5 -65v-282q0 -22 -14 -36.5t-37 -14.5q-22 0 -36.5 14.5t-14.5 36.5v446q0 23 14.5 37t36.5 14
q23 0 37 -14t14 -37v-11q32 32 76 49.5t94 17.5q69 0 124 -30zM259 -226.5q-39 20.5 -39 58.5q0 15 10 24t25 9q12 0 20 -5t18 -15q13 -14 25 -21t35 -7q29 0 41 8t12 27q0 41 -75 41q-22 0 -35 8.5t-13 23.5q0 35 58 35q60 0 97 -29t37 -74q0 -48 -36.5 -76t-93.5 -28
q-47 0 -86 20.5z" />
    <glyph glyph-name="Ncaron" unicode="&#x147;" horiz-adv-x="830" 
d="M114.5 14.5q-14.5 14.5 -14.5 37.5v677q0 23 14.5 37.5t36.5 14.5q11 0 22 -5.5t18 -13.5l436 -580v547q0 23 15 37.5t37 14.5t36.5 -14.5t14.5 -37.5v-677q0 -23 -14.5 -37.5t-36.5 -14.5q-11 0 -22.5 4.5t-17.5 13.5l-436 580v-546q0 -22 -14.5 -37t-37.5 -15
q-22 0 -36.5 14.5zM389 867l-112 74q-24 18 -24 43q0 13 10.5 22t27.5 9q22 0 45 -16l79 -53l79 53q25 17 47 17q17 0 26.5 -9.5t9.5 -22.5q0 -25 -24 -43l-111 -74q-12 -8 -27 -8t-26 8z" />
    <glyph glyph-name="ncaron" unicode="&#x148;" horiz-adv-x="682" 
d="M486 522q55 -30 86 -87.5t31 -138.5v-246q0 -22 -14.5 -36.5t-36.5 -14.5t-36.5 14.5t-14.5 36.5v246q0 81 -43.5 122.5t-115.5 41.5q-42 0 -76.5 -17t-54 -46t-19.5 -65v-282q0 -22 -14 -36.5t-37 -14.5q-22 0 -36.5 14.5t-14.5 36.5v446q0 23 14.5 37t36.5 14
q23 0 37 -14t14 -37v-11q32 32 76 49.5t94 17.5q69 0 124 -30zM315 633l-112 74q-24 18 -24 43q0 13 10.5 22t27.5 9q22 0 45 -16l79 -53l79 53q25 17 47 17q17 0 26.5 -9.5t9.5 -22.5q0 -25 -24 -43l-111 -74q-12 -8 -27 -8t-26 8z" />
    <glyph glyph-name="Eng" unicode="&#x14a;" horiz-adv-x="749" 
d="M546 740.5q65 -41.5 99 -115t34 -169.5v-79q0 -189 -61.5 -288t-178.5 -99q-61 0 -109 29t-68 85q-3 9 -3 18q0 18 11.5 30t31.5 12q14 0 25.5 -9t18.5 -24q9 -22 33 -32t54 -10q54 0 85 31t44.5 94t13.5 163v79q0 110 -48.5 169.5t-141.5 59.5q-83 0 -133 -44t-50 -114
v-475q0 -22 -15 -37t-37 -15t-36.5 15t-14.5 37v677q0 22 14.5 37t36.5 15q23 0 37.5 -14.5t14.5 -37.5v-50q37 51 82.5 77t107.5 26q88 0 153 -41.5z" />
    <glyph glyph-name="eng" unicode="&#x14b;" horiz-adv-x="673" 
d="M486.5 519.5q54.5 -32.5 85.5 -91t31 -132.5v-169q0 -111 -27.5 -188.5t-77 -116.5t-113.5 -39t-110.5 27t-66.5 80q-3 7 -3 16q0 11 6.5 20t17.5 13q6 3 13 3q12 0 22.5 -8t16.5 -21q10 -24 32.5 -34.5t61.5 -10.5q126 0 126 259v169q0 72 -44.5 118t-114.5 46
q-66 0 -108 -36t-42 -92v-282q0 -22 -14 -36.5t-37 -14.5q-22 0 -36.5 14.5t-14.5 36.5v446q0 23 14.5 37t36.5 14q23 0 37 -14t14 -37v-16q31 34 74.5 53t95.5 19q70 0 124.5 -32.5z" />
    <glyph glyph-name="Omacron" unicode="&#x14c;" horiz-adv-x="921" 
d="M254.5 41q-90.5 51 -140.5 142.5t-50 207.5t50 207t140.5 142t206.5 51q115 0 205.5 -51t141 -142t50.5 -207t-50.5 -207.5t-140.5 -142.5t-206 -51t-206.5 51zM614 124.5q68 40.5 106 110.5t38 156t-38 156t-105.5 110t-153.5 40t-153.5 -40t-105.5 -110t-38 -156
t38 -156t106 -110.5t153 -40.5t153 40.5zM298 893q-14 12 -14 34q0 21 14 32.5t37 11.5h250q23 0 37.5 -11.5t14.5 -32.5q0 -22 -14.5 -34t-37.5 -12h-250q-23 0 -37 12z" />
    <glyph glyph-name="omacron" unicode="&#x14d;" 
d="M195 31.5q-63 35.5 -98 98.5t-35 143q0 81 35 144t98 98.5t143 35.5q79 0 141.5 -35.5t98 -98.5t35.5 -144q0 -80 -35 -143t-97.5 -98.5t-142.5 -35.5t-143 35.5zM429.5 110q40.5 24 63 66.5t22.5 96.5t-22.5 97t-63 67t-91.5 24t-91.5 -24t-63.5 -67t-23 -97t23 -96.5
t63.5 -66.5t91.5 -24t91.5 24zM175 659q-14 12 -14 34q0 21 14 32.5t37 11.5h250q23 0 37.5 -11.5t14.5 -32.5q0 -22 -14.5 -34t-37.5 -12h-250q-23 0 -37 12z" />
    <glyph glyph-name="Obreve" unicode="&#x14e;" horiz-adv-x="921" 
d="M254.5 41q-90.5 51 -140.5 142.5t-50 207.5t50 207t140.5 142t206.5 51q115 0 205.5 -51t141 -142t50.5 -207t-50.5 -207.5t-140.5 -142.5t-206 -51t-206.5 51zM614 124.5q68 40.5 106 110.5t38 156t-38 156t-105.5 110t-153.5 40t-153.5 -40t-105.5 -110t-38 -156
t38 -156t106 -110.5t153 -40.5t153 40.5zM379.5 855.5q-37.5 16.5 -59.5 45t-22 63.5q0 22 13.5 36.5t34.5 14.5q19 0 33.5 -11.5t14.5 -29.5q0 -22 21 -37.5t46 -15.5q30 0 48 14.5t18 38.5q0 18 14.5 29.5t34.5 11.5q21 0 34 -14.5t13 -36.5q0 -35 -22 -63.5t-59 -45
t-81 -16.5t-81.5 16.5z" />
    <glyph glyph-name="obreve" unicode="&#x14f;" 
d="M195 31.5q-63 35.5 -98 98.5t-35 143q0 81 35 144t98 98.5t143 35.5q79 0 141.5 -35.5t98 -98.5t35.5 -144q0 -80 -35 -143t-97.5 -98.5t-142.5 -35.5t-143 35.5zM429.5 110q40.5 24 63 66.5t22.5 96.5t-22.5 97t-63 67t-91.5 24t-91.5 -24t-63.5 -67t-23 -97t23 -96.5
t63.5 -66.5t91.5 -24t91.5 24zM256.5 621.5q-37.5 16.5 -59.5 45t-22 63.5q0 22 13.5 36.5t34.5 14.5q19 0 33.5 -11.5t14.5 -29.5q0 -22 21 -37.5t46 -15.5q30 0 48 14.5t18 38.5q0 18 14.5 29.5t34.5 11.5q21 0 34 -14.5t13 -36.5q0 -35 -22 -63.5t-59 -45t-81 -16.5
t-81.5 16.5z" />
    <glyph glyph-name="Ohungarumlaut" unicode="&#x150;" horiz-adv-x="921" 
d="M254.5 41q-90.5 51 -140.5 142.5t-50 207.5t50 207t140.5 142t206.5 51q115 0 205.5 -51t141 -142t50.5 -207t-50.5 -207.5t-140.5 -142.5t-206 -51t-206.5 51zM614 124.5q68 40.5 106 110.5t38 156t-38 156t-105.5 110t-153.5 40t-153.5 -40t-105.5 -110t-38 -156
t38 -156t106 -110.5t153 -40.5t153 40.5zM361 862.5q-13 11.5 -13 30.5q0 7 3 16l38 124q4 13 17.5 22.5t29.5 9.5q22 0 37 -15t15 -36q0 -10 -4 -19l-56 -118q-12 -26 -38 -26q-16 0 -29 11.5zM504.5 862.5q-12.5 11.5 -12.5 30.5l2 16l39 124q4 13 17.5 22.5t29.5 9.5
q21 0 36.5 -15t15.5 -36q0 -2 -1 -8t-4 -11l-55 -118q-14 -26 -39 -26q-16 0 -28.5 11.5z" />
    <glyph glyph-name="ohungarumlaut" unicode="&#x151;" 
d="M195 31.5q-63 35.5 -98 98.5t-35 143q0 81 35 144t98 98.5t143 35.5q79 0 141.5 -35.5t98 -98.5t35.5 -144q0 -80 -35 -143t-97.5 -98.5t-142.5 -35.5t-143 35.5zM429.5 110q40.5 24 63 66.5t22.5 96.5t-22.5 97t-63 67t-91.5 24t-91.5 -24t-63.5 -67t-23 -97t23 -96.5
t63.5 -66.5t91.5 -24t91.5 24zM238 628.5q-13 11.5 -13 30.5q0 7 3 16l38 124q4 13 17.5 22.5t29.5 9.5q22 0 37 -15t15 -36q0 -10 -4 -19l-56 -118q-12 -26 -38 -26q-16 0 -29 11.5zM381.5 628.5q-12.5 11.5 -12.5 30.5l2 16l39 124q4 13 17.5 22.5t29.5 9.5q21 0 36.5 -15
t15.5 -36q0 -2 -1 -8t-4 -11l-55 -118q-14 -26 -39 -26q-16 0 -28.5 11.5z" />
    <glyph glyph-name="OE" unicode="&#x152;" horiz-adv-x="1161" 
d="M1102 83q14 -13 14 -34q0 -22 -14 -35.5t-37 -13.5h-413q-23 0 -77 -4q-72 -6 -114 -6q-116 0 -206.5 51t-140.5 142.5t-50 207.5t50 207t140.5 142t206.5 51q45 0 119 -6q66 -4 91 -4h394q23 0 37 -13.5t14 -35.5q0 -21 -14 -34t-37 -13h-370v-243h257q22 0 36.5 -13.5
t14.5 -34.5t-14.5 -34.5t-36.5 -13.5h-257v-250h370q23 0 37 -13zM202 235q38 -70 106 -110.5t153 -40.5q74 0 130 10v593q-56 10 -130 10q-86 0 -153.5 -40t-105.5 -110t-38 -156t38 -156z" />
    <glyph glyph-name="oe" unicode="&#x153;" horiz-adv-x="1074" 
d="M1021 250.5q-13 -12.5 -33 -12.5h-380q11 -70 63.5 -113t128.5 -43q30 0 62.5 11t53.5 27q14 11 33 11t30 -10q18 -15 18 -34q0 -18 -16 -30q-34 -27 -84.5 -44t-96.5 -17q-77 0 -138.5 33.5t-96.5 92.5q-34 -59 -93.5 -92.5t-133.5 -33.5q-80 0 -143 35.5t-98 98.5
t-35 143q0 81 35 144t98 98.5t143 35.5q73 0 132 -33t93 -92q34 59 92 92t130 33q77 0 133 -34t86 -95t30 -140q0 -19 -13 -31.5zM666.5 425q-45.5 -40 -57.5 -107h333q-9 67 -50 107t-107 40q-73 0 -118.5 -40zM429.5 110q40.5 24 63 66.5t22.5 96.5t-22.5 97t-63 67
t-91.5 24t-91.5 -24t-63.5 -67t-23 -97t23 -96.5t63.5 -66.5t91.5 -24t91.5 24z" />
    <glyph glyph-name="Racute" unicode="&#x154;" horiz-adv-x="632" 
d="M617 47q0 -20 -13.5 -33.5t-36.5 -13.5q-29 0 -45 25l-172 276h-18h-128v-249q0 -22 -14.5 -37t-37.5 -15q-22 0 -37 15t-15 37v677q0 23 15 37.5t37 14.5h180q74 0 132.5 -31t91 -87t32.5 -128q0 -71 -36 -126t-98 -83l153 -246q10 -16 10 -33zM332 397q68 0 112 38.5
t44 99.5q0 66 -44 108t-112 42h-128v-288h128zM315 881.5q-14 14.5 -14 36.5q0 21 12 34l98 98q15 15 36 15q22 0 36.5 -15t14.5 -37t-14 -35l-97 -97q-14 -14 -35 -14q-23 0 -37 14.5z" />
    <glyph glyph-name="racute" unicode="&#x155;" horiz-adv-x="486" 
d="M441 537q30 -16 30 -40q0 -7 -1 -10q-9 -32 -40 -32q-5 0 -15 2q-40 7 -65 7q-72 0 -116 -33t-44 -89v-292q0 -24 -12.5 -37t-37.5 -13q-24 0 -37 12.5t-13 37.5v447q0 24 13 37t37 13q50 0 50 -50v-19q30 35 74 55t94 20q53 0 83 -16zM250 647.5q-14 14.5 -14 36.5
q0 21 12 34l98 98q15 15 36 15q22 0 36.5 -15t14.5 -37t-14 -35l-97 -97q-14 -14 -35 -14q-23 0 -37 14.5z" />
    <glyph glyph-name="Rcommaaccent" unicode="&#x156;" horiz-adv-x="632" 
d="M617 47q0 -20 -13.5 -33.5t-36.5 -13.5q-29 0 -45 25l-172 276h-18h-128v-249q0 -22 -14.5 -37t-37.5 -15q-22 0 -37 15t-15 37v677q0 23 15 37.5t37 14.5h180q74 0 132.5 -31t91 -87t32.5 -128q0 -71 -36 -126t-98 -83l153 -246q10 -16 10 -33zM332 397q68 0 112 38.5
t44 99.5q0 66 -44 108t-112 42h-128v-288h128zM266 -226.5q-39 20.5 -39 58.5q0 15 10 24t25 9q12 0 20 -5t18 -15q13 -14 25 -21t35 -7q29 0 41 8t12 27q0 41 -75 41q-22 0 -35 8.5t-13 23.5q0 35 58 35q60 0 97 -29t37 -74q0 -48 -36.5 -76t-93.5 -28q-47 0 -86 20.5z" />
    <glyph glyph-name="rcommaaccent" unicode="&#x157;" horiz-adv-x="486" 
d="M441 537q30 -16 30 -40q0 -7 -1 -10q-9 -32 -40 -32q-5 0 -15 2q-40 7 -65 7q-72 0 -116 -33t-44 -89v-292q0 -24 -12.5 -37t-37.5 -13q-24 0 -37 12.5t-13 37.5v447q0 24 13 37t37 13q50 0 50 -50v-19q30 35 74 55t94 20q53 0 83 -16zM58 -226.5q-39 20.5 -39 58.5
q0 15 10 24t25 9q12 0 20 -5t18 -15q13 -14 25 -21t35 -7q29 0 41 8t12 27q0 41 -75 41q-22 0 -35 8.5t-13 23.5q0 35 58 35q60 0 97 -29t37 -74q0 -48 -36.5 -76t-93.5 -28q-47 0 -86 20.5z" />
    <glyph glyph-name="Rcaron" unicode="&#x158;" horiz-adv-x="632" 
d="M617 47q0 -20 -13.5 -33.5t-36.5 -13.5q-29 0 -45 25l-172 276h-18h-128v-249q0 -22 -14.5 -37t-37.5 -15q-22 0 -37 15t-15 37v677q0 23 15 37.5t37 14.5h180q74 0 132.5 -31t91 -87t32.5 -128q0 -71 -36 -126t-98 -83l153 -246q10 -16 10 -33zM332 397q68 0 112 38.5
t44 99.5q0 66 -44 108t-112 42h-128v-288h128zM322 867l-112 74q-24 18 -24 43q0 13 10.5 22t27.5 9q22 0 45 -16l79 -53l79 53q25 17 47 17q17 0 26.5 -9.5t9.5 -22.5q0 -25 -24 -43l-111 -74q-12 -8 -27 -8t-26 8z" />
    <glyph glyph-name="rcaron" unicode="&#x159;" horiz-adv-x="486" 
d="M441 537q30 -16 30 -40q0 -7 -1 -10q-9 -32 -40 -32q-5 0 -15 2q-40 7 -65 7q-72 0 -116 -33t-44 -89v-292q0 -24 -12.5 -37t-37.5 -13q-24 0 -37 12.5t-13 37.5v447q0 24 13 37t37 13q50 0 50 -50v-19q30 35 74 55t94 20q53 0 83 -16zM257 633l-112 74q-24 18 -24 43
q0 13 10.5 22t27.5 9q22 0 45 -16l79 -53l79 53q25 17 47 17q17 0 26.5 -9.5t9.5 -22.5q0 -25 -24 -43l-111 -74q-12 -8 -27 -8t-26 8z" />
    <glyph glyph-name="Sacute" unicode="&#x15a;" horiz-adv-x="688" 
d="M171.5 34q-79.5 44 -109.5 115q-5 12 -5 20q0 15 11 26.5t30 15.5q3 1 10 1q16 0 30.5 -9.5t21.5 -25.5q18 -39 71 -66t117 -27q75 0 127 34.5t52 94.5q0 57 -44 97.5t-134 49.5q-124 12 -195 72.5t-71 151.5q0 64 36.5 110.5t100 71t142.5 24.5q86 0 145 -35t100 -100
q12 -19 12 -36q0 -22 -20 -36q-11 -7 -26 -7t-28 7.5t-20 20.5q-27 45 -67.5 68.5t-102.5 23.5q-76 0 -123 -29.5t-47 -85.5q0 -52 42 -87t150 -46q120 -12 186 -72.5t66 -159.5q0 -72 -39 -123.5t-103.5 -77t-138.5 -25.5q-97 0 -176.5 44zM311 881.5q-14 14.5 -14 36.5
q0 21 12 34l98 98q15 15 36 15q22 0 36.5 -15t14.5 -37t-14 -35l-97 -97q-14 -14 -35 -14q-23 0 -37 14.5z" />
    <glyph glyph-name="sacute" unicode="&#x15b;" horiz-adv-x="543" 
d="M161 17q-60 21 -94 55q-13 13 -13 31q0 24 20 39q19 14 35 14q20 0 38 -18q19 -21 57 -36.5t81 -15.5q57 0 88.5 19t31.5 51q0 31 -31 51.5t-105 34.5q-192 37 -192 158q0 49 29 83t76 51t100 17q65 0 116.5 -21t81.5 -58q13 -16 13 -32q0 -17 -17 -31q-11 -8 -28 -8
q-26 0 -47 19q-25 23 -53 32.5t-68 9.5q-46 0 -75.5 -15.5t-29.5 -43.5q0 -20 10 -33.5t38 -25t81 -22.5q109 -22 154.5 -61t45.5 -101q0 -46 -25 -83.5t-73.5 -59t-116.5 -21.5t-128 21zM244 647.5q-14 14.5 -14 36.5q0 21 12 34l98 98q15 15 36 15q22 0 36.5 -15t14.5 -37
t-14 -35l-97 -97q-14 -14 -35 -14q-23 0 -37 14.5z" />
    <glyph glyph-name="Scircumflex" unicode="&#x15c;" horiz-adv-x="688" 
d="M171.5 34q-79.5 44 -109.5 115q-5 12 -5 20q0 15 11 26.5t30 15.5q3 1 10 1q16 0 30.5 -9.5t21.5 -25.5q18 -39 71 -66t117 -27q75 0 127 34.5t52 94.5q0 57 -44 97.5t-134 49.5q-124 12 -195 72.5t-71 151.5q0 64 36.5 110.5t100 71t142.5 24.5q86 0 145 -35t100 -100
q12 -19 12 -36q0 -22 -20 -36q-11 -7 -26 -7t-28 7.5t-20 20.5q-27 45 -67.5 68.5t-102.5 23.5q-76 0 -123 -29.5t-47 -85.5q0 -52 42 -87t150 -46q120 -12 186 -72.5t66 -159.5q0 -72 -39 -123.5t-103.5 -77t-138.5 -25.5q-97 0 -176.5 44zM196.5 860.5
q-14.5 11.5 -14.5 29.5q0 26 24 44l112 73q13 8 26 8q15 0 27 -8l111 -73q24 -18 24 -44q0 -18 -14 -29.5t-36 -11.5q-18 0 -33 11l-79 56l-79 -56q-14 -11 -32 -11q-22 0 -36.5 11.5z" />
    <glyph glyph-name="scircumflex" unicode="&#x15d;" horiz-adv-x="543" 
d="M161 17q-60 21 -94 55q-13 13 -13 31q0 24 20 39q19 14 35 14q20 0 38 -18q19 -21 57 -36.5t81 -15.5q57 0 88.5 19t31.5 51q0 31 -31 51.5t-105 34.5q-192 37 -192 158q0 49 29 83t76 51t100 17q65 0 116.5 -21t81.5 -58q13 -16 13 -32q0 -17 -17 -31q-11 -8 -28 -8
q-26 0 -47 19q-25 23 -53 32.5t-68 9.5q-46 0 -75.5 -15.5t-29.5 -43.5q0 -20 10 -33.5t38 -25t81 -22.5q109 -22 154.5 -61t45.5 -101q0 -46 -25 -83.5t-73.5 -59t-116.5 -21.5t-128 21zM129.5 626.5q-14.5 11.5 -14.5 29.5q0 26 24 44l112 73q13 8 26 8q15 0 27 -8
l111 -73q24 -18 24 -44q0 -18 -14 -29.5t-36 -11.5q-18 0 -33 11l-79 56l-79 -56q-14 -11 -32 -11q-22 0 -36.5 11.5z" />
    <glyph glyph-name="Scedilla" unicode="&#x15e;" horiz-adv-x="688" 
d="M565 65.5q-64 -57.5 -161 -71.5l-13 -29q52 -11 76 -34t24 -61q0 -26 -18.5 -50t-52 -39t-77.5 -15q-59 0 -98 25t-39 59q0 19 14 33.5t33 14.5q13 0 21 -5.5t13 -19.5q7 -17 22 -26t35 -9t33 9.5t13 25.5q0 18 -10.5 29t-34.5 15q-25 4 -37.5 14t-12.5 28q0 13 5 26l3 8
q-84 10 -149.5 52t-91.5 104q-5 12 -5 20q0 15 11 26.5t30 15.5q3 1 10 1q16 0 30.5 -9.5t21.5 -25.5q18 -39 71 -66t117 -27q75 0 127 34.5t52 94.5q0 57 -44 97.5t-134 49.5q-124 12 -195 72.5t-71 151.5q0 64 36.5 110.5t100 71t142.5 24.5q86 0 145 -35t100 -100
q12 -19 12 -36q0 -22 -20 -36q-11 -7 -26 -7t-28 7.5t-20 20.5q-27 45 -67.5 68.5t-102.5 23.5q-76 0 -123 -29.5t-47 -85.5q0 -52 42 -87t150 -46q120 -12 186 -72.5t66 -159.5q0 -93 -64 -150.5z" />
    <glyph glyph-name="scedilla" unicode="&#x15f;" horiz-adv-x="543" 
d="M324 -35q52 -11 76 -34t24 -61q0 -26 -18.5 -50t-52 -39t-77.5 -15q-59 0 -98 25t-39 59q0 19 14 33.5t33 14.5q13 0 21 -5.5t13 -19.5q7 -17 22 -26t35 -9t33 9.5t13 25.5q0 18 -10.5 29t-34.5 15q-25 4 -37.5 14t-12.5 28q0 13 5 26l5 14q-53 7 -98.5 26.5t-72.5 46.5
q-13 13 -13 31q0 24 20 39q19 14 35 14q20 0 38 -18q19 -21 57 -36.5t81 -15.5q57 0 88.5 19t31.5 51q0 31 -31 51.5t-105 34.5q-192 37 -192 158q0 49 29 83t76 51t100 17q65 0 116.5 -21t81.5 -58q13 -16 13 -32q0 -17 -17 -31q-11 -8 -28 -8q-26 0 -47 19
q-25 23 -53 32.5t-68 9.5q-46 0 -75.5 -15.5t-29.5 -43.5q0 -20 10 -33.5t38 -25t81 -22.5q109 -22 154.5 -61t45.5 -101t-43 -105.5t-122 -55.5z" />
    <glyph glyph-name="Scaron" unicode="&#x160;" horiz-adv-x="688" 
d="M171.5 34q-79.5 44 -109.5 115q-5 12 -5 20q0 15 11 26.5t30 15.5q3 1 10 1q16 0 30.5 -9.5t21.5 -25.5q18 -39 71 -66t117 -27q75 0 127 34.5t52 94.5q0 57 -44 97.5t-134 49.5q-124 12 -195 72.5t-71 151.5q0 64 36.5 110.5t100 71t142.5 24.5q86 0 145 -35t100 -100
q12 -19 12 -36q0 -22 -20 -36q-11 -7 -26 -7t-28 7.5t-20 20.5q-27 45 -67.5 68.5t-102.5 23.5q-76 0 -123 -29.5t-47 -85.5q0 -52 42 -87t150 -46q120 -12 186 -72.5t66 -159.5q0 -72 -39 -123.5t-103.5 -77t-138.5 -25.5q-97 0 -176.5 44zM318 867l-112 74q-24 18 -24 43
q0 13 10.5 22t27.5 9q22 0 45 -16l79 -53l79 53q25 17 47 17q17 0 26.5 -9.5t9.5 -22.5q0 -25 -24 -43l-111 -74q-12 -8 -27 -8t-26 8z" />
    <glyph glyph-name="scaron" unicode="&#x161;" horiz-adv-x="543" 
d="M161 17q-60 21 -94 55q-13 13 -13 31q0 24 20 39q19 14 35 14q20 0 38 -18q19 -21 57 -36.5t81 -15.5q57 0 88.5 19t31.5 51q0 31 -31 51.5t-105 34.5q-192 37 -192 158q0 49 29 83t76 51t100 17q65 0 116.5 -21t81.5 -58q13 -16 13 -32q0 -17 -17 -31q-11 -8 -28 -8
q-26 0 -47 19q-25 23 -53 32.5t-68 9.5q-46 0 -75.5 -15.5t-29.5 -43.5q0 -20 10 -33.5t38 -25t81 -22.5q109 -22 154.5 -61t45.5 -101q0 -46 -25 -83.5t-73.5 -59t-116.5 -21.5t-128 21zM251 633l-112 74q-24 18 -24 43q0 13 10.5 22t27.5 9q22 0 45 -16l79 -53l79 53
q25 17 47 17q17 0 26.5 -9.5t9.5 -22.5q0 -25 -24 -43l-111 -74q-12 -8 -27 -8t-26 8z" />
    <glyph glyph-name="uni0162" unicode="&#x162;" horiz-adv-x="661" 
d="M632.5 767.5q13.5 -13.5 13.5 -34.5t-13.5 -34.5t-34.5 -13.5h-215v-633v-6q15 -10 15 -27q0 -8 -5 -20l-15 -34q52 -11 76 -34t24 -61q0 -26 -18.5 -50t-52 -39t-77.5 -15q-59 0 -98 25t-39 59q0 19 14 33.5t33 14.5q13 0 21 -5.5t13 -19.5q7 -17 22 -26t35 -9t33 9.5
t13 25.5q0 18 -10.5 29t-34.5 15q-25 4 -37.5 14t-12.5 28q0 13 5 26l10 28q-18 15 -18 39v633h-216q-21 0 -34.5 13.5t-13.5 34.5t13.5 34.5t34.5 13.5h535q21 0 34.5 -13.5z" />
    <glyph glyph-name="uni0163" unicode="&#x163;" horiz-adv-x="401" 
d="M344 -69q24 -23 24 -61q0 -26 -18.5 -50t-52 -39t-77.5 -15q-59 0 -98 25t-39 59q0 19 14 33.5t33 14.5q13 0 21 -5.5t13 -19.5q7 -17 22 -26t35 -9t33 9.5t13 25.5q0 18 -10.5 29t-34.5 15q-25 4 -37.5 14t-12.5 28q0 13 5 26l10 28q3 10 7 16q-37 25 -59 68.5t-22 96.5
v247h-46q-21 0 -34 12t-13 30q0 20 13 32t34 12h46v144q0 22 14 36t36 14t36 -14t14 -36v-144h85q21 0 34 -12t13 -32q0 -18 -13 -30t-34 -12h-85v-247q0 -40 22 -67t54 -27h34q18 0 30.5 -14t12.5 -36t-16.5 -36t-42.5 -14h-18h-6v-1l-15 -34q52 -11 76 -34z" />
    <glyph glyph-name="Tcaron" unicode="&#x164;" horiz-adv-x="661" 
d="M632.5 767.5q13.5 -13.5 13.5 -34.5t-13.5 -34.5t-34.5 -13.5h-215v-633q0 -22 -15 -37t-37 -15t-37 15t-15 37v633h-216q-21 0 -34.5 13.5t-13.5 34.5t13.5 34.5t34.5 13.5h535q21 0 34.5 -13.5zM305 867l-112 74q-24 18 -24 43q0 13 10.5 22t27.5 9q22 0 45 -16l79 -53
l79 53q25 17 47 17q17 0 26.5 -9.5t9.5 -22.5q0 -25 -24 -43l-111 -74q-12 -8 -27 -8t-26 8z" />
    <glyph glyph-name="tcaron" unicode="&#x165;" horiz-adv-x="401" 
d="M353.5 86q12.5 -14 12.5 -36t-16.5 -36t-42.5 -14h-18q-49 0 -89.5 25.5t-63.5 69.5t-23 99v247h-46q-21 0 -34 12t-13 30q0 20 13 32t34 12h46v144q0 22 14 36t36 14t36 -14t14 -36v-144h85q21 0 34 -12t13 -32q0 -18 -13 -30t-34 -12h-85v-247q0 -40 22 -67t54 -27h34
q18 0 30.5 -14zM248 636q0 11 6.5 23.5t20.5 30.5q16 22 24.5 37.5t10.5 32.5q1 4 1 12q0 15 -8 39q-1 2 -5 15t-4 31q0 19 14 30.5t35 11.5q29 0 46.5 -23t17.5 -57q0 -45 -23.5 -93t-55 -80.5t-52.5 -32.5q-28 0 -28 23z" />
    <glyph glyph-name="Tbar" unicode="&#x166;" horiz-adv-x="661" 
d="M632.5 767.5q13.5 -13.5 13.5 -34.5t-13.5 -34.5t-34.5 -13.5h-215v-249h108q23 0 37.5 -12t14.5 -33t-14.5 -33t-37.5 -12h-108v-294q0 -22 -15 -37t-37 -15t-37 15t-15 37v294h-110q-23 0 -37 12t-14 33t14 33t37 12h110v249h-216q-21 0 -34.5 13.5t-13.5 34.5
t13.5 34.5t34.5 13.5h535q21 0 34.5 -13.5z" />
    <glyph glyph-name="tbar" unicode="&#x167;" horiz-adv-x="401" 
d="M353.5 86q12.5 -14 12.5 -36t-16.5 -36t-42.5 -14h-18q-49 0 -89.5 25.5t-63.5 69.5t-23 99v77h-46q-21 0 -34 12t-13 30q0 20 13 32t34 12h46v84h-46q-21 0 -34 12t-13 30q0 20 13 32t34 12h46v144q0 22 14 36t36 14t36 -14t14 -36v-144h85q21 0 34 -12t13 -32
q0 -18 -13 -30t-34 -12h-85v-84h85q21 0 34 -12t13 -32q0 -18 -13 -30t-34 -12h-85v-77q0 -40 22 -67t54 -27h34q18 0 30.5 -14z" />
    <glyph glyph-name="Utilde" unicode="&#x168;" horiz-adv-x="845" 
d="M257.5 19.5q-74.5 35.5 -116 98.5t-41.5 144v467q0 23 15 37.5t37 14.5q23 0 37.5 -14.5t14.5 -37.5v-467q0 -53 28.5 -95t79 -65.5t115.5 -23.5q62 0 111 23.5t76.5 65.5t27.5 95v467q0 23 15 37.5t37 14.5t36.5 -14.5t14.5 -37.5v-467q0 -80 -40.5 -143.5t-113 -99
t-164.5 -35.5q-95 0 -169.5 35.5zM477 864.5q-23 8.5 -49 22.5q-42 23 -66 23q-15 0 -26 -5.5t-22 -21.5q-20 -27 -45 -27q-8 0 -20 5q-8 4 -13 13t-5 20q0 15 9 28q23 33 56.5 50.5t72.5 17.5q28 0 49.5 -8t48.5 -22q24 -14 35.5 -18.5t24.5 -4.5q23 0 40 17q11 11 19 16
t18 5q11 0 22 -7q16 -10 16 -33q0 -18 -11 -32q-38 -47 -101 -47q-30 0 -53 8.5z" />
    <glyph glyph-name="utilde" unicode="&#x169;" horiz-adv-x="682" 
d="M578 534q14 -14 14 -37v-446q0 -22 -14 -36.5t-37 -14.5q-22 0 -36.5 14.5t-14.5 36.5v11q-32 -32 -76 -49.5t-94 -17.5q-69 0 -124 30t-86 87.5t-31 138.5v246q0 22 14.5 36.5t36.5 14.5t36.5 -14.5t14.5 -36.5v-246q0 -81 43.5 -122.5t115.5 -41.5q42 0 76.5 17t54 46
t19.5 65v282q0 23 14.5 37t36.5 14q23 0 37 -14zM395 630.5q-23 8.5 -49 22.5q-42 23 -66 23q-15 0 -26 -5.5t-22 -21.5q-20 -27 -45 -27q-8 0 -20 5q-8 4 -13 13t-5 20q0 15 9 28q23 33 56.5 50.5t72.5 17.5q28 0 49.5 -8t48.5 -22q24 -14 35.5 -18.5t24.5 -4.5q23 0 40 17
q11 11 19 16t18 5q11 0 22 -7q16 -10 16 -33q0 -18 -11 -32q-38 -47 -101 -47q-30 0 -53 8.5z" />
    <glyph glyph-name="Umacron" unicode="&#x16a;" horiz-adv-x="845" 
d="M257.5 19.5q-74.5 35.5 -116 98.5t-41.5 144v467q0 23 15 37.5t37 14.5q23 0 37.5 -14.5t14.5 -37.5v-467q0 -53 28.5 -95t79 -65.5t115.5 -23.5q62 0 111 23.5t76.5 65.5t27.5 95v467q0 23 15 37.5t37 14.5t36.5 -14.5t14.5 -37.5v-467q0 -80 -40.5 -143.5t-113 -99
t-164.5 -35.5q-95 0 -169.5 35.5zM260 893q-14 12 -14 34q0 21 14 32.5t37 11.5h250q23 0 37.5 -11.5t14.5 -32.5q0 -22 -14.5 -34t-37.5 -12h-250q-23 0 -37 12z" />
    <glyph glyph-name="umacron" unicode="&#x16b;" horiz-adv-x="682" 
d="M578 534q14 -14 14 -37v-446q0 -22 -14 -36.5t-37 -14.5q-22 0 -36.5 14.5t-14.5 36.5v11q-32 -32 -76 -49.5t-94 -17.5q-69 0 -124 30t-86 87.5t-31 138.5v246q0 22 14.5 36.5t36.5 14.5t36.5 -14.5t14.5 -36.5v-246q0 -81 43.5 -122.5t115.5 -41.5q42 0 76.5 17t54 46
t19.5 65v282q0 23 14.5 37t36.5 14q23 0 37 -14zM178 659q-14 12 -14 34q0 21 14 32.5t37 11.5h250q23 0 37.5 -11.5t14.5 -32.5q0 -22 -14.5 -34t-37.5 -12h-250q-23 0 -37 12z" />
    <glyph glyph-name="Ubreve" unicode="&#x16c;" horiz-adv-x="845" 
d="M257.5 19.5q-74.5 35.5 -116 98.5t-41.5 144v467q0 23 15 37.5t37 14.5q23 0 37.5 -14.5t14.5 -37.5v-467q0 -53 28.5 -95t79 -65.5t115.5 -23.5q62 0 111 23.5t76.5 65.5t27.5 95v467q0 23 15 37.5t37 14.5t36.5 -14.5t14.5 -37.5v-467q0 -80 -40.5 -143.5t-113 -99
t-164.5 -35.5q-95 0 -169.5 35.5zM341.5 855.5q-37.5 16.5 -59.5 45t-22 63.5q0 22 13.5 36.5t34.5 14.5q19 0 33.5 -11.5t14.5 -29.5q0 -22 21 -37.5t46 -15.5q30 0 48 14.5t18 38.5q0 18 14.5 29.5t34.5 11.5q21 0 34 -14.5t13 -36.5q0 -35 -22 -63.5t-59 -45t-81 -16.5
t-81.5 16.5z" />
    <glyph glyph-name="ubreve" unicode="&#x16d;" horiz-adv-x="682" 
d="M578 534q14 -14 14 -37v-446q0 -22 -14 -36.5t-37 -14.5q-22 0 -36.5 14.5t-14.5 36.5v11q-32 -32 -76 -49.5t-94 -17.5q-69 0 -124 30t-86 87.5t-31 138.5v246q0 22 14.5 36.5t36.5 14.5t36.5 -14.5t14.5 -36.5v-246q0 -81 43.5 -122.5t115.5 -41.5q42 0 76.5 17t54 46
t19.5 65v282q0 23 14.5 37t36.5 14q23 0 37 -14zM259.5 621.5q-37.5 16.5 -59.5 45t-22 63.5q0 22 13.5 36.5t34.5 14.5q19 0 33.5 -11.5t14.5 -29.5q0 -22 21 -37.5t46 -15.5q30 0 48 14.5t18 38.5q0 18 14.5 29.5t34.5 11.5q21 0 34 -14.5t13 -36.5q0 -35 -22 -63.5
t-59 -45t-81 -16.5t-81.5 16.5z" />
    <glyph glyph-name="Uring" unicode="&#x16e;" horiz-adv-x="845" 
d="M257.5 19.5q-74.5 35.5 -116 98.5t-41.5 144v467q0 23 15 37.5t37 14.5q23 0 37.5 -14.5t14.5 -37.5v-467q0 -53 28.5 -95t79 -65.5t115.5 -23.5q62 0 111 23.5t76.5 65.5t27.5 95v467q0 23 15 37.5t37 14.5t36.5 -14.5t14.5 -37.5v-467q0 -80 -40.5 -143.5t-113 -99
t-164.5 -35.5q-95 0 -169.5 35.5zM346 850q-30 30 -30 77t30 77.5t77 30.5t77 -30.5t30 -77.5t-30 -77t-77 -30t-77 30zM459.5 890.5q14.5 14.5 14.5 36.5q0 23 -14.5 37.5t-36.5 14.5q-23 0 -37.5 -14.5t-14.5 -37.5q0 -22 14.5 -36.5t37.5 -14.5q22 0 36.5 14.5z" />
    <glyph glyph-name="uring" unicode="&#x16f;" horiz-adv-x="682" 
d="M578 534q14 -14 14 -37v-446q0 -22 -14 -36.5t-37 -14.5q-22 0 -36.5 14.5t-14.5 36.5v11q-32 -32 -76 -49.5t-94 -17.5q-69 0 -124 30t-86 87.5t-31 138.5v246q0 22 14.5 36.5t36.5 14.5t36.5 -14.5t14.5 -36.5v-246q0 -81 43.5 -122.5t115.5 -41.5q42 0 76.5 17t54 46
t19.5 65v282q0 23 14.5 37t36.5 14q23 0 37 -14zM264 616q-30 30 -30 77t30 77.5t77 30.5t77 -30.5t30 -77.5t-30 -77t-77 -30t-77 30zM377.5 656.5q14.5 14.5 14.5 36.5q0 23 -14.5 37.5t-36.5 14.5q-23 0 -37.5 -14.5t-14.5 -37.5q0 -22 14.5 -36.5t37.5 -14.5
q22 0 36.5 14.5z" />
    <glyph glyph-name="Uhungarumlaut" unicode="&#x170;" horiz-adv-x="845" 
d="M257.5 19.5q-74.5 35.5 -116 98.5t-41.5 144v467q0 23 15 37.5t37 14.5q23 0 37.5 -14.5t14.5 -37.5v-467q0 -53 28.5 -95t79 -65.5t115.5 -23.5q62 0 111 23.5t76.5 65.5t27.5 95v467q0 23 15 37.5t37 14.5t36.5 -14.5t14.5 -37.5v-467q0 -80 -40.5 -143.5t-113 -99
t-164.5 -35.5q-95 0 -169.5 35.5zM323 862.5q-13 11.5 -13 30.5q0 7 3 16l38 124q4 13 17.5 22.5t29.5 9.5q22 0 37 -15t15 -36q0 -10 -4 -19l-56 -118q-12 -26 -38 -26q-16 0 -29 11.5zM466.5 862.5q-12.5 11.5 -12.5 30.5l2 16l39 124q4 13 17.5 22.5t29.5 9.5
q21 0 36.5 -15t15.5 -36q0 -2 -1 -8t-4 -11l-55 -118q-14 -26 -39 -26q-16 0 -28.5 11.5z" />
    <glyph glyph-name="uhungarumlaut" unicode="&#x171;" horiz-adv-x="682" 
d="M578 534q14 -14 14 -37v-446q0 -22 -14 -36.5t-37 -14.5q-22 0 -36.5 14.5t-14.5 36.5v11q-32 -32 -76 -49.5t-94 -17.5q-69 0 -124 30t-86 87.5t-31 138.5v246q0 22 14.5 36.5t36.5 14.5t36.5 -14.5t14.5 -36.5v-246q0 -81 43.5 -122.5t115.5 -41.5q42 0 76.5 17t54 46
t19.5 65v282q0 23 14.5 37t36.5 14q23 0 37 -14zM241 628.5q-13 11.5 -13 30.5q0 7 3 16l38 124q4 13 17.5 22.5t29.5 9.5q22 0 37 -15t15 -36q0 -10 -4 -19l-56 -118q-12 -26 -38 -26q-16 0 -29 11.5zM384.5 628.5q-12.5 11.5 -12.5 30.5l2 16l39 124q4 13 17.5 22.5
t29.5 9.5q21 0 36.5 -15t15.5 -36q0 -2 -1 -8t-4 -11l-55 -118q-14 -26 -39 -26q-16 0 -28.5 11.5z" />
    <glyph glyph-name="Uogonek" unicode="&#x172;" horiz-adv-x="845" 
d="M730.5 766.5q14.5 -14.5 14.5 -37.5v-467q0 -87 -47 -153t-128 -99q-6 -40 -63 -81q-10 -9 -10 -20q0 -10 6.5 -16.5t16.5 -6.5q8 0 12 4l31 23q15 10 31 10q22 0 36.5 -14.5t14.5 -36.5q0 -25 -18 -41l-38 -25q-31 -22 -69 -22q-33 0 -62 17t-46 45.5t-17 62.5
q0 41 26 75q-93 1 -166 37t-114 98.5t-41 142.5v467q0 23 15 37.5t37 14.5q23 0 37.5 -14.5t14.5 -37.5v-467q0 -53 28.5 -95t79 -65.5t115.5 -23.5q62 0 111 23.5t76.5 65.5t27.5 95v467q0 23 15 37.5t37 14.5t36.5 -14.5z" />
    <glyph glyph-name="uogonek" unicode="&#x173;" horiz-adv-x="682" 
d="M646.5 -151.5q14.5 -14.5 14.5 -36.5q0 -25 -18 -41l-38 -25q-31 -22 -69 -22q-33 0 -62 17t-46 45.5t-17 62.5q0 59 52 102q19 13 28 32q9 17 24 23q-11 6 -18 18t-7 27v11q-32 -32 -76 -49.5t-94 -17.5q-69 0 -124 30t-86 87.5t-31 138.5v246q0 22 14.5 36.5t36.5 14.5
t36.5 -14.5t14.5 -36.5v-246q0 -81 43.5 -122.5t115.5 -41.5q42 0 76.5 17t54 46t19.5 65v282q0 23 14.5 37t36.5 14q23 0 37 -14t14 -37v-446q0 -17 -8.5 -29.5t-22.5 -17.5q11 -7 18 -18.5t8 -25.5q0 -45 -64 -91q-10 -9 -10 -20q0 -10 6.5 -16.5t16.5 -6.5q8 0 12 4
l31 23q15 10 31 10q22 0 36.5 -14.5z" />
    <glyph glyph-name="Wcircumflex" unicode="&#x174;" horiz-adv-x="938" 
d="M917 769q10 -12 10 -32q0 -15 -4 -28l-201 -667q-7 -19 -20.5 -30.5t-31.5 -11.5t-32 11.5t-20 29.5l-149 576l-151 -575q-7 -19 -20.5 -30.5t-31.5 -11.5t-32 11t-20 30l-201 668q-4 13 -4 27q0 21 11.5 33t31.5 12q18 0 31.5 -10t19.5 -29l164 -570l151 564q4 15 18 25
t32 10q17 0 31 -9t18 -25l153 -569l166 579q5 18 17.5 26t33.5 8q20 0 30 -12zM321.5 860.5q-14.5 11.5 -14.5 29.5q0 26 24 44l112 73q13 8 26 8q15 0 27 -8l111 -73q24 -18 24 -44q0 -18 -14 -29.5t-36 -11.5q-18 0 -33 11l-79 56l-79 -56q-14 -11 -32 -11
q-22 0 -36.5 11.5z" />
    <glyph glyph-name="wcircumflex" unicode="&#x175;" horiz-adv-x="728" 
d="M702.5 536q10.5 -11 10.5 -30q0 -16 -5 -29l-148 -444q-5 -14 -18 -23.5t-29 -9.5q-17 0 -30.5 9.5t-17.5 23.5l-98 363l-103 -363q-5 -14 -18.5 -23.5t-29.5 -9.5t-29.5 9.5t-18.5 23.5l-148 444q-4 13 -4 28q0 42 42 42q19 0 31.5 -11t20.5 -35l108 -337l102 345
q5 17 17.5 27.5t32.5 10.5q19 0 31.5 -10.5t17.5 -27.5l90 -352l110 344q14 46 52 46q21 0 31.5 -11zM216.5 626.5q-14.5 11.5 -14.5 29.5q0 26 24 44l112 73q13 8 26 8q15 0 27 -8l111 -73q24 -18 24 -44q0 -18 -14 -29.5t-36 -11.5q-18 0 -33 11l-79 56l-79 -56
q-14 -11 -32 -11q-22 0 -36.5 11.5z" />
    <glyph glyph-name="Ycircumflex" unicode="&#x176;" horiz-adv-x="670" 
d="M652.5 767q12.5 -14 12.5 -34q0 -17 -10 -33l-269 -415v-233q0 -22 -15 -37t-37 -15q-21 0 -36 15t-15 37v233l-267 415q-11 17 -11 32q0 21 15.5 35t36.5 14q16 0 26 -7t20 -22l234 -371l238 375q16 25 46 25q19 0 31.5 -14zM187.5 860.5q-14.5 11.5 -14.5 29.5
q0 26 24 44l112 73q13 8 26 8q15 0 27 -8l111 -73q24 -18 24 -44q0 -18 -14 -29.5t-36 -11.5q-18 0 -33 11l-79 56l-79 -56q-14 -11 -32 -11q-22 0 -36.5 11.5z" />
    <glyph glyph-name="ycircumflex" unicode="&#x177;" horiz-adv-x="539" 
d="M539 503q0 -10 -6 -24l-306 -688q-12 -31 -39 -31q-10 0 -24 6q-30 13 -30 39q0 12 6 24l100 225l-225 427q-5 9 -5 21q0 13 8 24t21 17q9 4 20 4q28 0 42 -28l183 -364l161 363q13 29 39 29q13 0 24 -5q31 -12 31 -39zM126.5 626.5q-14.5 11.5 -14.5 29.5q0 26 24 44
l112 73q13 8 26 8q15 0 27 -8l111 -73q24 -18 24 -44q0 -18 -14 -29.5t-36 -11.5q-18 0 -33 11l-79 56l-79 -56q-14 -11 -32 -11q-22 0 -36.5 11.5z" />
    <glyph glyph-name="Ydieresis" unicode="&#x178;" horiz-adv-x="670" 
d="M652.5 767q12.5 -14 12.5 -34q0 -17 -10 -33l-269 -415v-233q0 -22 -15 -37t-37 -15q-21 0 -36 15t-15 37v233l-267 415q-11 17 -11 32q0 21 15.5 35t36.5 14q16 0 26 -7t20 -22l234 -371l238 375q16 25 46 25q19 0 31.5 -14zM180.5 882.5q-17.5 17.5 -17.5 42.5
q0 24 18 42t43 18q24 0 42 -18t18 -42q0 -25 -18 -42.5t-42 -17.5q-26 0 -43.5 17.5zM403 882.5q-17 17.5 -17 42.5q0 24 17.5 42t42.5 18q24 0 42 -18t18 -42q0 -25 -18 -42.5t-42 -17.5q-26 0 -43 17.5z" />
    <glyph glyph-name="Zacute" unicode="&#x179;" horiz-adv-x="742" 
d="M69 16q-14 16 -14 37q0 18 10 31l489 605h-438q-24 0 -37 12t-12 32q-1 21 13.5 34.5t37.5 13.5h516q24 0 38.5 -15.5t14.5 -36.5q0 -16 -11 -30l-491 -607h449q22 0 36.5 -13.5t14.5 -31.5q0 -22 -14 -34.5t-37 -12.5h-528q-23 0 -37 16zM338 881.5q-14 14.5 -14 36.5
q0 21 12 34l98 98q15 15 36 15q22 0 36.5 -15t14.5 -37t-14 -35l-97 -97q-14 -14 -35 -14q-23 0 -37 14.5z" />
    <glyph glyph-name="zacute" unicode="&#x17a;" horiz-adv-x="540" 
d="M500 47q0 -47 -47 -47h-341q-47 0 -47 47q0 20 9 32l283 374h-255q-47 0 -47 47t47 47h341q47 0 47 -47q0 -20 -9 -32l-282 -374h254q47 0 47 -47zM245 647.5q-14 14.5 -14 36.5q0 21 12 34l98 98q15 15 36 15q22 0 36.5 -15t14.5 -37t-14 -35l-97 -97q-14 -14 -35 -14
q-23 0 -37 14.5z" />
    <glyph glyph-name="Zdotaccent" unicode="&#x17b;" horiz-adv-x="742" 
d="M69 16q-14 16 -14 37q0 18 10 31l489 605h-438q-24 0 -37 12t-12 32q-1 21 13.5 34.5t37.5 13.5h516q24 0 38.5 -15.5t14.5 -36.5q0 -16 -11 -30l-491 -607h449q22 0 36.5 -13.5t14.5 -31.5q0 -22 -14 -34.5t-37 -12.5h-528q-23 0 -37 16zM324.5 889.5
q-19.5 19.5 -19.5 46.5t19.5 46.5t46.5 19.5t46.5 -19.5t19.5 -46.5t-19.5 -46.5t-46.5 -19.5t-46.5 19.5z" />
    <glyph glyph-name="zdotaccent" unicode="&#x17c;" horiz-adv-x="540" 
d="M500 47q0 -47 -47 -47h-341q-47 0 -47 47q0 20 9 32l283 374h-255q-47 0 -47 47t47 47h341q47 0 47 -47q0 -20 -9 -32l-282 -374h254q47 0 47 -47zM231.5 655.5q-19.5 19.5 -19.5 46.5t19.5 46.5t46.5 19.5t46.5 -19.5t19.5 -46.5t-19.5 -46.5t-46.5 -19.5t-46.5 19.5z
" />
    <glyph glyph-name="Zcaron" unicode="&#x17d;" horiz-adv-x="742" 
d="M69 16q-14 16 -14 37q0 18 10 31l489 605h-438q-24 0 -37 12t-12 32q-1 21 13.5 34.5t37.5 13.5h516q24 0 38.5 -15.5t14.5 -36.5q0 -16 -11 -30l-491 -607h449q22 0 36.5 -13.5t14.5 -31.5q0 -22 -14 -34.5t-37 -12.5h-528q-23 0 -37 16zM345 867l-112 74q-24 18 -24 43
q0 13 10.5 22t27.5 9q22 0 45 -16l79 -53l79 53q25 17 47 17q17 0 26.5 -9.5t9.5 -22.5q0 -25 -24 -43l-111 -74q-12 -8 -27 -8t-26 8z" />
    <glyph glyph-name="zcaron" unicode="&#x17e;" horiz-adv-x="540" 
d="M500 47q0 -47 -47 -47h-341q-47 0 -47 47q0 20 9 32l283 374h-255q-47 0 -47 47t47 47h341q47 0 47 -47q0 -20 -9 -32l-282 -374h254q47 0 47 -47zM252 633l-112 74q-24 18 -24 43q0 13 10.5 22t27.5 9q22 0 45 -16l79 -53l79 53q25 17 47 17q17 0 26.5 -9.5t9.5 -22.5
q0 -25 -24 -43l-111 -74q-12 -8 -27 -8t-26 8z" />
    <glyph glyph-name="longs" unicode="&#x17f;" horiz-adv-x="337" 
d="M74.5 14q-14.5 14 -14.5 37v493q0 71 28.5 124.5t80 83t117.5 29.5q22 0 36.5 -13t14.5 -33t-14.5 -33t-36.5 -13q-56 0 -90 -37t-34 -98v-503q0 -23 -14 -37t-39 -14q-20 0 -34.5 14z" />
    <glyph glyph-name="uni018F" unicode="&#x18f;" horiz-adv-x="850" 
d="M594.5 738q89.5 -52 141 -144.5t51.5 -207.5q0 -111 -46 -201.5t-126 -142t-178 -51.5q-105 0 -190.5 50t-134 137.5t-48.5 194.5q0 28 19 45.5t48 17.5h555q-11 77 -52.5 136t-106 91.5t-142.5 32.5q-97 0 -180 -56q-15 -10 -28 -10q-20 0 -34 16q-12 14 -12 30
q0 18 15 30q106 84 249 84q110 0 199.5 -52zM556 117.5q54 33.5 88.5 92.5t42.5 134h-520q6 -74 43 -133t96.5 -93t130.5 -34q65 0 119 33.5z" />
    <glyph glyph-name="florin" unicode="&#x192;" horiz-adv-x="469" 
d="M14.5 -219.5q-14.5 14.5 -14.5 36.5t14.5 36.5t36.5 14.5q133 0 135 134v415h-24q-22 0 -36.5 14.5t-14.5 36.5t14.5 36.5t36.5 14.5h23v25q0 237 236 237q22 0 37 -15t15 -37t-15 -36t-37 -14q-134 0 -134 -135v-25h98q22 0 36.5 -14.5t14.5 -36.5t-15 -36.5t-36 -14.5
h-98v-415q0 -236 -236 -236q-22 0 -36.5 14.5z" />
    <glyph glyph-name="Ohorn" unicode="&#x1a0;" horiz-adv-x="921" 
d="M832.5 542q25.5 -70 25.5 -151q0 -116 -50.5 -207.5t-140.5 -142.5t-206 -51t-206.5 51t-140.5 142.5t-50 207.5t50 207t140.5 142t206.5 51q113 0 202 -49h43q18 0 31 19t13 48v19q0 23 12.5 36.5t32.5 13.5q21 0 33 -16t12 -41v-12q0 -49 -21.5 -88t-57.5 -56
q46 -53 71.5 -123zM614 124.5q68 40.5 106 110.5t38 156t-38 156t-105.5 110t-153.5 40t-153.5 -40t-105.5 -110t-38 -156t38 -156t106 -110.5t153 -40.5t153 40.5z" />
    <glyph glyph-name="ohorn" unicode="&#x1a1;" 
d="M615 506q-22 -39 -59 -56q57 -74 57 -177q0 -80 -35 -143t-97.5 -98.5t-142.5 -35.5t-143 35.5t-98 98.5t-35 143q0 81 35 144t98 98.5t143 35.5q63 0 117 -23h48q18 0 31 19t13 48v19q0 23 12.5 36.5t32.5 13.5q21 0 33 -16t12 -41v-12q0 -50 -22 -89zM429.5 110
q40.5 24 63 66.5t22.5 96.5t-22.5 97t-63 67t-91.5 24t-91.5 -24t-63.5 -67t-23 -97t23 -96.5t63.5 -66.5t91.5 -24t91.5 24z" />
    <glyph glyph-name="Uhorn" unicode="&#x1af;" horiz-adv-x="845" 
d="M864 901q12 -16 12 -41v-12q0 -66 -37.5 -110.5t-93.5 -46.5v-429q0 -80 -40.5 -143.5t-113 -99t-164.5 -35.5q-95 0 -169.5 35.5t-116 98.5t-41.5 144v467q0 23 15 37.5t37 14.5q23 0 37.5 -14.5t14.5 -37.5v-467q0 -53 28.5 -95t79 -65.5t115.5 -23.5q62 0 111 23.5
t76.5 65.5t27.5 95v467q0 23 15 37.5t37 14.5h48q18 0 31 19t13 48v19q0 23 12.5 36.5t32.5 13.5q21 0 33 -16z" />
    <glyph glyph-name="uhorn" unicode="&#x1b0;" horiz-adv-x="682" 
d="M708 667q12 -16 12 -41v-12q0 -65 -36 -109.5t-92 -47.5v-406q0 -22 -14 -36.5t-37 -14.5q-22 0 -36.5 14.5t-14.5 36.5v11q-32 -32 -76 -49.5t-94 -17.5q-69 0 -124 30t-86 87.5t-31 138.5v246q0 22 14.5 36.5t36.5 14.5t36.5 -14.5t14.5 -36.5v-246q0 -81 43.5 -122.5
t115.5 -41.5q42 0 76.5 17t54 46t19.5 65v282q0 23 14.5 37t36.5 14q8 0 11 -1h34q18 0 31 19t13 48v19q0 23 12.5 36.5t32.5 13.5q21 0 33 -16z" />
    <glyph glyph-name="Gcaron" unicode="&#x1e6;" horiz-adv-x="777" 
d="M696.5 390.5q14.5 -14.5 14.5 -37.5v-239q0 -24 -16 -37q-105 -87 -245 -87q-107 0 -195.5 53t-139.5 145t-51 203q0 110 51 201.5t139.5 145t195.5 53.5q76 0 131.5 -20t112.5 -66q12 -9 16 -18.5t4 -22.5q0 -20 -14.5 -33t-34.5 -13q-18 0 -34 13q-41 35 -80 50.5
t-101 15.5q-78 0 -143.5 -41t-104 -111.5t-38.5 -153.5q0 -84 38.5 -154t104 -111t143.5 -41q84 0 161 50v178h-138q-23 0 -37.5 13t-14.5 33t14.5 33t37.5 13h187q22 0 36.5 -14.5zM423 867l-112 74q-24 18 -24 43q0 13 10.5 22t27.5 9q22 0 45 -16l79 -53l79 53
q25 17 47 17q17 0 26.5 -9.5t9.5 -22.5q0 -25 -24 -43l-111 -74q-12 -8 -27 -8t-26 8z" />
    <glyph glyph-name="gcaron" unicode="&#x1e7;" 
d="M479.5 515.5q62.5 -35.5 98 -98.5t35.5 -144v-216q0 -79 -35 -144t-98.5 -102.5t-143.5 -37.5q-72 0 -134 28.5t-104 81.5q-11 14 -11 28q0 21 21 36q14 9 28 9q25 0 41 -21q27 -35 68 -53.5t93 -18.5q49 0 89 23.5t64 69t24 108.5v49q-31 -55 -82 -86t-115 -31
q-74 0 -132.5 35.5t-91 98.5t-32.5 143q0 81 35 144t98 98.5t143 35.5q79 0 141.5 -35.5zM429.5 110q40.5 24 63 66.5t22.5 96.5t-22.5 97t-63 67t-91.5 24t-91.5 -24t-63.5 -67t-23 -97t23 -96.5t63.5 -66.5t91.5 -24t91.5 24zM312 633l-112 74q-24 18 -24 43q0 13 10.5 22
t27.5 9q22 0 45 -16l79 -53l79 53q25 17 47 17q17 0 26.5 -9.5t9.5 -22.5q0 -25 -24 -43l-111 -74q-12 -8 -27 -8t-26 8z" />
    <glyph glyph-name="uni01EA" unicode="&#x1ea;" horiz-adv-x="921" 
d="M812.5 193q-45.5 -88 -127 -141t-187.5 -61q10 -12 12 -31q0 -45 -64 -91q-10 -9 -10 -20q0 -10 6.5 -16.5t16.5 -6.5q8 0 12 4l31 23q15 10 31 10q22 0 36.5 -14.5t14.5 -36.5q0 -25 -18 -41l-38 -25q-31 -22 -69 -22q-33 0 -62 17t-46 45.5t-17 62.5q0 59 52 102
q19 13 28 32l6 9q-105 9 -186 62t-125.5 140.5t-44.5 196.5q0 116 50 207t140.5 142t206.5 51q115 0 205.5 -51t141 -142t50.5 -207q0 -110 -45.5 -198zM614 124.5q68 40.5 106 110.5t38 156t-38 156t-105.5 110t-153.5 40t-153.5 -40t-105.5 -110t-38 -156t38 -156
t106 -110.5t153 -40.5t153 40.5z" />
    <glyph glyph-name="uni01EB" unicode="&#x1eb;" 
d="M541.5 -112.5q14.5 -14.5 14.5 -36.5q0 -25 -18 -41l-38 -25q-31 -22 -69 -22q-33 0 -62 17t-46 45.5t-17 62.5q0 59 52 102l9 7q-9 -1 -29 -1q-80 0 -143 35.5t-98 98.5t-35 143q0 81 35 144t98 98.5t143 35.5q79 0 141.5 -35.5t98 -98.5t35.5 -144q0 -83 -37.5 -147.5
t-102.5 -98.5q8 -12 9 -28q0 -45 -64 -91q-10 -9 -10 -20q0 -10 6.5 -16.5t16.5 -6.5q8 0 12 4l31 23q15 10 31 10q22 0 36.5 -14.5zM183 176.5q23 -42.5 63.5 -66.5t91.5 -24t91.5 24t63 66.5t22.5 96.5t-22.5 97t-63 67t-91.5 24t-91.5 -24t-63.5 -67t-23 -97t23 -96.5z
" />
    <glyph glyph-name="Aringacute" unicode="&#x1fa;" horiz-adv-x="703" 
d="M689 51q0 -21 -15 -36t-37 -15q-15 0 -28.5 8.5t-19.5 23.5l-56 140h-359l-57 -140q-7 -15 -20 -23.5t-28 -8.5q-22 0 -36.5 15.5t-14.5 36.5q0 10 5 23l281 671q15 35 49 35q36 0 49 -35l282 -673q5 -13 5 -22zM209 258h289l-143 356zM275 850q-30 30 -30 77t30 77.5
t77 30.5t77 -30.5t30 -77.5t-30 -77t-77 -30t-77 30zM388.5 890.5q14.5 14.5 14.5 36.5q0 23 -14.5 37.5t-36.5 14.5q-23 0 -37.5 -14.5t-14.5 -37.5q0 -22 14.5 -36.5t37.5 -14.5q22 0 36.5 14.5zM319 1085.5q-14 14.5 -14 36.5q0 21 12 34l98 98q15 15 36 15
q22 0 36.5 -15t14.5 -37t-14 -35l-97 -97q-14 -14 -35 -14q-23 0 -37 14.5z" />
    <glyph glyph-name="aringacute" unicode="&#x1fb;" 
d="M477.5 514.5q62.5 -36.5 99 -100t36.5 -141.5v-223q0 -22 -14.5 -36.5t-36.5 -14.5t-36.5 14.5t-14.5 36.5v37q-35 -43 -85 -67t-108 -24q-72 0 -130.5 36t-92 99.5t-33.5 141.5t36 141.5t99.5 100t140.5 36.5t139.5 -36.5zM428.5 110.5q40.5 24.5 63.5 67t23 95.5
t-23 96t-63.5 67.5t-90.5 24.5t-90.5 -24.5t-64 -67.5t-23.5 -96t23.5 -95.5t64 -67t90.5 -24.5t90.5 24.5zM261 616q-30 30 -30 77t30 77.5t77 30.5t77 -30.5t30 -77.5t-30 -77t-77 -30t-77 30zM374.5 656.5q14.5 14.5 14.5 36.5q0 23 -14.5 37.5t-36.5 14.5
q-23 0 -37.5 -14.5t-14.5 -37.5q0 -22 14.5 -36.5t37.5 -14.5q22 0 36.5 14.5zM305 851.5q-14 14.5 -14 36.5q0 21 12 34l98 98q15 15 36 15q22 0 36.5 -15t14.5 -37t-14 -35l-97 -97q-14 -14 -35 -14q-23 0 -37 14.5z" />
    <glyph glyph-name="AEacute" unicode="&#x1fc;" horiz-adv-x="1001" 
d="M942 83q14 -13 14 -34q0 -22 -14 -35.5t-37 -13.5h-412q-22 0 -37 15t-15 37v120h-236l-86 -140q-19 -32 -48 -32q-22 0 -37.5 15.5t-15.5 35.5q0 13 7 24l420 674q20 32 55 32h405q23 0 37 -13.5t14 -35.5q0 -21 -14 -34t-37 -13h-360v-243h247q22 0 36.5 -13.5
t14.5 -34.5t-14.5 -34.5t-36.5 -13.5h-247v-250h360q23 0 37 -13zM258 258h183v304zM608 881.5q-14 14.5 -14 36.5q0 21 12 34l98 98q15 15 36 15q22 0 36.5 -15t14.5 -37t-14 -35l-97 -97q-14 -14 -35 -14q-23 0 -37 14.5z" />
    <glyph glyph-name="aeacute" unicode="&#x1fd;" horiz-adv-x="1079" 
d="M613 238v-1q12 -69 64.5 -112t127.5 -43q30 0 62.5 11t53.5 27q15 12 35 12q17 0 28 -11q18 -18 18 -35t-16 -29q-35 -27 -85.5 -44t-95.5 -17q-57 0 -106 19t-86 53v-18q0 -22 -14.5 -36.5t-36.5 -14.5t-36.5 14.5t-14.5 36.5v37q-35 -43 -85 -67t-108 -24
q-72 0 -130.5 36t-92 99.5t-33.5 141.5t36 141.5t99.5 100t140.5 36.5q73 0 133.5 -33t97.5 -91q33 58 91 91t130 33q77 0 133 -34t86 -95t30 -140q0 -19 -13 -31.5t-33 -12.5h-380zM671.5 425q-45.5 -40 -57.5 -107h333q-9 67 -50 107t-107 40q-73 0 -118.5 -40z
M428.5 110.5q40.5 24.5 63.5 67t23 95.5t-23 96t-63.5 67.5t-90.5 24.5t-90.5 -24.5t-64 -67.5t-23.5 -96t23.5 -95.5t64 -67t90.5 -24.5t90.5 24.5zM518 647.5q-14 14.5 -14 36.5q0 21 12 34l98 98q15 15 36 15q22 0 36.5 -15t14.5 -37t-14 -35l-97 -97q-14 -14 -35 -14
q-23 0 -37 14.5z" />
    <glyph glyph-name="Oslashacute" unicode="&#x1fe;" horiz-adv-x="921" 
d="M835.5 534.5q22.5 -66.5 22.5 -143.5q0 -116 -50.5 -207.5t-140.5 -142.5t-206 -51q-81 0 -150 25.5t-121 72.5l-80 -80q-8 -8 -21 -8q-14 0 -22.5 9t-8.5 22q0 12 8 20l82 82q-84 106 -84 258q0 116 50 207t140.5 142t206.5 51q79 0 146.5 -24.5t119.5 -69.5l77 76
q8 8 21 8t22.5 -9t9.5 -21q0 -11 -9 -20l-78 -78q43 -52 65.5 -118.5zM307.5 657q-67.5 -40 -105.5 -110t-38 -156q0 -54 15.5 -102.5t44.5 -87.5l429 429q-39 32 -88 49.5t-104 17.5q-86 0 -153.5 -40zM614 124.5q68 40.5 106 110.5t38 156q0 56 -16.5 105t-46.5 89
l-430 -430q80 -71 196 -71q85 0 153 40.5zM428 881.5q-14 14.5 -14 36.5q0 21 12 34l98 98q15 15 36 15q22 0 36.5 -15t14.5 -37t-14 -35l-97 -97q-14 -14 -35 -14q-23 0 -37 14.5z" />
    <glyph glyph-name="oslashacute" unicode="&#x1ff;" horiz-adv-x="708" 
d="M638 542.5q8 -9.5 8 -21.5q0 -13 -8 -21l-59 -59q54 -75 54 -173q0 -80 -35 -143t-97.5 -98.5t-142.5 -35.5q-53 0 -98.5 15.5t-80.5 44.5l-63 -63q-10 -9 -22 -9q-14 0 -23 9t-9 21t10 22l64 65q-54 73 -54 172q0 81 35 144t98 98.5t143 35.5q104 0 178 -60l57 56
q10 10 23 10q14 0 22 -9.5zM266.5 432q-40.5 -24 -63.5 -67t-23 -97q0 -63 29 -107l259 259q-47 36 -110 36q-51 0 -91.5 -24zM449.5 105q40.5 24 63 66.5t22.5 96.5q0 61 -28 106l-258 -257q45 -36 109 -36q51 0 91.5 24zM325 642.5q-14 14.5 -14 36.5q0 21 12 34l98 98
q15 15 36 15q22 0 36.5 -15t14.5 -37t-14 -35l-97 -97q-14 -14 -35 -14q-23 0 -37 14.5z" />
    <glyph glyph-name="uni0200" unicode="&#x200;" horiz-adv-x="703" 
d="M689 51q0 -21 -15 -36t-37 -15q-15 0 -28.5 8.5t-19.5 23.5l-56 140h-359l-57 -140q-7 -15 -20 -23.5t-28 -8.5q-22 0 -36.5 15.5t-14.5 36.5q0 10 5 23l281 671q15 35 49 35q36 0 49 -35l282 -673q5 -13 5 -22zM209 258h289l-143 356zM270 877l-55 118q-3 5 -4 11t-1 8
q0 21 15 36t37 15q16 0 29.5 -9.5t17.5 -22.5l39 -124l2 -16q0 -19 -12.5 -30.5t-28.5 -11.5q-25 0 -39 26zM414 877l-56 118q-4 9 -4 19q0 21 15 36t37 15q16 0 29.5 -9.5t17.5 -22.5l38 -124q3 -9 3 -16q0 -19 -13 -30.5t-29 -11.5q-26 0 -38 26z" />
    <glyph glyph-name="uni0201" unicode="&#x201;" 
d="M477.5 514.5q62.5 -36.5 99 -100t36.5 -141.5v-223q0 -22 -14.5 -36.5t-36.5 -14.5t-36.5 14.5t-14.5 36.5v37q-35 -43 -85 -67t-108 -24q-72 0 -130.5 36t-92 99.5t-33.5 141.5t36 141.5t99.5 100t140.5 36.5t139.5 -36.5zM428.5 110.5q40.5 24.5 63.5 67t23 95.5
t-23 96t-63.5 67.5t-90.5 24.5t-90.5 -24.5t-64 -67.5t-23.5 -96t23.5 -95.5t64 -67t90.5 -24.5t90.5 24.5zM256 643l-55 118q-3 5 -4 11t-1 8q0 21 15 36t37 15q16 0 29.5 -9.5t17.5 -22.5l39 -124l2 -16q0 -19 -12.5 -30.5t-28.5 -11.5q-25 0 -39 26zM400 643l-56 118
q-4 9 -4 19q0 21 15 36t37 15q16 0 29.5 -9.5t17.5 -22.5l38 -124q3 -9 3 -16q0 -19 -13 -30.5t-29 -11.5q-26 0 -38 26z" />
    <glyph glyph-name="uni0202" unicode="&#x202;" horiz-adv-x="703" 
d="M689 51q0 -21 -15 -36t-37 -15q-15 0 -28.5 8.5t-19.5 23.5l-56 140h-359l-57 -140q-7 -15 -20 -23.5t-28 -8.5q-22 0 -36.5 15.5t-14.5 36.5q0 10 5 23l281 671q15 35 49 35q36 0 49 -35l282 -673q5 -13 5 -22zM209 258h289l-143 356zM433 998.5q37 -16.5 59 -45
t22 -63.5q0 -22 -13 -36.5t-34 -14.5q-20 0 -34.5 11.5t-14.5 29.5q0 24 -18 38.5t-48 14.5q-25 0 -46 -15.5t-21 -37.5q0 -18 -14.5 -29.5t-33.5 -11.5q-21 0 -34.5 14.5t-13.5 36.5q0 35 22 63.5t59.5 45t81.5 16.5t81 -16.5z" />
    <glyph glyph-name="uni0203" unicode="&#x203;" 
d="M477.5 514.5q62.5 -36.5 99 -100t36.5 -141.5v-223q0 -22 -14.5 -36.5t-36.5 -14.5t-36.5 14.5t-14.5 36.5v37q-35 -43 -85 -67t-108 -24q-72 0 -130.5 36t-92 99.5t-33.5 141.5t36 141.5t99.5 100t140.5 36.5t139.5 -36.5zM428.5 110.5q40.5 24.5 63.5 67t23 95.5
t-23 96t-63.5 67.5t-90.5 24.5t-90.5 -24.5t-64 -67.5t-23.5 -96t23.5 -95.5t64 -67t90.5 -24.5t90.5 24.5zM419 764.5q37 -16.5 59 -45t22 -63.5q0 -22 -13 -36.5t-34 -14.5q-20 0 -34.5 11.5t-14.5 29.5q0 24 -18 38.5t-48 14.5q-25 0 -46 -15.5t-21 -37.5
q0 -18 -14.5 -29.5t-33.5 -11.5q-21 0 -34.5 14.5t-13.5 36.5q0 35 22 63.5t59.5 45t81.5 16.5t81 -16.5z" />
    <glyph glyph-name="uni0204" unicode="&#x204;" horiz-adv-x="700" 
d="M115 15q-15 15 -15 37v677q0 23 15 37.5t37 14.5h452q23 0 37 -13.5t14 -35.5q0 -21 -14 -34t-37 -13h-400v-243h287q22 0 36.5 -13.5t14.5 -34.5t-14.5 -34.5t-36.5 -13.5h-287v-250h400q23 0 37 -13t14 -34q0 -22 -14 -35.5t-37 -13.5h-452q-22 0 -37 15zM308 877
l-55 118q-3 5 -4 11t-1 8q0 21 15 36t37 15q16 0 29.5 -9.5t17.5 -22.5l39 -124l2 -16q0 -19 -12.5 -30.5t-28.5 -11.5q-25 0 -39 26zM452 877l-56 118q-4 9 -4 19q0 21 15 36t37 15q16 0 29.5 -9.5t17.5 -22.5l38 -124q3 -9 3 -16q0 -19 -13 -30.5t-29 -11.5q-26 0 -38 26z
" />
    <glyph glyph-name="uni0205" unicode="&#x205;" horiz-adv-x="621" 
d="M568 250.5q-13 -12.5 -33 -12.5h-380q11 -70 63.5 -113t128.5 -43q30 0 62.5 11t53.5 27q14 11 33 11t30 -10q18 -15 18 -34q0 -18 -16 -30q-34 -27 -84.5 -44t-96.5 -17q-82 0 -147 35.5t-101.5 98.5t-36.5 143t34.5 143.5t96 99t139.5 35.5q77 0 133 -34t86 -95
t30 -140q0 -19 -13 -31.5zM213.5 425q-45.5 -40 -57.5 -107h333q-9 67 -50 107t-107 40q-73 0 -118.5 -40zM240 643l-55 118q-3 5 -4 11t-1 8q0 21 15 36t37 15q16 0 29.5 -9.5t17.5 -22.5l39 -124l2 -16q0 -19 -12.5 -30.5t-28.5 -11.5q-25 0 -39 26zM384 643l-56 118
q-4 9 -4 19q0 21 15 36t37 15q16 0 29.5 -9.5t17.5 -22.5l38 -124q3 -9 3 -16q0 -19 -13 -30.5t-29 -11.5q-26 0 -38 26z" />
    <glyph glyph-name="uni0206" unicode="&#x206;" horiz-adv-x="700" 
d="M115 15q-15 15 -15 37v677q0 23 15 37.5t37 14.5h452q23 0 37 -13.5t14 -35.5q0 -21 -14 -34t-37 -13h-400v-243h287q22 0 36.5 -13.5t14.5 -34.5t-14.5 -34.5t-36.5 -13.5h-287v-250h400q23 0 37 -13t14 -34q0 -22 -14 -35.5t-37 -13.5h-452q-22 0 -37 15zM471 998.5
q37 -16.5 59 -45t22 -63.5q0 -22 -13 -36.5t-34 -14.5q-20 0 -34.5 11.5t-14.5 29.5q0 24 -18 38.5t-48 14.5q-25 0 -46 -15.5t-21 -37.5q0 -18 -14.5 -29.5t-33.5 -11.5q-21 0 -34.5 14.5t-13.5 36.5q0 35 22 63.5t59.5 45t81.5 16.5t81 -16.5z" />
    <glyph glyph-name="uni0207" unicode="&#x207;" horiz-adv-x="621" 
d="M568 250.5q-13 -12.5 -33 -12.5h-380q11 -70 63.5 -113t128.5 -43q30 0 62.5 11t53.5 27q14 11 33 11t30 -10q18 -15 18 -34q0 -18 -16 -30q-34 -27 -84.5 -44t-96.5 -17q-82 0 -147 35.5t-101.5 98.5t-36.5 143t34.5 143.5t96 99t139.5 35.5q77 0 133 -34t86 -95
t30 -140q0 -19 -13 -31.5zM213.5 425q-45.5 -40 -57.5 -107h333q-9 67 -50 107t-107 40q-73 0 -118.5 -40zM403 764.5q37 -16.5 59 -45t22 -63.5q0 -22 -13 -36.5t-34 -14.5q-20 0 -34.5 11.5t-14.5 29.5q0 24 -18 38.5t-48 14.5q-25 0 -46 -15.5t-21 -37.5
q0 -18 -14.5 -29.5t-33.5 -11.5q-21 0 -34.5 14.5t-13.5 36.5q0 35 22 63.5t59.5 45t81.5 16.5t81 -16.5z" />
    <glyph glyph-name="uni0208" unicode="&#x208;" horiz-adv-x="304" 
d="M115 15q-15 15 -15 37v677q0 23 15 37.5t37 14.5q23 0 37.5 -14.5t14.5 -37.5v-677q0 -22 -14.5 -37t-37.5 -15q-22 0 -37 15zM70 877l-55 118q-3 5 -4 11t-1 8q0 21 15 36t37 15q16 0 29.5 -9.5t17.5 -22.5l39 -124l2 -16q0 -19 -12.5 -30.5t-28.5 -11.5q-25 0 -39 26z
M214 877l-56 118q-4 9 -4 19q0 21 15 36t37 15q16 0 29.5 -9.5t17.5 -22.5l38 -124q3 -9 3 -16q0 -19 -13 -30.5t-29 -11.5q-26 0 -38 26z" />
    <glyph glyph-name="uni0209" unicode="&#x209;" horiz-adv-x="302" 
d="M114.5 14.5q-14.5 14.5 -14.5 36.5v445q0 23 14.5 37t36.5 14q23 0 37 -14t14 -37v-445q0 -22 -14 -36.5t-37 -14.5q-22 0 -36.5 14.5zM69 643l-55 118q-3 5 -4 11t-1 8q0 21 15 36t37 15q16 0 29.5 -9.5t17.5 -22.5l39 -124l2 -16q0 -19 -12.5 -30.5t-28.5 -11.5
q-25 0 -39 26zM213 643l-56 118q-4 9 -4 19q0 21 15 36t37 15q16 0 29.5 -9.5t17.5 -22.5l38 -124q3 -9 3 -16q0 -19 -13 -30.5t-29 -11.5q-26 0 -38 26z" />
    <glyph glyph-name="uni020A" unicode="&#x20a;" horiz-adv-x="304" 
d="M115 15q-15 15 -15 37v677q0 23 15 37.5t37 14.5q23 0 37.5 -14.5t14.5 -37.5v-677q0 -22 -14.5 -37t-37.5 -15q-22 0 -37 15zM233 998.5q37 -16.5 59 -45t22 -63.5q0 -22 -13 -36.5t-34 -14.5q-20 0 -34.5 11.5t-14.5 29.5q0 24 -18 38.5t-48 14.5q-25 0 -46 -15.5
t-21 -37.5q0 -18 -14.5 -29.5t-33.5 -11.5q-21 0 -34.5 14.5t-13.5 36.5q0 35 22 63.5t59.5 45t81.5 16.5t81 -16.5z" />
    <glyph glyph-name="uni020B" unicode="&#x20b;" horiz-adv-x="302" 
d="M224 764.5q33 -16.5 52.5 -45t19.5 -63.5q0 -22 -11.5 -36.5t-30.5 -14.5q-18 0 -31 11.5t-13 29.5q0 24 -16 38.5t-43 14.5q-23 0 -42 -15.5t-19 -37.5q0 -18 -13 -29.5t-30 -11.5q-19 0 -31 14.5t-12 36.5q0 35 20 63.5t53.5 45t73.5 16.5t73 -16.5zM114.5 14.5
q-14.5 14.5 -14.5 36.5v445q0 23 14.5 37t36.5 14q23 0 37 -14t14 -37v-445q0 -22 -14 -36.5t-37 -14.5q-22 0 -36.5 14.5z" />
    <glyph glyph-name="uni020C" unicode="&#x20c;" horiz-adv-x="921" 
d="M254.5 41q-90.5 51 -140.5 142.5t-50 207.5t50 207t140.5 142t206.5 51q115 0 205.5 -51t141 -142t50.5 -207t-50.5 -207.5t-140.5 -142.5t-206 -51t-206.5 51zM614 124.5q68 40.5 106 110.5t38 156t-38 156t-105.5 110t-153.5 40t-153.5 -40t-105.5 -110t-38 -156
t38 -156t106 -110.5t153 -40.5t153 40.5zM379 877l-55 118q-3 5 -4 11t-1 8q0 21 15 36t37 15q16 0 29.5 -9.5t17.5 -22.5l39 -124l2 -16q0 -19 -12.5 -30.5t-28.5 -11.5q-25 0 -39 26zM523 877l-56 118q-4 9 -4 19q0 21 15 36t37 15q16 0 29.5 -9.5t17.5 -22.5l38 -124
q3 -9 3 -16q0 -19 -13 -30.5t-29 -11.5q-26 0 -38 26z" />
    <glyph glyph-name="uni020D" unicode="&#x20d;" 
d="M195 31.5q-63 35.5 -98 98.5t-35 143q0 81 35 144t98 98.5t143 35.5q79 0 141.5 -35.5t98 -98.5t35.5 -144q0 -80 -35 -143t-97.5 -98.5t-142.5 -35.5t-143 35.5zM429.5 110q40.5 24 63 66.5t22.5 96.5t-22.5 97t-63 67t-91.5 24t-91.5 -24t-63.5 -67t-23 -97t23 -96.5
t63.5 -66.5t91.5 -24t91.5 24zM256 643l-55 118q-3 5 -4 11t-1 8q0 21 15 36t37 15q16 0 29.5 -9.5t17.5 -22.5l39 -124l2 -16q0 -19 -12.5 -30.5t-28.5 -11.5q-25 0 -39 26zM400 643l-56 118q-4 9 -4 19q0 21 15 36t37 15q16 0 29.5 -9.5t17.5 -22.5l38 -124q3 -9 3 -16
q0 -19 -13 -30.5t-29 -11.5q-26 0 -38 26z" />
    <glyph glyph-name="uni020E" unicode="&#x20e;" horiz-adv-x="921" 
d="M254.5 41q-90.5 51 -140.5 142.5t-50 207.5t50 207t140.5 142t206.5 51q115 0 205.5 -51t141 -142t50.5 -207t-50.5 -207.5t-140.5 -142.5t-206 -51t-206.5 51zM614 124.5q68 40.5 106 110.5t38 156t-38 156t-105.5 110t-153.5 40t-153.5 -40t-105.5 -110t-38 -156
t38 -156t106 -110.5t153 -40.5t153 40.5zM542 998.5q37 -16.5 59 -45t22 -63.5q0 -22 -13 -36.5t-34 -14.5q-20 0 -34.5 11.5t-14.5 29.5q0 24 -18 38.5t-48 14.5q-25 0 -46 -15.5t-21 -37.5q0 -18 -14.5 -29.5t-33.5 -11.5q-21 0 -34.5 14.5t-13.5 36.5q0 35 22 63.5
t59.5 45t81.5 16.5t81 -16.5z" />
    <glyph glyph-name="uni020F" unicode="&#x20f;" 
d="M195 31.5q-63 35.5 -98 98.5t-35 143q0 81 35 144t98 98.5t143 35.5q79 0 141.5 -35.5t98 -98.5t35.5 -144q0 -80 -35 -143t-97.5 -98.5t-142.5 -35.5t-143 35.5zM429.5 110q40.5 24 63 66.5t22.5 96.5t-22.5 97t-63 67t-91.5 24t-91.5 -24t-63.5 -67t-23 -97t23 -96.5
t63.5 -66.5t91.5 -24t91.5 24zM419 764.5q37 -16.5 59 -45t22 -63.5q0 -22 -13 -36.5t-34 -14.5q-20 0 -34.5 11.5t-14.5 29.5q0 24 -18 38.5t-48 14.5q-25 0 -46 -15.5t-21 -37.5q0 -18 -14.5 -29.5t-33.5 -11.5q-21 0 -34.5 14.5t-13.5 36.5q0 35 22 63.5t59.5 45
t81.5 16.5t81 -16.5z" />
    <glyph glyph-name="uni0210" unicode="&#x210;" horiz-adv-x="632" 
d="M617 47q0 -20 -13.5 -33.5t-36.5 -13.5q-29 0 -45 25l-172 276h-18h-128v-249q0 -22 -14.5 -37t-37.5 -15q-22 0 -37 15t-15 37v677q0 23 15 37.5t37 14.5h180q74 0 132.5 -31t91 -87t32.5 -128q0 -71 -36 -126t-98 -83l153 -246q10 -16 10 -33zM332 397q68 0 112 38.5
t44 99.5q0 66 -44 108t-112 42h-128v-288h128zM266 877l-55 118q-3 5 -4 11t-1 8q0 21 15 36t37 15q16 0 29.5 -9.5t17.5 -22.5l39 -124l2 -16q0 -19 -12.5 -30.5t-28.5 -11.5q-25 0 -39 26zM410 877l-56 118q-4 9 -4 19q0 21 15 36t37 15q16 0 29.5 -9.5t17.5 -22.5
l38 -124q3 -9 3 -16q0 -19 -13 -30.5t-29 -11.5q-26 0 -38 26z" />
    <glyph glyph-name="uni0211" unicode="&#x211;" horiz-adv-x="486" 
d="M441 537q30 -16 30 -40q0 -7 -1 -10q-9 -32 -40 -32q-5 0 -15 2q-40 7 -65 7q-72 0 -116 -33t-44 -89v-292q0 -24 -12.5 -37t-37.5 -13q-24 0 -37 12.5t-13 37.5v447q0 24 13 37t37 13q50 0 50 -50v-19q30 35 74 55t94 20q53 0 83 -16zM201 643l-55 118q-3 5 -4 11t-1 8
q0 21 15 36t37 15q16 0 29.5 -9.5t17.5 -22.5l39 -124l2 -16q0 -19 -12.5 -30.5t-28.5 -11.5q-25 0 -39 26zM345 643l-56 118q-4 9 -4 19q0 21 15 36t37 15q16 0 29.5 -9.5t17.5 -22.5l38 -124q3 -9 3 -16q0 -19 -13 -30.5t-29 -11.5q-26 0 -38 26z" />
    <glyph glyph-name="uni0212" unicode="&#x212;" horiz-adv-x="632" 
d="M617 47q0 -20 -13.5 -33.5t-36.5 -13.5q-29 0 -45 25l-172 276h-18h-128v-249q0 -22 -14.5 -37t-37.5 -15q-22 0 -37 15t-15 37v677q0 23 15 37.5t37 14.5h180q74 0 132.5 -31t91 -87t32.5 -128q0 -71 -36 -126t-98 -83l153 -246q10 -16 10 -33zM332 397q68 0 112 38.5
t44 99.5q0 66 -44 108t-112 42h-128v-288h128zM429 998.5q37 -16.5 59 -45t22 -63.5q0 -22 -13 -36.5t-34 -14.5q-20 0 -34.5 11.5t-14.5 29.5q0 24 -18 38.5t-48 14.5q-25 0 -46 -15.5t-21 -37.5q0 -18 -14.5 -29.5t-33.5 -11.5q-21 0 -34.5 14.5t-13.5 36.5q0 35 22 63.5
t59.5 45t81.5 16.5t81 -16.5z" />
    <glyph glyph-name="uni0213" unicode="&#x213;" horiz-adv-x="486" 
d="M441 537q30 -16 30 -40q0 -7 -1 -10q-9 -32 -40 -32q-5 0 -15 2q-40 7 -65 7q-72 0 -116 -33t-44 -89v-292q0 -24 -12.5 -37t-37.5 -13q-24 0 -37 12.5t-13 37.5v447q0 24 13 37t37 13q50 0 50 -50v-19q30 35 74 55t94 20q53 0 83 -16zM364 764.5q37 -16.5 59 -45
t22 -63.5q0 -22 -13 -36.5t-34 -14.5q-20 0 -34.5 11.5t-14.5 29.5q0 24 -18 38.5t-48 14.5q-25 0 -46 -15.5t-21 -37.5q0 -18 -14.5 -29.5t-33.5 -11.5q-21 0 -34.5 14.5t-13.5 36.5q0 35 22 63.5t59.5 45t81.5 16.5t81 -16.5z" />
    <glyph glyph-name="uni0214" unicode="&#x214;" horiz-adv-x="845" 
d="M257.5 19.5q-74.5 35.5 -116 98.5t-41.5 144v467q0 23 15 37.5t37 14.5q23 0 37.5 -14.5t14.5 -37.5v-467q0 -53 28.5 -95t79 -65.5t115.5 -23.5q62 0 111 23.5t76.5 65.5t27.5 95v467q0 23 15 37.5t37 14.5t36.5 -14.5t14.5 -37.5v-467q0 -80 -40.5 -143.5t-113 -99
t-164.5 -35.5q-95 0 -169.5 35.5zM341 877l-55 118q-3 5 -4 11t-1 8q0 21 15 36t37 15q16 0 29.5 -9.5t17.5 -22.5l39 -124l2 -16q0 -19 -12.5 -30.5t-28.5 -11.5q-25 0 -39 26zM485 877l-56 118q-4 9 -4 19q0 21 15 36t37 15q16 0 29.5 -9.5t17.5 -22.5l38 -124q3 -9 3 -16
q0 -19 -13 -30.5t-29 -11.5q-26 0 -38 26z" />
    <glyph glyph-name="uni0215" unicode="&#x215;" horiz-adv-x="682" 
d="M578 534q14 -14 14 -37v-446q0 -22 -14 -36.5t-37 -14.5q-22 0 -36.5 14.5t-14.5 36.5v11q-32 -32 -76 -49.5t-94 -17.5q-69 0 -124 30t-86 87.5t-31 138.5v246q0 22 14.5 36.5t36.5 14.5t36.5 -14.5t14.5 -36.5v-246q0 -81 43.5 -122.5t115.5 -41.5q42 0 76.5 17t54 46
t19.5 65v282q0 23 14.5 37t36.5 14q23 0 37 -14zM259 643l-55 118q-3 5 -4 11t-1 8q0 21 15 36t37 15q16 0 29.5 -9.5t17.5 -22.5l39 -124l2 -16q0 -19 -12.5 -30.5t-28.5 -11.5q-25 0 -39 26zM403 643l-56 118q-4 9 -4 19q0 21 15 36t37 15q16 0 29.5 -9.5t17.5 -22.5
l38 -124q3 -9 3 -16q0 -19 -13 -30.5t-29 -11.5q-26 0 -38 26z" />
    <glyph glyph-name="uni0216" unicode="&#x216;" horiz-adv-x="845" 
d="M257.5 19.5q-74.5 35.5 -116 98.5t-41.5 144v467q0 23 15 37.5t37 14.5q23 0 37.5 -14.5t14.5 -37.5v-467q0 -53 28.5 -95t79 -65.5t115.5 -23.5q62 0 111 23.5t76.5 65.5t27.5 95v467q0 23 15 37.5t37 14.5t36.5 -14.5t14.5 -37.5v-467q0 -80 -40.5 -143.5t-113 -99
t-164.5 -35.5q-95 0 -169.5 35.5zM504 998.5q37 -16.5 59 -45t22 -63.5q0 -22 -13 -36.5t-34 -14.5q-20 0 -34.5 11.5t-14.5 29.5q0 24 -18 38.5t-48 14.5q-25 0 -46 -15.5t-21 -37.5q0 -18 -14.5 -29.5t-33.5 -11.5q-21 0 -34.5 14.5t-13.5 36.5q0 35 22 63.5t59.5 45
t81.5 16.5t81 -16.5z" />
    <glyph glyph-name="uni0217" unicode="&#x217;" horiz-adv-x="682" 
d="M578 534q14 -14 14 -37v-446q0 -22 -14 -36.5t-37 -14.5q-22 0 -36.5 14.5t-14.5 36.5v11q-32 -32 -76 -49.5t-94 -17.5q-69 0 -124 30t-86 87.5t-31 138.5v246q0 22 14.5 36.5t36.5 14.5t36.5 -14.5t14.5 -36.5v-246q0 -81 43.5 -122.5t115.5 -41.5q42 0 76.5 17t54 46
t19.5 65v282q0 23 14.5 37t36.5 14q23 0 37 -14zM422 764.5q37 -16.5 59 -45t22 -63.5q0 -22 -13 -36.5t-34 -14.5q-20 0 -34.5 11.5t-14.5 29.5q0 24 -18 38.5t-48 14.5q-25 0 -46 -15.5t-21 -37.5q0 -18 -14.5 -29.5t-33.5 -11.5q-21 0 -34.5 14.5t-13.5 36.5
q0 35 22 63.5t59.5 45t81.5 16.5t81 -16.5z" />
    <glyph glyph-name="Scommaaccent" unicode="&#x218;" horiz-adv-x="688" 
d="M171.5 34q-79.5 44 -109.5 115q-5 12 -5 20q0 15 11 26.5t30 15.5q3 1 10 1q16 0 30.5 -9.5t21.5 -25.5q18 -39 71 -66t117 -27q75 0 127 34.5t52 94.5q0 57 -44 97.5t-134 49.5q-124 12 -195 72.5t-71 151.5q0 64 36.5 110.5t100 71t142.5 24.5q86 0 145 -35t100 -100
q12 -19 12 -36q0 -22 -20 -36q-11 -7 -26 -7t-28 7.5t-20 20.5q-27 45 -67.5 68.5t-102.5 23.5q-76 0 -123 -29.5t-47 -85.5q0 -52 42 -87t150 -46q120 -12 186 -72.5t66 -159.5q0 -72 -39 -123.5t-103.5 -77t-138.5 -25.5q-97 0 -176.5 44zM262 -226.5q-39 20.5 -39 58.5
q0 15 10 24t25 9q12 0 20 -5t18 -15q13 -14 25 -21t35 -7q29 0 41 8t12 27q0 41 -75 41q-22 0 -35 8.5t-13 23.5q0 35 58 35q60 0 97 -29t37 -74q0 -48 -36.5 -76t-93.5 -28q-47 0 -86 20.5z" />
    <glyph glyph-name="scommaaccent" unicode="&#x219;" horiz-adv-x="543" 
d="M161 17q-60 21 -94 55q-13 13 -13 31q0 24 20 39q19 14 35 14q20 0 38 -18q19 -21 57 -36.5t81 -15.5q57 0 88.5 19t31.5 51q0 31 -31 51.5t-105 34.5q-192 37 -192 158q0 49 29 83t76 51t100 17q65 0 116.5 -21t81.5 -58q13 -16 13 -32q0 -17 -17 -31q-11 -8 -28 -8
q-26 0 -47 19q-25 23 -53 32.5t-68 9.5q-46 0 -75.5 -15.5t-29.5 -43.5q0 -20 10 -33.5t38 -25t81 -22.5q109 -22 154.5 -61t45.5 -101q0 -46 -25 -83.5t-73.5 -59t-116.5 -21.5t-128 21zM195 -226.5q-39 20.5 -39 58.5q0 15 10 24t25 9q12 0 20 -5t18 -15q13 -14 25 -21
t35 -7q29 0 41 8t12 27q0 41 -75 41q-22 0 -35 8.5t-13 23.5q0 35 58 35q60 0 97 -29t37 -74q0 -48 -36.5 -76t-93.5 -28q-47 0 -86 20.5z" />
    <glyph glyph-name="uni021A" unicode="&#x21a;" horiz-adv-x="661" 
d="M632.5 767.5q13.5 -13.5 13.5 -34.5t-13.5 -34.5t-34.5 -13.5h-215v-633q0 -22 -15 -37t-37 -15t-37 15t-15 37v633h-216q-21 0 -34.5 13.5t-13.5 34.5t13.5 34.5t34.5 13.5h535q21 0 34.5 -13.5zM249 -226.5q-39 20.5 -39 58.5q0 15 10 24t25 9q12 0 20 -5t18 -15
q13 -14 25 -21t35 -7q29 0 41 8t12 27q0 41 -75 41q-22 0 -35 8.5t-13 23.5q0 35 58 35q60 0 97 -29t37 -74q0 -48 -36.5 -76t-93.5 -28q-47 0 -86 20.5z" />
    <glyph glyph-name="uni021B" unicode="&#x21b;" horiz-adv-x="401" 
d="M353.5 86q12.5 -14 12.5 -36t-16.5 -36t-42.5 -14h-18q-49 0 -89.5 25.5t-63.5 69.5t-23 99v247h-46q-21 0 -34 12t-13 30q0 20 13 32t34 12h46v144q0 22 14 36t36 14t36 -14t14 -36v-144h85q21 0 34 -12t13 -32q0 -18 -13 -30t-34 -12h-85v-247q0 -40 22 -67t54 -27h34
q18 0 30.5 -14zM139 -226.5q-39 20.5 -39 58.5q0 15 10 24t25 9q12 0 20 -5t18 -15q13 -14 25 -21t35 -7q29 0 41 8t12 27q0 41 -75 41q-22 0 -35 8.5t-13 23.5q0 35 58 35q60 0 97 -29t37 -74q0 -48 -36.5 -76t-93.5 -28q-47 0 -86 20.5z" />
    <glyph glyph-name="uni022A" unicode="&#x22a;" horiz-adv-x="921" 
d="M254.5 41q-90.5 51 -140.5 142.5t-50 207.5t50 207t140.5 142t206.5 51q115 0 205.5 -51t141 -142t50.5 -207t-50.5 -207.5t-140.5 -142.5t-206 -51t-206.5 51zM614 124.5q68 40.5 106 110.5t38 156t-38 156t-105.5 110t-153.5 40t-153.5 -40t-105.5 -110t-38 -156
t38 -156t106 -110.5t153 -40.5t153 40.5zM306.5 882.5q-17.5 17.5 -17.5 42.5q0 24 18 42t43 18q24 0 42 -18t18 -42q0 -25 -18 -42.5t-42 -17.5q-26 0 -43.5 17.5zM529 882.5q-17 17.5 -17 42.5q0 24 17.5 42t42.5 18q24 0 42 -18t18 -42q0 -25 -18 -42.5t-42 -17.5
q-26 0 -43 17.5zM298 1097q-14 12 -14 34q0 21 14 32.5t37 11.5h250q23 0 37.5 -11.5t14.5 -32.5q0 -22 -14.5 -34t-37.5 -12h-250q-23 0 -37 12z" />
    <glyph glyph-name="uni022B" unicode="&#x22b;" 
d="M195 31.5q-63 35.5 -98 98.5t-35 143q0 81 35 144t98 98.5t143 35.5q79 0 141.5 -35.5t98 -98.5t35.5 -144q0 -80 -35 -143t-97.5 -98.5t-142.5 -35.5t-143 35.5zM429.5 110q40.5 24 63 66.5t22.5 96.5t-22.5 97t-63 67t-91.5 24t-91.5 -24t-63.5 -67t-23 -97t23 -96.5
t63.5 -66.5t91.5 -24t91.5 24zM183.5 648.5q-17.5 17.5 -17.5 42.5q0 24 18 42t43 18q24 0 42 -18t18 -42q0 -25 -18 -42.5t-42 -17.5q-26 0 -43.5 17.5zM406 648.5q-17 17.5 -17 42.5q0 24 17.5 42t42.5 18q24 0 42 -18t18 -42q0 -25 -18 -42.5t-42 -17.5q-26 0 -43 17.5z
M175 863q-14 12 -14 34q0 21 14 32.5t37 11.5h250q23 0 37.5 -11.5t14.5 -32.5q0 -22 -14.5 -34t-37.5 -12h-250q-23 0 -37 12z" />
    <glyph glyph-name="uni022C" unicode="&#x22c;" horiz-adv-x="921" 
d="M254.5 41q-90.5 51 -140.5 142.5t-50 207.5t50 207t140.5 142t206.5 51q115 0 205.5 -51t141 -142t50.5 -207t-50.5 -207.5t-140.5 -142.5t-206 -51t-206.5 51zM614 124.5q68 40.5 106 110.5t38 156t-38 156t-105.5 110t-153.5 40t-153.5 -40t-105.5 -110t-38 -156
t38 -156t106 -110.5t153 -40.5t153 40.5zM515 864.5q-23 8.5 -49 22.5q-42 23 -66 23q-15 0 -26 -5.5t-22 -21.5q-20 -27 -45 -27q-8 0 -20 5q-8 4 -13 13t-5 20q0 15 9 28q23 33 56.5 50.5t72.5 17.5q28 0 49.5 -8t48.5 -22q24 -14 35.5 -18.5t24.5 -4.5q23 0 40 17
q11 11 19 16t18 5q11 0 22 -7q16 -10 16 -33q0 -18 -11 -32q-38 -47 -101 -47q-30 0 -53 8.5zM308 1072q-14 12 -14 34q0 21 14 32.5t37 11.5h250q23 0 37.5 -11.5t14.5 -32.5q0 -22 -14.5 -34t-37.5 -12h-250q-23 0 -37 12z" />
    <glyph glyph-name="uni022D" unicode="&#x22d;" 
d="M195 31.5q-63 35.5 -98 98.5t-35 143q0 81 35 144t98 98.5t143 35.5q79 0 141.5 -35.5t98 -98.5t35.5 -144q0 -80 -35 -143t-97.5 -98.5t-142.5 -35.5t-143 35.5zM429.5 110q40.5 24 63 66.5t22.5 96.5t-22.5 97t-63 67t-91.5 24t-91.5 -24t-63.5 -67t-23 -97t23 -96.5
t63.5 -66.5t91.5 -24t91.5 24zM392 630.5q-23 8.5 -49 22.5q-42 23 -66 23q-15 0 -26 -5.5t-22 -21.5q-20 -27 -45 -27q-8 0 -20 5q-8 4 -13 13t-5 20q0 15 9 28q23 33 56.5 50.5t72.5 17.5q28 0 49.5 -8t48.5 -22q24 -14 35.5 -18.5t24.5 -4.5q23 0 40 17q11 11 19 16t18 5
q11 0 22 -7q16 -10 16 -33q0 -18 -11 -32q-38 -47 -101 -47q-30 0 -53 8.5zM185 838q-14 12 -14 34q0 21 14 32.5t37 11.5h250q23 0 37.5 -11.5t14.5 -32.5q0 -22 -14.5 -34t-37.5 -12h-250q-23 0 -37 12z" />
    <glyph glyph-name="uni0230" unicode="&#x230;" horiz-adv-x="921" 
d="M254.5 41q-90.5 51 -140.5 142.5t-50 207.5t50 207t140.5 142t206.5 51q115 0 205.5 -51t141 -142t50.5 -207t-50.5 -207.5t-140.5 -142.5t-206 -51t-206.5 51zM614 124.5q68 40.5 106 110.5t38 156t-38 156t-105.5 110t-153.5 40t-153.5 -40t-105.5 -110t-38 -156
t38 -156t106 -110.5t153 -40.5t153 40.5zM414.5 889.5q-19.5 19.5 -19.5 46.5t19.5 46.5t46.5 19.5t46.5 -19.5t19.5 -46.5t-19.5 -46.5t-46.5 -19.5t-46.5 19.5zM298 1076q-14 12 -14 34q0 21 14 32.5t37 11.5h250q23 0 37.5 -11.5t14.5 -32.5q0 -22 -14.5 -34t-37.5 -12
h-250q-23 0 -37 12z" />
    <glyph glyph-name="uni0231" unicode="&#x231;" 
d="M195 31.5q-63 35.5 -98 98.5t-35 143q0 81 35 144t98 98.5t143 35.5q79 0 141.5 -35.5t98 -98.5t35.5 -144q0 -80 -35 -143t-97.5 -98.5t-142.5 -35.5t-143 35.5zM429.5 110q40.5 24 63 66.5t22.5 96.5t-22.5 97t-63 67t-91.5 24t-91.5 -24t-63.5 -67t-23 -97t23 -96.5
t63.5 -66.5t91.5 -24t91.5 24zM291.5 655.5q-19.5 19.5 -19.5 46.5t19.5 46.5t46.5 19.5t46.5 -19.5t19.5 -46.5t-19.5 -46.5t-46.5 -19.5t-46.5 19.5zM175 842q-14 12 -14 34q0 21 14 32.5t37 11.5h250q23 0 37.5 -11.5t14.5 -32.5q0 -22 -14.5 -34t-37.5 -12h-250
q-23 0 -37 12z" />
    <glyph glyph-name="uni0232" unicode="&#x232;" horiz-adv-x="670" 
d="M652.5 767q12.5 -14 12.5 -34q0 -17 -10 -33l-269 -415v-233q0 -22 -15 -37t-37 -15q-21 0 -36 15t-15 37v233l-267 415q-11 17 -11 32q0 21 15.5 35t36.5 14q16 0 26 -7t20 -22l234 -371l238 375q16 25 46 25q19 0 31.5 -14zM172 893q-14 12 -14 34q0 21 14 32.5
t37 11.5h250q23 0 37.5 -11.5t14.5 -32.5q0 -22 -14.5 -34t-37.5 -12h-250q-23 0 -37 12z" />
    <glyph glyph-name="uni0233" unicode="&#x233;" horiz-adv-x="539" 
d="M539 503q0 -10 -6 -24l-306 -688q-12 -31 -39 -31q-10 0 -24 6q-30 13 -30 39q0 12 6 24l100 225l-225 427q-5 9 -5 21q0 13 8 24t21 17q9 4 20 4q28 0 42 -28l183 -364l161 363q13 29 39 29q13 0 24 -5q31 -12 31 -39zM111 659q-14 12 -14 34q0 21 14 32.5t37 11.5h250
q23 0 37.5 -11.5t14.5 -32.5q0 -22 -14.5 -34t-37.5 -12h-250q-23 0 -37 12z" />
    <glyph glyph-name="uni0237" unicode="&#x237;" horiz-adv-x="287" 
d="M-86 -219.5q-14 14.5 -14 36.5t14 36.5t36 14.5q59 0 97 37.5t38 96.5v494q0 23 14.5 37t36.5 14q23 0 37 -14t14 -37v-494q0 -68 -30 -122t-84 -84t-123 -30q-22 0 -36 14.5z" />
    <glyph glyph-name="uni0259" unicode="&#x259;" horiz-adv-x="621" 
d="M421 515.5q65 -35.5 101.5 -98.5t36.5 -143t-34.5 -143.5t-96 -99t-139.5 -35.5q-77 0 -133 34t-86 95t-30 140q0 19 13 31.5t33 12.5h380q-11 70 -63.5 113t-128.5 43q-30 0 -62.5 -11t-53.5 -27q-14 -11 -33 -11t-30 10q-18 15 -18 34q0 18 16 30q34 27 84.5 44
t96.5 17q82 0 147 -35.5zM407.5 122q45.5 40 57.5 107h-333q9 -67 50 -107t107 -40q73 0 118.5 40z" />
    <glyph glyph-name="uni02BC" unicode="&#x2bc;" horiz-adv-x="195" 
d="M67.5 769.5q17.5 -25.5 17.5 -65.5q0 -34 -18.5 -82.5t-44 -84t-46.5 -35.5q-13 0 -21 9t-8 22q0 7 3 14q24 55 24 92q0 19 -8 49q-7 33 -7 47q0 25 18 42.5t43 17.5q30 0 47.5 -25.5z" />
    <glyph glyph-name="circumflex" unicode="&#x2c6;" horiz-adv-x="391" 
d="M45.5 596.5q-14.5 11.5 -14.5 29.5q0 26 24 44l112 73q13 8 26 8q15 0 27 -8l111 -73q24 -18 24 -44q0 -18 -14 -29.5t-36 -11.5q-18 0 -33 11l-79 56l-79 -56q-14 -11 -32 -11q-22 0 -36.5 11.5z" />
    <glyph glyph-name="caron" unicode="&#x2c7;" horiz-adv-x="391" 
d="M167 613l-112 74q-24 18 -24 43q0 13 10.5 22t27.5 9q22 0 45 -16l79 -53l79 53q25 17 47 17q17 0 26.5 -9.5t9.5 -22.5q0 -25 -24 -43l-111 -74q-12 -8 -27 -8t-26 8z" />
    <glyph glyph-name="uni02C9" unicode="&#x2c9;" horiz-adv-x="391" 
d="M45.5 625.5q-14.5 14.5 -14.5 36.5q0 21 14.5 36t36.5 15h223q21 0 35.5 -15t14.5 -36q0 -22 -14 -36.5t-36 -14.5h-223q-22 0 -36.5 14.5z" />
    <glyph glyph-name="breve" unicode="&#x2d8;" horiz-adv-x="391" 
d="M112.5 621.5q-37.5 16.5 -59.5 45t-22 63.5q0 22 13.5 36.5t34.5 14.5q19 0 33.5 -11.5t14.5 -29.5q0 -22 21 -37.5t46 -15.5q30 0 48 14.5t18 38.5q0 18 14.5 29.5t34.5 11.5q21 0 34 -14.5t13 -36.5q0 -35 -22 -63.5t-59 -45t-81 -16.5t-81.5 16.5z" />
    <glyph glyph-name="dotaccent" unicode="&#x2d9;" horiz-adv-x="195" 
d="M49.5 624.5q-20.5 20.5 -20.5 48.5q0 29 20.5 49.5t48.5 20.5t48.5 -20.5t20.5 -49.5q0 -28 -20 -48.5t-49 -20.5q-28 0 -48.5 20.5z" />
    <glyph glyph-name="ring" unicode="&#x2da;" horiz-adv-x="273" 
d="M60 616q-30 30 -30 77t30 77.5t77 30.5t77 -30.5t30 -77.5t-30 -77t-77 -30t-77 30zM174 656.5q14 14.5 14 36.5q0 23 -14.5 37.5t-36.5 14.5t-37 -14.5t-15 -37.5q0 -22 14.5 -36.5t37.5 -14.5t37 14.5z" />
    <glyph glyph-name="ogonek" unicode="&#x2db;" horiz-adv-x="313" 
d="M98 -217q-29 17 -46 45.5t-17 62.5q0 59 52 102q19 13 28 32q14 27 45 27q21 0 35 -14t16 -36q0 -45 -64 -91q-10 -9 -10 -20q0 -10 6.5 -16.5t16.5 -6.5q8 0 12 4l31 23q15 10 31 10q22 0 36.5 -14.5t14.5 -36.5q0 -25 -18 -41l-38 -25q-31 -22 -69 -22q-33 0 -62 17z
" />
    <glyph glyph-name="tilde" unicode="&#x2dc;" horiz-adv-x="469" 
d="M279 630.5q-23 8.5 -49 22.5q-42 23 -66 23q-15 0 -26 -5.5t-22 -21.5q-20 -27 -45 -27q-8 0 -20 5q-8 4 -13 13t-5 20q0 15 9 28q23 33 56.5 50.5t72.5 17.5q28 0 49.5 -8t48.5 -22q24 -14 35.5 -18.5t24.5 -4.5q23 0 40 17q11 11 19 16t18 5q11 0 22 -7q16 -10 16 -33
q0 -18 -11 -32q-38 -47 -101 -47q-30 0 -53 8.5z" />
    <glyph glyph-name="hungarumlaut" unicode="&#x2dd;" horiz-adv-x="352" 
d="M52 578.5q-13 11.5 -13 30.5q0 7 3 16l38 124q4 13 17.5 22.5t29.5 9.5q22 0 37 -15t15 -36q0 -10 -4 -19l-56 -118q-12 -26 -38 -26q-16 0 -29 11.5zM195.5 578.5q-12.5 11.5 -12.5 30.5l2 16l39 124q4 13 17.5 22.5t29.5 9.5q22 0 37 -15t15 -36q0 -2 -1 -8t-4 -11
l-55 -118q-14 -26 -39 -26q-16 0 -28.5 11.5z" />
    <glyph glyph-name="gravecomb" unicode="&#x300;" horiz-adv-x="0" 
d="M-127 647l-98 97q-13 13 -13 35t14 37t36 15q21 0 37 -15l97 -98q13 -13 13 -34q0 -22 -14.5 -36.5t-36.5 -14.5t-35 14z" />
    <glyph glyph-name="acutecomb" unicode="&#x301;" horiz-adv-x="0" 
d="M-208 647.5q-14 14.5 -14 36.5q0 21 12 34l98 98q15 15 36 15q22 0 36.5 -15t14.5 -37t-14 -35l-97 -97q-14 -14 -35 -14q-23 0 -37 14.5z" />
    <glyph glyph-name="uni0302" unicode="&#x302;" horiz-adv-x="0" 
d="M-345.5 626.5q-14.5 11.5 -14.5 29.5q0 26 24 44l112 73q13 8 26 8q15 0 27 -8l111 -73q24 -18 24 -44q0 -18 -14 -29.5t-36 -11.5q-18 0 -33 11l-79 56l-79 -56q-14 -11 -32 -11q-22 0 -36.5 11.5z" />
    <glyph glyph-name="tildecomb" unicode="&#x303;" horiz-adv-x="0" 
d="M-190 630.5q-23 8.5 -49 22.5q-42 23 -66 23q-15 0 -26 -5.5t-22 -21.5q-20 -27 -45 -27q-8 0 -20 5q-8 4 -13 13t-5 20q0 15 9 28q23 33 56.5 50.5t72.5 17.5q28 0 49.5 -8t48.5 -22q24 -14 35.5 -18.5t24.5 -4.5q23 0 40 17q11 11 19 16t18 5q11 0 22 -7q16 -10 16 -33
q0 -18 -11 -32q-38 -47 -101 -47q-30 0 -53 8.5z" />
    <glyph glyph-name="uni0304" unicode="&#x304;" horiz-adv-x="0" 
d="M-435 659q-14 12 -14 34q0 21 14 32.5t37 11.5h250q23 0 37.5 -11.5t14.5 -32.5q0 -22 -14.5 -34t-37.5 -12h-250q-23 0 -37 12z" />
    <glyph glyph-name="uni0306" unicode="&#x306;" horiz-adv-x="0" 
d="M-278.5 621.5q-37.5 16.5 -59.5 45t-22 63.5q0 22 13.5 36.5t34.5 14.5q19 0 33.5 -11.5t14.5 -29.5q0 -22 21 -37.5t46 -15.5q30 0 48 14.5t18 38.5q0 18 14.5 29.5t34.5 11.5q21 0 34 -14.5t13 -36.5q0 -35 -22 -63.5t-59 -45t-81 -16.5t-81.5 16.5z" />
    <glyph glyph-name="uni0307" unicode="&#x307;" horiz-adv-x="0" 
d="M-206.5 655.5q-19.5 19.5 -19.5 46.5t19.5 46.5t46.5 19.5t46.5 -19.5t19.5 -46.5t-19.5 -46.5t-46.5 -19.5t-46.5 19.5z" />
    <glyph glyph-name="uni0308" unicode="&#x308;" horiz-adv-x="0" 
d="M-387.5 648.5q-17.5 17.5 -17.5 42.5q0 24 18 42t43 18q24 0 42 -18t18 -42q0 -25 -18 -42.5t-42 -17.5q-26 0 -43.5 17.5zM-165 648.5q-17 17.5 -17 42.5q0 24 17.5 42t42.5 18q24 0 42 -18t18 -42q0 -25 -18 -42.5t-42 -17.5q-26 0 -43 17.5z" />
    <glyph glyph-name="hookabovecomb" unicode="&#x309;" horiz-adv-x="0" 
d="M-219 614q-13 13 -13 32v22q0 40 40 49l26 6q18 4 29.5 14.5t11.5 25.5q0 19 -11.5 28.5t-31.5 9.5q-13 0 -26 -4.5t-21 -11.5q-6 -5 -15 -8t-18 -3q-16 0 -26.5 9t-10.5 26q0 22 16 35q41 33 99 33q54 0 88 -31.5t34 -79.5q1 -87 -113 -102l19 2q0 -32 -12.5 -48.5
t-32.5 -16.5q-19 0 -32 13z" />
    <glyph glyph-name="uni030A" unicode="&#x30a;" horiz-adv-x="0" 
d="M-213 616q-30 30 -30 77t30 77.5t77 30.5t77 -30.5t30 -77.5t-30 -77t-77 -30t-77 30zM-99.5 656.5q14.5 14.5 14.5 36.5q0 23 -14.5 37.5t-36.5 14.5q-23 0 -37.5 -14.5t-14.5 -37.5q0 -22 14.5 -36.5t37.5 -14.5q22 0 36.5 14.5z" />
    <glyph glyph-name="uni030B" unicode="&#x30b;" horiz-adv-x="0" 
d="M-300 628.5q-13 11.5 -13 30.5q0 7 3 16l38 124q4 13 17.5 22.5t29.5 9.5q22 0 37 -15t15 -36q0 -10 -4 -19l-56 -118q-12 -26 -38 -26q-16 0 -29 11.5zM-156.5 628.5q-12.5 11.5 -12.5 30.5l2 16l39 124q4 13 17.5 22.5t29.5 9.5q21 0 36.5 -15t15.5 -36q0 -2 -1 -8
t-4 -11l-55 -118q-14 -26 -39 -26q-16 0 -28.5 11.5z" />
    <glyph glyph-name="uni030C" unicode="&#x30c;" horiz-adv-x="0" 
d="M-224 633l-112 74q-24 18 -24 43q0 13 10.5 22t27.5 9q22 0 45 -16l79 -53l79 53q25 17 47 17q17 0 26.5 -9.5t9.5 -22.5q0 -25 -24 -43l-111 -74q-12 -8 -27 -8t-26 8z" />
    <glyph glyph-name="uni030F" unicode="&#x30f;" horiz-adv-x="0" 
d="M-248 643l-55 118q-3 5 -4 11t-1 8q0 21 15 36t37 15q16 0 29.5 -9.5t17.5 -22.5l39 -124l2 -16q0 -19 -12.5 -30.5t-28.5 -11.5q-25 0 -39 26zM-104 643l-56 118q-4 9 -4 19q0 21 15 36t37 15q16 0 29.5 -9.5t17.5 -22.5l38 -124q3 -9 3 -16q0 -19 -13 -30.5t-29 -11.5
q-26 0 -38 26z" />
    <glyph glyph-name="uni0311" unicode="&#x311;" horiz-adv-x="0" 
d="M-131 764.5q37 -16.5 59 -45t22 -63.5q0 -22 -13 -36.5t-34 -14.5q-20 0 -34.5 11.5t-14.5 29.5q0 24 -18 38.5t-48 14.5q-25 0 -46 -15.5t-21 -37.5q0 -18 -14.5 -29.5t-33.5 -11.5q-21 0 -34.5 14.5t-13.5 36.5q0 35 22 63.5t59.5 45t81.5 16.5t81 -16.5z" />
    <glyph glyph-name="uni0312" unicode="&#x312;" horiz-adv-x="0" 
d="M-175 653q-20 26 -20 72q0 41 18.5 88t45.5 78.5t50 31.5q12 0 18.5 -7.5t6.5 -18.5q0 -12 -5 -22.5t-16 -24.5q-13 -18 -19 -30.5t-6 -29.5q0 -15 6.5 -25.5t18.5 -22.5q13 -13 20 -24t7 -28q0 -27 -18.5 -45t-48.5 -18q-38 0 -58 26z" />
    <glyph glyph-name="uni031B" unicode="&#x31b;" horiz-adv-x="0" 
d="M-232 547h48q18 0 31 19t13 48v19q0 23 12.5 36.5t32.5 13.5q21 0 33 -16t12 -41v-12q0 -44 -17.5 -80t-48 -56.5t-68.5 -20.5h-48v90z" />
    <glyph glyph-name="dotbelowcomb" unicode="&#x323;" horiz-adv-x="0" 
d="M-162.5 -204.5q-19.5 19.5 -19.5 46.5t19.5 46.5t46.5 19.5t46.5 -19.5t19.5 -46.5t-19.5 -46.5t-46.5 -19.5t-46.5 19.5z" />
    <glyph glyph-name="uni0324" unicode="&#x324;" horiz-adv-x="0" 
d="M-375.5 -201.5q-17.5 17.5 -17.5 42.5q0 24 18 42t43 18q24 0 42 -18t18 -42q0 -25 -18 -42.5t-42 -17.5q-26 0 -43.5 17.5zM-153 -201.5q-17 17.5 -17 42.5q0 24 17.5 42t42.5 18q24 0 42 -18t18 -42q0 -25 -18 -42.5t-42 -17.5q-26 0 -43 17.5z" />
    <glyph glyph-name="uni0326" unicode="&#x326;" horiz-adv-x="0" 
d="M-238 -226.5q-39 20.5 -39 58.5q0 15 10 24t25 9q12 0 20 -5t18 -15q13 -14 25 -21t35 -7q29 0 41 8t12 27q0 41 -75 41q-22 0 -35 8.5t-13 23.5q0 35 58 35q60 0 97 -29t37 -74q0 -48 -36.5 -76t-93.5 -28q-47 0 -86 20.5z" />
    <glyph glyph-name="uni0327" unicode="&#x327;" horiz-adv-x="0" 
d="M-252 -209q-39 25 -39 59q0 19 14 33.5t33 14.5q13 0 21 -5.5t13 -19.5q7 -17 22 -26t35 -9t33 9.5t13 25.5q0 18 -10.5 29t-34.5 15q-25 4 -37.5 14t-12.5 28q0 13 5 26l10 28q14 41 57 41q19 0 31.5 -10t12.5 -26q0 -7 -5 -19l-15 -34q52 -11 76 -34t24 -61
q0 -26 -18.5 -50t-52 -39t-77.5 -15q-59 0 -98 25z" />
    <glyph glyph-name="uni0328" unicode="&#x328;" horiz-adv-x="0" 
d="M-215 -217q-29 17 -46 45.5t-17 62.5q0 59 52 102q19 13 28 32q14 27 45 27q21 0 35 -14t16 -36q0 -45 -64 -91q-10 -9 -10 -20q0 -10 6.5 -16.5t16.5 -6.5q8 0 12 4l31 23q15 10 31 10q22 0 36.5 -14.5t14.5 -36.5q0 -25 -18 -41l-38 -25q-31 -22 -69 -22q-33 0 -62 17z
" />
    <glyph glyph-name="uni032E" unicode="&#x32e;" horiz-adv-x="0" 
d="M-274.5 -248.5q-37.5 16.5 -59.5 45t-22 63.5q0 22 13.5 36.5t34.5 14.5q19 0 33.5 -11.5t14.5 -29.5q0 -22 21 -37.5t46 -15.5q30 0 48 14.5t18 38.5q0 18 14.5 29.5t34.5 11.5q21 0 34 -14.5t13 -36.5q0 -35 -22 -63.5t-59 -45t-81 -16.5t-81.5 16.5z" />
    <glyph glyph-name="uni0331" unicode="&#x331;" horiz-adv-x="0" 
d="M-389 -161q-14 12 -14 34q0 21 14 32.5t37 11.5h250q23 0 37.5 -11.5t14.5 -32.5q0 -22 -14.5 -34t-37.5 -12h-250q-23 0 -37 12z" />
    <glyph glyph-name="uni0335" unicode="&#x335;" horiz-adv-x="0" 
d="M-491 289q-14 12 -14 33t14 33t37 12h322q23 0 37.5 -12t14.5 -33t-14.5 -33t-37.5 -12h-322q-23 0 -37 12z" />
    <glyph glyph-name="uni0336" unicode="&#x336;" horiz-adv-x="0" 
d="M-862 294.5q-13 7.5 -13 27.5t13 27.5t38 7.5h722q25 0 38.5 -7.5t13.5 -27.5t-13.5 -27.5t-38.5 -7.5h-722q-25 0 -38 7.5z" />
    <glyph glyph-name="tonos" unicode="&#x384;" horiz-adv-x="273" 
d="M65.5 657.5q-14.5 14.5 -14.5 36.5q0 21 12 34l98 98q15 15 36 15q22 0 36.5 -15t14.5 -37t-14 -35l-97 -97q-14 -14 -35 -14q-22 0 -36.5 14.5z" />
    <glyph glyph-name="dieresistonos" unicode="&#x385;" horiz-adv-x="527" 
d="M304 831q21 0 36 -15t15 -36q0 -14 -8 -27l-71 -110q-16 -22 -42 -22q-21 0 -36 15t-15 36q0 16 7 26l71 109q17 24 43 24zM152.5 761q17.5 -18 17.5 -43t-17.5 -42.5t-42.5 -17.5t-42.5 17.5t-17.5 42.5t17.5 43t42.5 18t42.5 -18zM459 761q18 -18 18 -43t-18 -42.5
t-42 -17.5q-25 0 -43 17.5t-18 42.5q0 26 18 43.5t43 17.5q24 0 42 -18z" />
    <glyph glyph-name="Alphatonos" unicode="&#x386;" horiz-adv-x="713" 
d="M699 51q0 -21 -15 -36t-37 -15q-15 0 -28.5 8.5t-19.5 23.5l-56 140h-359l-57 -140q-7 -15 -20 -23.5t-28 -8.5q-22 0 -36.5 15.5t-14.5 36.5q0 10 5 23l281 671q15 35 49 35q36 0 49 -35l282 -673q5 -13 5 -22zM219 258h289l-143 356zM29.5 597.5q-14.5 14.5 -14.5 36.5
q0 21 12 34l98 98q15 15 36 15q22 0 36.5 -15t14.5 -37t-14 -35l-97 -97q-14 -14 -35 -14q-22 0 -36.5 14.5z" />
    <glyph glyph-name="anoteleia" unicode="&#x387;" horiz-adv-x="195" 
d="M54.5 434.5q-20.5 20.5 -20.5 48.5q0 29 20.5 49.5t48.5 20.5t48.5 -20.5t20.5 -49.5q0 -28 -20 -48.5t-49 -20.5q-28 0 -48.5 20.5z" />
    <glyph glyph-name="Epsilontonos" unicode="&#x388;" horiz-adv-x="845" 
d="M260 15q-15 15 -15 37v677q0 23 15 37.5t37 14.5h452q23 0 37 -13.5t14 -35.5q0 -21 -14 -34t-37 -13h-400v-243h287q22 0 36.5 -13.5t14.5 -34.5t-14.5 -34.5t-36.5 -13.5h-287v-250h400q23 0 37 -13t14 -34q0 -22 -14 -35.5t-37 -13.5h-452q-22 0 -37 15zM14.5 597.5
q-14.5 14.5 -14.5 36.5q0 21 12 34l98 98q15 15 36 15q22 0 36.5 -15t14.5 -37t-14 -35l-97 -97q-14 -14 -35 -14q-22 0 -36.5 14.5z" />
    <glyph glyph-name="Etatonos" unicode="&#x389;" horiz-adv-x="1006" 
d="M250 15q-15 15 -15 37v677q0 23 15 37.5t37 14.5q23 0 37.5 -14.5t14.5 -37.5v-287h464v287q0 23 15 37.5t37 14.5t36.5 -14.5t14.5 -37.5v-677q0 -23 -14.5 -37.5t-36.5 -14.5t-37 15t-15 37v298h-464v-298q0 -22 -14.5 -37t-37.5 -15q-22 0 -37 15zM14.5 597.5
q-14.5 14.5 -14.5 36.5q0 21 12 34l98 98q15 15 36 15q22 0 36.5 -15t14.5 -37t-14 -35l-97 -97q-14 -14 -35 -14q-22 0 -36.5 14.5z" />
    <glyph glyph-name="Iotatonos" unicode="&#x38a;" horiz-adv-x="429" 
d="M240 15q-15 15 -15 37v677q0 23 15 37.5t37 14.5q23 0 37.5 -14.5t14.5 -37.5v-677q0 -22 -14.5 -37t-37.5 -15q-22 0 -37 15zM14.5 597.5q-14.5 14.5 -14.5 36.5q0 21 12 34l98 98q15 15 36 15q22 0 36.5 -15t14.5 -37t-14 -35l-97 -97q-14 -14 -35 -14
q-22 0 -36.5 14.5z" />
    <glyph glyph-name="Omicrontonos" unicode="&#x38c;" horiz-adv-x="986" 
d="M319.5 41q-90.5 51 -140.5 142.5t-50 207.5t50 207t140.5 142t206.5 51q115 0 205.5 -51t141 -142t50.5 -207t-50.5 -207.5t-140.5 -142.5t-206 -51t-206.5 51zM679 124.5q68 40.5 106 110.5t38 156t-38 156t-105.5 110t-153.5 40t-153.5 -40t-105.5 -110t-38 -156
t38 -156t106 -110.5t153 -40.5t153 40.5zM14.5 597.5q-14.5 14.5 -14.5 36.5q0 21 12 34l98 98q15 15 36 15q22 0 36.5 -15t14.5 -37t-14 -35l-97 -97q-14 -14 -35 -14q-22 0 -36.5 14.5z" />
    <glyph glyph-name="Upsilontonos" unicode="&#x38e;" horiz-adv-x="885" 
d="M867.5 767q12.5 -14 12.5 -34q0 -17 -10 -33l-269 -415v-233q0 -22 -15 -37t-37 -15q-21 0 -36 15t-15 37v233l-267 415q-11 17 -11 32q0 21 15.5 35t36.5 14q16 0 26 -7t20 -22l234 -371l238 375q16 25 46 25q19 0 31.5 -14zM14.5 597.5q-14.5 14.5 -14.5 36.5
q0 21 12 34l98 98q15 15 36 15q22 0 36.5 -15t14.5 -37t-14 -35l-97 -97q-14 -14 -35 -14q-22 0 -36.5 14.5z" />
    <glyph glyph-name="Omegatonos" unicode="&#x38f;" horiz-adv-x="978" 
d="M149 15q-15 15 -15 37t15 37t37 15h77q-71 56 -100 125.5t-29 161.5q0 107 52 196.5t142 141.5t197 52q106 0 195.5 -52t142 -141t52.5 -197q0 -89 -25 -156t-94 -131h68q22 0 36.5 -15t14.5 -37t-14.5 -37t-36.5 -15h-227q-21 0 -36 15t-15 37t15 37t36 15q48 0 88 39
t63.5 105t23.5 143t-39 143t-105 105t-143 39q-78 0 -144 -39t-104.5 -105t-38.5 -143t23.5 -143t63 -105t87.5 -39q22 0 37 -15t15 -37t-15 -37t-37 -15h-226q-22 0 -37 15zM24.5 597.5q-14.5 14.5 -14.5 36.5q0 21 12 34l98 98q15 15 36 15q22 0 36.5 -15t14.5 -37
t-14 -35l-97 -97q-14 -14 -35 -14q-22 0 -36.5 14.5z" />
    <glyph glyph-name="iotadieresistonos" unicode="&#x390;" horiz-adv-x="302" 
d="M114.5 14.5q-14.5 14.5 -14.5 36.5v445q0 23 14.5 37t36.5 14q23 0 37 -14t14 -37v-445q0 -22 -14 -36.5t-37 -14.5q-22 0 -36.5 14.5zM191 831q21 0 36 -15t15 -36q0 -14 -8 -27l-71 -110q-16 -22 -42 -22q-21 0 -36 15t-15 36q0 16 7 26l71 109q17 24 43 24zM39.5 761
q17.5 -18 17.5 -43t-17.5 -42.5t-42.5 -17.5t-42.5 17.5t-17.5 42.5t17.5 43t42.5 18t42.5 -18zM346 761q18 -18 18 -43t-18 -42.5t-42 -17.5q-25 0 -43 17.5t-18 42.5q0 26 18 43.5t43 17.5q24 0 42 -18z" />
    <glyph glyph-name="Alpha" unicode="&#x391;" horiz-adv-x="703" 
d="M689 51q0 -21 -15 -36t-37 -15q-15 0 -28.5 8.5t-19.5 23.5l-56 140h-359l-57 -140q-7 -15 -20 -23.5t-28 -8.5q-22 0 -36.5 15.5t-14.5 36.5q0 10 5 23l281 671q15 35 49 35q36 0 49 -35l282 -673q5 -13 5 -22zM209 258h289l-143 356z" />
    <glyph glyph-name="Beta" unicode="&#x392;" horiz-adv-x="723" 
d="M115 15q-15 15 -15 37v677q0 23 15 37.5t37 14.5h239q67 0 119 -26.5t81.5 -74t29.5 -107.5q0 -49 -26.5 -88t-72.5 -63q68 -16 107 -64t39 -122q0 -68 -32.5 -122t-91 -84t-132.5 -30h-260q-22 0 -37 15zM391 460q59 0 94.5 29t35.5 84t-35.5 83.5t-94.5 28.5h-187v-225
h187zM412 96q70 0 113 36.5t43 103.5q0 62 -42.5 95t-113.5 33h-208v-268h208z" />
    <glyph glyph-name="Gamma" unicode="&#x393;" horiz-adv-x="625" 
d="M126 15q-15 -15 -37 -15t-37 15t-15 37v677q0 22 15.5 37t36.5 15h452q22 0 37 -15t15 -37t-15 -36.5t-37 -14.5h-400v-626q0 -22 -15 -37z" />
    <glyph glyph-name="uni0394" unicode="&#x394;" horiz-adv-x="703" 
d="M35 15q-15 15 -15 37q0 11 5 26l283 671q6 14 19 23t28 9t28.5 -8.5t19.5 -23.5l282 -671q5 -17 5 -26q0 -22 -15 -37t-37 -15h-566q-22 0 -37 15zM147 104h415l-207 482z" />
    <glyph glyph-name="Epsilon" unicode="&#x395;" horiz-adv-x="700" 
d="M115 15q-15 15 -15 37v677q0 23 15 37.5t37 14.5h452q23 0 37 -13.5t14 -35.5q0 -21 -14 -34t-37 -13h-400v-243h287q22 0 36.5 -13.5t14.5 -34.5t-14.5 -34.5t-36.5 -13.5h-287v-250h400q23 0 37 -13t14 -34q0 -22 -14 -35.5t-37 -13.5h-452q-22 0 -37 15z" />
    <glyph glyph-name="Zeta" unicode="&#x396;" horiz-adv-x="742" 
d="M69 16q-14 16 -14 37q0 18 10 31l489 605h-438q-24 0 -37 12t-12 32q-1 21 13.5 34.5t37.5 13.5h516q24 0 38.5 -15.5t14.5 -36.5q0 -16 -11 -30l-491 -607h449q22 0 36.5 -13.5t14.5 -31.5q0 -22 -14 -34.5t-37 -12.5h-528q-23 0 -37 16z" />
    <glyph glyph-name="Eta" unicode="&#x397;" horiz-adv-x="871" 
d="M115 15q-15 15 -15 37v677q0 23 15 37.5t37 14.5q23 0 37.5 -14.5t14.5 -37.5v-287h464v287q0 23 15 37.5t37 14.5t36.5 -14.5t14.5 -37.5v-677q0 -23 -14.5 -37.5t-36.5 -14.5t-37 15t-15 37v298h-464v-298q0 -22 -14.5 -37t-37.5 -15q-22 0 -37 15z" />
    <glyph glyph-name="Theta" unicode="&#x398;" horiz-adv-x="921" 
d="M254.5 41q-90.5 51 -140.5 142.5t-50 207.5t50 207t140.5 142t206.5 51q115 0 205.5 -51t141 -142t50.5 -207t-50.5 -207.5t-140.5 -142.5t-206 -51t-206.5 51zM614 124.5q68 40.5 106 110.5t38 156t-38 156t-105.5 110t-153.5 40t-153.5 -40t-105.5 -110t-38 -156
t38 -156t106 -110.5t153 -40.5t153 40.5zM278 357q-14 12 -14 34q0 21 14 32.5t37 11.5h290q23 0 37.5 -11.5t14.5 -32.5q0 -22 -14.5 -34t-37.5 -12h-290q-23 0 -37 12z" />
    <glyph glyph-name="Iota" unicode="&#x399;" horiz-adv-x="304" 
d="M115 15q-15 15 -15 37v677q0 23 15 37.5t37 14.5q23 0 37.5 -14.5t14.5 -37.5v-677q0 -22 -14.5 -37t-37.5 -15q-22 0 -37 15z" />
    <glyph glyph-name="Kappa" unicode="&#x39a;" horiz-adv-x="667" 
d="M115.5 15q-15.5 15 -15.5 37v677q0 22 15.5 37t36.5 15q22 0 37 -15t15 -37v-300l331 331q12 12 21.5 16.5t21.5 4.5q21 0 32.5 -12.5t11.5 -30.5q0 -26 -19 -45l-255 -256l260 -354q10 -14 10 -32q0 -20 -13 -35.5t-33 -15.5q-28 0 -43 22l-253 343l-72 -72v-241
q0 -22 -15 -37t-37 -15q-21 0 -36.5 15z" />
    <glyph glyph-name="Lambda" unicode="&#x39b;" horiz-adv-x="711" 
d="M691 50q0 -21 -14 -35.5t-36 -14.5q-15 0 -28.5 8.5t-19.5 23.5l-234 577l-240 -577q-7 -15 -20 -23.5t-28 -8.5q-22 0 -36.5 15.5t-14.5 36.5q0 10 5 23l281 671q15 35 49 35q36 0 49 -35l282 -673q5 -13 5 -23z" />
    <glyph glyph-name="Mu" unicode="&#x39c;" horiz-adv-x="982" 
d="M867 766q15 -15 15 -37v-677q0 -22 -15.5 -37t-36.5 -15q-22 0 -37 15t-15 37v497l-242 -493q-17 -26 -45 -26q-33 0 -48 31l-239 479v-488q0 -22 -15 -37t-37 -15t-37 15t-15 37v677q0 22 15 37t37 15q30 0 46 -28l297 -595l289 595q16 28 46 28q22 0 37 -15z" />
    <glyph glyph-name="Nu" unicode="&#x39d;" horiz-adv-x="830" 
d="M114.5 14.5q-14.5 14.5 -14.5 37.5v677q0 23 14.5 37.5t36.5 14.5q11 0 22 -5.5t18 -13.5l436 -580v547q0 23 15 37.5t37 14.5t36.5 -14.5t14.5 -37.5v-677q0 -23 -14.5 -37.5t-36.5 -14.5q-11 0 -22.5 4.5t-17.5 13.5l-436 580v-546q0 -22 -14.5 -37t-37.5 -15
q-22 0 -36.5 14.5z" />
    </font>
</defs>
</svg>
