<?xml version="1.0" encoding="utf-8"?>
<!-- Generator: Adobe Illustrator 22.1.0, SVG Export Plug-In . SVG Version: 6.00 Build 0)  -->
<svg version="1.1" id="Layer_1" xmlns="http://www.w3.org/2000/svg" xmlns:xlink="http://www.w3.org/1999/xlink" x="0px" y="0px"
	 viewBox="0 0 308 73" style="enable-background:new 0 0 308 73;" xml:space="preserve">
<style type="text/css">
	.st0{enable-background:new    ;}
	.st1{fill:#4A4A4A;}
	.st2{fill:#231F20;}
	.st3{fill:#2859BE;}
	.st4{filter:url(#Adobe_OpacityMaskFilter);}
	.st5{fill:#FFFFFF;}
	.st6{mask:url(#mask-2_2_);}
	.st7{filter:url(#Adobe_OpacityMaskFilter_1_);}
	.st8{mask:url(#mask-4_2_);}
	.st9{filter:url(#Adobe_OpacityMaskFilter_2_);}
	.st10{mask:url(#mask-6_2_);}
</style>
<title>Group</title>
<desc>Created with Sketch.</desc>
<g id="Page-1">
	<g id="Marconi-Explorer-Homepage" transform="translate(-205.000000, -100.000000)">
		<g id="Group" transform="translate(205.000000, 99.000000)">
			<g class="st0">
				<g>
					<path class="st1" d="M96.7,58.7v-4c0-0.2,0.1-0.4,0.2-0.5c0.1-0.1,0.3-0.2,0.5-0.2s0.4,0.1,0.5,0.2c0.1,0.1,0.2,0.3,0.2,0.5
						v5.3c0.4-0.6,1-1,1.6-1.4c0.6-0.3,1.4-0.5,2.1-0.5c0.9,0,1.7,0.2,2.5,0.7c0.7,0.4,1.3,1,1.7,1.8c0.4,0.8,0.6,1.6,0.6,2.5
						c0,0.9-0.2,1.8-0.7,2.6c-0.4,0.8-1,1.4-1.8,1.8c-0.8,0.4-1.6,0.7-2.5,0.7s-1.8-0.2-2.5-0.7c-0.8-0.4-1.4-1-1.8-1.8
						c-0.4-0.8-0.7-1.6-0.7-2.6v-4.2C96.7,58.8,96.7,58.7,96.7,58.7z M101.7,66.8c0.7,0,1.3-0.2,1.9-0.5c0.6-0.3,1-0.8,1.3-1.3
						c0.3-0.6,0.5-1.2,0.5-1.9s-0.2-1.3-0.5-1.9c-0.3-0.6-0.8-1-1.3-1.3c-0.6-0.3-1.2-0.5-1.9-0.5c-0.9,0-1.8,0.3-2.4,0.9
						c-0.7,0.6-1.1,1.4-1.2,2.3c0,0,0,0.1,0,0.1c0,0.1,0,0.2,0,0.5c0,0.7,0.2,1.3,0.5,1.9c0.3,0.6,0.8,1,1.3,1.3
						C100.4,66.7,101,66.8,101.7,66.8z"/>
				</g>
				<g>
					<path class="st1" d="M115.3,54.1c0.1-0.1,0.3-0.2,0.5-0.2c0.2,0,0.4,0.1,0.5,0.2s0.2,0.3,0.2,0.5v10.3c0,0.5,0.1,0.9,0.3,1.3
						c0.2,0.3,0.5,0.5,0.8,0.5h0.4c0.2,0,0.3,0.1,0.4,0.2s0.2,0.3,0.2,0.5s-0.1,0.4-0.2,0.5c-0.2,0.1-0.3,0.2-0.6,0.2h-0.2
						c-0.7,0-1.3-0.3-1.8-0.9c-0.5-0.6-0.7-1.3-0.7-2.2V54.6C115.1,54.4,115.1,54.3,115.3,54.1z"/>
				</g>
				<g>
					<path class="st1" d="M133,58.7c0.8,0.4,1.4,1,1.8,1.8c0.4,0.8,0.7,1.6,0.7,2.6c0,0.9-0.2,1.8-0.6,2.6c-0.4,0.8-1,1.4-1.8,1.8
						c-0.8,0.4-1.6,0.6-2.6,0.6c-0.9,0-1.8-0.2-2.6-0.6c-0.8-0.4-1.4-1-1.8-1.8c-0.4-0.8-0.6-1.6-0.6-2.6c0-0.9,0.2-1.8,0.6-2.6
						c0.4-0.8,1-1.4,1.8-1.8c0.8-0.4,1.6-0.6,2.6-0.6C131.4,58.1,132.2,58.3,133,58.7z M128.6,59.8c-0.6,0.3-1,0.8-1.3,1.3
						c-0.3,0.6-0.5,1.2-0.5,1.9c0,0.7,0.2,1.3,0.5,1.9c0.3,0.6,0.8,1,1.3,1.3c0.6,0.3,1.2,0.5,1.9,0.5c0.7,0,1.3-0.2,1.9-0.5
						c0.6-0.3,1-0.8,1.3-1.3c0.3-0.6,0.5-1.2,0.5-1.9c0-0.7-0.2-1.4-0.5-1.9c-0.3-0.6-0.7-1-1.3-1.3c-0.6-0.3-1.2-0.5-1.9-0.5
						C129.8,59.3,129.1,59.5,128.6,59.8z"/>
				</g>
				<g>
					<path class="st1" d="M152,59.8c0.1,0.1,0.1,0.2,0.1,0.4c0,0.2-0.1,0.4-0.3,0.5c-0.1,0.1-0.2,0.1-0.3,0.1
						c-0.2,0-0.4-0.1-0.5-0.3c-0.4-0.4-0.8-0.7-1.2-0.9s-0.9-0.3-1.4-0.3c-0.7,0-1.2,0.2-1.8,0.5c-0.5,0.3-0.9,0.8-1.2,1.3
						c-0.3,0.6-0.4,1.2-0.4,1.9c0,0.7,0.1,1.3,0.4,1.9c0.3,0.6,0.7,1,1.3,1.3s1.2,0.5,1.9,0.5c1,0,1.7-0.3,2.3-0.8
						c0.2-0.1,0.3-0.2,0.5-0.2c0.1,0,0.3,0,0.4,0.1c0.2,0.1,0.3,0.3,0.3,0.5c0,0.2-0.1,0.3-0.2,0.4c-0.9,0.8-2,1.2-3.3,1.2
						c-0.9,0-1.8-0.2-2.5-0.7c-0.7-0.4-1.3-1-1.8-1.8c-0.4-0.8-0.6-1.6-0.6-2.5c0-1,0.2-1.8,0.6-2.6c0.4-0.8,1-1.4,1.7-1.8
						c0.7-0.4,1.5-0.6,2.4-0.6C149.9,58.1,151.1,58.6,152,59.8z"/>
				</g>
				<g>
					<path class="st1" d="M168.5,67.4c0,0.2-0.1,0.3-0.3,0.5c-0.1,0.1-0.3,0.2-0.4,0.2c-0.2,0-0.4-0.1-0.5-0.3l-3.7-4.6l-1.3,1.2
						v2.8c0,0.2-0.1,0.4-0.2,0.5s-0.3,0.2-0.5,0.2c-0.2,0-0.4-0.1-0.5-0.2s-0.2-0.3-0.2-0.5V54.6c0-0.2,0.1-0.4,0.2-0.5
						s0.3-0.2,0.5-0.2c0.2,0,0.4,0.1,0.5,0.2s0.2,0.3,0.2,0.5v8.2l5.1-4.6c0.1-0.1,0.3-0.2,0.4-0.2c0.2,0,0.3,0.1,0.5,0.2
						c0.1,0.2,0.2,0.3,0.2,0.4c0,0.2-0.1,0.3-0.2,0.4l-3.6,3.3l3.7,4.6C168.4,67.1,168.5,67.3,168.5,67.4z"/>
				</g>
				<g>
					<path class="st1" d="M195,58.7c0.7,0.4,1.2,1,1.6,1.7c0.4,0.7,0.6,1.6,0.6,2.5c0,0.2-0.1,0.3-0.2,0.5s-0.3,0.2-0.5,0.2h-7.3
						c0.1,1,0.5,1.8,1.2,2.4c0.7,0.6,1.5,0.9,2.5,0.9c0.4,0,0.9-0.1,1.3-0.2c0.4-0.2,0.8-0.3,1.1-0.6c0.2-0.1,0.3-0.2,0.5-0.2
						c0.1,0,0.3,0,0.4,0.1c0.2,0.1,0.2,0.3,0.2,0.5c0,0.2-0.1,0.3-0.2,0.4c-0.4,0.3-0.9,0.6-1.5,0.8c-0.6,0.2-1.2,0.3-1.8,0.3
						c-1,0-1.8-0.2-2.6-0.6c-0.8-0.4-1.3-1-1.8-1.8c-0.4-0.8-0.6-1.6-0.6-2.6c0-1,0.2-1.8,0.6-2.6c0.4-0.8,1-1.4,1.7-1.8
						s1.5-0.6,2.4-0.6C193.5,58.1,194.3,58.3,195,58.7z M190.3,60.2c-0.6,0.6-1,1.3-1.1,2.2h6.6c-0.1-0.9-0.4-1.7-1-2.2
						c-0.6-0.6-1.3-0.8-2.2-0.8C191.7,59.3,190.9,59.6,190.3,60.2z"/>
				</g>
				<g>
					<path class="st1" d="M212.4,67.4c0,0.2-0.1,0.3-0.2,0.4S212,68,211.8,68c-0.1,0-0.3,0-0.4-0.1c-0.1,0-0.2-0.1-0.3-0.3l-3-3.8
						l-3.1,3.9c-0.1,0.1-0.3,0.2-0.5,0.2c-0.2,0-0.3-0.1-0.5-0.2c-0.1-0.1-0.2-0.3-0.2-0.4c0-0.2,0.1-0.4,0.2-0.5l3.1-3.9l-3-3.7
						c-0.1-0.1-0.2-0.3-0.2-0.5c0-0.2,0.1-0.3,0.2-0.5c0.1-0.1,0.3-0.2,0.5-0.2s0.4,0.1,0.5,0.2l2.9,3.7l2.9-3.6
						c0.2-0.2,0.4-0.3,0.6-0.3c0.2,0,0.3,0.1,0.5,0.2c0.1,0.1,0.2,0.3,0.2,0.4c0,0.2-0.1,0.4-0.2,0.5l-3,3.7l3.1,3.9
						C212.3,67.1,212.4,67.3,212.4,67.4z"/>
				</g>
				<g>
					<path class="st1" d="M228.3,58.7c0.8,0.4,1.4,1,1.8,1.8c0.4,0.8,0.7,1.6,0.7,2.6c0,0.9-0.2,1.8-0.6,2.5c-0.4,0.8-1,1.4-1.7,1.8
						c-0.7,0.4-1.6,0.7-2.5,0.7c-0.8,0-1.5-0.2-2.1-0.5c-0.6-0.3-1.2-0.8-1.6-1.4v5.3c0,0.2-0.1,0.4-0.2,0.5
						c-0.1,0.1-0.3,0.2-0.5,0.2s-0.4-0.1-0.5-0.2s-0.2-0.3-0.2-0.5v-4c0,0,0-0.1,0-0.2v-4.2c0-0.9,0.2-1.8,0.7-2.6
						c0.4-0.8,1-1.4,1.8-1.8c0.8-0.4,1.6-0.7,2.5-0.7C226.7,58.1,227.6,58.3,228.3,58.7z M227.6,66.3c0.6-0.3,1-0.8,1.3-1.3
						c0.3-0.6,0.5-1.2,0.5-1.9s-0.2-1.3-0.5-1.9c-0.3-0.6-0.8-1-1.3-1.3c-0.6-0.3-1.2-0.5-1.9-0.5c-0.7,0-1.3,0.2-1.9,0.5
						s-1,0.8-1.3,1.3c-0.3,0.6-0.5,1.2-0.5,1.9c0,0.2,0,0.4,0,0.5c0,0,0,0.1,0,0.1c0.1,0.9,0.5,1.7,1.2,2.3c0.7,0.6,1.5,0.9,2.4,0.9
						C226.5,66.8,227.1,66.7,227.6,66.3z"/>
				</g>
				<g>
					<path class="st1" d="M239.3,54.1c0.1-0.1,0.3-0.2,0.5-0.2c0.2,0,0.4,0.1,0.5,0.2s0.2,0.3,0.2,0.5v10.3c0,0.5,0.1,0.9,0.3,1.3
						c0.2,0.3,0.5,0.5,0.8,0.5h0.4c0.2,0,0.3,0.1,0.4,0.2c0.1,0.1,0.2,0.3,0.2,0.5s-0.1,0.4-0.2,0.5s-0.3,0.2-0.6,0.2h-0.2
						c-0.7,0-1.3-0.3-1.8-0.9c-0.5-0.6-0.7-1.3-0.7-2.2V54.6C239.1,54.4,239.2,54.3,239.3,54.1z"/>
				</g>
				<g>
					<path class="st1" d="M257.1,58.7c0.8,0.4,1.4,1,1.8,1.8c0.4,0.8,0.7,1.6,0.7,2.6c0,0.9-0.2,1.8-0.6,2.6c-0.4,0.8-1,1.4-1.8,1.8
						c-0.8,0.4-1.6,0.6-2.6,0.6s-1.8-0.2-2.6-0.6c-0.8-0.4-1.4-1-1.8-1.8c-0.4-0.8-0.6-1.6-0.6-2.6c0-0.9,0.2-1.8,0.6-2.6
						c0.4-0.8,1-1.4,1.8-1.8c0.8-0.4,1.6-0.6,2.6-0.6S256.3,58.3,257.1,58.7z M252.7,59.8c-0.6,0.3-1,0.8-1.3,1.3
						c-0.3,0.6-0.5,1.2-0.5,1.9c0,0.7,0.2,1.3,0.5,1.9c0.3,0.6,0.8,1,1.3,1.3c0.6,0.3,1.2,0.5,1.9,0.5c0.7,0,1.3-0.2,1.9-0.5
						s1-0.8,1.3-1.3c0.3-0.6,0.5-1.2,0.5-1.9c0-0.7-0.2-1.4-0.5-1.9c-0.3-0.6-0.7-1-1.3-1.3c-0.6-0.3-1.2-0.5-1.9-0.5
						C253.8,59.3,253.2,59.5,252.7,59.8z"/>
				</g>
				<g>
					<path class="st1" d="M273.9,58.2c0.3,0.1,0.4,0.3,0.4,0.6c0,0.1,0,0.1,0,0.2c0,0.2-0.1,0.3-0.2,0.3c-0.1,0.1-0.2,0.1-0.4,0.1
						c-0.1,0-0.3,0-0.6,0c-0.1,0-0.2,0-0.4,0c-0.9,0-1.6,0.2-2.2,0.7c-0.6,0.5-0.9,1.1-0.9,1.9v5.4c0,0.2-0.1,0.4-0.2,0.5
						s-0.3,0.2-0.5,0.2s-0.4-0.1-0.5-0.2s-0.2-0.3-0.2-0.5v-8.5c0-0.2,0.1-0.4,0.2-0.5s0.3-0.2,0.5-0.2s0.4,0.1,0.5,0.2
						s0.2,0.3,0.2,0.5v0.8c0.3-0.5,0.8-0.9,1.3-1.2c0.5-0.3,1.1-0.4,1.7-0.4C273.2,58,273.6,58.1,273.9,58.2z"/>
				</g>
				<g>
					<path class="st1" d="M288.3,58.7c0.7,0.4,1.2,1,1.6,1.7c0.4,0.7,0.6,1.6,0.6,2.5c0,0.2-0.1,0.3-0.2,0.5s-0.3,0.2-0.5,0.2h-7.3
						c0.1,1,0.5,1.8,1.2,2.4c0.7,0.6,1.5,0.9,2.5,0.9c0.4,0,0.9-0.1,1.3-0.2c0.4-0.2,0.8-0.3,1.1-0.6c0.2-0.1,0.3-0.2,0.5-0.2
						c0.1,0,0.3,0,0.4,0.1c0.2,0.1,0.2,0.3,0.2,0.5c0,0.2-0.1,0.3-0.2,0.4c-0.4,0.3-0.9,0.6-1.5,0.8c-0.6,0.2-1.2,0.3-1.8,0.3
						c-1,0-1.8-0.2-2.6-0.6c-0.8-0.4-1.3-1-1.8-1.8c-0.4-0.8-0.6-1.6-0.6-2.6c0-1,0.2-1.8,0.6-2.6c0.4-0.8,1-1.4,1.7-1.8
						s1.5-0.6,2.4-0.6C286.8,58.1,287.6,58.3,288.3,58.7z M283.7,60.2c-0.6,0.6-1,1.3-1.1,2.2h6.6c-0.1-0.9-0.4-1.7-1-2.2
						c-0.6-0.6-1.3-0.8-2.2-0.8C285,59.3,284.3,59.6,283.7,60.2z"/>
				</g>
			</g>
			<g>
			</g>
			<g class="st0">
				<path class="st1" d="M304.9,58.2c0.3,0.1,0.4,0.3,0.4,0.6c0,0.1,0,0.1,0,0.2c0,0.2-0.1,0.3-0.2,0.3c-0.1,0.1-0.2,0.1-0.4,0.1
					c-0.1,0-0.3,0-0.6,0c-0.1,0-0.2,0-0.4,0c-0.9,0-1.6,0.2-2.2,0.7c-0.6,0.5-0.9,1.1-0.9,1.9v5.4c0,0.2-0.1,0.4-0.2,0.5
					c-0.1,0.1-0.3,0.2-0.5,0.2c-0.2,0-0.4-0.1-0.5-0.2s-0.2-0.3-0.2-0.5v-8.5c0-0.2,0.1-0.4,0.2-0.5s0.3-0.2,0.5-0.2
					c0.2,0,0.4,0.1,0.5,0.2c0.1,0.1,0.2,0.3,0.2,0.5v0.8c0.3-0.5,0.8-0.9,1.3-1.2c0.5-0.3,1.1-0.4,1.7-0.4
					C304.2,58,304.6,58.1,304.9,58.2z"/>
			</g>
			<g id="Group-32">
				<g id="Fill-1">
					<path class="st2" d="M246.9,43.1c-6.1,0-11-4.9-11-11c0-6.1,5-11,11-11c6.1,0,11,5,11,11C258,38.1,253,43.1,246.9,43.1
						 M246.9,16.3c-8.7,0-15.8,7.1-15.8,15.8c0,8.7,7.1,15.8,15.8,15.8c8.7,0,15.8-7.1,15.8-15.8C262.7,23.3,255.6,16.3,246.9,16.3"
						/>
				</g>
				<g id="Fill-3">
					<path class="st2" d="M161.8,16.3c-8.7,0-15.8,7.1-15.8,15.8c0,8.7,7.1,15.8,15.8,15.8c1.8,0,3.5-0.3,5.2-0.9
						c0.1,0,0.4-0.2,0.4-0.6V42c0-0.4-0.3-0.2-0.4-0.2c-1.5,0.8-3.3,1.3-5.1,1.3c-6.1,0-11-4.9-11-11c0-6.1,5-11,11-11
						c6.1,0,11,5,11,11v0v11.2v0v3.6c0,0.2,0.2,0.4,0.4,0.4h3.9c0.2,0,0.4-0.2,0.4-0.4V32C177.6,23.3,170.5,16.3,161.8,16.3"/>
				</g>
				<g id="Fill-5">
					<path class="st2" d="M281.9,16.3c-7.4,0-13.4,6-13.4,13.4v11.1v6.1c0,0.2,0.2,0.4,0.4,0.4h3.9c0.2,0,0.4-0.2,0.4-0.4v-6.6V29.7
						c0-4.8,3.9-8.7,8.7-8.7c4.8,0,8.7,3.9,8.7,8.7v11.7v5.5c0,0.2,0.2,0.4,0.4,0.4h3.9c0.2,0,0.4-0.2,0.4-0.4v-1V29.7h0
						C295.3,22.3,289.3,16.3,281.9,16.3"/>
				</g>
				<g id="Fill-7">
					<path class="st2" d="M198.3,16.3c-7.4,0-13.4,6-13.4,13.4v16.3v1c0,0.2,0.2,0.4,0.4,0.4h3.9c0.2,0,0.4-0.2,0.4-0.4v-5.5V29.7
						c0-4.8,3.9-8.7,8.7-8.7c0.2,0,0.4-0.2,0.4-0.4v-3.9C198.7,16.4,198.5,16.3,198.3,16.3"/>
				</g>
				<g id="Fill-9">
					<path class="st2" d="M127.7,16.3c-4.1,0-7.9,2-10.3,5.3c-2.4-3.3-6.2-5.3-10.3-5.3c-7,0-12.6,5.7-12.6,12.6v18
						c0,0.2,0.2,0.4,0.4,0.4h3.9c0.2,0,0.4-0.2,0.4-0.4v-18c0-4.3,3.5-7.9,7.9-7.9c4.3,0,7.9,3.5,7.9,7.9v18c0,0.2,0.2,0.4,0.4,0.4
						h3.9c0.2,0,0.4-0.2,0.4-0.4v-18c0-4.3,3.5-7.9,7.9-7.9c4.3,0,7.9,3.5,7.9,7.9v18c0,0.2,0.2,0.4,0.4,0.4h3.9
						c0.2,0,0.4-0.2,0.4-0.4v-18C140.3,21.9,134.6,16.3,127.7,16.3"/>
				</g>
				<g id="Fill-11">
					<path class="st2" d="M306.9,16.8H303c-0.2,0-0.4,0.2-0.4,0.4v29.8c0,0.2,0.2,0.4,0.4,0.4h3.9c0.2,0,0.4-0.2,0.4-0.4V17.2
						C307.3,16.9,307.1,16.8,306.9,16.8"/>
				</g>
				<g id="Fill-13">
					<path class="st2" d="M225.4,40.1c-0.2-0.2-0.5-0.1-0.6,0c-2,1.8-4.6,3-7.5,3c-6.1,0-11-5-11-11c0-6.1,5-11,11-11
						c2.9,0,5.5,1.1,7.5,3c0.1,0.1,0.3,0.2,0.6,0c0,0,2.5-2.5,2.8-2.8c0.2-0.2,0.1-0.5,0-0.6c-2.8-2.7-6.6-4.3-10.8-4.3
						c-8.7,0-15.8,7.1-15.8,15.8c0,8.7,7.1,15.8,15.8,15.8c4.2,0,8-1.6,10.8-4.3c0.1-0.1,0.3-0.4,0-0.6
						C227.9,42.6,225.4,40.1,225.4,40.1"/>
				</g>
				<g id="Fill-15">
					<path class="st3" d="M31,28.9c3.5,0,6.3-2.8,6.3-6.3s-2.8-6.3-6.3-6.3s-6.3,2.8-6.3,6.3S27.5,28.9,31,28.9"/>
				</g>
				<g id="Group-19" transform="translate(49.000000, 0.083500)">
					<g id="Clip-18">
					</g>
					<defs>
						<filter id="Adobe_OpacityMaskFilter" filterUnits="userSpaceOnUse" x="0.4" y="0.9" width="12.7" height="12.7">
							<feColorMatrix  type="matrix" values="1 0 0 0 0  0 1 0 0 0  0 0 1 0 0  0 0 0 1 0"/>
						</filter>
					</defs>
					<mask maskUnits="userSpaceOnUse" x="0.4" y="0.9" width="12.7" height="12.7" id="mask-2_2_">
						<g class="st4">
							<polygon id="path-1_2_" class="st5" points="0.4,0.9 13.1,0.9 13.1,13.6 0.4,13.6 							"/>
						</g>
					</mask>
					<g id="Fill-17" class="st6">
						<path class="st3" d="M6.7,13.6c3.5,0,6.3-2.8,6.3-6.3s-2.8-6.3-6.3-6.3S0.4,3.8,0.4,7.3C0.4,10.7,3.3,13.6,6.7,13.6"/>
					</g>
				</g>
				<g id="Fill-20">
					<path class="st3" d="M55.7,50.4c-3.5,0-6.3,2.8-6.3,6.3c0,3.5,2.8,6.3,6.3,6.3s6.3-2.8,6.3-6.3C62.1,53.3,59.2,50.4,55.7,50.4"
						/>
				</g>
				<g id="Group-24" transform="translate(0.000000, 0.083500)">
					<g id="Clip-23">
					</g>
					<defs>
						<filter id="Adobe_OpacityMaskFilter_1_" filterUnits="userSpaceOnUse" x="0" y="0.9" width="12.7" height="27.9">
							<feColorMatrix  type="matrix" values="1 0 0 0 0  0 1 0 0 0  0 0 1 0 0  0 0 0 1 0"/>
						</filter>
					</defs>
					<mask maskUnits="userSpaceOnUse" x="0" y="0.9" width="12.7" height="27.9" id="mask-4_2_">
						<g class="st7">
							<polygon id="path-3_2_" class="st5" points="0,0.9 12.7,0.9 12.7,28.9 0,28.9 							"/>
						</g>
					</mask>
					<g id="Fill-22" class="st8">
						<path class="st3" d="M6.3,0.9C2.8,0.9,0,3.8,0,7.3v15.3c0,3.5,2.8,6.3,6.3,6.3c3.5,0,6.3-2.8,6.3-6.3V7.3
							C12.7,3.8,9.8,0.9,6.3,0.9"/>
					</g>
				</g>
				<g id="Group-27" transform="translate(0.000000, 35.083500)">
					<g id="Clip-26">
					</g>
					<defs>
						<filter id="Adobe_OpacityMaskFilter_2_" filterUnits="userSpaceOnUse" x="0" y="0.1" width="12.7" height="27.9">
							<feColorMatrix  type="matrix" values="1 0 0 0 0  0 1 0 0 0  0 0 1 0 0  0 0 0 1 0"/>
						</filter>
					</defs>
					<mask maskUnits="userSpaceOnUse" x="0" y="0.1" width="12.7" height="27.9" id="mask-6_2_">
						<g class="st9">
							<polygon id="path-5_2_" class="st5" points="0,0.1 12.7,0.1 12.7,28 0,28 							"/>
						</g>
					</mask>
					<g id="Fill-25" class="st10">
						<path class="st3" d="M6.3,0.1C2.8,0.1,0,2.9,0,6.4v15.3C0,25.2,2.8,28,6.3,28c3.5,0,6.3-2.8,6.3-6.3V6.4
							C12.7,2.9,9.8,0.1,6.3,0.1"/>
					</g>
				</g>
				<g id="Fill-28">
					<path class="st3" d="M31.1,35.1c-3.5,0-6.3,2.8-6.3,6.3v15.3c0,3.5,2.8,6.3,6.3,6.3s6.3-2.8,6.3-6.3V41.5
						C37.5,38,34.6,35.1,31.1,35.1"/>
				</g>
				<g id="Fill-30">
					<path class="st3" d="M55.7,18.1c-3.5,0-6.3,2.8-6.3,6.3v15.3c0,3.5,2.8,6.3,6.3,6.3s6.3-2.8,6.3-6.3V24.4
						C62.1,20.9,59.2,18.1,55.7,18.1"/>
				</g>
			</g>
		</g>
	</g>
</g>
</svg>
