<?xml version="1.0" encoding="UTF-8"?>
<svg width="308px" height="73px" viewBox="0 0 308 73" version="1.1" xmlns="http://www.w3.org/2000/svg" xmlns:xlink="http://www.w3.org/1999/xlink">
    <!-- Generator: Sketch 52.2 (67145) - http://www.bohemiancoding.com/sketch -->
    <title>Group</title>
    <desc>Created with Sketch.</desc>
    <defs>
        <polygon id="path-1" points="0.4091 0.917 13.0841 0.917 13.0841 13.5901 0.4091 13.5901"></polygon>
        <polygon id="path-3" points="0 0.917 12.6749 0.917 12.6749 28.8563 0 28.8563"></polygon>
        <polygon id="path-5" points="0 0.0584 12.6749 0.0584 12.6749 27.9994 0 27.9994"></polygon>
    </defs>
    <g id="Page-1" stroke="none" stroke-width="1" fill="none" fill-rule="evenodd">
        <g id="Marconi-Explorer-Homepage" transform="translate(-205.000000, -100.000000)">
            <g id="Group" transform="translate(205.000000, 99.000000)">
                <text id="block-explorer" font-family="Comfortaa-Regular, Comfortaa" font-size="18" font-weight="normal" letter-spacing="6" fill="#4A4A4A">
                    <tspan x="95.089" y="68">block explore</tspan>
                    <tspan x="297.667" y="68">r</tspan>
                </text>
                <g id="Group-32">
                    <path d="M246.9473,43.0833 C240.8583,43.0833 235.9023,38.1343 235.9023,32.0443 C235.9023,25.9553 240.8583,21.0003 246.9473,21.0003 C253.0363,21.0003 257.9863,25.9553 257.9863,32.0443 C257.9863,38.1343 253.0363,43.0833 246.9473,43.0833 M246.9473,16.2693 C238.2493,16.2693 231.1753,23.3463 231.1753,32.0443 C231.1753,40.7393 238.2493,47.8133 246.9473,47.8133 C255.6433,47.8133 262.7193,40.7393 262.7193,32.0443 C262.7193,23.3463 255.6433,16.2693 246.9473,16.2693" id="Fill-1" fill="#231F20"></path>
                    <path d="M161.8057,16.2693 C153.1067,16.2693 146.0337,23.3463 146.0337,32.0443 C146.0337,40.7393 153.1067,47.8133 161.8057,47.8133 C163.6107,47.8133 165.3447,47.4953 166.9557,46.9333 C167.0837,46.8903 167.3267,46.7743 167.3267,46.3193 L167.3267,41.9913 C167.3267,41.5973 167.0497,41.7453 166.9107,41.8213 C165.3827,42.6223 163.6497,43.0833 161.8057,43.0833 C155.7177,43.0833 150.7657,38.1343 150.7657,32.0443 C150.7657,25.9553 155.7177,21.0003 161.8057,21.0003 C167.8917,21.0003 172.8457,25.9553 172.8457,32.0443 L172.8457,32.0823 L172.8457,43.2883 L172.8457,43.2843 L172.8457,46.9273 C172.8457,47.1473 173.0257,47.3193 173.2427,47.3193 L177.1807,47.3193 C177.4057,47.3193 177.5787,47.1473 177.5787,46.9273 L177.5787,32.0443 C177.5787,23.3463 170.5007,16.2693 161.8057,16.2693" id="Fill-3" fill="#231F20"></path>
                    <path d="M281.876,16.2683 C274.483,16.2683 268.47,22.2833 268.47,29.6743 L268.47,40.7943 L268.47,46.9273 C268.47,47.1433 268.644,47.3193 268.862,47.3193 L272.806,47.3193 C273.029,47.3193 273.196,47.1433 273.196,46.9273 L273.196,40.3493 L273.196,29.6743 C273.196,24.8903 277.094,20.9973 281.876,20.9973 C286.665,20.9973 290.556,24.8903 290.556,29.6743 L290.556,41.4133 L290.556,46.9273 C290.556,47.1433 290.73,47.3193 290.946,47.3193 L294.89,47.3193 C295.109,47.3193 295.281,47.1433 295.281,46.9273 L295.281,45.9403 L295.281,29.6743 L295.288,29.6743 C295.288,22.2833 289.268,16.2683 281.876,16.2683" id="Fill-5" fill="#231F20"></path>
                    <path d="M198.2813,16.2683 C190.8893,16.2683 184.8763,22.2833 184.8763,29.6743 L184.8763,45.9403 L184.8763,46.9273 C184.8763,47.1433 185.0523,47.3193 185.2693,47.3193 L189.2143,47.3193 C189.4323,47.3193 189.6063,47.1433 189.6063,46.9273 L189.6063,41.4133 L189.6063,29.6743 C189.6063,24.8903 193.4993,20.9973 198.2813,20.9973 C198.5003,20.9973 198.6783,20.8263 198.6783,20.6033 L198.6783,16.6633 C198.6783,16.4433 198.5003,16.2683 198.2813,16.2683" id="Fill-7" fill="#231F20"></path>
                    <path d="M127.6631,16.2683 C123.5771,16.2683 119.7861,18.2333 117.4081,21.5523 C115.0321,18.2333 111.2421,16.2683 107.1571,16.2683 C100.2011,16.2683 94.5411,21.9293 94.5411,28.8853 L94.5411,46.9273 C94.5411,47.1433 94.7141,47.3193 94.9321,47.3193 L98.8761,47.3193 C99.0951,47.3193 99.2681,47.1433 99.2681,46.9273 L99.2681,28.8853 C99.2681,24.5393 102.8111,20.9973 107.1571,20.9973 C111.5051,20.9973 115.0481,24.5393 115.0481,28.8853 L115.0481,46.9273 C115.0481,47.1433 115.2221,47.3193 115.4401,47.3193 L119.3831,47.3193 C119.6021,47.3193 119.7741,47.1433 119.7741,46.9273 L119.7741,28.8853 C119.7741,24.5393 123.3151,20.9973 127.6631,20.9973 C132.0091,20.9973 135.5481,24.5393 135.5481,28.8853 L135.5481,46.9273 C135.5481,47.1433 135.7261,47.3193 135.9461,47.3193 L139.8861,47.3193 C140.1091,47.3193 140.2831,47.1433 140.2831,46.9273 L140.2831,28.8853 C140.2831,21.9293 134.6221,16.2683 127.6631,16.2683" id="Fill-9" fill="#231F20"></path>
                    <path d="M306.918,16.7615 L302.98,16.7615 C302.761,16.7615 302.583,16.9415 302.583,17.1575 L302.583,46.9275 C302.583,47.1435 302.761,47.3195 302.98,47.3195 L306.918,47.3195 C307.142,47.3195 307.315,47.1435 307.315,46.9275 L307.315,17.1575 C307.315,16.9415 307.142,16.7615 306.918,16.7615" id="Fill-11" fill="#231F20"></path>
                    <path d="M225.3936,40.1087 C225.1806,39.9137 224.9376,40.0347 224.8366,40.1287 C222.8686,41.9627 220.2276,43.0837 217.3296,43.0837 C211.2386,43.0837 206.2866,38.1297 206.2866,32.0417 C206.2866,25.9547 211.2386,21.0007 217.3296,21.0007 C220.2276,21.0007 222.8686,22.1237 224.8366,23.9547 C224.9376,24.0487 225.1806,24.1687 225.3936,23.9777 C225.3936,23.9777 227.9326,21.4377 228.1706,21.1977 C228.4116,20.9567 228.2546,20.6817 228.1496,20.5777 C225.3236,17.9067 221.5136,16.2687 217.3296,16.2687 C208.6276,16.2687 201.5536,23.3467 201.5536,32.0417 C201.5536,40.7397 208.6276,47.8137 217.3296,47.8137 C221.5136,47.8137 225.3236,46.1767 228.1496,43.5067 C228.2546,43.4037 228.4116,43.1267 228.1706,42.8877 C227.9326,42.6457 225.3936,40.1087 225.3936,40.1087" id="Fill-13" fill="#231F20"></path>
                    <path d="M31.042,28.9402 C34.536,28.9402 37.379,26.0972 37.379,22.6032 C37.379,19.1092 34.536,16.2662 31.042,16.2662 C27.548,16.2662 24.704,19.1092 24.704,22.6032 C24.704,26.0972 27.548,28.9402 31.042,28.9402" id="Fill-15" fill="#2859BE"></path>
                    <g id="Group-19" transform="translate(49.000000, 0.083500)">
                        <mask id="mask-2" fill="white">
                            <use xlink:href="#path-1"></use>
                        </mask>
                        <g id="Clip-18"></g>
                        <path d="M6.7471,13.5901 C10.2411,13.5901 13.0841,10.7471 13.0841,7.2531 C13.0841,3.7591 10.2411,0.9161 6.7471,0.9161 C3.2531,0.9161 0.4091,3.7591 0.4091,7.2541 C0.4091,10.7481 3.2531,13.5901 6.7471,13.5901" id="Fill-17" fill="#2859BE" mask="url(#mask-2)"></path>
                    </g>
                    <path d="M55.7471,50.4094 C52.2531,50.4094 49.4091,53.2534 49.4091,56.7474 C49.4091,60.2414 52.2531,63.0834 55.7471,63.0834 C59.2411,63.0834 62.0841,60.2414 62.0841,56.7454 C62.0841,53.2514 59.2411,50.4094 55.7471,50.4094" id="Fill-20" fill="#2859BE"></path>
                    <g id="Group-24" transform="translate(0.000000, 0.083500)">
                        <mask id="mask-4" fill="white">
                            <use xlink:href="#path-3"></use>
                        </mask>
                        <g id="Clip-23"></g>
                        <path d="M6.3379,0.9163 C2.8429,0.9163 -0.0001,3.7593 -0.0001,7.2543 L-0.0001,22.5203 C-0.0001,26.0143 2.8429,28.8563 6.3379,28.8563 C9.8309,28.8563 12.6749,26.0143 12.6749,22.5203 L12.6749,7.2533 C12.6749,3.7593 9.8309,0.9163 6.3379,0.9163" id="Fill-22" fill="#2859BE" mask="url(#mask-4)"></path>
                    </g>
                    <g id="Group-27" transform="translate(0.000000, 35.083500)">
                        <mask id="mask-6" fill="white">
                            <use xlink:href="#path-5"></use>
                        </mask>
                        <g id="Clip-26"></g>
                        <path d="M6.3379,0.0584 C2.8429,0.0584 -0.0001,2.9024 -0.0001,6.3964 L-0.0001,21.6634 C-0.0001,25.1584 2.8429,27.9994 6.3379,27.9994 C9.8309,27.9994 12.6749,25.1584 12.6749,21.6624 L12.6749,6.3964 C12.6749,2.9024 9.8309,0.0584 6.3379,0.0584" id="Fill-25" fill="#2859BE" mask="url(#mask-6)"></path>
                    </g>
                    <path d="M31.1358,35.1419 C27.6418,35.1419 24.7998,37.9859 24.7998,41.4799 L24.7998,56.7469 C24.7998,60.2419 27.6418,63.0829 31.1358,63.0829 C34.6298,63.0829 37.4738,60.2419 37.4738,56.7459 L37.4738,41.4799 C37.4738,37.9859 34.6298,35.1419 31.1358,35.1419" id="Fill-28" fill="#2859BE"></path>
                    <path d="M55.7471,18.072 C52.2531,18.072 49.4091,20.915 49.4091,24.409 L49.4091,39.675 C49.4091,43.169 52.2531,46.013 55.7471,46.013 C59.2411,46.013 62.0851,43.169 62.0851,39.675 L62.0851,24.408 C62.0851,20.914 59.2411,18.072 55.7471,18.072" id="Fill-30" fill="#2859BE"></path>
                </g>
            </g>
        </g>
    </g>
</svg>